<svg xmlns="http://www.w3.org/2000/svg" viewBox="0 0 1867.68 575.03"><defs><style>.cls-1{fill:#f0f5f7;}.cls-2{fill:#333;}</style></defs><g id="Layer_2" data-name="Layer 2"><g id="Layer_1-2" data-name="Layer 1"><rect class="cls-1" width="1867.68" height="575.03" rx="137.18"/><path class="cls-2" d="M735.6,147.05c20.67,0,32.88,12.89,32.88,34.81s-12.17,34.87-32.88,34.87H712.18V147.05ZM720.87,208.9H735c15.79,0,24.58-9.65,24.58-26.94s-8.74-27.09-24.58-27.09H720.87Z"/><path class="cls-2" d="M780.43,191.62c0-16,9.36-26,23.27-26s23.23,10,23.23,26-9.37,26-23.23,26S780.43,207.6,780.43,191.62Zm38,0c0-11.83-5.79-18.59-14.68-18.59S789,179.79,789,191.62s5.85,18.59,14.73,18.59S818.38,203.45,818.38,191.62Z"/><path class="cls-2" d="M890.2,216.73h-8.55l-11.34-38.87h-.2l-11.3,38.87h-8.54l-14.06-50.22h8.36l10,40.85h.2l11.34-40.85h8.12l11.39,40.85h.19l10-40.85h8.3Z"/><path class="cls-2" d="M916,166.51h7.92v8h.19c2.81-5.4,8.16-8.88,15.94-8.88,11,0,17.38,7.1,17.38,18.49v32.6H949v-31.1c0-8.11-3.81-12.55-11.54-12.55-7.92,0-13.09,5.6-13.09,14.1v29.55H916Z"/><path class="cls-2" d="M973.48,147.05h8.4v69.68h-8.4Z"/><path class="cls-2" d="M995.71,191.62c0-16,9.37-26,23.28-26s23.22,10,23.22,26-9.37,26-23.22,26S995.71,207.6,995.71,191.62Zm38,0c0-11.83-5.79-18.59-14.67-18.59s-14.73,6.76-14.73,18.59,5.84,18.59,14.73,18.59S1033.66,203.45,1033.66,191.62Z"/><path class="cls-2" d="M1053.58,202.53c0-8.59,6.61-14,18.2-14.68l14.39-.82v-4.2c0-6.13-4.06-9.8-11-9.8-6.47,0-10.53,3-11.59,8h-8.11c.58-8.69,8-15.35,19.89-15.35s19.22,6.37,19.22,16.37v34.72h-8v-8.65h-.2a18.31,18.31,0,0,1-16.13,9.52C1060.29,217.6,1053.58,211.56,1053.58,202.53Zm32.59-4.88v-4.1l-13.42.82c-6.76.43-10.63,3.43-10.63,8.16s4,7.92,10.05,7.92C1080.09,210.45,1086.17,204.9,1086.17,197.65Z"/><path class="cls-2" d="M1107.72,191.62c0-15.74,8.65-26,21.3-26,7.19,0,13,3.52,16,9h.19V147.05h8.41v69.68h-8v-8.5h-.14a18,18,0,0,1-16.23,9.37C1116.42,217.6,1107.72,207.36,1107.72,191.62Zm8.6,0c0,11.39,5.6,18.59,14.48,18.59,8.65,0,14.44-7.34,14.44-18.59S1139.45,173,1130.8,173C1121.92,173,1116.32,180.27,1116.32,191.62Z"/><path class="cls-2" d="M1192.65,191.62c0-16,9.37-26,23.27-26s23.23,10,23.23,26-9.37,26-23.23,26S1192.65,207.6,1192.65,191.62Zm37.95,0c0-11.83-5.79-18.59-14.68-18.59s-14.73,6.76-14.73,18.59,5.85,18.59,14.73,18.59S1230.6,203.45,1230.6,191.62Z"/><path class="cls-2" d="M1252.54,166.51h7.92v8h.19c2.8-5.4,8.16-8.88,15.94-8.88,11,0,17.38,7.1,17.38,18.49v32.6h-8.4v-31.1c0-8.11-3.81-12.55-11.54-12.55-7.92,0-13.09,5.6-13.09,14.1v29.55h-8.4Z"/><path class="cls-2" d="M1345.92,154.39v12.12h9.75v6.9h-9.75v29.84c0,4.59,1.93,6.67,6.23,6.67a34.56,34.56,0,0,0,3.47-.24v7a30.12,30.12,0,0,1-5.31.38c-9.22,0-12.8-3.76-12.8-13.42V173.41H1330v-6.9h7.48V154.39Z"/><path class="cls-2" d="M1370,147.05h8.4v27.47h.2c2.8-5.6,8.3-8.88,15.93-8.88,11,0,17.67,7.44,17.67,18.64v32.45h-8.4V185.82c0-8-4-12.74-11.88-12.74-8.35,0-13.52,5.69-13.52,14.38v29.27H1370Z"/><path class="cls-2" d="M1469.37,202.34c-1.44,8.79-9.94,15.26-20.9,15.26-14.39,0-23.13-10-23.13-25.79,0-15.6,8.88-26.17,22.74-26.17,13.57,0,21.92,9.85,21.92,25.06v3.19h-36v.48c0,9.61,5.65,15.93,14.68,15.93,6.37,0,11.06-3.23,12.46-8Zm-35.34-15h27.28c-.19-8.4-5.46-14.39-13.38-14.39S1434.56,179,1434,187.32Z"/><path class="cls-2" d="M755.43,272.56h21.74l47.06,129.61h-21.1l-11.86-35H741.33l-11.94,35H708.28ZM746.72,351h39.07l-19.31-57h-.36Z"/><path class="cls-2" d="M845.38,307.68h19.41v16.25h.44c5.66-11.22,16.08-18.05,29.56-18.05,24.07,0,39.52,18.86,39.52,49V355c0,30.09-15.54,49-39.26,49-13.38,0-24.25-6.82-29.82-17.78h-.44V433.6H845.38ZM914.55,355v-.09c0-20.12-9.62-32.42-24.79-32.42-14.74,0-25.06,12.75-25.06,32.42V355c0,19.58,10.41,32.34,25.06,32.34C905,387.35,914.55,375,914.55,355Z"/><path class="cls-2" d="M958.51,307.68h19.4v16.25h.45c5.66-11.22,16.08-18.05,29.55-18.05,24.07,0,39.52,18.86,39.52,49V355c0,30.09-15.54,49-39.25,49-13.38,0-24.25-6.82-29.82-17.78h-.45V433.6h-19.4ZM1027.67,355v-.09c0-20.12-9.61-32.42-24.79-32.42-14.73,0-25.06,12.75-25.06,32.42V355c0,19.58,10.42,32.34,25.06,32.34C1018.15,387.35,1027.67,375,1027.67,355Z"/><path class="cls-2" d="M1114.69,367.67l-.09-1.34h19.58l.18,1.17c1.8,11.94,13.75,19.4,31.08,19.4s28.3-7.82,28.3-19.94v-.09c0-10.42-7.1-16.08-24.26-19.85l-14.1-3c-25.42-5.39-37.72-17.06-37.72-36.28v-.09c.09-22.1,19.58-37.28,47-37.28,27,0,45.54,14.73,46.89,36.47l.09,1.52H1192l-.09-1.25c-1.8-12-12.22-19.31-27.58-19.31-16.07.09-26.31,7.72-26.31,19V307c0,9.7,7.36,15.63,23.53,19.13l14.19,3c26.77,5.66,38.26,16.53,38.26,36.56v.09c0,23.62-18.68,38.62-49.4,38.62C1135.53,404.32,1116.31,390.49,1114.69,367.67Z"/><path class="cls-2" d="M1244.44,377.29V323.12h-13.57V307.68h13.57V283.06h19.85v24.62H1282v15.44h-17.69v53c0,9.61,4.31,12.48,12.48,12.48a40.49,40.49,0,0,0,5.21-.36v15a64.87,64.87,0,0,1-9.88.81C1253.42,404.05,1244.44,396.15,1244.44,377.29Z"/><path class="cls-2" d="M1300.7,354.92v-.18c0-30.18,17.88-48.86,44.73-48.86s44.91,18.59,44.91,48.86v.18c0,30.45-17.78,49.13-44.82,49.13S1300.7,385.28,1300.7,354.92Zm69.79,0v-.18c0-20.66-9.88-32.6-25.06-32.6-14.91,0-24.88,11.94-24.88,32.6v.18c0,20.93,9.88,32.87,25.06,32.87S1370.49,375.76,1370.49,354.92Z"/><path class="cls-2" d="M1414.54,307.68h19.4v16.16h.45c3.06-11,11-18,21.74-18a37.56,37.56,0,0,1,6.74.72v18c-1.53-.63-4.94-1.08-8.72-1.08-12.48,0-20.21,8.18-20.21,22.28v56.32h-19.4Z"/><path class="cls-2" d="M1475.84,355.28v-.09c0-29.55,17.07-49.31,43.56-49.31s42.76,19,42.76,47.42v6.56h-66.92c.36,17.88,10.15,28.29,25.6,28.29,11.5,0,19.13-5.92,21.56-13l.27-.72h18.41l-.18,1c-3.06,15-17.61,28.65-40.51,28.65C1492.64,404.05,1475.84,385.1,1475.84,355.28Zm19.67-9.16h47.42c-1.61-16.35-10.77-24.34-23.44-24.34S1497.22,330.31,1495.51,346.12Z"/><path class="cls-2" d="M535.42,246.87q-18.15,12.62-24.68,25.34a59.46,59.46,0,0,0-6.52,27.54,57.64,57.64,0,0,0,3.87,21.47A70.8,70.8,0,0,0,519,339.69q7.08,8.74,23.68,17.37-6.42,18.81-19.92,38.39t-24.45,27.77q-11,8.19-20.91,8.19-8,0-21.46-5.09l-4.2-1.55-6.86-2.88a55.76,55.76,0,0,0-16.15-2.21,62,62,0,0,0-20.36,4l-5.31,2-6.64,2.66a43.57,43.57,0,0,1-15.93,3.1q-16.81,0-36.07-23.57a173.29,173.29,0,0,1-29.09-50.67,159.19,159.19,0,0,1-9.85-54.76q0-35.62,20.25-59.3t55-23.67a60.5,60.5,0,0,1,23.68,4.64l5.09,2,5.31,2.22q7.08,2.88,11.28,2.87a33.71,33.71,0,0,0,12.39-2.43l7.08-2.66,5.09-2a77.53,77.53,0,0,1,27.44-4.64Q513.74,219.44,535.42,246.87ZM479.21,141.43c.3,3.25.45,5.75.45,7.52q0,13.73-8,28.33A60.21,60.21,0,0,1,450.89,200,52.14,52.14,0,0,1,422.57,208a70.53,70.53,0,0,1-.66-7.74q0-11.73,7-24.67a67.65,67.65,0,0,1,18.91-22,59.83,59.83,0,0,1,27-11.51Z"/></g></g></svg>