<svg xmlns="http://www.w3.org/2000/svg" xmlns:xlink="http://www.w3.org/1999/xlink" viewBox="0 0 380 188.84"><defs><style>.cls-1{fill:none;}.cls-2{fill:url(#VT_Halftone_5);}.cls-3{fill:#fff;}.cls-4{fill:#61e268;}</style><pattern id="VT_Halftone_5" data-name="VT Halftone 5" width="5.04" height="5.04" patternUnits="userSpaceOnUse" viewBox="0 0 5.04 5.04"><rect class="cls-1" width="5.04" height="5.04"/><circle cx="3.78" cy="5.04" r="0.8"/><circle cx="1.26" cy="5.04" r="0.8"/><circle cx="5.04" cy="2.52" r="0.8"/><circle cx="2.52" cy="2.52" r="0.8"/><circle cy="2.52" r="0.8"/><circle cx="3.78" r="0.8"/><circle cx="1.26" r="0.8"/></pattern></defs><g id="Layer_2" data-name="Layer 2"><g id="OBJECTS"><path d="M207.84,30.12a18.41,18.41,0,0,1,.13-3.49c1.08-4.74,4.14-8.15,8-10.79,3.59-2.45,7.14-5,11.3-6.48C230.81,8.13,234.39,7,238,6a53.59,53.59,0,0,1,15.9-1.73,22.71,22.71,0,0,1,4.6,1.13l1.09.29c.66.19,1,.12,1.47-.61a12,12,0,0,1,5.6-4.84c1.15-.46,1.56-.29,1.92.77a12.84,12.84,0,0,0-5.39,4.32v0c.87,0,1.74,0,2.61.13a15,15,0,0,1,2.6.4c.3.08.48.56.72.86-.32.2-.63.56-1,.58-1.25.07-2.51,0-3.95,0,5.84,5.05,9.76,10.8,7.67,19.1,2.91,2.23,3.42,5.63,3.45,9.1a13.79,13.79,0,0,1-3.49,9.44,14.61,14.61,0,0,1-7.22,4.88,1.35,1.35,0,0,0-.78.94,50.58,50.58,0,0,1-2.34,8.7,19.13,19.13,0,0,0-.61,5.09c-.09,3,0,6,0,9.14a6.32,6.32,0,0,0,1-.35c2.35-1.48,4.45-.76,5.1,1.92a43.15,43.15,0,0,1,.85,5.77c.14,1.56.44,1.92,2.44,2.66,4.24,1.58,8.45,3.23,12.68,4.82,3.51,1.32,7.09,2.45,10.52,3.94a69.29,69.29,0,0,1,7.27,4c1.36.8,2.57,1.83,3.91,2.65,2,1.25,2.75,3.26,3.24,5.41.15.65.35,1.28.57,2.1a16,16,0,0,0,2.84-2.2,4.53,4.53,0,0,0,.9-2.62c.05-2.12-.14-4.25-.23-6.37,0-1.22-1-1.2-1.86-1.42a62.67,62.67,0,0,1-7-2,18.05,18.05,0,0,1-8.43-7.28A31.51,31.51,0,0,1,291,75.58a49.33,49.33,0,0,1-1.83-10.17A26.55,26.55,0,0,1,290,57c.15-.52.25-1.05.37-1.57a3,3,0,0,1-1.05-3.82c1.21-3.22,2.59-6.42,4.94-8.93a53.51,53.51,0,0,1,6.94-6.07,29.68,29.68,0,0,1,5.95-3.5c4.38-1.92,8.91-3.36,13.79-3.15,1.33.06,2.78-.22,3.94.25,2.63,1.05,5.46,1.13,8.09,2,2.88,1,5.78,1.91,8.56,3.12,3.84,1.67,5.9,4.89,7.06,8.79.83,2.81.45,5.6,0,8.39-.22,1.49-.46,3-.79,4.45a1.06,1.06,0,0,0,.49,1.25c3.16,2.51,3.72,5.8,2.88,9.55a15.84,15.84,0,0,1-2.94,5.87l.16.25c1-.54,2-1.08,3-1.64.5-.28,1-.82,1.54-.15s0,.94-.43,1.36c-1.05,1.11-2.68,1.93-5.43,2.53.61.83,1.17,1.63,1.76,2.41a8.16,8.16,0,0,1,1.49,8,5.59,5.59,0,0,1-2.74,3.29c-1.72.9-3.57,1.58-5.36,2.35a3.68,3.68,0,0,0-.59.18,8.81,8.81,0,0,1-7.47,1.26q1,2.59,2,5.19c.14.36.42.84.3,1.11-.49,1,.25,1.17.89,1.36,3.71,1.11,7.42,2.18,11.14,3.28.56.16,1.09.42,1.66.57a39.56,39.56,0,0,1,4.23,1,32.57,32.57,0,0,1,3.74,1.94c.6-.89,1.26-2,2-3s1.55-1.63,2.28-2.49a1.44,1.44,0,0,1,2.13-.22,2.77,2.77,0,0,1,.66,2.09,31,31,0,0,1-.87,3.76,1.57,1.57,0,0,0,.08.55c1.11-1.68,2.14-3.31,3.24-4.9.64-.93,1.35-1.81,2.07-2.68a1.72,1.72,0,0,1,2.11-.55,2.55,2.55,0,0,1,1,1.61c.39,1.82-.48,3.42-1.05,5.06-.43,1.28-.84,2.56-1.26,3.83l-.2,0,.07.1.09-.19a40.25,40.25,0,0,1,3.08-3.43,7,7,0,0,1,2.71-1.37c1.11-.31,1.8.3,1.79,1.43a6.29,6.29,0,0,1-.4,2.07,32.51,32.51,0,0,1-4.73,7.52l-.68.93c1.47-.77,2.94-1.6,4.46-2.29a4.65,4.65,0,0,1,2.06-.32c1,0,1.47,1.12,1.16,2.33-.49,1.91-1.87,3.24-3,4.71-2.38,3-4.8,5.91-7.12,8.92a3.45,3.45,0,0,0-.32,1.9c0,3.1.08,6.21-.09,9.31-.15,2.65-.67,5.29-.94,7.94-.35,3.65-.54,7.32-.95,11a31.94,31.94,0,0,1-1.86,7.67c-1,2.65-1.85,5.37-2.75,8.06,0,.08,0,.19-.07.24-2,2.3-1.28,4.67-.29,7.12a33.56,33.56,0,0,1,1.13,4.1H334.71c.11-3.88.21-7.77.34-11.65s.41-8,.41-11.94c0-5.51-.26-11-.3-16.55-.05-6,0-12.11,0-18.17,0-3.81.2-7.62.25-11.43,0-2.16-.09-4.31-.14-6.46a4.86,4.86,0,0,0-.9,1.54,2.49,2.49,0,0,1-3,1.65,15.87,15.87,0,0,1-4.27-1.75,59.88,59.88,0,0,1-5-3.94c0,2.63.08,5.21,0,7.79-.11,2.85-.55,5.68-.56,8.52,0,4.47.18,8.94.35,13.4.16,4.14.32,8.29.65,12.42.38,4.73.94,9.44,1.46,14.16s1.11,9.61,1.7,14.41c.33,2.68.73,5.34,1.1,8h-2.28C324,183.9,323.27,179,322.7,174c-.41-3.52-.68-7.06-1-10.58-.45-4.79-1-9.56-1.34-14.35s-.56-9.47-.68-14.2c-.1-3.76,0-7.51.08-11.27.09-4.12.26-8.23.38-12.35,0-.16-.17-.33-.35-.66-.67.76-1.22,1.41-1.8,2-1.38,1.5-2.6,3.19-4.69,3.83-1.16.36-2,.08-2.28-1a19.8,19.8,0,0,1-.64-3.65c-.11-1.4,0-2.81,0-4.43-1.15.89-2.21,1.63-3.17,2.49a1.89,1.89,0,0,0-.6,1.33c.1,2.38.2,4.77.51,7.13.57,4.34,1.25,8.66,2,13,.57,3.42,1.28,6.81,1.85,10.23s1,6.82,1.53,10.22q.66,4.26,1.41,8.5c.54,3.11,1.07,6.23,1.72,9.32.81,3.79,1.74,7.55,2.61,11.33.62,2.65,1.23,5.31,1.84,8H306.33c-.17-2.2-.28-4.41-.52-6.61-.18-1.69-.53-3.35-.78-5-.63-4.43-1-8.91-2.53-13.16-.52-1.46-1.2-2.87-1.81-4.3l-.31.11c.11,2.09.32,4.17.33,6.26,0,4.52,0,9-.1,13.55q0,4.59-.11,9.18H278.45a4.34,4.34,0,0,0,.11-.61c.13-4,.23-7.95.37-11.93.12-3.32.32-6.65.43-10,.1-3,.06-5.95.19-8.92.17-3.76.43-7.52.68-11.28s.49-7.29.79-10.93a40.86,40.86,0,0,1,2.43-11.91c.1-.24-.08-.62-.19-.92-.43-1.12-.95-2.21-1.31-3.36-.11-.36.06-1.12.3-1.22.66-.26.86.32,1.07.87a5.41,5.41,0,0,0,.81,1.14l0,.07,0,0c.08-1.86.11-3.73.27-5.58a1.2,1.2,0,0,1,.87-.82c.28,0,.69.47.86.83s0,.72,0,1.1v2.82a75.48,75.48,0,0,0,20.71-10.55c-.29-.67-.52-1.19-.75-1.7-.63-1.43-.82-3.09-2.11-4.17a39.12,39.12,0,0,0-3.12-2.49,47.78,47.78,0,0,0-10.73-5.82c-4.2-1.51-8.31-3.3-12.44-5-3.07-1.26-6.13-2.57-9-3.78-.84,1.59-1.6,3.11-2.45,4.59A19.37,19.37,0,0,1,260,95.36c-1.63,1.09-2.19.88-2.71-1.09,0,0-.12-.06-.26-.13-.11.67-.2,1.31-.33,2-.61,3-1.27,6-1.82,9.06-1.07,5.88-1.65,11.86-3.42,17.59a17.5,17.5,0,0,1-2.76,6c-1.15,1.41-1,2.75-1.25,4.14,1,0,1.82,0,2.66,0,2.23,0,3.5,1,3.85,3.21a47.91,47.91,0,0,1,.46,4.95c.15,2.67.21,5.35.32,8,.11,2.51.25,5,.35,7.53a1.69,1.69,0,0,1-1.39,1.91c-1.87.51-3.7,1.15-5.61,1.75.22,4.56.38,9.21.7,13.85.34,4.94.82,9.86,1.24,14.78h-2.28c-.33-3.45-.76-6.89-1-10.35-.25-4.43-.33-8.87-.45-13.31,0-1.61,0-3.23,0-4.83a12,12,0,0,1-2.14.11c-1.59-.2-3.16-.49-4.73-.82-.26,0-.44-.49-.66-.75a11.3,11.3,0,0,1,.92-.67c.12-.07.33,0,.5,0,3.9.77,7.63-.26,11.38-1a1.06,1.06,0,0,0,1-1.31c-.18-2.18-.34-4.36-.42-6.55-.13-4.15-.2-8.31-.3-12.46,0-.92,0-1.91-1.17-2.18a8.65,8.65,0,0,0-2.22-.12c-1.33,0-2.66.11-4,.23q-3.24.28-6.47.67c-.57.07-1.07.24-1,1.12.25,2.61.41,5.22.54,7.84.13,2.79.13,5.59.26,8.39.1,1.95.36,3.89.46,5.84,0,.32-.41.67-.63,1-.26-.26-.72-.5-.75-.79-.39-3.27-.8-6.55-1-9.84-.19-2.9-.09-5.82-.19-8.73a7,7,0,0,0-.5-3,1.66,1.66,0,0,1-.15-1.7,4.15,4.15,0,0,1,3.74-2.51h4c.13-1.25.26-2.37.36-3.48a.86.86,0,0,0-.14-.57c-1.46-1.73-1.94-3.9-2.49-6q-1.86-7-3.4-14c-.67-3.1-1.1-6.25-1.57-9.39-.2-1.37-.22-2.77-.34-4.43-1.11,1.24-2,2.31-3,3.35-.49.54-1,1.46-1.81.94s-1.95-.84-1.73-2.27c.31-2.06.48-4.15.71-6.23a15.52,15.52,0,0,1-1.79.72c-2.44.67-4.92,1.21-7.34,1.94-7.43,2.26-15.08,3.37-22.75,4.4a99.1,99.1,0,0,0-11.08,2.06c-5.65,1.43-11.23,3.16-16.84,4.74a9,9,0,0,1-1.54.17c.24,1.16.46,2.34.74,3.5a.84.84,0,0,0,.56.51,2.81,2.81,0,0,1,2.29,2.12,4.41,4.41,0,0,0,3.32,3.14c3.61,1,7.1,2.45,10.72,3.41a58.7,58.7,0,0,0,10.65,2c3.83.29,7.65.82,11.61,1.26a15.08,15.08,0,0,0-1.53-5.3c-.16-.29,0-.75,0-1.14.34,0,.8-.11,1,.06a2.93,2.93,0,0,1,.94,1.28c1,3.5,2,7,2.85,10.54,1.12,4.49,2,9.05,3.26,13.5s2.75,8.51,4.16,12.76c1,3,1.9,6,3,8.92s1.25,6.14,3.21,8.8c.87,1.19,1,2.89,1.52,4.35,1,3.06,2.09,6.11,3.11,9.17.54,1.61,1,3.25,1.51,4.87h-2.28c-.79-2.19-1.61-4.38-2.37-6.58-.44-1.28-.8-2.59-1.19-3.88-1.13-3.83-2.15-7.7-3.41-11.48-1.55-4.63-3.28-9.2-4.95-13.78-.58-1.59-1.23-3.17-1.79-4.61a101.28,101.28,0,0,1-18.76,3.3c0,1.38.09,2.79,0,4.18q-.42,5.58-1,11.14a51.1,51.1,0,0,1-.91,5.76c-.6,2.73-1.48,5.39-2,8.13a63.94,63.94,0,0,1-2.59,7.82h-2.53c.43-1.22.86-2.45,1.36-3.84-2,.17-3.83.39-5.65.44-2.63.09-5.26,0-7.89.08a1.2,1.2,0,0,0-.81.31c-.86,1.06-1.86.76-2.27-.4a23,23,0,0,1-.93-3.63,67.55,67.55,0,0,1-.78-13c0-1.34.27-2.76-.76-3.92a1.29,1.29,0,0,1-.25-.7,45.85,45.85,0,0,1,.48-11.93c.07-.44.54-.83.83-1.24l0,.07.06,0-.11-.47,0,0h0c.1-.75.28-.94,1.26-1,2.59-.18,5.18-.32,7.77-.48-.32-2.08,0-2.87,1.3-3,1.88-.23,2.7.49,3,2.68,1.19.11,2.39.23,3.6.32a4.65,4.65,0,0,1,3.9,2.91c.89,1.76.75,3.66.86,5.51.07,1.4.16,3.07-.5,4.17-.79,1.32-.52,2.44-.47,3.69,0,.42,0,.84,0,1.25.07,2,.16,4,.24,6l.46,0c.67-4.28,1.35-8.56,2-12.84a2.73,2.73,0,0,0-.17-.86,6.72,6.72,0,0,1-.35-1.83c.25-2.41.67-4.8.91-7.22.19-1.94.17-3.89.3-5.84,0-.32.2-.79.44-.89s.69.08,1,.25a14.63,14.63,0,0,1,1.41,1.08l.09.36c-1.56.26-.69,1.33-1.05,2v.38h.08l-.07-.39a2.1,2.1,0,0,0,.52-.33,12.76,12.76,0,0,1,1.17-1.61c.23-.23.75-.18,1.13-.25a4,4,0,0,1-.07,1.09,5.51,5.51,0,0,1-.55.84c-.61,1.1-1.19,2.2-1.93,3.58l17.78-3.29c-.15-.44-.31-.87-.44-1.31-.87-2.92-1.82-5.83-2.58-8.78-.87-3.39-1.69-6.81-2.28-10.26-.52-3-.36-3.05-3.27-3.74a8.71,8.71,0,0,0-.86-.17c-4.54-.51-9.11-.89-13.62-1.59a69.4,69.4,0,0,1-8.95-2.16c-2.74-.81-5.4-1.89-7.86-2.77a9,9,0,0,1-.52,1.65,9.93,9.93,0,0,1-1.25,1.72,30.5,30.5,0,0,1-8.16,6.93,1.5,1.5,0,0,1-2.06-.22,28.75,28.75,0,0,1-2.3-2.76c-.78-1.14-1.4-2.39-2.08-3.6-.19,2.73-.17,5.4-.2,8.06-.06,5.88-.08,11.76-.25,17.64-.22,8.05.13,16.09.59,24.12.22,3.84.46,7.68.56,11.53.07,2.55-.1,5.11-.17,7.66h-1.52a211.54,211.54,0,0,0-.72-22.37c-.32-4.81-.47-9.64-.53-14.46-.05-3.55.19-7.1.24-10.66.06-5.53.07-11.07.1-16.61v-2.69a26.37,26.37,0,0,0-1.23,3.78,3.21,3.21,0,0,1-4.58,2.11,29.17,29.17,0,0,1-9.83-6.48,1.25,1.25,0,0,0-.71-.38c-1.39-.09-1.49-.18-1.34-1.68-2.2,1.22-4.28,2.52-6.48,3.56a66.72,66.72,0,0,1-6.82,2.71c-1.44.5-3,1.09-4.49.24l-.17.07.19-.1a7.52,7.52,0,0,0-.15,1.32c.12,1.75.3,3.49.42,5.24a35.18,35.18,0,0,0,.18,3.71c.28,1.53.82,3,1.2,4.53s.66,2.85,1,4.44a24.34,24.34,0,0,0,5.57-5.41c1.24-1.6,2.36-3.33,4.27-4.27a3.6,3.6,0,0,1,3.43-.05c.85.47,1.27,2.14,1,3.3a9,9,0,0,1-.75,2.11c-2.1,3.52-4.3,7-6.37,10.53-1.71,2.91-3.29,5.89-4.89,8.85a2.53,2.53,0,0,0-.19,1.1c-.11,3.28-.22,6.55-.28,9.83,0,.93.22,1.87.25,2.81.08,2.73,0,5.47.21,8.2.15,2.25.54,4.48.83,6.72h-1.52c-.45-2.92-.92-5.85-1.34-8.78-.18-1.29-.23-2.59-.35-3.94a20,20,0,0,1-9.23,1.81c.18,3.73.35,7.32.53,10.91h-2.28c0-3.39,0-6.79.06-10.19,0-.79-.27-.88-1-1-1.7-.3-3.35-.85-5-1.3h-.06l.08,0a2.51,2.51,0,0,0-.18.57q-.24,6-.46,11.91h-1.78c.06-5.32.16-10.65.16-16a36.13,36.13,0,0,0-.34-7,48,48,0,0,0-2.24-6.64,2.53,2.53,0,0,0-.11,1c.12,4.39.25,8.78.35,13.18,0,2.07.12,4.15.06,6.22-.09,3.07-.27,6.15-.41,9.22h-2c.06-1.51.15-3,.17-4.54q.1-7.2.16-14.39c0-2.71,0-5.43,0-8.13a25.62,25.62,0,0,1,.46-4.73,3,3,0,0,0,.06-1.71c-1.51-4.79-3-9.57-4.49-14.38-.67-2.18-1.26-4.4-1.74-6.63a2.17,2.17,0,0,1,3.47-2.24c.51.35,1,.75,1.48,1.13l.08,0-.09,0a11.65,11.65,0,0,0,0-1.45c-.45-2.49-1.22-4.94-.34-7.6L83.5,121.78a16.75,16.75,0,0,1-1.93,3c-2.48,2.53-5.1,4.91-7.64,7.36a1.41,1.41,0,0,0-.47.77c-.19,4.51-.43,9-.47,13.54a2.93,2.93,0,0,1-1.3,2.74,18,18,0,0,1-4.56,2c-2.11.52-4,.09-4.07-3.07,0-1.75.08-3.51.16-5.26.19-4.26.4-8.51.59-12.77a10.89,10.89,0,0,0-.13-1.39l.06,0,0-.05c-.33,1.25-.75,2.49-1,3.75-.26,1.55-.88,2-2.45,1.76a9.64,9.64,0,0,1-3.76-1.57c-4.64-3.14-9.26-6.27-12.86-10.86-3.41,1.86-6.76,3.79-10.21,5.53q-4.07,2.05-8.32,3.71c-2.75,1.07-5.65,1.78-8.41,2.84-1.76.68-3.59,1.41-4.79,3-1.67,2.25-3.32,4.51-4.93,6.79a18.86,18.86,0,0,0-3.2,7.55,69.55,69.55,0,0,0-1.18,14.9c.08,2.28,0,4.61,1.58,6.56.16.2,0,.73-.11,1.06a18.9,18.9,0,0,1-.82,1.72c2.31.21,4.37.25,6.36.63a75.62,75.62,0,0,0,9.49.81c3,.19,6.12-.32,9.14.6a1.51,1.51,0,0,0,.06-.36c-.12-4.59-.3-9.18-.35-13.76,0-2.65.21-5.3.25-7.94,0-.84.16-1.71,1-1.67s.58,1,.57,1.66c0,2.29-.16,4.59-.12,6.88.07,3.17.25,6.35.38,9.52.12,2.71.21,5.43.34,8.14.14,3,.3,5.92.45,8.88H29.08l-.46-7.25a6,6,0,0,1-1.36,1.08,21.25,21.25,0,0,1-11.38,1.23,11.94,11.94,0,0,0-3.12-.31,34.89,34.89,0,0,0-4.25,1.11l.29,4.14H7l-.38-4.42.07.06,0-.07A37.21,37.21,0,0,1,3,183.68c-2-.6-2.84-1.63-2-3.82a18.45,18.45,0,0,0,1-5.68c0-1-.71-2.09-1-3.15a16.09,16.09,0,0,1-.65-2.89,40.7,40.7,0,0,1,.26-11.08c.62-3.76.78-7.68,2.82-11.07q1.55-2.58,3.32-5c1.59-2.18,3.28-4.31,5-6.43a4.9,4.9,0,0,1,1.24-1c4-2.61,8.52-3.66,13-5,1.23-.36,2.41-.92,3.62-1.39l0,0c1-.48,2.07-.94,3.09-1.45l10-5.14c-.84-1.28-.18-2.49.25-3.69s1-2.46,1.48-3.72a3.15,3.15,0,0,1,3.07-2.43c.26,0,.68-.57.72-.91.42-3.61.85-7.22,1.14-10.84a45.67,45.67,0,0,0,0-5.85c0-.47-.61-.92-.94-1.37-2.47,3.68-6,4.56-9.94,4A11.61,11.61,0,0,1,29.51,89a15.44,15.44,0,0,1-1.45-9.27,9,9,0,0,1,2.35-5c-.57-.4-1.12-.81-1.69-1.2a19.75,19.75,0,0,1-6.21-7.36,19.25,19.25,0,0,1-2.32-10.3,13.2,13.2,0,0,1,3.36-8c.51-.6,1-1.18,1.6-1.83a14.78,14.78,0,0,1-6.92-4s-.08-.05-.09-.09c-.11-.59-.51-1.45-.26-1.73.58-.66,1,.16,1.5.49,1.44,1,2.92,1.83,4.39,2.74l.07.18.08-.12-.18,0a25.86,25.86,0,0,1-2.88-7.31,3.41,3.41,0,0,1,0-1.49c.06-.27.45-.66.66-.64a1.08,1.08,0,0,1,.71.65c.7,2,1.28,4,2,5.91A15.35,15.35,0,0,0,25.71,43c1.11-3,2-5.9,3.26-8.61A38.26,38.26,0,0,1,38,22.75a31.9,31.9,0,0,1,12.07-7.16c.92-.28,1.89-.39,2.83-.6a5.45,5.45,0,0,0,.76-.3l0,0c.91,0,1.81.11,2.72.09a18,18,0,0,1,8.79,2.34c3.7,1.94,7.28,4.11,11,6.09a17.08,17.08,0,0,0,6.21,1.87A3.76,3.76,0,0,0,84,24.62a1.58,1.58,0,0,1,2.11.45,2.5,2.5,0,0,1-.09,2,14.4,14.4,0,0,1-6.2,6.54c.87-.08,1.73-.14,2.6-.23s1.6-.29,2.21.46a1.74,1.74,0,0,1,0,2.09c-.58,1.16-1.2,2.29-1.79,3.42,1,1.4,1.13,2.35-.06,3.75-1.33,1.55-1.3,2.76-.59,4.72a157.54,157.54,0,0,1,4.75,15.69,72.29,72.29,0,0,1,2,11.87A37.31,37.31,0,0,1,88,88.42,18.62,18.62,0,0,1,82.75,97c-.87.82-2,1.38-2.91,2.16a2.76,2.76,0,0,0-1,1.55c-.29,3.36-.45,6.74-.65,10.11,0,.41-.07.82-.1,1.23.16.09.26.2.37.21a5.22,5.22,0,0,1,5.15,4.06A8.89,8.89,0,0,1,84,119c0,1,.56,1.35,1.33,1.47,1.61.23,3.24.34,4.86.54,3.24.42,6.47.86,9.71,1.29l4.39.6c0-1.94,0-3.77,0-5.6a6.5,6.5,0,0,1,.49-2.31,2.09,2.09,0,0,1,3.49-.68,13,13,0,0,1,3.08,5.24c.77,2.15,1.45,4.33,2.16,6.5h.29c0-1.09-.06-2.18,0-3.27.14-2.45-.22-4.95.66-7.32.27-.72.59-1.46,1.5-1.53s1.38.48,1.88,1.19c1.43,2,1.57,4.39,2.14,6.65.23,1,.34,1.92.52,2.92a39,39,0,0,0,14.54-5.78A43.43,43.43,0,0,0,140.2,115c.52-.44.6-1.36,1-2,2.2-3.67,2.26-7.78,2.47-11.86.06-1.12.14-2.24.22-3.49-1.09.23-2.14,1-3.08-.12-.81-.92-.4-2-.48-2.92a27.9,27.9,0,0,1-4.06.24c-1.42-.1-1.8-1.11-1.13-2.41h0a8.3,8.3,0,0,0,2.41-8.36,6.42,6.42,0,0,0-.76-1.53l-3.33-5.67a5.8,5.8,0,0,0-.1,1.75,3.63,3.63,0,0,1-.27,3c-.33.5-1.17,1.07-1.64,1A2.51,2.51,0,0,1,130,81.17a5.9,5.9,0,0,1,.08-2.19c-2.58-1-1.66-3.48-2-5.53-4.22-1.14-7.64-3.39-8.85-7.81A11.27,11.27,0,0,1,122.1,54.1c-1.46-1.19-1.81-2.92-2.1-4.68a31.16,31.16,0,0,1,.83-15,33.27,33.27,0,0,1,3.33-6.1c1.76-3,4.51-4.94,7.28-6.87.34-.24.66-.51,1-.78-.8-2.89-3-4.12-5.6-4.84-.54-.15-1.27-.23-1-.89a1.69,1.69,0,0,1,1.5-.67,11,11,0,0,1,5,2.44l-.06-.05.05.06.81.67a13.91,13.91,0,0,0-.49-5.84c-.19-.63-.89-1.49,0-1.88s1.33.67,1.61,1.35a14.58,14.58,0,0,1,.8,6.52c0,.49,0,1-.08,1.47,2.07-1,4-2.1,6.1-2.94a38.67,38.67,0,0,1,8.2-2.31,39.12,39.12,0,0,1,11.48-.18c5.07.67,10,1.84,13.9,5.57a29.81,29.81,0,0,1,8.22,13.51A40.19,40.19,0,0,1,184,40.82a49.54,49.54,0,0,1-.26,6.11c-.08,1.63.73,3.32,1.26,5,.11.32.75.46,1.14.7.59.36,1.26.75.88,1.56s-1,.34-1.55.18a1.85,1.85,0,0,0-.41,0l-.25,1.77c.75.56,1.95,1,1.4,2.26-.32.74-1,.24-1.51,0l-.08-.2-.09.13.2.05A23.45,23.45,0,0,1,183.12,62c-1,1.56-2.33,2.93-3.48,4.41a2,2,0,0,0-.37,1c-.09,1.33-.1,2.67-.16,4,0,.76-.26,1.5.47,2.17a1.94,1.94,0,0,1-.25,2.41c-.74.53-1.67.94-2.42.23a8,8,0,0,1-1.34-2.16,14.24,14.24,0,0,1-.65-1.56l-.39.07c-.33,1.57-.54,3.19-1,4.72-1,3.21.35,5.88,1.7,8.58.34.67.78,1.29,1.14,2a1.4,1.4,0,0,1-.81,2.2c-.69.27-1.43.42-2.12.68a5.33,5.33,0,0,0-2.28,1.77c-.89,1.1-2.27,1.81-3.84,3,.17,2.2.37,4.94.58,7.75,3.43-1.54,6.9-2.09,10.3-2.9,2.92-.7,5.77-1.72,8.69-2.41,2.68-.62,5.42-1.06,8.14-1.46,5.42-.82,10.87-1.43,16.26-2.36,3.32-.57,6.57-1.56,9.84-2.41,2.57-.66,5.13-1.4,7.7-2.07a2,2,0,0,0,1.53-1.72c.64-2.52,1.12-5.12,2.55-7.38a5.9,5.9,0,0,1,5.33-3.21c0-1.08,0-2.19,0-3.29,0-.22-.4-.52-.67-.58a22.27,22.27,0,0,1-8.38-4.15,25.85,25.85,0,0,1-5-5.61,31.09,31.09,0,0,1-4.68-10.88c-.72-3.35-1.3-6.73-1.81-10.11-.35-2.27-.46-4.58-.66-6.82-3.74-1.2-5.88-3.88-7.24-7.37a8.47,8.47,0,0,0,1.7,5.79c.26.32.24.87.35,1.32-.49-.07-1.12,0-1.43-.22a7.44,7.44,0,0,1-2.53-5.28l0-.05ZM163.14,34h0l0,0,.24.31.41.19.11.28,4.23,3.75a6.9,6.9,0,0,1-1,.4c-3.75.86-6.51-1.18-9.12-3.32a55.12,55.12,0,0,1-4.73-4.92v0l0,.06a20.6,20.6,0,0,0,1.42,3c.86,1.27,1.95,2.38,2.88,3.6a1.69,1.69,0,0,1,.3,1.11c0,.14-.57.29-.88.32-.8.08-1.6.08-2.4.14-3.12.24-6-.35-8.1-2.86a32.67,32.67,0,0,1-2.45-3.2c-.88-1.35-1.61-2.78-2.54-4.43a12.79,12.79,0,0,0-.2,1.52,10.32,10.32,0,0,0,5.91,8.65c.4.16.68.61,1,.93-.42.26-.81.7-1.26.76-2.5.33-4.7-.6-6.83-1.78a10.44,10.44,0,0,1-4.08-4.05,24.39,24.39,0,0,1-3.6,15.26,3.83,3.83,0,0,0-.52,1.94,35.74,35.74,0,0,0,.19,4.51c.16,1.47.52,2.91.76,4.37a1,1,0,0,1-.16.78,1,1,0,0,1-.81.09,6.65,6.65,0,0,1-1.14-.76c1,3.71,1.92,7.22,2.94,10.69a32,32,0,0,0,4.77,9.87,32.92,32.92,0,0,0,4.7,5.48,16.12,16.12,0,0,0,6.48,3.49c5.39,1.48,10.38,1.71,14.87-2.56a24,24,0,0,0,6.37-11.46A48.47,48.47,0,0,0,172,69.81c.47-3.49.91-7,1.27-10.5.23-2.33.3-4.67.45-7.06-1.32.21-1.72-.11-1.7-1.13a6.18,6.18,0,0,1,0-1.22,22.7,22.7,0,0,0-.38-10.14,1.69,1.69,0,0,0-.66-1c-1-.54-2-.9-3-1.44-1.41-.77-2.77-1.64-4.15-2.46l-.1-.32-.43-.13Zm9.91,3.59-.24-.27c-1.36-2.28-2.72-4.56-4.1-6.83-.36-.59-.66-1.1.22-1.5s.89.25,1.19.73c1.7,2.67,3.44,5.31,5.15,8a1.17,1.17,0,0,1-.75,1.87,5.85,5.85,0,0,1-.93.17l.53,2.41c.17.77.35,1.53.55,2.42a2,2,0,0,0,.12-.38c-.07-.68.17-1.28.88-1.25s.66.74.62,1.28c-.07.8-.16,1.59-.23,2.29a12.73,12.73,0,0,1,3-1.06,13.43,13.43,0,0,1,3.14.43A41.54,41.54,0,0,0,181,34.75a22.85,22.85,0,0,0-3.21-7.55c-1.72-2.65-3.42-5.31-6-7.29-2.36-1.84-5.16-2.59-8-3.45a34,34,0,0,0-11.61-1,45.75,45.75,0,0,0-7.15,1.09,27.24,27.24,0,0,0-9.22,3.86,6.09,6.09,0,0,0-1.4,1.68c-.33.49-.57.86-1.27.54a1.29,1.29,0,0,0-1.11.15c-2.2,1.73-4.48,3.38-6,5.77s-3.28,4.77-3.83,7.72a42.93,42.93,0,0,0-.59,11.48c.18,2,.33,4,1.79,5.58a9.55,9.55,0,0,1,1.84-.13,5.18,5.18,0,0,1,4,3.21c.24.49.56.95.84,1.42l.35-.14c-.08-1.14-.17-2.29-.23-3.44-.05-.84.26-1.92-.15-2.47-.68-.9-.27-1.4.13-2.08a40.84,40.84,0,0,0,2.2-3.86,20.54,20.54,0,0,0,1.78-11.69c-.13-.85.08-1.3,1-1.33l.23.14-.14-.22a1.91,1.91,0,0,1,0-.63c.15-.43.36-.84.54-1.26.32.32.77.58.92,1a11,11,0,0,0,5.83,5.88c0-.2,0-.37,0-.43a12,12,0,0,1-3.2-5.86c-.49-1.84-.64-3.63.75-5.2.43-.49.89-1.05,1.57-.53a5,5,0,0,1,1.2,1.38c.91,1.51,1.63,3.14,2.65,4.55,1.42,2,2.84,4,5.2,5a9.06,9.06,0,0,0,3.94.6,39.31,39.31,0,0,1-2.84-4.79,71,71,0,0,1-2.31-7c-.15-.5-.24-1.17.56-1.3s1.34-.2,1.52.78a2.72,2.72,0,0,0,.55,1.1c1.24,1.63,2.48,3.25,3.75,4.85a21.27,21.27,0,0,0,7.3,6.24c-1.17-1.49-2.31-2.82-3.3-4.24s-2.06-3.17-3-4.8c-.2-.33-.06-.86-.08-1.3.37,0,.75,0,1.12.06.15,0,.35.14.44.08.78-.48,1.2.07,1.57.57a30.37,30.37,0,0,0,8.94,8c1.24.74,2.57,1.32,3.86,2l.37.13.11.2Zm134.65.15-.31.21a19,19,0,0,0-2.9,1.94,33.64,33.64,0,0,0-6.44,8.37c-.1.19-.36.27-.53.43a8.28,8.28,0,0,0-.7.75c-.24.31-.44.64-.66,1a9.53,9.53,0,0,1-.89-.91,2.12,2.12,0,0,1-.18-.7l-.38-.07-2,6.64a1.19,1.19,0,0,0-.26.34,27.6,27.6,0,0,0-.4,13.89A46.19,46.19,0,0,0,295.55,81a16.3,16.3,0,0,0,4.55,6.18c4.11,3.11,8.73,5,14.06,4.39a24.42,24.42,0,0,0,7.51-2.3A27.34,27.34,0,0,0,329,83.92a30.65,30.65,0,0,0,5.73-7c.72-1.27,1.35-2.59,2.07-3.86.12-.2.58-.44.72-.36a1,1,0,0,1,.48.76,4.62,4.62,0,0,1-.45,1.29c-.26.67-.52,1.33-.9,2.28l3.71-.53a13.84,13.84,0,0,1-.51-1.9c-.05-.47-.06-1.25.2-1.39.67-.38,1,.26,1.27.8s.49,1.08.77,1.72c.83-.84.49-1.41,0-2a3.35,3.35,0,0,1-.33-1.07c.44-.06.94-.3,1.29-.16a14.4,14.4,0,0,1,2.05,1.27,11.6,11.6,0,0,0,4-6.87A6.57,6.57,0,0,0,348,61c-2.74-3.22-6.53-2.14-8.68.62A18,18,0,0,0,338.23,64a1.2,1.2,0,0,1-.9.58c-.29,0-.64-.42-.79-.73a1.38,1.38,0,0,1,0-1,3.24,3.24,0,0,0-.57-2.71,11.87,11.87,0,0,1-1.35-3A4.74,4.74,0,0,0,332.08,54c-.18.16-.38.5-.57.5a29.33,29.33,0,0,1-3.87-.13c-3.19-.44-6.36-1-9.55-1.46-1.71-.22-1.54-.1-1.39-1.67.12-1.21.88-1.32,1.65-1.47,1.52-.28,3-.44,4.54-.64-5.21-3.29-7.28-8.52-8.42-14.35-1.23.21-1.22,1.26-1.44,2.18-1.07,4.5-2.17,9-.84,13.64.17.59-.38,1.16-.77.86a7,7,0,0,1-2-1.93,11.5,11.5,0,0,1-1.09-5.82c0-1.3.12-2.59.18-3.89l-.28-.12a40.52,40.52,0,0,0-2.34,4.89,41.55,41.55,0,0,0-1.11,5.23c.54.46,1,.68,1.15,1,.32.89-.77,2.27-1.73,2.48-2.26.47-4.54.9-6.73,1.57A20,20,0,0,0,294,56.67c-.23.13-.54.41-.67.35a1.37,1.37,0,0,1-.6-.7,3.75,3.75,0,0,1-.05-1c.77-.79,1.53-1.6,2.31-2.39a8.41,8.41,0,0,1,4.55-2.72c1.4-.24,2.83-.33,4.32-.49-.8-1.5-.43-3-.05-4.59a21.18,21.18,0,0,1,3.59-7.24l.36-.19,0-.06ZM181.23,47.88h-.06l.09,0,.18.3c-.11.67-.09,1.42-1.14,1.24-.17,0-.38.14-.56.24-1.55.89-2.23,2.44-2.87,4a1.07,1.07,0,0,0,.41.89,4.89,4.89,0,0,1,1.95,3c.31.95,0,1.57-1.06,2l-1.83-3.26a5.34,5.34,0,0,0-.58,2.08c-.14,2.45-.24,4.9-.34,7.35a.81.81,0,0,0,.22.63.9.9,0,0,0,.68,0c.86-.32.72-1.06.79-1.77a4.7,4.7,0,0,1,.62-1.38l1.34.94,3.37-5.6c-.51-.62-1-1-1.13-1.41-.26-.8.49-.84,1-1.14.25-.15.18-.84.25-1.29l.06,0,0-.06-1,.28c-.09-.37-.37-.82-.25-1.09a6.23,6.23,0,0,1,1-1.23c.2-.24.57-.53.54-.76-.17-1.33-.24-2.73-1.46-3.66Zm-38,45.56-.21,2c.82-.43.83-.93.2-2l.07.06ZM23.33,179h-3.6c.16,1,.32,1.86.48,2.76l-.11,0,.09.09,0-.11,3.37-.15L23.3,179h0Zm300.07-72.6h0l.06,0c0,.22-.06.5.05.64.59.76,1.28,1.45,1.84,2.23a12.94,12.94,0,0,0,5.58,4.11c.72.32,1.35.23,1.67-.51a5,5,0,0,0,.37-1.67c.24-3,.44-5.93.66-9a18.89,18.89,0,0,1-3.19,2C328.11,105,325.74,105.66,323.4,106.39ZM63.31,122.88l0,.09v-.06l.21-1.58a6.16,6.16,0,0,0-1.39-.79c-3.65-1-7.32-1.9-11-2.9a4.11,4.11,0,0,1-1.93-1.06c-1-1.11-1.91-2.38-2.85-3.59h0c-.13.3-.27.6-.38.9-.68,1.77-1.35,3.54-2.07,5.44,1.1-.08,1.65,0,1.38,1a.75.75,0,0,0,.06.6c1.49,1.4,3,2.84,4.54,4.15a47.09,47.09,0,0,0,4.77,3.54c2,1.25,3.86,2.75,6,3.28ZM188.64,173.1l0,.05a1,1,0,0,0,.13-.35c0-3,0-5.93,0-8.89a2.56,2.56,0,0,0-2-2.7c-.71-.21-1.39-.57-2.11-.75a1.93,1.93,0,0,0-1.21.1c-1.83.83-3.64,1.43-5.5.09a.81.81,0,0,0-.46-.17c-1.58.18-3.16.39-4.75.59.19,7.7-.07,15.15,1.32,22.44,2.57-.17,4.94-.31,7.3-.48s4.58-.33,6.86-.53c.75-.06,1.29-.45,1.22-1.3-.16-2.1-.34-4.21-.53-6.31C188.84,174.29,188.73,173.7,188.64,173.1ZM258.71,64.46c-1.6,1.54-3.15,3.14-4.81,4.61a19.24,19.24,0,0,1-9.1,4.46,44.8,44.8,0,0,1-4.59.48c0,.4,0,.9,0,1.4A12.88,12.88,0,0,1,238.9,82a1.65,1.65,0,0,0,.77,2.44,19.08,19.08,0,0,0,3,1.28,3.37,3.37,0,0,1,2.67,3.24c.3,3,.5,5.91.75,8.92.39-.08.66-.15.95-.18,1.11-.14,1.57-.63,1.61-1.87a60.35,60.35,0,0,1,.7-7.09,4.27,4.27,0,0,1,2.9-3.49,7.71,7.71,0,0,0,1.9-1q2.7-2,5.31-4.15a1.46,1.46,0,0,0,.48-1.2,53.22,53.22,0,0,1-1.19-11.39l-.06-3.07.18-.12-.15-.08ZM62.86,98l0,0a23.88,23.88,0,0,0,10,.57c3-.33,5.93-.92,8.08-3.08a18.19,18.19,0,0,0,5.57-12.07c.09-1.69.27-3.37.4-5l-.19-.11.19-.11c0-.69-.07-1.38-.17-2-.58-3.79-1-7.61-1.8-11.35s-1.82-7.47-3-11.13c-1-3.13-2.24-6.18-3.43-9.24a1.13,1.13,0,0,0-.84-.65,13.66,13.66,0,0,0-2.7.41,18.09,18.09,0,0,0-7.82,3.92,8,8,0,0,0-1-.76c-1-.46-.86-1-.17-1.61s1.23-1.12,1.89-1.62c2.72-2.07,5.5-3.93,9.42-2.64-1-1.81-1.82-3.5-2.81-5.08-2.69-4.34-6.41-7-11.74-6.84-4.89.12-9.1,2.12-13,4.79a3.48,3.48,0,0,0-1.05,1.23c-.84,1.58-1.58,3.21-2.44,4.78-1.83,3.35-3.52,6.79-6.55,9.3a2.15,2.15,0,0,0-.73,3c.34.64.49,1.39.79,2.07,2.36,5.31,3,10.92,2.9,16.65,0,1.65-.82,3.4.55,4.9a1.3,1.3,0,0,1,.39.63c0,.42.1,1-.14,1.24a1.42,1.42,0,0,1-1.26,0c-.46-.24-.76-.76-1.18-1.09a14.18,14.18,0,0,0-3.07-2.24c-3.17-1.32-6.45-.33-7.62,3.52A12.9,12.9,0,0,0,31,87.43a9.69,9.69,0,0,0,7,5.94c3.49.8,6.57.16,9.08-2.57,0,0,0-.07,0-.1-.52-.63-1.31-1.3-.66-2.11.16-.2,1.47.26,2,.7a53.67,53.67,0,0,0,10.22,6.88C60,96.84,61.45,97.4,62.86,98ZM232.27,18.79a8.45,8.45,0,0,0,1,8.35,1.45,1.45,0,0,1,.3,1.28c-.15.29-.79.4-1.23.46a11,11,0,0,1-1.72,0c-1.37,0-2.74-.1-4.12-.12a1.89,1.89,0,0,0-.92.16c-.57.32-1.08.76-1.66,1.08-1.58.88-3.08.19-4.69-.44a6.25,6.25,0,0,0-.21,1.29c.18,3.12.29,6.24.61,9.35.64,6.19,1.76,12.27,4.49,18,1.85,3.85,4.15,7.33,7.87,9.63,2.94,1.82,6.07,3.27,9.62,3.22a16.55,16.55,0,0,0,10.15-3.79,26.57,26.57,0,0,0,9.19-13c.54-1.66.91-3.38,1.31-5.09.18-.82.51-1.18,1.4-.89a1.68,1.68,0,0,0,1.17,0,15.21,15.21,0,0,0,6.15-5A13.37,13.37,0,0,0,272.13,30a4.26,4.26,0,0,0-5.92-1.74,9.39,9.39,0,0,0-3,3.73c-1,2-.29,4.55-1.88,6.38,0,0,0,.16,0,.24.2.72-.07,1.16-.8,1.24s-1-.44-1.21-1a12.15,12.15,0,0,1-.68-4.89,3,3,0,0,0-.8-2,20.5,20.5,0,0,0-2.56-1.79,40.2,40.2,0,0,1-3.69-2.93c-1.46-1.38-2.76-2.92-4.21-4.47a20.18,20.18,0,0,1-.6,1.93c-.17.41-.44,1-.73,1.06a2,2,0,0,1-1.26-.57,1.68,1.68,0,0,1-.49-1c-.65-4-3.29-6.6-6.35-8.83-1.59-1.15-3.3-.28-3.54,1.67a5,5,0,0,0,0,1.64c.38,1.81.72,3.67,3,4.23.31.07.5.64.75,1-.45.29-.93.85-1.35.81a4.24,4.24,0,0,1-1.92-.82C233,22.71,232.43,20.87,232.27,18.79ZM106.81,115.31l-.52.14c0,1-.07,2,0,2.92.13,1.45.35,2.89.59,4.33.53,3.16,1,6.32,1.65,9.47.39,2,1,4,1.35,6a1.82,1.82,0,0,1-.51,1.48,1.09,1.09,0,0,1-1.6-.5,16,16,0,0,1-.91-1.92c-1.11-2.75-2.09-5.56-3.35-8.23a9.75,9.75,0,0,0-3.35-3.9,6.84,6.84,0,0,0-.12,1.57c.41,2.25.8,4.51,1.35,6.73.68,2.75,1.51,5.47,2.24,8.21.07.27,0,.78-.17.86a1.23,1.23,0,0,1-1,0,1.69,1.69,0,0,1-.66-.82c-.7-1.52-1.33-3.07-2-4.59s-1.65-3.12-3.76-3.73a6.36,6.36,0,0,0,.09,1.46c1,3.19,2.06,6.37,3.1,9.56.75,2.32,1.57,4.63,2.24,7,.91,3.17,1.65,6.38,2.56,9.55.43,1.5,1.37,2.9,1.58,4.42.44,3.06.54,6.16.79,9.35a21.58,21.58,0,0,0,7.58,1.15,15.54,15.54,0,0,0,8.47-1.71,1.82,1.82,0,0,0,.89-1.15c.24-3.29.36-6.58.55-9.87a13,13,0,0,1,.36-3.67,38.39,38.39,0,0,1,2.91-6.23c2.32-4,4.86-7.8,7.24-11.73a14.9,14.9,0,0,0,1.41-3.19c.26-.82-.23-1.28-1-1a5.88,5.88,0,0,0-1.94,1.29c-1.28,1.32-2.44,2.77-3.7,4.12a13.86,13.86,0,0,1-5.13,4c-.78.29-1.34.15-1.62-.62-.47-1.33-.94-2.67-1.31-4s-.31-2.81-.94-4a7.57,7.57,0,0,1-.82-3.09c-.43-4.57-.77-9.15-1.33-13.71a35,35,0,0,0-1.4-5.14l-.57.08c.1,5.25.22,10.51.31,15.76,0,1.78,0,3.56-.07,5.33a.89.89,0,0,1-1.72.36,29.57,29.57,0,0,1-1-3.56c-1.24-5.19-2.25-10.44-4.32-15.4A6.49,6.49,0,0,0,106.81,115.31Zm271.46,2.42-.33-.33a5.32,5.32,0,0,0-.57.16c-3.44,1.28-6.09,3.71-8.85,6-.41.34-.86.63-1.3.94l-.3-.18a4.37,4.37,0,0,1,0-1.62,16.83,16.83,0,0,1,1.67-3c1.73-2.41,3.59-4.72,5.28-7.16a44.82,44.82,0,0,0,2.27-4.08l-.36-.28a12.4,12.4,0,0,0-1.82,1.55c-2.71,3.37-5.34,6.79-8.06,10.15-.3.37-1.05.78-1.4.65-.78-.28-.37-1-.11-1.5.69-1.38,1.5-2.72,2.09-4.14,1.16-2.77,2.22-5.59,3.29-8.4.43-1.11.78-2.25,1.16-3.37l-.4-.23a54.43,54.43,0,0,0-3.39,4.78c-1.62,2.85-3,5.84-4.55,8.74a21.92,21.92,0,0,1-2.05,3c-.17.22-.64.22-1,.32-.08-.39-.32-.82-.22-1.15.93-3.15,2-6.27,2.89-9.42.46-1.58.77-3.22,1.15-4.83l-.33-.16a27.63,27.63,0,0,0-2.1,3c-.72,1.35-1.19,2.82-1.83,4.21-.89,2-1.86,3.88-2.76,5.84-.79,1.71-1.55,3.43-2.3,5.16a1.86,1.86,0,0,1-2,1.21c-.89-.16-.55-1.06-.46-1.79a29,29,0,0,0,.22-4.46,19.24,19.24,0,0,0-.61-3.15l-.34,0c-.2.46-.43.9-.6,1.37-1.12,3.2-1,6.49-.8,9.81a20.23,20.23,0,0,1-.15,4.6,7.21,7.21,0,0,0,.71,4.73,2.1,2.1,0,0,1,.31.92c.05,1.75,0,3.51.11,5.26a1.52,1.52,0,0,0,.78,1.07,11.54,11.54,0,0,0,6.48,1.05c1.85-.28,3.64-.89,5.47-1.32,1.09-.26,1.19-.07,1,1a18.66,18.66,0,0,0-.35,3.23c0,2.62.17,5.24.13,7.86-.06,3.34-.18,6.69-.42,10-.18,2.43-.62,4.85-.89,7.29,0,.3.31.63.47,1l.43-.1c.25-1.62.56-3.23.75-4.86.23-2,.43-4.07.51-6.11.13-3.35.17-6.7.22-10.05,0-2.67-.1-5.36.13-8,.09-1,.11-1.47-.76-1.7a18.7,18.7,0,0,1,2.68-8.84,55.92,55.92,0,0,1,7.9-10.51A41.63,41.63,0,0,0,378.27,117.73ZM49.34,114.52c.93.35,2.12.84,3.32,1.26a33.8,33.8,0,0,0,4.76,1.53,61.08,61.08,0,0,0,8.61,1.2,65.49,65.49,0,0,0,8.51-.36,4.46,4.46,0,0,0,2.24-1c.21-.16-.17-1.06-.27-1.62,0-.13,0-.26,0-.38a55,55,0,0,1,.63-14.8c-4.58.92-9.15,1.64-13.82.5s-8.44-3.76-12.42-6.46C51.61,101.26,50.81,107.72,49.34,114.52Zm116-24c-6.81,4.47-13.45,3.35-20.25.24a29.46,29.46,0,0,1,.75,10.4c-.34,3.43-.89,6.84-1.36,10.32,7.92,2.14,15.63,2.1,23-2.06A87.77,87.77,0,0,1,165.3,90.54Zm72.65-12a4.35,4.35,0,0,0-3.12,2.3,51.64,51.64,0,0,0-2,5.37c-.34,1.11-.25,2.35-.59,3.46a38,38,0,0,0-1.86,8.73c1-1.2,1.74-2.26,2.59-3.27,1.85-2.18,3.8-4.25,6.61-5.19a2.65,2.65,0,0,1,2.64.09,1.15,1.15,0,0,1,.4,1,1.08,1.08,0,0,1-.81.59,7.81,7.81,0,0,0-4.91,2.24,20.45,20.45,0,0,0,0,3q.62,4,1.41,8c.72,3.57,1.47,7.13,2.29,10.68s1.76,7.31,2.66,11c.27,1.1.91,1.64,2.12,1.28.13-9.25.27-18.48.4-27.6-1,1.24-1,1.24-2.44.37l1.29-2.06a12.56,12.56,0,0,1-1.11-6.57,15.48,15.48,0,0,0-.25-3.47c-.07-.39-.67-.75-1.1-1-1.51-.79-3.07-1.49-4.57-2.31a1.5,1.5,0,0,1-.74-1.08c.2-1.5-.12-3.11.83-4.48A3.27,3.27,0,0,0,238,78.57ZM261.46,77l1.45-.24c0,.42.19.91,0,1.24a11.29,11.29,0,0,1-1.86,3.19,63.4,63.4,0,0,1-5.29,4.21,3.59,3.59,0,0,1-1.32.67c-1.76.4-3,1.34-3.14,3.21q-.41,4.2-.68,8.41c-.07,1-.37,1.38-1.42,1.16a1.17,1.17,0,0,0-1.5,1.11c0,5.85,0,11.71,0,17.57,0,1.76-.1,3.51-.12,5.26,0,1.2,0,2.4,0,3.6l.29.08a71.75,71.75,0,0,0,2.48-7.42c1.28-5.75,2.28-11.56,3.44-17.34.64-3.22,1.35-6.43,2-9.63.26-1.23.59-2.44.92-3.81-.42.15-.58.27-.74.26-.42,0-.83-.09-1.25-.14.09-.45,0-1.1.3-1.3.52-.4,1.36-.89,1.85-.72A3,3,0,0,1,258.6,88a49.67,49.67,0,0,1,1.11,5.21A42.19,42.19,0,0,0,263.34,90c1.73-1.9,3.65-3.8,2.68-6.8a8.3,8.3,0,0,1-.26-1.49c-.28-2.1-.5-4.2-.82-6.29-.17-1.11-.62-1.31-1.67-.93-.69.26-1.37.54-2,.8C261.33,76,261.4,76.55,261.46,77Zm52.7,27.16c6.17,1.58,13.42-.39,20-5.49-2.44-4.39-2.88-9.23-2.79-14.27a27,27,0,0,1-17.66,9.71A20,20,0,0,1,314.16,104.16ZM140.94,119.23a48.84,48.84,0,0,0,10.46,7.19c1.11.57,1.82.16,2.1-1.16.23-1.05.44-2.11.7-3.15.6-2.37,1.23-4.73,1.91-7.32a30.39,30.39,0,0,1-4.79-.05c-2.49-.41-4.93-1.14-7.4-1.67a1.16,1.16,0,0,0-1,.49C142.2,115.42,141.58,117.33,140.94,119.23Zm28.79-7.83-11.61,3.72c1,1.87,2.09,3.89,3.2,5.89.64,1.14,1.36,2.25,2.05,3.36.4.64.86.71,1.43.17,2.72-2.6,5.44-5.17,8-7.59ZM70.1,131.15a12.1,12.1,0,0,0,5.19-3.38c2.15-2.09,4.71-3.77,6.26-6.44a2.15,2.15,0,0,0,.3-2.09c-.37-1-.43-2.06-.83-3a7.48,7.48,0,0,0-1.48-2.07,1.05,1.05,0,0,0-1-.08c-.2.11-.22.64-.19,1,.07.66.25,1.31.33,2,0,.31.11.77-.06,1-1.33,1.45-2.66,2.93-4.86,3-1.8.06-3.6.19-5.57.31C68.79,124.48,69.43,127.76,70.1,131.15Zm59.25-69.39.27-.1c-.53-1.53-1-3.1-1.61-4.61-.81-2-3.36-2.74-4.82-1.44-2.12,1.88-2.55,4.41-2.5,7A7.77,7.77,0,0,0,122.82,68a10.19,10.19,0,0,0,7.6,3.52l-1-2.91c.08-.09.28-.5.45-.49,1,.06.74-.53.63-1a4,4,0,0,0-.46-1.65,5.64,5.64,0,0,0-1.54-1c-.84.65-.28,2.28-1.62,2.77a1.65,1.65,0,0,1-.57-2.42c.36-.74.7-1.49,1-2.23a7.73,7.73,0,0,0-3.46-2.59c-.35-.16-.51-.71-.76-1.08.41-.21.88-.67,1.23-.6a5.24,5.24,0,0,1,2.12.92C127.5,59.93,128.4,60.88,129.35,61.76ZM66.28,123.4H66c-.12,8.49-.55,17-.48,25.45l.39.26,4.56-1.81c.31-4.74.6-9.3.9-13.86-2,.14-2.52-.08-3.14-1.67a26.65,26.65,0,0,1-1.09-3.6C66.78,126.6,66.56,125,66.28,123.4Zm293,58.75a7.73,7.73,0,0,0-.77.62,15,15,0,0,1-1.38,1.58c-2.64,2.22-6.93.12-7.93-2.66-.17-.47-.21-1-.41-1.44a18.52,18.52,0,0,1-1.87-7.32c0-4.08,0-8.16.28-12.23a74.45,74.45,0,0,1,1.35-8.33c.49-2.68,1.1-5.34,1.63-8,.12-.61.08-1.22-.91-1.09-.79,4.1-1.6,8.19-2.34,12.29a54.11,54.11,0,0,0-1,6.9c-.16,3.66-.07,7.34,0,11a11,11,0,0,0,.38,3c.69,2.22,1.5,4.4,2.29,6.58a2.7,2.7,0,0,0,.74,1.29,8.66,8.66,0,0,0,6.12,2A4.12,4.12,0,0,0,359.26,182.15ZM171.18,159.42l5-.51c-1.06-3.12-.46-5.74,2.25-7.89l-7.3.35Zm141.29-53.49c-.4,2.8-.72,5.61.49,8.51,2.91-2.15,4.11-5.44,6.6-7.88Zm-126.67,53,4,1.46c0-1.87.07-3.83,0-5.77a4.44,4.44,0,0,0-6.45-3.78s0,.14-.05.3c1.93.09,2.74,1.34,2.79,3.07C186.08,155.75,185.89,157.3,185.8,158.92ZM167.23,92l.29.26c.55-.5,1.12-1,1.67-1.51s.75-1,1.25-1.25c1.08-.57,2.25-1,3.38-1.49-.71-1.64-1.43-3.34-2.12-5-1.32,1.73-2.58,3.53-4,5.2a2.85,2.85,0,0,0-.66,2A14.36,14.36,0,0,0,167.23,92Zm16.41,63.21c.16-1.84-1-2.57-2.56-2.84-1.38-.23-3.06,1.53-3.17,3.13s1,3.27,2.19,3.34A3.73,3.73,0,0,0,183.64,155.24ZM345.56,77.4a14,14,0,0,1-1.14,11.13,5.52,5.52,0,0,0,4-5C348.4,81,346.86,79.32,345.56,77.4ZM8.76,181.47c-.07-1-.09-1.85-.22-2.71-.06-.34-.34-.84-.61-.92a28.51,28.51,0,0,0-3-.5c.1,1.35.21,2.47.27,3.59,0,.64.37.85.94,1.11C7.27,182.54,7.93,181.78,8.76,181.47ZM138.81,92c1.35.07,2.31-1.88,4.24-.92-.22-.86-.19-1.62-.56-2A23.46,23.46,0,0,0,140,86.81ZM18.45,182c0-.4,0-.72,0-1-.08-1.94-.13-2-2-2-.49,0-1,0-1.47-.07-.15,2.81-.48,2.81,2.44,3Zm-8.31-3.73c-.15,4,.4,3.4,3.11,3.15v-2.63ZM105.65,129l.15-.07-.74-4.13h-2.45Zm71.79-61.07-2.3.41,1.32,3.32.35,0C177,70.48,177.2,69.32,177.44,67.93Zm2.49-20.44c-1.66-.5-2.73.16-4.45,2.43-.4.54-.48.89.07,1.35A7.35,7.35,0,0,1,179.93,47.49ZM129.79,73.56c.15,1.2,0,2.43,1,3.28l.43,0L131,73.4ZM25.24,181.24c1.45-.42,1.76-.83,1.28-1.86-.15-.33-1-.69-1.23-.55C24.32,179.53,25.25,180.34,25.24,181.24ZM245.47,129.7c-.66,1.11-.77,2.7-.26,3.35A2.91,2.91,0,0,0,245.47,129.7ZM3.82,181.5l-.29-2.79-.29,0C3.43,179.6,2.18,180.65,3.82,181.5Zm62.12-60.84c-.62,1.37-.62,1.37.37,1.69Zm115.44,28.43h.34l-.19-1-.29.05Zm-67.53-22.73-.31.08.25.92.23,0Zm69.09,24.77c0-.06-.05-.16-.1-.19s-.14,0-.21.05l.16.28Zm-.81-.45-.35-.24a2.29,2.29,0,0,0-.14.27.37.37,0,0,0,.18.1A1.91,1.91,0,0,0,182.13,150.68Zm171.49-31.61s-.07,0-.08,0,0,.07,0,.11l.13,0ZM304.3,49.89a.29.29,0,0,0,.1,0,.41.41,0,0,1,0-.07l-.09,0S304.31,49.87,304.3,49.89ZM40.6,74.78l.09-.07s0-.08-.08-.08-.06,0-.08.07ZM180.49,47.64l0-.06h-.07Zm183.75,61.44s-.07,0-.07.07,0,0,.06.08.07,0,.07-.07S364.26,109.11,364.24,109.08Z"/><path class="cls-2" d="M99.15,133.22c-.49-.38-1-.78-1.48-1.13a2.17,2.17,0,0,0-3.47,2.24c.48,2.23,1.07,4.45,1.74,6.63,1.45,4.81,3,9.59,4.49,14.38a3,3,0,0,1-.06,1.71,25.62,25.62,0,0,0-.46,4.73c-.07,2.7,0,5.42,0,8.13q-.06,7.18-.16,14.39c0,1.52-.11,3-.17,4.54H30.85c-.15-3-.31-5.91-.45-8.88-.13-2.71-.22-5.43-.34-8.14-.13-3.17-.31-6.35-.38-9.52,0-2.29.09-4.59.12-6.88,0-.62.37-1.61-.57-1.66s-1,.83-1,1.67c0,2.64-.27,5.29-.25,7.94.05,4.58.23,9.17.35,13.76a1.51,1.51,0,0,1-.06.36c-3-.92-6.1-.41-9.14-.6a75.62,75.62,0,0,1-9.49-.81c-2-.38-4.05-.42-6.36-.63a18.9,18.9,0,0,0,.82-1.72c.12-.33.27-.86.11-1.06-1.56-1.95-1.5-4.28-1.58-6.56a69.55,69.55,0,0,1,1.18-14.9A18.86,18.86,0,0,1,7,143.66c1.61-2.28,3.26-4.54,4.93-6.79,1.2-1.61,3-2.34,4.79-3,2.76-1.06,5.66-1.77,8.41-2.84s5.61-2.34,8.32-3.71c3.45-1.74,6.8-3.67,10.21-5.53,3.6,4.59,8.22,7.72,12.86,10.86a9.64,9.64,0,0,0,3.76,1.57c1.57.28,2.19-.21,2.45-1.76.22-1.26.64-2.5,1-3.75h0a10.89,10.89,0,0,1,.13,1.39c-.19,4.26-.4,8.51-.59,12.77-.08,1.75-.2,3.51-.16,5.26.08,3.16,2,3.59,4.07,3.07a18,18,0,0,0,4.56-2,2.93,2.93,0,0,0,1.3-2.74c0-4.51.28-9,.47-13.54a1.41,1.41,0,0,1,.47-.77c2.54-2.45,5.16-4.83,7.64-7.36a16.75,16.75,0,0,0,1.93-3l15.25,2.38c-.88,2.66-.11,5.11.34,7.6a11.65,11.65,0,0,1,0,1.45Zm-51.5,24.67c0-.56,0-1-.07-1.47,0-1.47-.25-1.73-1.7-1.83-1.61-.1-3.24-.15-4.86-.18a1.36,1.36,0,0,0-1.58,1.52c0,.89,0,1.86-1.17,2.19-.15,0-.19.49-.27.76s0,.67-.19.8c-1.1.83-1.05,2-1.11,3.19-.07,1.39.06,2.78-.07,4.16a55,55,0,0,0,.11,11.4,7.56,7.56,0,0,0,.81,2.57c.93,1.81,2.74,2,4.5,2.22l4.44.54a16.36,16.36,0,0,0,2.9.42c2-.12,4-.46,6-.65,1.11-.11,2-.48,2.17-1.68.4-2.48.89-5,1.09-7.46s.1-5.1.16-7.65c.05-2.29.18-4.58.21-6.88a1.58,1.58,0,0,0-1.7-1.57Z"/><path class="cls-3" d="M231.06,188.84c-.5-1.62-1-3.26-1.51-4.87-1-3.06-2.08-6.11-3.11-9.17-.49-1.46-.65-3.16-1.52-4.35-2-2.66-2.09-5.89-3.21-8.8s-2-5.94-3-8.92c-1.41-4.25-3-8.46-4.16-12.76s-2.14-9-3.26-13.5c-.88-3.53-1.86-7-2.85-10.54a2.93,2.93,0,0,0-.94-1.28c-.2-.17-.66-.05-1-.06,0,.39-.15.85,0,1.14A15.08,15.08,0,0,1,208,121c-4-.44-7.78-1-11.61-1.26a58.7,58.7,0,0,1-10.65-2c-3.62-1-7.11-2.39-10.72-3.41a4.41,4.41,0,0,1-3.32-3.14,2.81,2.81,0,0,0-2.29-2.12.84.84,0,0,1-.56-.51c-.28-1.16-.5-2.34-.74-3.5a9,9,0,0,0,1.54-.17c5.61-1.58,11.19-3.31,16.84-4.74a99.1,99.1,0,0,1,11.08-2.06c7.67-1,15.32-2.14,22.75-4.4,2.42-.73,4.9-1.27,7.34-1.94a15.52,15.52,0,0,0,1.79-.72c-.23,2.08-.4,4.17-.71,6.23-.22,1.43,1,1.77,1.73,2.27s1.32-.4,1.81-.94c1-1,1.88-2.11,3-3.35.12,1.66.14,3.06.34,4.43.47,3.14.9,6.29,1.57,9.39q1.53,7,3.4,14c.55,2.08,1,4.25,2.49,6a.86.86,0,0,1,.14.57c-.1,1.11-.23,2.23-.36,3.48h-4a4.15,4.15,0,0,0-3.74,2.51,1.66,1.66,0,0,0,.15,1.7,7,7,0,0,1,.5,3c.1,2.91,0,5.83.19,8.73.21,3.29.62,6.57,1,9.84,0,.29.49.53.75.79.22-.34.65-.69.63-1-.1-2-.36-3.89-.46-5.84-.13-2.8-.13-5.6-.26-8.39-.13-2.62-.29-5.23-.54-7.84-.09-.88.41-1.05,1-1.12q3.23-.39,6.47-.67c1.33-.12,2.66-.19,4-.23a8.65,8.65,0,0,1,2.22.12c1.13.27,1.14,1.26,1.17,2.18.1,4.15.17,8.31.3,12.46.08,2.19.24,4.37.42,6.55a1.06,1.06,0,0,1-1,1.31c-3.75.79-7.48,1.82-11.38,1-.17,0-.38-.11-.5,0a11.3,11.3,0,0,0-.92.67c.22.26.4.7.66.75,1.57.33,3.14.62,4.73.82a12,12,0,0,0,2.14-.11c0,1.6,0,3.22,0,4.83.12,4.44.2,8.88.45,13.31.2,3.46.63,6.9,1,10.35ZM241,140l-.28.07c.56,2.27,1.08,4.55,1.72,6.81.08.29.73.61,1.1.59a35.19,35.19,0,0,0,4.58-.47,2.08,2.08,0,0,0,1.66-2.63q-.5-2.64-1-5.27a2,2,0,0,0-2.11-1.91,23.37,23.37,0,0,0-3.24.17C241.06,137.66,240.75,138.49,241,140Zm8.34,12.55a7.53,7.53,0,0,0-1.69-.45c-2,0-3.94.12-5.9.27-.34,0-.66.48-1,.74.28.3.58.86.85.85,2.23-.09,4.45-.25,6.67-.46C248.54,153.49,248.79,153.06,249.31,152.57Zm-4.39-3.27v.07a32.39,32.39,0,0,0-3.27,0c-.38,0-.72.5-1.09.77.32.22.64.62,1,.62,2.24,0,4.49,0,6.73-.11.33,0,.65-.47,1-.73-.31-.22-.6-.61-.92-.63C247.18,149.26,246.05,149.3,244.92,149.3Zm-2.75,6.84c.35.33.64.84,1,.88,1.65.2,3.33.58,5-.12a5.69,5.69,0,0,0,1.19-1l-.17-.45h-5.37a2.27,2.27,0,0,0-.74,0A5.17,5.17,0,0,0,242.17,156.14Z"/><path class="cls-3" d="M284.13,119.79a5.41,5.41,0,0,1-.81-1.14c-.21-.55-.41-1.13-1.07-.87-.24.1-.41.86-.3,1.22.36,1.15.88,2.24,1.31,3.36.11.3.29.68.19.92A40.86,40.86,0,0,0,281,135.19c-.3,3.64-.55,7.28-.79,10.93s-.51,7.52-.68,11.28c-.13,3-.09,5.95-.19,8.92-.11,3.33-.31,6.66-.43,10-.14,4-.24,7.95-.37,11.93a4.34,4.34,0,0,1-.11.61H256.4c.09-.36.32-.76.23-1.07-.19-.58-.44-1.42-.88-1.58a2.06,2.06,0,0,0-1.77.53,8.38,8.38,0,0,0-1.12,2.12h-2.79c-.42-4.92-.9-9.84-1.24-14.78-.32-4.64-.48-9.29-.7-13.85,1.91-.6,3.74-1.24,5.61-1.75a1.69,1.69,0,0,0,1.39-1.91c-.1-2.51-.24-5-.35-7.53-.11-2.67-.17-5.35-.32-8a47.91,47.91,0,0,0-.46-4.95c-.35-2.17-1.62-3.16-3.85-3.21-.84,0-1.68,0-2.66,0,.29-1.39.1-2.73,1.25-4.14a17.5,17.5,0,0,0,2.76-6c1.77-5.73,2.35-11.71,3.42-17.59.55-3,1.21-6,1.82-9.06.13-.64.22-1.28.33-2,.14.07.25.09.26.13.52,2,1.08,2.18,2.71,1.09a19.37,19.37,0,0,0,6.24-6.11c.85-1.48,1.61-3,2.45-4.59,2.86,1.21,5.92,2.52,9,3.78,4.13,1.69,8.24,3.48,12.44,5a47.78,47.78,0,0,1,10.73,5.82,39.12,39.12,0,0,1,3.12,2.49c1.29,1.08,1.48,2.74,2.11,4.17.23.51.46,1,.75,1.7a75.48,75.48,0,0,1-20.71,10.55v-2.82c0-.38.13-.8,0-1.1s-.58-.84-.86-.83a1.2,1.2,0,0,0-.87.82c-.16,1.85-.19,3.72-.27,5.58Zm-31,46.52c-1.27-.89-1.88-.74-2.29.67a10.66,10.66,0,0,0-.45,2.68,1.34,1.34,0,0,0,.73,1c.29.13,1,0,1.1-.23.53-1.31,1.39-2.58.89-4.12l0-.06Zm24.82-49.93c-.72.08-1,.52-1,1.2,0,1-.14,1.92-.19,2.88-.12,2.74-.25,5.48-.35,8.22a3.08,3.08,0,0,1-1.12,2.63c-1.19.91-2.33,1.9-3.52,2.81a2.19,2.19,0,0,1-2.59.06,35.21,35.21,0,0,1-3-2.15,3.88,3.88,0,0,1-1.37-1.55,8.27,8.27,0,0,1-.1-2.59c.07-2.45.2-4.89.26-7.34,0-1.57,0-3.15,0-4.78,3.73.21,7.26.39,10.79.6.8,0,1.42-.06,1.53-1.13a4.78,4.78,0,0,0-.88-.38,40.44,40.44,0,0,0-10.53-.71,2.94,2.94,0,0,0-2.49,2.79c-.24,4.29-.46,8.59-.55,12.88a4.53,4.53,0,0,0,.93,2.56,15.11,15.11,0,0,0,2.27,2c2.32,2.12,5.08,3.19,7.75.6,1-1,1.9-2.16,3.44-2.42.19,0,.43-.42.46-.67.27-1.82.6-3.64.71-5.47.15-2.56.18-5.13.13-7.69,0-.78.39-1.77-.56-2.38Zm-24.89,11.51c-.26-.36-.48-1-.87-1.1a1.41,1.41,0,0,0-1.31.41,12.59,12.59,0,0,0-1.12,2.92c-.15.59.07,1.41.84,1.37a2.32,2.32,0,0,0,1.63-.9A12,12,0,0,0,253.05,127.89Z"/><path d="M158.83,188.84c.07-2.55.24-5.11.17-7.66-.1-3.85-.34-7.69-.56-11.53-.46-8-.81-16.07-.59-24.12.17-5.88.19-11.76.25-17.64,0-2.66,0-5.33.2-8.06.68,1.21,1.3,2.46,2.08,3.6a28.75,28.75,0,0,0,2.3,2.76,1.5,1.5,0,0,0,2.06.22,30.5,30.5,0,0,0,8.16-6.93,9.93,9.93,0,0,0,1.25-1.72,9,9,0,0,0,.52-1.65c2.46.88,5.12,2,7.86,2.77a69.4,69.4,0,0,0,8.95,2.16c4.51.7,9.08,1.08,13.62,1.59a8.71,8.71,0,0,1,.86.17c2.91.69,2.75.72,3.27,3.74.59,3.45,1.41,6.87,2.28,10.26.76,2.95,1.71,5.86,2.58,8.78.13.44.29.87.44,1.31l-17.78,3.29c.74-1.38,1.32-2.48,1.93-3.58a5.51,5.51,0,0,0,.55-.84,4,4,0,0,0,.07-1.09c-.38.07-.9,0-1.13.25a12.76,12.76,0,0,0-1.17,1.61,2.1,2.1,0,0,1-.52.33v0c.36-.67-.51-1.74,1.05-2l-.09-.36a14.63,14.63,0,0,0-1.41-1.08c-.29-.17-.73-.36-1-.25s-.42.57-.44.89c-.13,1.95-.11,3.9-.3,5.84-.24,2.42-.66,4.81-.91,7.22a6.72,6.72,0,0,0,.35,1.83,2.73,2.73,0,0,1,.17.86c-.66,4.28-1.34,8.56-2,12.84l-.46,0c-.08-2-.17-4-.24-6,0-.41,0-.83,0-1.25,0-1.25-.32-2.37.47-3.69.66-1.1.57-2.77.5-4.17-.11-1.85,0-3.75-.86-5.51a4.65,4.65,0,0,0-3.9-2.91c-1.21-.09-2.41-.21-3.6-.32-.3-2.19-1.12-2.91-3-2.68-1.29.16-1.62,1-1.3,3-2.59.16-5.18.3-7.77.48-1,.07-1.16.26-1.26,1l0,0,.11.47,0,0c-.29.41-.76.8-.83,1.24a45.85,45.85,0,0,0-.48,11.93,1.29,1.29,0,0,0,.25.7c1,1.16.79,2.58.76,3.92a67.55,67.55,0,0,0,.78,13,23,23,0,0,0,.93,3.63c.41,1.16,1.41,1.46,2.27.4a1.2,1.2,0,0,1,.81-.31c2.63,0,5.26,0,7.89-.08,1.82-.05,3.63-.27,5.65-.44-.5,1.39-.93,2.62-1.36,3.84Zm6-54.81,0,0c-1.65-.91-2.62-.53-3,1.23a14.85,14.85,0,0,0-.27,2.11c-.05.7.06,1.43.91,1.56s1.4-.41,1.64-1.23.61-1.92.86-2.9C165.08,134.59,164.91,134.3,164.85,134Zm-1.62,18.32a3.51,3.51,0,0,0-1,.45,3.63,3.63,0,0,0-.5,4.09,1.34,1.34,0,0,0,2.08.3,3.47,3.47,0,0,0,.94-3.66A1.46,1.46,0,0,0,163.23,152.35Zm2.3,27,.18-.16c-.36-.56-.6-1.32-1.11-1.6a2.31,2.31,0,0,0-1.74.25c-.36.17-.56.71-.79,1.11a2.4,2.4,0,0,0,1,3.15c.85.31,1.89-.43,2.28-1.66A10,10,0,0,0,165.53,179.35Z"/><path d="M120.92,125.91c1.54.85,3,.26,4.49-.24a66.72,66.72,0,0,0,6.82-2.71c2.2-1,4.28-2.34,6.48-3.56-.15,1.5-.05,1.59,1.34,1.68a1.25,1.25,0,0,1,.71.38,29.17,29.17,0,0,0,9.83,6.48,3.21,3.21,0,0,0,4.58-2.11,26.37,26.37,0,0,1,1.23-3.78v2.69c0,5.54,0,11.08-.1,16.61-.05,3.56-.29,7.11-.24,10.66.06,4.82.21,9.65.53,14.46a211.54,211.54,0,0,1,.72,22.37H126.65c-.29-2.24-.68-4.47-.83-6.72-.18-2.73-.13-5.47-.21-8.2,0-.94-.26-1.88-.25-2.81.06-3.28.17-6.55.28-9.83a2.53,2.53,0,0,1,.19-1.1c1.6-3,3.18-5.94,4.89-8.85,2.07-3.54,4.27-7,6.37-10.53a9,9,0,0,0,.75-2.11c.32-1.16-.1-2.83-1-3.3a3.6,3.6,0,0,0-3.43.05c-1.91.94-3,2.67-4.27,4.27a24.34,24.34,0,0,1-5.57,5.41c-.37-1.59-.67-3-1-4.44s-.92-3-1.2-4.53a35.18,35.18,0,0,1-.18-3.71c-.12-1.75-.3-3.49-.42-5.24a7.52,7.52,0,0,1,.15-1.32Z"/><path class="cls-3" d="M189.75,188.84a63.94,63.94,0,0,0,2.59-7.82c.55-2.74,1.43-5.4,2-8.13a51.1,51.1,0,0,0,.91-5.76q.6-5.56,1-11.14c.11-1.39,0-2.8,0-4.18a101.28,101.28,0,0,0,18.76-3.3c.56,1.44,1.21,3,1.79,4.61,1.67,4.58,3.4,9.15,4.95,13.78,1.26,3.78,2.28,7.65,3.41,11.48.39,1.29.75,2.6,1.19,3.88.76,2.2,1.58,4.39,2.37,6.58Z"/><path class="cls-4" d="M326.86,188.84c-.37-2.66-.77-5.32-1.1-8q-.88-7.2-1.7-14.41c-.52-4.72-1.08-9.43-1.46-14.16-.33-4.13-.49-8.28-.65-12.42-.17-4.46-.36-8.93-.35-13.4,0-2.84.45-5.67.56-8.52.1-2.58,0-5.16,0-7.79a59.88,59.88,0,0,0,5,3.94,15.87,15.87,0,0,0,4.27,1.75,2.49,2.49,0,0,0,3-1.65,4.86,4.86,0,0,1,.9-1.54c.05,2.15.16,4.3.14,6.46,0,3.81-.21,7.62-.25,11.43-.06,6.06-.1,12.12,0,18.17,0,5.52.3,11,.3,16.55,0,4-.28,8-.41,11.94s-.23,7.77-.34,11.65Zm-2.24-35.56c0,.47,0,.72,0,1,.06.83.39,1.58,1.29,1.53s1.24-.77,1.21-1.61a5.85,5.85,0,0,0-.21-2,1.64,1.64,0,0,0-1.1-.93c-.3,0-.79.5-1,.88A2.83,2.83,0,0,0,324.62,153.28Zm.46-32.85c-1,0-1.41.46-1.49,1.88,0,.91.58,1.86,1.27,1.92.89.07,1.64-.91,1.72-2.24C326.65,120.84,326.3,120.48,325.08,120.43ZM329.21,168a4.25,4.25,0,0,0-.52-1.34,1.67,1.67,0,0,0-1.28-.55c-.42.1-1,.68-1,1a5.52,5.52,0,0,0,.67,2.42,1,1,0,0,0,1.78-.16A6.73,6.73,0,0,0,329.21,168Zm-5.53-30a5.72,5.72,0,0,0,.49,1.66c.21.3.95.62,1.07.51a3.06,3.06,0,0,0,1-1.55,4,4,0,0,0-.42-2,1.25,1.25,0,0,0-1.18-.13A6.78,6.78,0,0,0,323.68,138.07Zm6.47,43.42c0-1.22-.55-2.07-1.46-1.85a2,2,0,0,0-1.2,1.29c-.23,1,.79,2.46,1.47,2.27A1.52,1.52,0,0,0,330.15,181.49Z"/><path class="cls-4" d="M320,188.84c-.61-2.65-1.22-5.31-1.84-8-.87-3.78-1.8-7.54-2.61-11.33-.65-3.09-1.18-6.21-1.72-9.32q-.75-4.24-1.41-8.5c-.53-3.4-1-6.82-1.53-10.22s-1.28-6.81-1.85-10.23c-.71-4.31-1.39-8.63-2-13-.31-2.36-.41-4.75-.51-7.13a1.89,1.89,0,0,1,.6-1.33c1-.86,2-1.6,3.17-2.49,0,1.62-.09,3,0,4.43a19.8,19.8,0,0,0,.64,3.65c.32,1.13,1.12,1.41,2.28,1,2.09-.64,3.31-2.33,4.69-3.83.58-.64,1.13-1.29,1.8-2,.18.33.36.5.35.66-.12,4.12-.29,8.23-.38,12.35-.08,3.76-.18,7.51-.08,11.27q.18,7.1.68,14.2c.35,4.79.89,9.56,1.34,14.35.33,3.52.6,7.06,1,10.58.57,4.95,1.25,9.88,1.88,14.82Z"/><path class="cls-3" d="M114.74,188.84c-.18-3.59-.35-7.18-.53-10.91a20,20,0,0,0,9.23-1.81c.12,1.35.17,2.65.35,3.94.42,2.93.89,5.86,1.34,8.78Z"/><path class="cls-3" d="M300.5,188.84q.06-4.59.11-9.18c.05-4.51.12-9,.1-13.55,0-2.09-.22-4.17-.33-6.26l.31-.11c.61,1.43,1.29,2.84,1.81,4.3,1.5,4.25,1.9,8.73,2.53,13.16.25,1.68.6,3.34.78,5,.24,2.2.35,4.41.52,6.61Z"/><path class="cls-3" d="M8.8,188.84l-.29-4.14a34.89,34.89,0,0,1,4.25-1.11,11.94,11.94,0,0,1,3.12.31,21.25,21.25,0,0,0,11.38-1.23,6,6,0,0,0,1.36-1.08l.46,7.25Z"/><path class="cls-3" d="M105.87,188.84q.22-6,.46-11.91a2.51,2.51,0,0,1,.18-.57l0,0c1.67.45,3.32,1,5,1.3.74.14,1,.23,1,1,0,3.4,0,6.8-.06,10.19Z"/><path class="cls-3" d="M101.56,188.84c.14-3.07.32-6.15.41-9.22.06-2.07,0-4.15-.06-6.22-.1-4.4-.23-8.79-.35-13.18a2.53,2.53,0,0,1,.11-1,48,48,0,0,1,2.24,6.64,36.13,36.13,0,0,1,.34,7c0,5.32-.1,10.65-.16,16Z"/><path d="M252.86,188.84a8.38,8.38,0,0,1,1.12-2.12,2.06,2.06,0,0,1,1.77-.53c.44.16.69,1,.88,1.58.09.31-.14.71-.23,1.07Z"/><path d="M29.46,127.17h-.09l.06,0Z"/><polygon points="135.12 92.43 135.16 92.38 135.14 92.44 135.12 92.43"/><path d="M53.68,14.69l-.08,0,0-.05Z"/><path class="cls-3" d="M86.92,78.36c-.13,1.68-.31,3.36-.4,5A18.19,18.19,0,0,1,81,95.48c-2.15,2.16-5.08,2.75-8.08,3.08a23.88,23.88,0,0,1-10-.57l-.06-.07,0,.09c-1.41-.61-2.85-1.17-4.23-1.84a53.67,53.67,0,0,1-10.22-6.88c-.55-.44-1.86-.9-2-.7-.65.81.14,1.48.66,2.11,0,0,0,.09,0,.1-2.51,2.73-5.59,3.37-9.08,2.57a9.69,9.69,0,0,1-7-5.94,12.9,12.9,0,0,1-.73-9.13c1.17-3.85,4.45-4.84,7.62-3.52A14.18,14.18,0,0,1,41,77c.42.33.72.85,1.18,1.09a1.42,1.42,0,0,0,1.26,0c.24-.2.17-.82.14-1.24a1.3,1.3,0,0,0-.39-.63c-1.37-1.5-.57-3.25-.55-4.9.06-5.73-.54-11.34-2.9-16.65-.3-.68-.45-1.43-.79-2.07a2.15,2.15,0,0,1,.73-3c3-2.51,4.72-6,6.55-9.3.86-1.57,1.6-3.2,2.44-4.78a3.48,3.48,0,0,1,1.05-1.23c3.94-2.67,8.15-4.67,13-4.79,5.33-.14,9,2.5,11.74,6.84,1,1.58,1.81,3.27,2.81,5.08-3.92-1.29-6.7.57-9.42,2.64-.66.5-1.26,1.08-1.89,1.62s-.82,1.15.17,1.61a8,8,0,0,1,1,.76A18.09,18.09,0,0,1,75,44.13a13.66,13.66,0,0,1,2.7-.41,1.13,1.13,0,0,1,.84.65C79.75,47.43,81,50.48,82,53.61c1.14,3.66,2.17,7.37,3,11.13s1.22,7.56,1.8,11.35c.1.67.12,1.36.17,2l0,0-.2.2.2.1ZM73.19,85.45v.28c-.14,1,.29,1.35,1.25.86a18.26,18.26,0,0,0,3.1-2.08c.27-.22.23-.82.34-1.25a3.13,3.13,0,0,0-1.17.11C75.51,84,74.36,84.75,73.19,85.45Zm-39-5.69c-.25.09-.64.13-.71.3-.17.45-.45,1.1-.25,1.4.34.55.73,0,1.17-.19a2.74,2.74,0,0,1,2-.1A16.79,16.79,0,0,1,39,82.82c-.14.79-.34,1.48-.39,2.17-.12,1.44-.53,3,.69,4.16.28.28.84.29,1.27.43a3.17,3.17,0,0,0,0-1.23c-.61-1.31-.28-2.56-.12-3.89,1.06.39,1.25,2,2.82,1.38a5.77,5.77,0,0,0-.65-1.44A23.41,23.41,0,0,0,38,80.1c-1.59-1.06-2.76-1.19-3.88-.37Zm33.13-24.3c-.17,0-.46.07-.51,0-.68-1.14-1.37-2.27-2-3.46-.2-.4,0-1.15-.7-1-.28,0-.54.64-.67,1a1.91,1.91,0,0,0,.07,1,10.77,10.77,0,0,0,2.72,4.61c1,1.08,2.08,2.15,3.1,3.24s1.82,2.09,2.79,3.06A5.47,5.47,0,0,1,74,68.52c-.16,1.41-.33,2.83-.61,4.22-.13.62-.11,1.23.45,1.3a1.62,1.62,0,0,0,1.3-.83,21.22,21.22,0,0,0,1.1-3.83,6.38,6.38,0,0,0-1.14-5.33c-1.71-2.09-3.77-3.89-5.62-5.86-.8-.85-1.46-1.84-2.19-2.77.5.78,1,.73,1.59.07Q70.34,54,72,52.59a3.56,3.56,0,0,1,2.94-.94c-.29,1.58-.63,3.05-.8,4.54-.07.64.18,1.51,1,1.51a2.45,2.45,0,0,0,1.77-.86A4.24,4.24,0,0,0,77.6,53a1,1,0,0,1,.09-.78c.62-.79,0-1.37-.46-1.67a4.72,4.72,0,0,0-3.85-.7C70.43,50.74,68.81,53.05,67.28,55.46ZM63.61,82.38l.24-.28-.51-1.59c-.4.16-.93.21-1.17.5-1.15,1.41-1,3.09-.83,4.75a1.18,1.18,0,0,0,.54.82,4.47,4.47,0,0,0,1.24.24c0-.36.05-.72,0-1.09a5.66,5.66,0,0,0-.09-.78,2.12,2.12,0,0,1,.4,0c7.53,1.33,12.21-2.82,15.2-8.53.11-.23,0-.59,0-.89a6.48,6.48,0,0,0-1.1.17c-.17.06-.25.33-.39.49-1.62,1.84-2.91,4-5.21,5.18A11.51,11.51,0,0,1,63.61,82.38ZM55.68,60.32a3.8,3.8,0,0,1,0,1A5.56,5.56,0,0,0,56,65.14c.43,1.31,1.27,1.48,2.19.48,1.26-1.36,1.15-3.11,1.31-4.74A2.34,2.34,0,0,0,57,58.36a17,17,0,0,0-1.75.07,8.84,8.84,0,0,0-7.91,7.44c0,.33.34.71.53,1.06.29-.2.7-.34.86-.62.53-.9.94-1.86,1.45-2.77C51.36,61.45,53.28,60.61,55.68,60.32Zm-1.74-9.64c-.84.1-1.55.14-2.25.27-3.11.57-5.12,2.74-7,5A12,12,0,0,0,43,59c-.16.36.12.92.21,1.39a9.08,9.08,0,0,0,1.09-.74c.32-.31.51-.76.85-1a43.4,43.4,0,0,1,8.43-5.8,7.56,7.56,0,0,1,1.69-.26,6.41,6.41,0,0,0,1.08-.4c-.19-.38-.29-1-.59-1.09A8.36,8.36,0,0,0,53.94,50.68Z"/><path class="cls-3" d="M163.89,34.81c1.38.82,2.74,1.69,4.15,2.46,1,.54,2,.9,3,1.44a1.69,1.69,0,0,1,.66,1,22.7,22.7,0,0,1,.38,10.14,6.18,6.18,0,0,0,0,1.22c0,1,.38,1.34,1.7,1.13-.15,2.39-.22,4.73-.45,7.06-.36,3.51-.8,7-1.27,10.5a48.47,48.47,0,0,1-1.11,6.37,24,24,0,0,1-6.37,11.46c-4.49,4.27-9.48,4-14.87,2.56a16.12,16.12,0,0,1-6.48-3.49,32.92,32.92,0,0,1-4.7-5.48,32,32,0,0,1-4.77-9.87c-1-3.47-1.93-7-2.94-10.69a6.65,6.65,0,0,0,1.14.76,1,1,0,0,0,.81-.09,1,1,0,0,0,.16-.78c-.24-1.46-.6-2.9-.76-4.37a35.74,35.74,0,0,1-.19-4.51,3.83,3.83,0,0,1,.52-1.94,24.39,24.39,0,0,0,3.6-15.26,10.44,10.44,0,0,0,4.08,4.05c2.13,1.18,4.33,2.11,6.83,1.78.45-.06.84-.5,1.26-.76-.34-.32-.62-.77-1-.93A10.32,10.32,0,0,1,141.3,30a12.79,12.79,0,0,1,.2-1.52c.93,1.65,1.66,3.08,2.54,4.43a32.67,32.67,0,0,0,2.45,3.2c2.14,2.51,5,3.1,8.1,2.86.8-.06,1.6-.06,2.4-.14.31,0,.86-.18.88-.32a1.69,1.69,0,0,0-.3-1.11c-.93-1.22-2-2.33-2.88-3.6a20.6,20.6,0,0,1-1.42-3v0A55.12,55.12,0,0,0,158,35.62c2.61,2.14,5.37,4.18,9.12,3.32a6.9,6.9,0,0,0,1-.4l-4.23-3.75Zm-2,30.37s0,.07,0,.11a1.36,1.36,0,0,0,0,.17l.3,1.54c-.14.17-.39.44-.63.72-1.3,1.47-2.53,3-3.92,4.39-2.72,2.7-5.85,3.63-9.51,1.93a6.05,6.05,0,0,0-1.8-.55,1.29,1.29,0,0,0-1,.48c-.1.13.16.7.4.89a8.19,8.19,0,0,0,1.53.87,9.7,9.7,0,0,0,9.29,0,15.89,15.89,0,0,0,6.07-6.21c.14-.23.32-.45.5-.7.66.52.73,1.75,2,1.31a6.76,6.76,0,0,0-1.75-4.41C163.07,65.33,162.39,65.34,161.87,65.18Zm-8.1-14.05-.17-.08c-.15-1-.22-2.09-.47-3.1-.15-.59-.57-1.2-1.38-1s-.56.84-.39,1.35a9.74,9.74,0,0,1-.16,5.56c-.53,2.18-1.25,4.32-1.85,6.49a7.36,7.36,0,0,0-.11,4.92,5.41,5.41,0,0,0,4.43,3.26c1,.16,1.67-.1,1.88-.91s-.53-1.08-1.31-1.22c-1.25-.23-3.26-1.93-3-3.57.22-1.31.51-2.61.8-3.92C152.61,56.33,153.2,53.73,153.77,51.13ZM164,49.31l.21-.3a9.83,9.83,0,0,1,2.69,1.12,1.85,1.85,0,0,0,2.45.33,14.85,14.85,0,0,0,2.33-2.16c.13-.14-.14-.65-.23-1a2.54,2.54,0,0,0-.94.3c-.58.45-1.09,1-1.63,1.51l-.33-.31a19.4,19.4,0,0,0,1.22-1.92c.14-.3,0-.76,0-1.14a2.79,2.79,0,0,0-1,.32c-.61.57-1.14,1.21-1.61,1.72-1.13-.24-2.16-.48-3.21-.66a7.77,7.77,0,0,0-7.08,1.93,3.2,3.2,0,0,0-.51,1.12,3.76,3.76,0,0,0,1.33,0c1.12-.38,2.2-.88,3.57-1.44-.16.55-.24.78-.29,1a4.3,4.3,0,0,0,.36,3.4,1.43,1.43,0,0,0,2.66-.14A4.4,4.4,0,0,0,164,49.31Zm-19.92,2.27a11.28,11.28,0,0,0,1.94.35,4.81,4.81,0,0,0,1.4-.39c-.28-.41-.47-1-.85-1.19a7.78,7.78,0,0,0-6.44.07,26.69,26.69,0,0,0-2.7,1.54l-2-.15.55,1.93c-.28,0-.71-.11-1.14-.15s-.6,0-.9,0c0,.31-.08.73.09.91a2.16,2.16,0,0,0,1.18.78,3.29,3.29,0,0,0,3-1.25,4.31,4.31,0,0,1,2.64-1.68c0,.88-.06,1.69,0,2.48.1,1.09,1.22,2.17,2.06,2a1.94,1.94,0,0,0,1.75-2.22C144.54,53.63,144.3,52.71,144.07,51.58Zm18.69-11.76-.1.24a22.44,22.44,0,0,0-2.85.38,7,7,0,0,0-4.19,2.35c-.22.31-.14.84-.21,1.27a4.05,4.05,0,0,0,1.22-.12c.73-.29,1.38-.79,2.13-1a13.23,13.23,0,0,1,9.33.47,3.7,3.7,0,0,0,1.36,0A7.21,7.21,0,0,0,169,42a1.23,1.23,0,0,0-.71-.48C166.47,40.9,164.61,40.37,162.76,39.82Zm-15,4.69c.05,0,.64-.2.66-.42a1.68,1.68,0,0,0-.51-1.12,1.92,1.92,0,0,0-1-.46A12.26,12.26,0,0,0,135,47c-.25.29-.1.92-.14,1.39A4.45,4.45,0,0,0,136,48c1.57-.93,3.05-2,4.69-2.85C142.82,44.17,145.12,44.27,147.73,44.51Zm6.58,34-.15-.28c-.36.22-1,.4-1,.68-.14.74.48,1.08,1.11,1a12.93,12.93,0,0,0,2.74-.68c.24-.09.31-.65.46-1-.32-.1-.65-.32-.95-.27A21,21,0,0,0,154.31,78.47Z"/><path class="cls-3" d="M232.27,18.79c.16,2.08.74,3.92,2.53,5.12a4.24,4.24,0,0,0,1.92.82c.42,0,.9-.52,1.35-.81-.25-.33-.44-.9-.75-1-2.25-.56-2.59-2.42-3-4.23a5,5,0,0,1,0-1.64c.24-1.95,2-2.82,3.54-1.67,3.06,2.23,5.7,4.83,6.35,8.83a1.68,1.68,0,0,0,.49,1,2,2,0,0,0,1.26.57c.29-.05.56-.65.73-1.06a20.18,20.18,0,0,0,.6-1.93c1.45,1.55,2.75,3.09,4.21,4.47a40.2,40.2,0,0,0,3.69,2.93A20.5,20.5,0,0,1,257.82,32a3,3,0,0,1,.8,2,12.15,12.15,0,0,0,.68,4.89c.22.59.46,1.12,1.21,1s1-.52.8-1.24c0-.08-.07-.2,0-.24,1.59-1.83.89-4.33,1.88-6.38a9.39,9.39,0,0,1,3-3.73A4.26,4.26,0,0,1,272.13,30,13.37,13.37,0,0,1,271,43.21a15.21,15.21,0,0,1-6.15,5,1.68,1.68,0,0,1-1.17,0c-.89-.29-1.22.07-1.4.89-.4,1.71-.77,3.43-1.31,5.09a26.57,26.57,0,0,1-9.19,13A16.55,16.55,0,0,1,241.58,71c-3.55,0-6.68-1.4-9.62-3.22-3.72-2.3-6-5.78-7.87-9.63-2.73-5.68-3.85-11.76-4.49-18-.32-3.11-.43-6.23-.61-9.35a6.25,6.25,0,0,1,.21-1.29c1.61.63,3.11,1.32,4.69.44.58-.32,1.09-.76,1.66-1.08a1.89,1.89,0,0,1,.92-.16c1.38,0,2.75.08,4.12.12a11,11,0,0,0,1.72,0c.44-.06,1.08-.17,1.23-.46a1.45,1.45,0,0,0-.3-1.28A8.45,8.45,0,0,1,232.27,18.79Zm-9.55,22.35c.36,1,.64,1.08,1.37.21a6,6,0,0,1,5.33-2.2c.87.06,1.74.28,2.61.29.36,0,.74-.34,1.11-.53-.22-.28-.38-.73-.66-.82-2.5-.81-5-1.08-7.43.31-1,.57-2.06,1.16-2.33,2.46,0,0-.07.07-.06.1A.64.64,0,0,0,222.72,41.14Zm18.72-4.33a2.73,2.73,0,0,0,.83-.12,9.34,9.34,0,0,1,5.45-1.4,33.9,33.9,0,0,0,3.48.24c.38,0,.76-.42,1.14-.64-.35-.29-.66-.7-1.06-.82a10.68,10.68,0,0,0-2.45-.44c-2.64-.16-5.24-.11-7.36,1.89-.55.51-.53.87,0,1.32h-.1l.07.08Zm10.38,16c0-.25,0-.5,0-.76.08-2.63-.41-3-2.9-2.06-4.92,1.91-9.8,3.91-14.7,5.86-1.72.68-2.05,1.72-.85,3.17a16.17,16.17,0,0,0,3.13,3.26,17.66,17.66,0,0,0,5.27,2.48c2.49.62,4.4-1,6.06-2.62A12.72,12.72,0,0,0,251.82,52.83ZM237,37.68c-.34-1.44-.58-2.62-.92-3.76-.13-.41-.27-1.17-1-.78-.23.13-.36.77-.28,1.12a8.88,8.88,0,0,1-1.05,6.7c-1.81,3.16-1.66,5.63,1,8.17a8,8,0,0,0,2.16,1.37c.23.12.67-.19,1-.31a3.32,3.32,0,0,0-.41-1.08c-.33-.36-.87-.52-1.21-.87-1.93-2-2.13-4.14-.84-6.68A39.88,39.88,0,0,0,237,37.68Zm28.74-2.62c1.09-.94,2.09-1.76,3-2.65.22-.21.41-.82.3-.94a1.81,1.81,0,0,0-1.07-.41,1.27,1.27,0,0,0-.79.34c-1.61,1.4-3.28,2.8-4,4.85a8.71,8.71,0,0,0-.34,3.23c0,.36.63.7,1,1.05a4.69,4.69,0,0,0,.51-1.18c.19-1.37,1-2,2.05-1.44a3.62,3.62,0,0,1,1,1.31c.3.47.52,1,.95,1.82.46-.62.94-1,1-1.37C269.51,37.31,267.79,36.28,265.7,35.06ZM247,27.86a9.88,9.88,0,0,0-7.87,4.05c-.17.24-.08.67-.12,1a7.17,7.17,0,0,0,1,0c.18,0,.34-.23.52-.34a15.12,15.12,0,0,1,9.15-2.51c.33,0,.68-.35,1-.54-.23-.29-.4-.74-.7-.84C249,28.34,247.83,28.08,247,27.86Zm-25.45,8.21a9.5,9.5,0,0,1,8.76-1.38,4,4,0,0,0,1.61.12,1.1,1.1,0,0,0,.71-.6c.06-.12-.22-.48-.42-.64A7.25,7.25,0,0,0,229.19,32c-2.74-.57-5.08.42-7.35,1.67C220.8,34.28,220.76,35.23,221.59,36.07Zm7.07,5.33c-.09-.11-.3-.46-.37-.43a20.66,20.66,0,0,0-2.3,1,1,1,0,0,0,.18.74C226.61,43.14,228.6,42.12,228.66,41.4Zm16.49-4.35-1.09.85c.4.29.79.78,1.21.82s1.32.26,1.38-.67S245.78,37.49,245.15,37.05Z"/><path class="cls-3" d="M292.64,55.31a3.75,3.75,0,0,0,.05,1,1.37,1.37,0,0,0,.6.7c.13.06.44-.22.67-.35a20,20,0,0,1,3.49-1.82c2.19-.67,4.47-1.1,6.73-1.57,1-.21,2.05-1.59,1.73-2.48-.13-.35-.61-.57-1.15-1a41.55,41.55,0,0,1,1.11-5.23,40.52,40.52,0,0,1,2.34-4.89l.28.12c-.06,1.3-.16,2.59-.18,3.89a11.5,11.5,0,0,0,1.09,5.82,7,7,0,0,0,2,1.93c.39.3.94-.27.77-.86-1.33-4.65-.23-9.14.84-13.64.22-.92.21-2,1.44-2.18,1.14,5.83,3.21,11.06,8.42,14.35-1.49.2-3,.36-4.54.64-.77.15-1.53.26-1.65,1.47-.15,1.57-.32,1.45,1.39,1.67,3.19.42,6.36,1,9.55,1.46a29.33,29.33,0,0,0,3.87.13c.19,0,.39-.34.57-.5a4.74,4.74,0,0,1,2.52,3.27,11.87,11.87,0,0,0,1.35,3,3.24,3.24,0,0,1,.57,2.71,1.38,1.38,0,0,0,0,1c.15.31.5.7.79.73a1.2,1.2,0,0,0,.9-.58,18,18,0,0,1,1.07-2.35c2.15-2.76,5.94-3.84,8.68-.62a6.57,6.57,0,0,1,1.1,5.82,11.6,11.6,0,0,1-4,6.87,14.4,14.4,0,0,0-2.05-1.27c-.35-.14-.85.1-1.29.16a3.35,3.35,0,0,0,.33,1.07c.44.62.78,1.19,0,2-.28-.64-.51-1.19-.77-1.72s-.6-1.18-1.27-.8c-.26.14-.25.92-.2,1.39a13.84,13.84,0,0,0,.51,1.9L336.6,77c.38-1,.64-1.61.9-2.28a4.62,4.62,0,0,0,.45-1.29,1,1,0,0,0-.48-.76c-.14-.08-.6.16-.72.36-.72,1.27-1.35,2.59-2.07,3.86a30.65,30.65,0,0,1-5.73,7,27.34,27.34,0,0,1-7.28,5.35,24.42,24.42,0,0,1-7.51,2.3c-5.33.64-10-1.28-14.06-4.39A16.3,16.3,0,0,1,295.55,81,46.19,46.19,0,0,1,292,69.57a27.6,27.6,0,0,1,.4-13.89,1.19,1.19,0,0,1,.26-.34ZM299,64.43l0,0c-.78-.28-1.24.07-1.26.81,0,.27.53.83.64.79a1,1,0,0,0,.72-1.43A.76.76,0,0,0,299,64.43Zm5.76,12V76.3a6.41,6.41,0,0,0-1.24,0c-.24.05-.58.31-.61.51a1.36,1.36,0,0,0,.34.83c.37.5.84.94,1.2,1.45s.73,1.22,1.1,1.83a22.82,22.82,0,0,0,5,5.08c2.33,1.94,3.76,2.14,5.94,1a8.4,8.4,0,0,0,4-4.17c1.1-2.63,2.88-5.08,2.54-8.16,0-.42,0-1.07-.16-1.18a1.79,1.79,0,0,0-1.28.07c-1.19.39-2.38.81-3.54,1.31a18.18,18.18,0,0,1-6.4,1.53C309.34,76.52,307,76.44,304.73,76.44Zm15.85-16.95a22.52,22.52,0,0,0,.06,3.77,1.93,1.93,0,0,0,1.77,1.83,2.17,2.17,0,0,0,2.26-1.89,18.79,18.79,0,0,0,0-2.9,14.43,14.43,0,0,0,1.75.57,5.14,5.14,0,0,0,1.34-.1c-.22-.39-.34-1-.68-1.16-2-1.14-4-2.24-6.43-1.8a2.26,2.26,0,0,1-1.47-.53c-.51-.36-.82-1.39-1.57-.8s0,1.32.38,1.91c0,.06,0,.15,0,.27a1.33,1.33,0,0,1-1.83-.49c-.17-.22-.57-.48-.77-.42a.94.94,0,0,0-.56.73c0,.45.08,1.1.38,1.32.87.63,1.76,1.4,3,.64A14,14,0,0,1,320.58,59.49ZM304,61.06c.42.15.7.35,1,.31a7.25,7.25,0,0,0,1.31-.45,3.54,3.54,0,0,0-.58-1,3.66,3.66,0,0,0-1.22-.6c-1.85-.64-3.66-1.64-5.71-.9a1.14,1.14,0,0,1-1.58-.49c-.19-.27-.75-.27-1.15-.39a10.61,10.61,0,0,0-.11,1.12c0,.39.05.78.1,1.43a5.77,5.77,0,0,1-.77-.47c-.4-.38-.81-1-1.34-.31s-.11,1.18.37,1.61a2.57,2.57,0,0,0,2.94.13c.82-.39,1.71-.64,2.58-1,.18,1.24.3,2.22.48,3.2s1,1.39,2,1.39,1.27-.75,1.47-1.49A21.17,21.17,0,0,0,304,61.06Zm6.24-1.79c-.33.4-.74.7-.85,1.09-.48,1.68-.8,3.41-1.31,5.08-1,3.32-.4,5.21,2.33,6.85.65.39,1.22.44,1.63-.17s0-1-.54-1.36a3.49,3.49,0,0,1-1.5-3.92c.35-1.45.63-2.93.85-4.41C311,61.45,311.43,60.38,310.26,59.27Zm31.18,7a9.49,9.49,0,0,1,1.73-1.56c1-.54,2.16-.85,3.23-1.31.25-.1.57-.4.58-.62s-.34-.49-.58-.6a1.31,1.31,0,0,0-.85-.05c-1,.3-2,.6-2.95,1a6.44,6.44,0,0,0-3.42,6.44c.26,0,.72.22.79.12.37-.54.65-1.15,1-1.79a3.08,3.08,0,0,1,1.15,2.26c.09.53.13,1.37.93,1.16.32-.08.62-.9.61-1.38A4.1,4.1,0,0,0,341.44,66.29Zm-46.5-1.2c1.47.83,2-.23,2.64-.7.21-.15.2-.6.3-.92-.37,0-.86-.26-1.09-.11A18.55,18.55,0,0,0,294.94,65.09Zm23.16,1,.36-.1c.15-.55.31-1.1.41-1.66,0,0-.61-.32-.7-.24a2.39,2.39,0,0,0-.8,1.12C317.33,65.44,317.84,65.79,318.1,66.08Zm2-2.37c-.37.56-.74.87-.7,1.11s.42.66.65,1c.24-.27.64-.53.67-.83S320.45,64.32,320.13,63.71Z"/><path class="cls-3" d="M135.2,32.83c-.89,0-1.1.48-1,1.33a20.54,20.54,0,0,1-1.78,11.69,40.84,40.84,0,0,1-2.2,3.86c-.4.68-.81,1.18-.13,2.08.41.55.1,1.63.15,2.47.06,1.15.15,2.3.23,3.44l-.35.14c-.28-.47-.6-.93-.84-1.42a5.18,5.18,0,0,0-4-3.21,9.55,9.55,0,0,0-1.84.13c-1.46-1.58-1.61-3.62-1.79-5.58a42.93,42.93,0,0,1,.59-11.48c.55-3,2.25-5.3,3.83-7.72s3.85-4,6-5.77a1.29,1.29,0,0,1,1.11-.15c.7.32.94-.05,1.27-.54a6.09,6.09,0,0,1,1.4-1.68,27.24,27.24,0,0,1,9.22-3.86,45.75,45.75,0,0,1,7.15-1.09,34,34,0,0,1,11.61,1c2.81.86,5.61,1.61,8,3.45,2.54,2,4.24,4.64,6,7.29A22.85,22.85,0,0,1,181,34.75a41.54,41.54,0,0,1,1.15,11.1,13.43,13.43,0,0,0-3.14-.43,12.73,12.73,0,0,0-3,1.06c.07-.7.16-1.49.23-2.29,0-.54.12-1.25-.62-1.28s-.95.57-.88,1.25a2,2,0,0,1-.12.38c-.2-.89-.38-1.65-.55-2.42l-.53-2.41a5.85,5.85,0,0,0,.93-.17,1.17,1.17,0,0,0,.75-1.87c-1.71-2.67-3.45-5.31-5.15-8-.3-.48-.41-1.08-1.19-.73s-.58.91-.22,1.5c1.38,2.27,2.74,4.55,4.1,6.83l-.1.1c-1.29-.66-2.62-1.24-3.86-2a30.37,30.37,0,0,1-8.94-8c-.37-.5-.79-1.05-1.57-.57-.09.06-.29-.07-.44-.08-.37,0-.75,0-1.12-.06,0,.44-.12,1,.08,1.3.95,1.63,1.93,3.25,3,4.8s2.13,2.75,3.3,4.24a21.27,21.27,0,0,1-7.3-6.24c-1.27-1.6-2.51-3.22-3.75-4.85a2.72,2.72,0,0,1-.55-1.1c-.18-1-.86-.89-1.52-.78s-.71.8-.56,1.3a71,71,0,0,0,2.31,7,39.31,39.31,0,0,0,2.84,4.79,9.06,9.06,0,0,1-3.94-.6c-2.36-1-3.78-3-5.2-5-1-1.41-1.74-3-2.65-4.55a5,5,0,0,0-1.2-1.38c-.68-.52-1.14,0-1.57.53-1.39,1.57-1.24,3.36-.75,5.2a12,12,0,0,0,3.2,5.86c.07.06,0,.23,0,.43a11,11,0,0,1-5.83-5.88c-.15-.38-.6-.64-.92-1-.18.42-.39.83-.54,1.26a1.91,1.91,0,0,0,0,.63Z"/><path class="cls-3" d="M106.81,115.31a6.49,6.49,0,0,1,2.37,3.3c2.07,5,3.08,10.21,4.32,15.4a29.57,29.57,0,0,0,1,3.56.89.89,0,0,0,1.72-.36c.09-1.77.1-3.55.07-5.33-.09-5.25-.21-10.51-.31-15.76l.57-.08a35,35,0,0,1,1.4,5.14c.56,4.56.9,9.14,1.33,13.71a7.57,7.57,0,0,0,.82,3.09c.63,1.14.59,2.63.94,4s.84,2.7,1.31,4c.28.77.84.91,1.62.62a13.86,13.86,0,0,0,5.13-4c1.26-1.35,2.42-2.8,3.7-4.12a5.88,5.88,0,0,1,1.94-1.29c.79-.31,1.28.15,1,1a14.9,14.9,0,0,1-1.41,3.19c-2.38,3.93-4.92,7.77-7.24,11.73a38.39,38.39,0,0,0-2.91,6.23,13,13,0,0,0-.36,3.67c-.19,3.29-.31,6.58-.55,9.87a1.82,1.82,0,0,1-.89,1.15,15.54,15.54,0,0,1-8.47,1.71,21.58,21.58,0,0,1-7.58-1.15c-.25-3.19-.35-6.29-.79-9.35-.21-1.52-1.15-2.92-1.58-4.42-.91-3.17-1.65-6.38-2.56-9.55-.67-2.34-1.49-4.65-2.24-7-1-3.19-2.09-6.37-3.1-9.56a6.36,6.36,0,0,1-.09-1.46c2.11.61,3,2.11,3.76,3.73s1.32,3.07,2,4.59a1.69,1.69,0,0,0,.66.82,1.23,1.23,0,0,0,1,0c.17-.08.24-.59.17-.86-.73-2.74-1.56-5.46-2.24-8.21-.55-2.22-.94-4.48-1.35-6.73a6.84,6.84,0,0,1,.12-1.57,9.75,9.75,0,0,1,3.35,3.9c1.26,2.67,2.24,5.48,3.35,8.23a16,16,0,0,0,.91,1.92,1.09,1.09,0,0,0,1.6.5,1.82,1.82,0,0,0,.51-1.48c-.38-2-1-4-1.35-6-.6-3.15-1.12-6.31-1.65-9.47-.24-1.44-.46-2.88-.59-4.33-.09-1,0-2,0-2.92Zm9.33,43.36A21.18,21.18,0,0,0,113.49,147a2.63,2.63,0,0,0-.86-1.05c-.52-.32-1-.18-1,.57a4.67,4.67,0,0,0,.39,1.16,38.23,38.23,0,0,1,1.63,4.32,29.44,29.44,0,0,1,.29,11.07c-.08.61-.33,1.3.36,1.5s1-.59,1.21-1.16a3.05,3.05,0,0,0,.16-.74C115.84,161.33,116,160,116.14,158.67Z"/><path class="cls-3" d="M378.27,117.73a41.63,41.63,0,0,1-3.24,4.21,55.92,55.92,0,0,0-7.9,10.51,18.7,18.7,0,0,0-2.68,8.84c.87.23.85.75.76,1.7-.23,2.65-.09,5.34-.13,8-.05,3.35-.09,6.7-.22,10.05-.08,2-.28,4.08-.51,6.11-.19,1.63-.5,3.24-.75,4.86l-.43.1c-.16-.32-.5-.65-.47-1,.27-2.44.71-4.86.89-7.29.24-3.34.36-6.69.42-10,0-2.62-.13-5.24-.13-7.86a18.66,18.66,0,0,1,.35-3.23c.2-1.12.1-1.31-1-1-1.83.43-3.62,1-5.47,1.32a11.54,11.54,0,0,1-6.48-1.05,1.52,1.52,0,0,1-.78-1.07c-.1-1.75-.06-3.51-.11-5.26a2.1,2.1,0,0,0-.31-.92,7.21,7.21,0,0,1-.71-4.73,20.23,20.23,0,0,0,.15-4.6c-.22-3.32-.32-6.61.8-9.81.17-.47.4-.91.6-1.37l.34,0a19.24,19.24,0,0,1,.61,3.15,29,29,0,0,1-.22,4.46c-.09.73-.43,1.63.46,1.79a1.86,1.86,0,0,0,2-1.21c.75-1.73,1.51-3.45,2.3-5.16.9-2,1.87-3.88,2.76-5.84.64-1.39,1.11-2.86,1.83-4.21a27.63,27.63,0,0,1,2.1-3l.33.16c-.38,1.61-.69,3.25-1.15,4.83-.93,3.15-2,6.27-2.89,9.42-.1.33.14.76.22,1.15.34-.1.81-.1,1-.32a21.92,21.92,0,0,0,2.05-3c1.56-2.9,2.93-5.89,4.55-8.74a54.43,54.43,0,0,1,3.39-4.78l.4.23c-.38,1.12-.73,2.26-1.16,3.37-1.07,2.81-2.13,5.63-3.29,8.4-.59,1.42-1.4,2.76-2.09,4.14-.26.52-.67,1.22.11,1.5.35.13,1.1-.28,1.4-.65,2.72-3.36,5.35-6.78,8.06-10.15a12.4,12.4,0,0,1,1.82-1.55l.36.28a44.82,44.82,0,0,1-2.27,4.08c-1.69,2.44-3.55,4.75-5.28,7.16a16.83,16.83,0,0,0-1.67,3,4.37,4.37,0,0,0,0,1.62l.3.18c.44-.31.89-.6,1.3-.94,2.76-2.28,5.41-4.71,8.85-6a5.32,5.32,0,0,1,.57-.16Zm-23.36,16.88,1,1.12c.26-.28.7-.54.74-.85a15.48,15.48,0,0,1,4.13-8.54,1,1,0,0,0,.2-.94,1.21,1.21,0,0,0-1-.36c-.28,0-.56.32-.81.54-1.86,1.65-2.69,3.92-3.55,6.15C355.38,132.58,355.21,133.49,354.91,134.61Z"/><path class="cls-3" d="M49.34,114.52c1.47-6.8,2.27-13.26,1.53-20.1,4,2.7,7.8,5.34,12.42,6.46s9.24.42,13.82-.5a55,55,0,0,0-.63,14.8c0,.12,0,.25,0,.38.1.56.48,1.46.27,1.62a4.46,4.46,0,0,1-2.24,1,65.49,65.49,0,0,1-8.51.36,61.08,61.08,0,0,1-8.61-1.2,33.8,33.8,0,0,1-4.76-1.53C51.46,115.36,50.27,114.87,49.34,114.52Z"/><path class="cls-3" d="M165.3,90.54a87.77,87.77,0,0,0,2.16,18.9c-7.39,4.16-15.1,4.2-23,2.06.47-3.48,1-6.89,1.36-10.32a29.46,29.46,0,0,0-.75-10.4C151.85,93.89,158.49,95,165.3,90.54Z"/><path class="cls-3" d="M258.68,64.44l.06,3.07a53.22,53.22,0,0,0,1.19,11.39,1.46,1.46,0,0,1-.48,1.2q-2.61,2.15-5.31,4.15a7.71,7.71,0,0,1-1.9,1,4.27,4.27,0,0,0-2.9,3.49,60.35,60.35,0,0,0-.7,7.09c0,1.24-.5,1.73-1.61,1.87-.29,0-.56.1-.95.18-.25-3-.45-6-.75-8.92a3.37,3.37,0,0,0-2.67-3.24,19.08,19.08,0,0,1-3-1.28A1.65,1.65,0,0,1,238.9,82a12.88,12.88,0,0,0,1.31-6.55c0-.5,0-1,0-1.4a44.8,44.8,0,0,0,4.59-.48,19.24,19.24,0,0,0,9.1-4.46c1.66-1.47,3.21-3.07,4.81-4.61Z"/><path class="cls-3" d="M238,78.57a3.27,3.27,0,0,1-.23,1c-.95,1.37-.63,3-.83,4.48a1.5,1.5,0,0,0,.74,1.08c1.5.82,3.06,1.52,4.57,2.31.43.22,1,.58,1.1,1a15.48,15.48,0,0,1,.25,3.47,12.56,12.56,0,0,0,1.11,6.57l-1.29,2.06c1.41.87,1.41.87,2.44-.37-.13,9.12-.27,18.35-.4,27.6-1.21.36-1.85-.18-2.12-1.28-.9-3.66-1.82-7.3-2.66-11s-1.57-7.11-2.29-10.68q-.79-4-1.41-8a20.45,20.45,0,0,1,0-3,7.81,7.81,0,0,1,4.91-2.24,1.08,1.08,0,0,0,.81-.59,1.15,1.15,0,0,0-.4-1,2.65,2.65,0,0,0-2.64-.09c-2.81.94-4.76,3-6.61,5.19-.85,1-1.64,2.07-2.59,3.27a38,38,0,0,1,1.86-8.73c.34-1.11.25-2.35.59-3.46a51.64,51.64,0,0,1,2-5.37A4.35,4.35,0,0,1,238,78.57Z"/><path class="cls-3" d="M261.46,77c-.06-.45-.13-1-.22-1.69.66-.26,1.34-.54,2-.8,1.05-.38,1.5-.18,1.67.93.32,2.09.54,4.19.82,6.29a8.3,8.3,0,0,0,.26,1.49c1,3-.95,4.9-2.68,6.8a42.19,42.19,0,0,1-3.63,3.19A49.67,49.67,0,0,0,258.6,88a3,3,0,0,0-1.67-1.63c-.49-.17-1.33.32-1.85.72-.27.2-.21.85-.3,1.3.42,0,.83.12,1.25.14.16,0,.32-.11.74-.26-.33,1.37-.66,2.58-.92,3.81-.7,3.2-1.41,6.41-2,9.63-1.16,5.78-2.16,11.59-3.44,17.34a71.75,71.75,0,0,1-2.48,7.42l-.29-.08c0-1.2,0-2.4,0-3.6,0-1.75.11-3.5.12-5.26,0-5.86,0-11.72,0-17.57a1.17,1.17,0,0,1,1.5-1.11c1.05.22,1.35-.11,1.42-1.16q.27-4.22.68-8.41c.18-1.87,1.38-2.81,3.14-3.21a3.59,3.59,0,0,0,1.32-.67,63.4,63.4,0,0,0,5.29-4.21A11.29,11.29,0,0,0,262.94,78c.16-.33,0-.82,0-1.24ZM252,107a10.54,10.54,0,0,0-.43-1.4c-.41-.83-1.4-.91-1.7-.06a11,11,0,0,0-.47,3,1,1,0,0,0,.63.81,1.28,1.28,0,0,0,1.07-.41A13.61,13.61,0,0,0,252,107Z"/><path class="cls-3" d="M314.16,104.16a20,20,0,0,0-.41-10,27,27,0,0,0,17.66-9.71c-.09,5,.35,9.88,2.79,14.27C327.58,103.77,320.33,105.74,314.16,104.16Z"/><path class="cls-3" d="M188.64,173.1c.09.6.2,1.19.26,1.79.19,2.1.37,4.21.53,6.31.07.85-.47,1.24-1.22,1.3-2.28.2-4.57.37-6.86.53s-4.73.31-7.3.48c-1.39-7.29-1.13-14.74-1.32-22.44,1.59-.2,3.17-.41,4.75-.59a.81.81,0,0,1,.46.17c1.86,1.34,3.67.74,5.5-.09a1.93,1.93,0,0,1,1.21-.1c.72.18,1.4.54,2.11.75a2.56,2.56,0,0,1,2,2.7c0,3,0,5.93,0,8.89a1,1,0,0,1-.13.35l.06,0Zm-6.73-2.47v0h2.39c2,0,2.86-1.11,2.6-3.11a30,30,0,0,1-.2-3.42c0-.92-.29-1.63-1.33-1.62-2.7,0-5.4,0-8.09.12a2.06,2.06,0,0,0-1.71,2.14c.06,1.62.19,3.23.4,4.83a1.26,1.26,0,0,0,.92.72C178.56,170.48,180.23,170.54,181.91,170.63Zm-5.72,1.59c-.38,1.35.08,1.74,1.05,1.74s2,0,3,0c1.67-.05,3.34-.08,5-.23.35,0,.66-.5,1-.77-.35-.28-.71-.81-1.06-.81C182.18,172.12,179.18,172.18,176.19,172.22Zm5.74,6.05v.19a5.84,5.84,0,0,0,1.51,0c.36-.11.64-.5.95-.77-.27-.28-.53-.79-.82-.82-2.13-.2-4.26-.28-6.39-.44-.71-.05-1.18.34-1,.9a1.61,1.61,0,0,0,1.18.93C178.84,178.34,180.39,178.27,181.93,178.27Z"/><path class="cls-2" d="M46.42,113c.94,1.21,1.81,2.48,2.85,3.59a4.11,4.11,0,0,0,1.93,1.06c3.64,1,7.31,1.91,11,2.9a6.16,6.16,0,0,1,1.39.79l-.21,1.58,0,0-2.6,9c-2.11-.53-4-2-6-3.28A47.09,47.09,0,0,1,50,125.09c-1.58-1.31-3-2.75-4.54-4.15a.75.75,0,0,1-.06-.6c.27-1-.28-1.09-1.38-1,.72-1.9,1.39-3.67,2.07-5.44.11-.3.25-.6.38-.9Z"/><path class="cls-4" d="M140.94,119.23c.64-1.9,1.26-3.81,2-5.67a1.16,1.16,0,0,1,1-.49c2.47.53,4.91,1.26,7.4,1.67a30.39,30.39,0,0,0,4.79.05c-.68,2.59-1.31,4.95-1.91,7.32-.26,1-.47,2.1-.7,3.15-.28,1.32-1,1.73-2.1,1.16A48.84,48.84,0,0,1,140.94,119.23Z"/><path class="cls-4" d="M169.73,111.4l3.05,5.55c-2.54,2.42-5.26,5-8,7.59-.57.54-1,.47-1.43-.17-.69-1.11-1.41-2.22-2.05-3.36-1.11-2-2.18-4-3.2-5.89Z"/><path class="cls-2" d="M70.1,131.15c-.67-3.39-1.31-6.67-1.93-9.86,2-.12,3.77-.25,5.57-.31,2.2-.08,3.53-1.56,4.86-3,.17-.18.1-.64.06-1-.08-.67-.26-1.32-.33-2,0-.33,0-.86.19-1a1.05,1.05,0,0,1,1,.08A7.48,7.48,0,0,1,81,116.22c.4,1,.46,2,.83,3a2.15,2.15,0,0,1-.3,2.09c-1.55,2.67-4.11,4.35-6.26,6.44A12.1,12.1,0,0,1,70.1,131.15Z"/><path class="cls-3" d="M129.35,61.76c-.95-.88-1.85-1.83-2.88-2.62a5.24,5.24,0,0,0-2.12-.92c-.35-.07-.82.39-1.23.6.25.37.41.92.76,1.08a7.73,7.73,0,0,1,3.46,2.59c-.35.74-.69,1.49-1,2.23a1.65,1.65,0,0,0,.57,2.42c1.34-.49.78-2.12,1.62-2.77a5.64,5.64,0,0,1,1.54,1,4,4,0,0,1,.46,1.65c.11.51.33,1.1-.63,1-.17,0-.37.4-.45.49l1,2.91a10.19,10.19,0,0,1-7.6-3.52,7.77,7.77,0,0,1-2.13-5.34c0-2.62.38-5.15,2.5-7,1.46-1.3,4-.56,4.82,1.44.61,1.51,1.08,3.08,1.61,4.61Z"/><path class="cls-3" d="M66.28,123.4c.28,1.6.5,3.2.86,4.78a26.65,26.65,0,0,0,1.09,3.6c.62,1.59,1.14,1.81,3.14,1.67-.3,4.56-.59,9.12-.9,13.86l-4.56,1.81-.39-.26c-.07-8.48.36-17,.48-25.45Zm.37,15c.42.52.71,1.19,1.19,1.37.33.12.93-.42,1.37-.73a1.56,1.56,0,0,0,.54-.68c.27-.69.4-1.43-.31-1.94a1.32,1.32,0,0,0-1.89.34A10.14,10.14,0,0,0,66.65,138.36Zm2.73,6.58c0-1-.6-1.72-1.31-1.73a1.56,1.56,0,0,0-1.39,1.73,1.28,1.28,0,0,0,1.38,1.32C69,146.25,69.19,145.45,69.38,144.94Z"/><path class="cls-3" d="M181.41,48.23c1.22.93,1.29,2.33,1.46,3.66,0,.23-.34.52-.54.76a6.23,6.23,0,0,0-1,1.23c-.12.27.16.72.25,1.09l1-.28h0c-.07.45,0,1.14-.25,1.29-.49.3-1.24.34-1,1.14.14.45.62.79,1.13,1.41l-3.37,5.6-1.34-.94a4.7,4.7,0,0,0-.62,1.38c-.07.71.07,1.45-.79,1.77a.9.9,0,0,1-.68,0,.81.81,0,0,1-.22-.63c.1-2.45.2-4.9.34-7.35a5.34,5.34,0,0,1,.58-2.08l1.83,3.26c1-.46,1.37-1.08,1.06-2a4.89,4.89,0,0,0-1.95-3,1.07,1.07,0,0,1-.41-.89c.64-1.55,1.32-3.1,2.87-4,.18-.1.39-.27.56-.24,1,.18,1-.57,1.14-1.24Z"/><path class="cls-4" d="M323.4,106.39c2.34-.73,4.71-1.36,7-2.23a18.89,18.89,0,0,0,3.19-2c-.22,3.1-.42,6.07-.66,9a5,5,0,0,1-.37,1.67c-.32.74-.95.83-1.67.51a12.94,12.94,0,0,1-5.58-4.11c-.56-.78-1.25-1.47-1.84-2.23-.11-.14,0-.42-.05-.64Z"/><path class="cls-3" d="M359.26,182.15a4.12,4.12,0,0,1-3.85,4.14,8.66,8.66,0,0,1-6.12-2,2.7,2.7,0,0,1-.74-1.29c-.79-2.18-1.6-4.36-2.29-6.58a11,11,0,0,1-.38-3c0-3.67-.13-7.35,0-11a54.11,54.11,0,0,1,1-6.9c.74-4.1,1.55-8.19,2.34-12.29,1-.13,1,.48.91,1.09-.53,2.67-1.14,5.33-1.63,8a74.45,74.45,0,0,0-1.35,8.33c-.28,4.07-.26,8.15-.28,12.23a18.52,18.52,0,0,0,1.87,7.32c.2.45.24,1,.41,1.44,1,2.78,5.29,4.88,7.93,2.66a15,15,0,0,0,1.38-1.58A7.73,7.73,0,0,1,359.26,182.15Z"/><path class="cls-3" d="M292.66,55.34l2-6.64.38.07a2.12,2.12,0,0,0,.18.7,9.53,9.53,0,0,0,.89.91c.22-.33.42-.66.66-1a8.28,8.28,0,0,1,.7-.75c.17-.16.43-.24.53-.43a33.64,33.64,0,0,1,6.44-8.37,19,19,0,0,1,2.9-1.94l0,0a21.18,21.18,0,0,0-3.59,7.24c-.38,1.56-.75,3.09.05,4.59-1.49.16-2.92.25-4.32.49A8.41,8.41,0,0,0,295,52.92c-.78.79-1.54,1.6-2.31,2.39Z"/><path class="cls-3" d="M171.18,159.42v-8l7.3-.35c-2.71,2.15-3.31,4.77-2.25,7.89Z"/><path class="cls-4" d="M312.47,105.93l7.09.63c-2.49,2.44-3.69,5.73-6.6,7.88C311.75,111.54,312.07,108.73,312.47,105.93Z"/><path class="cls-3" d="M185.8,158.92c.09-1.62.28-3.17.24-4.72,0-1.73-.86-3-2.79-3.07,0-.16,0-.28.05-.3a4.44,4.44,0,0,1,6.45,3.78c.08,1.94,0,3.9,0,5.77Z"/><path class="cls-3" d="M167.23,92a14.36,14.36,0,0,1-.19-1.72,2.85,2.85,0,0,1,.66-2c1.42-1.67,2.68-3.47,4-5.2.69,1.61,1.41,3.31,2.12,5-1.13.49-2.3.92-3.38,1.49-.5.27-.82.84-1.25,1.25s-1.12,1-1.67,1.51Z"/><path class="cls-3" d="M183.64,155.24a3.73,3.73,0,0,1-3.54,3.63c-1.17-.07-2.3-1.78-2.19-3.34s1.79-3.36,3.17-3.13C182.64,152.67,183.8,153.4,183.64,155.24Zm-2.46-.29a5.64,5.64,0,0,0-.53-1.22c-.06-.09-.8.07-.85.24a4.76,4.76,0,0,0-.34,2,1.56,1.56,0,0,0,1,1.05,2.75,2.75,0,0,0,1.64-.63,1.09,1.09,0,0,0,.16-1.09C182.1,155,181.56,155.05,181.18,155Z"/><path class="cls-3" d="M345.56,77.4c1.3,1.92,2.84,3.64,2.87,6.16a5.52,5.52,0,0,1-4,5A14,14,0,0,0,345.56,77.4Z"/><path class="cls-3" d="M8.76,181.47c-.83.31-1.49,1.07-2.58.57-.57-.26-.91-.47-.94-1.11-.06-1.12-.17-2.24-.27-3.59a28.51,28.51,0,0,1,3,.5c.27.08.55.58.61.92C8.67,179.62,8.69,180.5,8.76,181.47Z"/><path class="cls-3" d="M138.81,92l1.2-5.22a23.46,23.46,0,0,1,2.48,2.25c.37.43.34,1.19.56,2C141.12,90.15,140.16,92.1,138.81,92Z"/><path class="cls-3" d="M18.45,182l-1-.09c-2.92-.2-2.59-.2-2.44-3,.49,0,1,.07,1.47.07,1.85,0,1.9,0,2,2C18.46,181.23,18.45,181.55,18.45,182Z"/><path class="cls-3" d="M20.21,181.75,19.73,179H23.3l.28,2.61-3.37.15Z"/><path class="cls-3" d="M10.14,178.22l3.11.52v2.63C10.54,181.62,10,182.23,10.14,178.22Z"/><path class="cls-3" d="M105.65,129l-3-4.2h2.45l.74,4.13Z"/><path class="cls-3" d="M177.44,67.93c-.24,1.39-.43,2.55-.63,3.71l-.35,0-1.32-3.32Z"/><path class="cls-3" d="M179.93,47.49a7.35,7.35,0,0,0-4.38,3.78c-.55-.46-.47-.81-.07-1.35C177.2,47.65,178.27,47,179.93,47.49Z"/><path class="cls-3" d="M129.79,73.56,131,73.4l.22,3.39-.43,0C129.82,76,129.94,74.76,129.79,73.56Z"/><path class="cls-3" d="M25.24,181.24c0-.9-.92-1.71.05-2.41.2-.14,1.08.22,1.23.55C27,180.41,26.69,180.82,25.24,181.24Z"/><path class="cls-3" d="M245.47,129.7a2.91,2.91,0,0,1-.26,3.35C244.7,132.4,244.81,130.81,245.47,129.7Z"/><path class="cls-3" d="M3.82,181.5c-1.64-.85-.39-1.9-.58-2.76l.29,0Z"/><path class="cls-3" d="M65.94,120.66l.37,1.69C65.32,122,65.32,122,65.94,120.66Z"/><path class="cls-3" d="M143.25,93.45c.63,1.06.62,1.56-.2,2l.21-2Z"/><path class="cls-3" d="M181.38,149.09l-.14-1,.29-.05.19,1Z"/><path class="cls-3" d="M113.85,126.36l.17,1-.23,0-.25-.92Z"/><path class="cls-3" d="M182.94,151.13l-.15.14-.16-.28c.07,0,.16-.07.21-.05S182.91,151.07,182.94,151.13Z"/><path class="cls-3" d="M182.13,150.68a1.91,1.91,0,0,1-.31.13.37.37,0,0,1-.18-.1,2.29,2.29,0,0,1,.14-.27Z"/><path class="cls-3" d="M258.71,64.46v-.22l.15.08-.18.12Z"/><path class="cls-3" d="M353.62,119.07l0,.1-.14,0s0-.08,0-.11S353.59,119.08,353.62,119.07Z"/><path class="cls-3" d="M196.48,146.86l.07.39h-.08v-.4Z"/><path class="cls-3" d="M304.3,49.89s0-.06,0-.06l.09,0a.41.41,0,0,0,0,.07A.29.29,0,0,1,304.3,49.89Z"/><path class="cls-3" d="M323.42,106.36l-.06,0h0Z"/><polygon class="cls-3" points="63.7 128.69 63.74 128.74 63.67 128.7 63.7 128.69"/><path class="cls-3" d="M99.14,133.21l.09,0-.08,0Z"/><path class="cls-3" d="M40.6,74.78l-.07-.08s.06-.07.08-.07,0,.05.08.08Z"/><path class="cls-3" d="M120.94,125.88l-.19.1.17-.07Z"/><polygon class="cls-3" points="63.34 122.91 63.34 122.97 63.31 122.88 63.34 122.91"/><path class="cls-3" d="M86.92,78.14l-.19.11.19.11,0,0v-.3Z"/><polygon class="cls-3" points="284.15 119.81 284.11 119.86 284.13 119.79 284.15 119.81"/><polygon class="cls-3" points="263.22 5.3 263.21 5.4 263.2 5.33 263.22 5.3"/><polygon class="cls-3" points="170.48 150.59 170.5 150.58 170.46 150.55 170.48 150.59"/><path class="cls-3" d="M170.57,151l-.06,0,0-.07Z"/><path class="cls-3" d="M184.7,58.35l-.2-.05.09-.13.08.2Z"/><polygon class="cls-3" points="182.57 54.69 182.6 54.75 182.54 54.7 182.57 54.69"/><path class="cls-3" d="M46.44,113h0Z"/><path class="cls-3" d="M181.44,48.21l-.18-.3,0,0,.18.35Z"/><path class="cls-3" d="M181.26,47.91l-.09,0h.06Z"/><polygon class="cls-3" points="180.49 47.64 180.46 47.57 180.53 47.58 180.49 47.64"/><path class="cls-3" d="M23.74,43.43l.18,0-.08.12-.07-.18Z"/><path class="cls-3" d="M370.45,111l-.09.19-.07-.1.2,0Z"/><path class="cls-3" d="M307.39,37.92l.31-.21,0,0-.36.19Z"/><path class="cls-3" d="M106.51,176.36l-.08,0h.06Z"/><path class="cls-3" d="M173.05,37.56l.14.16-.11-.2Z"/><polygon class="cls-3" points="307.7 37.7 307.69 37.63 307.71 37.69 307.7 37.7"/><path class="cls-3" d="M173.08,37.52l-.37-.13.1-.1.24.27Z"/><polygon class="cls-3" points="143.26 93.44 143.32 93.51 143.25 93.45 143.26 93.44"/><path class="cls-3" d="M163.79,34.49c0,.11.07.21.1.32l0,0-.11-.28Z"/><path class="cls-3" d="M163.8,34.51l-.41-.19,0,0,.43.13Z"/><polygon class="cls-3" points="23.33 178.99 23.25 178.99 23.3 178.99 23.33 178.99"/><path class="cls-3" d="M364.24,109.08s.06.06.06.08-.05,0-.07.07-.06-.06-.06-.08S364.22,109.11,364.24,109.08Z"/><path class="cls-3" d="M163.14,34l.22.39,0,0-.24-.31Z"/><path class="cls-3" d="M20.21,181.75l0,.11-.09-.09.11,0Z"/><path class="cls-3" d="M163.15,34l0,0h0Z"/><path class="cls-3" d="M135.29,32.75l.14.22-.23-.14Z"/><path class="cls-3" d="M153.27,30.73l0-.06v.06Z"/><path class="cls-3" d="M207.84,30.12v-.07l0,.05Z"/><polygon class="cls-3" points="6.68 184.41 6.72 184.48 6.65 184.42 6.68 184.41"/><polygon class="cls-3" points="132.34 16.7 132.29 16.64 132.35 16.69 132.34 16.7"/><path d="M47.65,157.89l9.69.4a1.58,1.58,0,0,1,1.7,1.57c0,2.3-.16,4.59-.21,6.88-.06,2.55.05,5.12-.16,7.65s-.69,5-1.09,7.46c-.19,1.2-1.06,1.57-2.17,1.68-2,.19-4,.53-6,.65a16.36,16.36,0,0,1-2.9-.42l-4.44-.54c-1.76-.21-3.57-.41-4.5-2.22a7.56,7.56,0,0,1-.81-2.57,55,55,0,0,1-.11-11.4c.13-1.38,0-2.77.07-4.16.06-1.15,0-2.36,1.11-3.19.17-.13.12-.53.19-.8s.12-.71.27-.76c1.18-.33,1.17-1.3,1.17-2.19A1.36,1.36,0,0,1,41,154.41c1.62,0,3.25.08,4.86.18,1.45.1,1.65.36,1.7,1.83C47.6,156.88,47.62,157.33,47.65,157.89Zm9.89,2c-2.46,0-4.65,0-6.83,0-3.52,0-7-.13-10.55-.15a1.17,1.17,0,0,0-.91.57,15.27,15.27,0,0,0-.79,3.9c0,4.76-.37,9.55.64,14.27.31,1.42.6,1.92,2,2.26,1.18.28,2.39.41,3.55.71a20.33,20.33,0,0,0,9.53.08c.61-.14,1.23-.24,1.34-1.06.23-1.72.57-3.43.74-5.15.34-3.46.6-6.92.88-10.38C57.32,163.3,57.42,161.68,57.54,159.87Zm-12.09-2.05v-1.3c-1-.13-1.86-.22-2.72-.35-1.64-.23-1.83-.08-2,1.65Z"/><path d="M241,140c-.22-1.53.09-2.36,2.47-2.64a23.37,23.37,0,0,1,3.24-.17,2,2,0,0,1,2.11,1.91q.47,2.63,1,5.27a2.08,2.08,0,0,1-1.66,2.63,35.19,35.19,0,0,1-4.58.47c-.37,0-1-.3-1.1-.59-.64-2.26-1.16-4.54-1.72-6.81Zm2.24,3-.07-.57-.17.07.26.48.1.75.36-.15ZM242.8,142h.28a6.82,6.82,0,0,1,.19-.78c.31-.82,1.63-1.71,2.24-1.42a1.8,1.8,0,0,1,1,2.12,9.26,9.26,0,0,1-.27,1,2.91,2.91,0,0,0,1.31,2.41c.05-.11.15-.22.14-.33-.2-1.74-.38-3.49-.66-5.21a1.11,1.11,0,0,0-.81-.72c-1.15,0-2.3.17-3.57.29C242.67,140.22,242.73,141.09,242.8,142Z"/><path d="M249.31,152.57c-.52.49-.77.92-1.05,1-2.22.21-4.44.37-6.67.46-.27,0-.57-.55-.85-.85.32-.26.64-.71,1-.74,2-.15,3.93-.23,5.9-.27A7.53,7.53,0,0,1,249.31,152.57Z"/><path d="M244.92,149.3c1.13,0,2.26,0,3.38,0,.32,0,.61.41.92.63-.32.26-.64.72-1,.73-2.24.1-4.49.13-6.73.11-.32,0-.64-.4-1-.62.37-.27.71-.74,1.09-.77a32.39,32.39,0,0,1,3.27,0Z"/><path d="M242.17,156.14a5.17,5.17,0,0,1,.85-.64,2.27,2.27,0,0,1,.74,0h5.37l.17.45a5.69,5.69,0,0,1-1.19,1c-1.62.7-3.3.32-5,.12C242.81,157,242.52,156.47,242.17,156.14Z"/><path d="M277.92,116.35c.95.61.54,1.6.56,2.38,0,2.56,0,5.13-.13,7.69-.11,1.83-.44,3.65-.71,5.47,0,.25-.27.63-.46.67-1.54.26-2.46,1.46-3.44,2.42-2.67,2.59-5.43,1.52-7.75-.6a15.11,15.11,0,0,1-2.27-2,4.53,4.53,0,0,1-.93-2.56c.09-4.29.31-8.59.55-12.88a2.94,2.94,0,0,1,2.49-2.79,40.44,40.44,0,0,1,10.53.71,4.78,4.78,0,0,1,.88.38c-.11,1.07-.73,1.18-1.53,1.13-3.53-.21-7.06-.39-10.79-.6,0,1.63,0,3.21,0,4.78-.06,2.45-.19,4.89-.26,7.34a8.27,8.27,0,0,0,.1,2.59,3.88,3.88,0,0,0,1.37,1.55,35.21,35.21,0,0,0,3,2.15,2.19,2.19,0,0,0,2.59-.06c1.19-.91,2.33-1.9,3.52-2.81a3.08,3.08,0,0,0,1.12-2.63c.1-2.74.23-5.48.35-8.22,0-1,.15-1.92.19-2.88,0-.68.31-1.12,1-1.2Z"/><path d="M253.05,127.89a12,12,0,0,1-.83,2.7,2.32,2.32,0,0,1-1.63.9c-.77,0-1-.78-.84-1.37a12.59,12.59,0,0,1,1.12-2.92,1.41,1.41,0,0,1,1.31-.41C252.57,126.93,252.79,127.53,253.05,127.89Z"/><path d="M253.1,166.28c.5,1.54-.36,2.81-.89,4.12-.09.21-.81.36-1.1.23a1.34,1.34,0,0,1-.73-1,10.66,10.66,0,0,1,.45-2.68c.41-1.41,1-1.56,2.29-.67Z"/><path d="M277.94,116.38l0,0Z"/><path d="M253.12,166.31v-.09l0,.06Z"/><path d="M163.23,152.35a1.46,1.46,0,0,1,1.5,1.18,3.47,3.47,0,0,1-.94,3.66,1.34,1.34,0,0,1-2.08-.3,3.63,3.63,0,0,1,.5-4.09A3.51,3.51,0,0,1,163.23,152.35Z"/><path d="M164.85,134c.06.27.23.56.17.8-.25,1-.57,1.93-.86,2.9s-.75,1.37-1.64,1.23-1-.86-.91-1.56a14.85,14.85,0,0,1,.27-2.11c.38-1.76,1.35-2.14,3-1.23Z"/><path d="M165.53,179.35a10,10,0,0,1-.23,1.09c-.39,1.23-1.43,2-2.28,1.66a2.4,2.4,0,0,1-1-3.15c.23-.4.43-.94.79-1.11a2.31,2.31,0,0,1,1.74-.25c.51.28.75,1,1.11,1.6Z"/><path d="M324.62,153.28a2.83,2.83,0,0,1,.19-1.13c.21-.38.7-.91,1-.88a1.64,1.64,0,0,1,1.1.93,5.85,5.85,0,0,1,.21,2c0,.84-.35,1.57-1.21,1.61s-1.23-.7-1.29-1.53C324.6,154,324.62,153.75,324.62,153.28Z"/><path d="M325.08,120.43c1.22,0,1.57.41,1.5,1.56-.08,1.33-.83,2.31-1.72,2.24-.69-.06-1.32-1-1.27-1.92C323.67,120.89,324.07,120.39,325.08,120.43Z"/><path d="M329.21,168a6.73,6.73,0,0,1-.38,1.4,1,1,0,0,1-1.78.16,5.52,5.52,0,0,1-.67-2.42c0-.35.61-.93,1-1a1.67,1.67,0,0,1,1.28.55A4.25,4.25,0,0,1,329.21,168Z"/><path d="M323.68,138.07a6.78,6.78,0,0,1,1-1.54,1.25,1.25,0,0,1,1.18.13,4,4,0,0,1,.42,2,3.06,3.06,0,0,1-1,1.55c-.12.11-.86-.21-1.07-.51A5.72,5.72,0,0,1,323.68,138.07Z"/><path d="M330.15,181.49A1.52,1.52,0,0,1,329,183.2c-.68.19-1.7-1.26-1.47-2.27a2,2,0,0,1,1.2-1.29C329.6,179.42,330.17,180.27,330.15,181.49Z"/><path d="M67.26,55.42c.73.93,1.39,1.92,2.19,2.77,1.85,2,3.91,3.77,5.62,5.86a6.38,6.38,0,0,1,1.14,5.33,21.22,21.22,0,0,1-1.1,3.83,1.62,1.62,0,0,1-1.3.83c-.56-.07-.58-.68-.45-1.3.28-1.39.45-2.81.61-4.22a5.47,5.47,0,0,0-1.85-4.66c-1-1-1.85-2-2.79-3.06s-2.06-2.16-3.1-3.24A10.77,10.77,0,0,1,63.51,53a1.91,1.91,0,0,1-.07-1c.13-.38.39-1,.67-1,.74-.12.5.63.7,1,.59,1.19,1.28,2.32,2,3.46,0,.08.34,0,.51,0Z"/><path d="M63.61,82.38a11.51,11.51,0,0,0,8.31-1c2.3-1.18,3.59-3.34,5.21-5.18.14-.16.22-.43.39-.49a6.48,6.48,0,0,1,1.1-.17c0,.3.16.66,0,.89-3,5.71-7.67,9.86-15.2,8.53a2.12,2.12,0,0,0-.4,0,5.66,5.66,0,0,1,.09.78c0,.37,0,.73,0,1.09a4.47,4.47,0,0,1-1.24-.24,1.18,1.18,0,0,1-.54-.82c-.2-1.66-.32-3.34.83-4.75.24-.29.77-.34,1.17-.5l.51,1.59Z"/><path d="M55.68,60.32c-2.4.29-4.32,1.13-5.49,3.22-.51.91-.92,1.87-1.45,2.77-.16.28-.57.42-.86.62-.19-.35-.57-.73-.53-1.06a8.84,8.84,0,0,1,7.91-7.44A17,17,0,0,1,57,58.36a2.34,2.34,0,0,1,2.45,2.52c-.16,1.63-.05,3.38-1.31,4.74-.92,1-1.76.83-2.19-.48a5.56,5.56,0,0,1-.29-3.79A3.8,3.8,0,0,0,55.68,60.32Z"/><path d="M53.94,50.68a8.36,8.36,0,0,1,1.82.36c.3.14.4.71.59,1.09a6.41,6.41,0,0,1-1.08.4,7.56,7.56,0,0,0-1.69.26,43.4,43.4,0,0,0-8.43,5.8c-.34.28-.53.73-.85,1a9.08,9.08,0,0,1-1.09.74c-.09-.47-.37-1-.21-1.39a12,12,0,0,1,1.67-3c1.9-2.25,3.91-4.42,7-5C52.39,50.82,53.1,50.78,53.94,50.68Z"/><path d="M67.28,55.46c1.53-2.41,3.15-4.72,6.1-5.58a4.72,4.72,0,0,1,3.85.7c.5.3,1.08.88.46,1.67a1,1,0,0,0-.09.78,4.24,4.24,0,0,1-.77,3.81,2.45,2.45,0,0,1-1.77.86c-.78,0-1-.87-1-1.51.17-1.49.51-3,.8-4.54a3.56,3.56,0,0,0-2.94.94q-1.62,1.36-3.11,2.9c-.63.66-1.09.71-1.59-.07Z"/><path d="M34.11,79.73c1.12-.82,2.29-.69,3.88.37a23.41,23.41,0,0,1,4.59,4.3,5.77,5.77,0,0,1,.65,1.44c-1.57.6-1.76-1-2.82-1.38-.16,1.33-.49,2.58.12,3.89a3.17,3.17,0,0,1,0,1.23c-.43-.14-1-.15-1.27-.43C38,88,38.45,86.43,38.57,85c0-.69.25-1.38.39-2.17a16.79,16.79,0,0,0-2.63-1.65,2.74,2.74,0,0,0-2,.1c-.44.2-.83.74-1.17.19-.2-.3.08-.95.25-1.4.07-.17.46-.21.71-.3l0,0Z"/><path d="M73.19,85.45c1.17-.7,2.32-1.43,3.52-2.08a3.13,3.13,0,0,1,1.17-.11c-.11.43-.07,1-.34,1.25a18.26,18.26,0,0,1-3.1,2.08c-1,.49-1.39.11-1.25-.86l0,0a.53.53,0,0,0,0-.12c0-.06,0-.13,0-.19Zm.44.92-.08-.09s-.08,0-.08.08,0,.06.07.09Z"/><path d="M86.88,78.1v.3l-.2-.1Z"/><path d="M73.19,85.73v-.28h0v.31Z"/><polygon points="62.86 98.01 62.82 97.92 62.88 97.98 62.86 98.01"/><path d="M153.77,51.13c-.57,2.6-1.16,5.2-1.72,7.8-.29,1.31-.58,2.61-.8,3.92-.27,1.64,1.74,3.34,3,3.57.78.14,1.54.32,1.31,1.22s-.93,1.07-1.88.91a5.41,5.41,0,0,1-4.43-3.26,7.36,7.36,0,0,1,.11-4.92c.6-2.17,1.32-4.31,1.85-6.49a9.74,9.74,0,0,0,.16-5.56c-.17-.51-.38-1.13.39-1.35s1.23.39,1.38,1c.25,1,.32,2.07.47,3.1Z"/><path d="M161.87,65.18c.52.16,1.2.15,1.52.49a6.76,6.76,0,0,1,1.75,4.41c-1.27.44-1.34-.79-2-1.31-.18.25-.36.47-.5.7a15.89,15.89,0,0,1-6.07,6.21,9.7,9.7,0,0,1-9.29,0,8.19,8.19,0,0,1-1.53-.87c-.24-.19-.5-.76-.4-.89a1.29,1.29,0,0,1,1-.48,6.05,6.05,0,0,1,1.8.55c3.66,1.7,6.79.77,9.51-1.93,1.39-1.38,2.62-2.92,3.92-4.39.24-.28.49-.55.63-.72l-.3-1.54,0,0v-.3Z"/><path d="M164,49.31a4.4,4.4,0,0,1,0,3.75,1.43,1.43,0,0,1-2.66.14,4.3,4.3,0,0,1-.36-3.4c.05-.23.13-.46.29-1-1.37.56-2.45,1.06-3.57,1.44a3.76,3.76,0,0,1-1.33,0,3.2,3.2,0,0,1,.51-1.12,7.77,7.77,0,0,1,7.08-1.93c1,.18,2.08.42,3.21.66.47-.51,1-1.15,1.61-1.72a2.79,2.79,0,0,1,1-.32c0,.38.19.84,0,1.14a19.4,19.4,0,0,1-1.22,1.92l.33.31c.54-.51,1-1.06,1.63-1.51a2.54,2.54,0,0,1,.94-.3c.09.34.36.85.23,1a14.85,14.85,0,0,1-2.33,2.16,1.85,1.85,0,0,1-2.45-.33A9.83,9.83,0,0,0,164.2,49Z"/><path d="M144.07,51.58c.23,1.13.47,2.05.6,3a1.94,1.94,0,0,1-1.75,2.22c-.84.19-2-.89-2.06-2-.08-.79,0-1.6,0-2.48A4.31,4.31,0,0,0,138.2,54a3.29,3.29,0,0,1-3,1.25,2.16,2.16,0,0,1-1.18-.78c-.17-.18-.07-.6-.09-.91.3,0,.6,0,.9,0s.86.12,1.14.15l-.55-1.93,2,.15a26.69,26.69,0,0,1,2.7-1.54,7.78,7.78,0,0,1,6.44-.07c.38.17.57.78.85,1.19a4.81,4.81,0,0,1-1.4.39A11.28,11.28,0,0,1,144.07,51.58Z"/><path d="M162.76,39.82c1.85.55,3.71,1.08,5.56,1.65A1.23,1.23,0,0,1,169,42a7.21,7.21,0,0,1,.42,1.39,3.7,3.7,0,0,1-1.36,0,13.23,13.23,0,0,0-9.33-.47c-.75.24-1.4.74-2.13,1a4.05,4.05,0,0,1-1.22.12c.07-.43,0-1,.21-1.27a7,7,0,0,1,4.19-2.35,22.44,22.44,0,0,1,2.85-.38Z"/><path d="M147.73,44.51c-2.61-.24-4.91-.34-7,.68-1.64.8-3.12,1.92-4.69,2.85a4.45,4.45,0,0,1-1.23.32c0-.47-.11-1.1.14-1.39a12.26,12.26,0,0,1,11.91-4.46,1.92,1.92,0,0,1,1,.46,1.68,1.68,0,0,1,.51,1.12C148.37,44.31,147.78,44.48,147.73,44.51Z"/><path d="M154.31,78.47a21,21,0,0,1,2.18-.54c.3-.05.63.17.95.27-.15.34-.22.9-.46,1a12.93,12.93,0,0,1-2.74.68c-.63.08-1.25-.26-1.11-1,.06-.28.67-.46,1-.68Z"/><path d="M161.9,65.46a1.36,1.36,0,0,1,0-.17s0-.07,0-.11h0v.3Z"/><path d="M251.82,52.83a12.72,12.72,0,0,1-4,9.33c-1.66,1.58-3.57,3.24-6.06,2.62a17.66,17.66,0,0,1-5.27-2.48A16.17,16.17,0,0,1,233.37,59c-1.2-1.45-.87-2.49.85-3.17,4.9-1.95,9.78-3.95,14.7-5.86,2.49-1,3-.57,2.9,2.06C251.81,52.33,251.82,52.58,251.82,52.83Zm-5.25,0a1.12,1.12,0,0,0-.48,0c-1.26.5-2.53,1-3.78,1.54s-2.53,1.11-4,1.76a7.49,7.49,0,0,0,8.22-3.33l.16-.12-.13,0Zm3,2.53a7.13,7.13,0,0,0-5,1.65,4.09,4.09,0,0,1-3.29,1.13,1.38,1.38,0,0,0-1.61,1.07c-.17.77-.43,1.53-.66,2.35.62.28,1.18.47,1.68.75a3.24,3.24,0,0,0,3,.26A9.51,9.51,0,0,0,249.53,55.38Z"/><path d="M237,37.68a39.88,39.88,0,0,1-1.53,3.88c-1.29,2.54-1.09,4.71.84,6.68.34.35.88.51,1.21.87a3.32,3.32,0,0,1,.41,1.08c-.34.12-.78.43-1,.31a8,8,0,0,1-2.16-1.37c-2.65-2.54-2.8-5-1-8.17a8.88,8.88,0,0,0,1.05-6.7c-.08-.35.05-1,.28-1.12.71-.39.85.37,1,.78C236.38,35.06,236.62,36.24,237,37.68Z"/><path d="M265.7,35.06c2.09,1.22,3.81,2.25,3.58,4.61,0,.4-.52.75-1,1.37-.43-.83-.65-1.35-.95-1.82a3.62,3.62,0,0,0-1-1.31c-1-.59-1.86.07-2.05,1.44a4.69,4.69,0,0,1-.51,1.18c-.34-.35-1-.69-1-1.05a8.71,8.71,0,0,1,.34-3.23c.76-2,2.43-3.45,4-4.85a1.27,1.27,0,0,1,.79-.34,1.81,1.81,0,0,1,1.07.41c.11.12-.08.73-.3.94C267.79,33.3,266.79,34.12,265.7,35.06Z"/><path d="M247,27.86c.79.22,1.93.48,3,.86.3.1.47.55.7.84-.34.19-.69.56-1,.54a15.12,15.12,0,0,0-9.15,2.51c-.18.11-.34.31-.52.34a7.17,7.17,0,0,1-1,0c0-.34-.05-.77.12-1A9.88,9.88,0,0,1,247,27.86Z"/><path d="M221.59,36.07c-.83-.84-.79-1.79.25-2.36,2.27-1.25,4.61-2.24,7.35-1.67a7.25,7.25,0,0,1,3.06,1.53c.2.16.48.52.42.64a1.1,1.1,0,0,1-.71.6,4,4,0,0,1-1.61-.12A9.5,9.5,0,0,0,221.59,36.07Z"/><path d="M241.46,36.84c-.52-.45-.54-.81,0-1.32,2.12-2,4.72-2.05,7.36-1.89a10.68,10.68,0,0,1,2.45.44c.4.12.71.53,1.06.82-.38.22-.76.63-1.14.64a33.9,33.9,0,0,1-3.48-.24,9.34,9.34,0,0,0-5.45,1.4,2.73,2.73,0,0,1-.83.12Z"/><path d="M222.72,40.86c.27-1.3,1.36-1.89,2.33-2.46,2.39-1.39,4.93-1.12,7.43-.31.28.09.44.54.66.82-.37.19-.75.53-1.11.53-.87,0-1.74-.23-2.61-.29a6,6,0,0,0-5.33,2.2c-.73.87-1,.79-1.37-.21h0v-.3Z"/><path d="M228.66,41.4c-.06.72-2,1.74-2.49,1.34A1,1,0,0,1,226,42a20.66,20.66,0,0,1,2.3-1C228.36,40.94,228.57,41.29,228.66,41.4Z"/><path d="M245.15,37.05c.63.44,1.57-.08,1.5,1s-.91.72-1.38.67-.81-.53-1.21-.82Z"/><path d="M222.72,41.14a.64.64,0,0,1-.06-.18s0-.07.06-.1h0v.3Z"/><path d="M241.44,36.81v.11l-.07-.08h.1Z"/><path d="M304.73,76.44c2.31,0,4.61.08,6.91,0a18.18,18.18,0,0,0,6.4-1.53c1.16-.5,2.35-.92,3.54-1.31a1.79,1.79,0,0,1,1.28-.07c.2.11.12.76.16,1.18.34,3.08-1.44,5.53-2.54,8.16a8.4,8.4,0,0,1-4,4.17c-2.18,1.14-3.61.94-5.94-1a22.82,22.82,0,0,1-5-5.08c-.37-.61-.69-1.25-1.1-1.83s-.83-1-1.2-1.45a1.36,1.36,0,0,1-.34-.83c0-.2.37-.46.61-.51a6.41,6.41,0,0,1,1.24,0Zm6.45,7c.44.35.89.72,1.35,1.06a2.61,2.61,0,0,0,3.8-.28c.27-.26.56-.51.83-.76a11.18,11.18,0,0,0,2.76-5.14,1.3,1.3,0,0,0-.46.4c-1.49,1.58-3.15,3-5.43,3A2.84,2.84,0,0,0,311.18,83.47Zm-.34-4.84c2.09,2.3,6,.85,7.58-1.67Z"/><path d="M320.58,59.49a14,14,0,0,0-2.29.95c-1.26.76-2.15,0-3-.64-.3-.22-.38-.87-.38-1.32a.94.94,0,0,1,.56-.73c.2-.06.6.2.77.42a1.33,1.33,0,0,0,1.83.49c0-.12,0-.21,0-.27-.41-.59-1.19-1.26-.38-1.91s1.06.44,1.57.8a2.26,2.26,0,0,0,1.47.53c2.45-.44,4.45.66,6.43,1.8.34.19.46.77.68,1.16a5.14,5.14,0,0,1-1.34.1,14.43,14.43,0,0,1-1.75-.57,18.79,18.79,0,0,1,0,2.9,2.17,2.17,0,0,1-2.26,1.89,1.93,1.93,0,0,1-1.77-1.83A22.52,22.52,0,0,1,320.58,59.49Z"/><path d="M304,61.06a21.17,21.17,0,0,1-.3,2.1c-.2.74-.55,1.49-1.47,1.49s-1.77-.32-2-1.39-.3-2-.48-3.2c-.87.32-1.76.57-2.58,1a2.57,2.57,0,0,1-2.94-.13c-.48-.43-.86-1-.37-1.61s.94-.07,1.34.31a5.77,5.77,0,0,0,.77.47c0-.65-.1-1-.1-1.43a10.61,10.61,0,0,1,.11-1.12c.4.12,1,.12,1.15.39a1.14,1.14,0,0,0,1.58.49c2.05-.74,3.86.26,5.71.9a3.66,3.66,0,0,1,1.22.6,3.54,3.54,0,0,1,.58,1,7.25,7.25,0,0,1-1.31.45C304.72,61.41,304.44,61.21,304,61.06Z"/><path d="M310.26,59.27c1.17,1.11.75,2.18.61,3.16-.22,1.48-.5,3-.85,4.41a3.49,3.49,0,0,0,1.5,3.92c.54.39,1,.76.54,1.36s-1,.56-1.63.17c-2.73-1.64-3.35-3.53-2.33-6.85.51-1.67.83-3.4,1.31-5.08C309.52,60,309.93,59.67,310.26,59.27Z"/><path d="M341.44,66.29A4.1,4.1,0,0,1,343.66,70c0,.48-.29,1.3-.61,1.38-.8.21-.84-.63-.93-1.16A3.08,3.08,0,0,0,341,67.91c-.35.64-.63,1.25-1,1.79-.07.1-.53-.08-.79-.12a6.44,6.44,0,0,1,3.42-6.44c1-.39,1.95-.69,2.95-1a1.31,1.31,0,0,1,.85.05c.24.11.59.4.58.6s-.33.52-.58.62c-1.07.46-2.21.77-3.23,1.31A9.49,9.49,0,0,0,341.44,66.29Z"/><path d="M294.94,65.09a18.55,18.55,0,0,1,1.85-1.73c.23-.15.72.06,1.09.11-.1.32-.09.77-.3.92C296.92,64.86,296.41,65.92,294.94,65.09Z"/><path d="M318.1,66.08c-.26-.29-.77-.64-.73-.88a2.39,2.39,0,0,1,.8-1.12c.09-.08.7.19.7.24-.1.56-.26,1.11-.41,1.66Z"/><path d="M320.13,63.71c.32.61.65,1,.62,1.26s-.43.56-.67.83c-.23-.32-.59-.62-.65-1S319.76,64.27,320.13,63.71Z"/><path d="M299,64.43a.76.76,0,0,1,.13.2,1,1,0,0,1-.72,1.43c-.11,0-.65-.52-.64-.79,0-.74.48-1.09,1.26-.81l-.06.07Z"/><path d="M116.14,158.67c-.15,1.33-.3,2.66-.46,4a3.05,3.05,0,0,1-.16.74c-.23.57-.42,1.39-1.21,1.16s-.44-.89-.36-1.5a29.44,29.44,0,0,0-.29-11.07,38.23,38.23,0,0,0-1.63-4.32,4.67,4.67,0,0,1-.39-1.16c0-.75.47-.89,1-.57a2.63,2.63,0,0,1,.86,1.05A21.18,21.18,0,0,1,116.14,158.67Z"/><path d="M354.91,134.61c.3-1.12.47-2,.79-2.88.86-2.23,1.69-4.5,3.55-6.15.25-.22.53-.51.81-.54a1.21,1.21,0,0,1,1,.36,1,1,0,0,1-.2.94,15.48,15.48,0,0,0-4.13,8.54c0,.31-.48.57-.74.85Z"/><path d="M252,107a13.61,13.61,0,0,1-.9,2,1.28,1.28,0,0,1-1.07.41,1,1,0,0,1-.63-.81,11,11,0,0,1,.47-3c.3-.85,1.29-.77,1.7.06A10.54,10.54,0,0,1,252,107Z"/><path d="M181.91,170.63c-1.68-.09-3.35-.15-5-.31a1.26,1.26,0,0,1-.92-.72c-.21-1.6-.34-3.21-.4-4.83a2.06,2.06,0,0,1,1.71-2.14c2.69-.12,5.39-.12,8.09-.12,1,0,1.31.7,1.33,1.62a30,30,0,0,0,.2,3.42c.26,2-.59,3.08-2.6,3.11h-2.39Zm-4.41-2h7.55V164.3h-8C177.23,165.82,177.37,167.28,177.5,168.61Z"/><path d="M176.19,172.22c3,0,6-.1,9-.07.35,0,.71.53,1.06.81-.33.27-.64.74-1,.77-1.67.15-3.34.18-5,.23-1,0-2,0-3,0S175.81,173.57,176.19,172.22Z"/><path d="M181.93,178.27c-1.54,0-3.09.07-4.62,0a1.61,1.61,0,0,1-1.18-.93c-.14-.56.33-1,1-.9,2.13.16,4.26.24,6.39.44.29,0,.55.54.82.82-.31.27-.59.66-.95.77a5.84,5.84,0,0,1-1.51,0Z"/><path d="M188.64,173.1l0,.09-.06,0Z"/><path d="M66.65,138.36a10.14,10.14,0,0,1,.9-1.64,1.32,1.32,0,0,1,1.89-.34c.71.51.58,1.25.31,1.94a1.56,1.56,0,0,1-.54.68c-.44.31-1,.85-1.37.73C67.36,139.55,67.07,138.88,66.65,138.36Z"/><path d="M69.38,144.94c-.19.51-.34,1.31-1.32,1.32a1.28,1.28,0,0,1-1.38-1.32,1.56,1.56,0,0,1,1.39-1.73C68.78,143.22,69.39,143.92,69.38,144.94Z"/><path d="M181.18,155c.38.1.92.09,1.13.36a1.09,1.09,0,0,1-.16,1.09,2.75,2.75,0,0,1-1.64.63,1.56,1.56,0,0,1-1-1.05,4.76,4.76,0,0,1,.34-2c0-.17.79-.33.85-.24A5.64,5.64,0,0,1,181.18,155Z"/><path class="cls-3" d="M57.54,159.87c-.12,1.81-.22,3.43-.35,5-.28,3.46-.54,6.92-.88,10.38-.17,1.72-.51,3.43-.74,5.15-.11.82-.73.92-1.34,1.06a20.33,20.33,0,0,1-9.53-.08c-1.16-.3-2.37-.43-3.55-.71-1.45-.34-1.74-.84-2-2.26-1-4.72-.61-9.51-.64-14.27a15.27,15.27,0,0,1,.79-3.9,1.17,1.17,0,0,1,.91-.57c3.52,0,7,.11,10.55.15C52.89,159.89,55.08,159.87,57.54,159.87Z"/><path class="cls-3" d="M45.45,157.82H40.76c.14-1.73.33-1.88,2-1.65.86.13,1.74.22,2.72.35Z"/><path class="cls-3" d="M242.8,142c-.07-.86-.13-1.73-.2-2.67,1.27-.12,2.42-.28,3.57-.29a1.11,1.11,0,0,1,.81.72c.28,1.72.46,3.47.66,5.21,0,.11-.09.22-.14.33a2.91,2.91,0,0,1-1.31-2.41,9.26,9.26,0,0,0,.27-1,1.8,1.8,0,0,0-1-2.12c-.61-.29-1.93.6-2.24,1.42a6.82,6.82,0,0,0-.19.78Z"/><path class="cls-3" d="M243.21,143l.48.58-.36.15-.1-.75Z"/><path class="cls-3" d="M243.23,143l-.26-.48.17-.07.07.57Z"/><path class="cls-3" d="M164.85,134l0,0Z"/><path class="cls-3" d="M34.11,79.73h.08l0,0Z"/><path class="cls-3" d="M73.17,85.75v-.31c0,.06,0,.13,0,.19A.53.53,0,0,1,73.17,85.75Z"/><path class="cls-3" d="M73.63,86.37l-.09.08s-.07-.06-.07-.09,0,0,.08-.08Z"/><path class="cls-3" d="M161.87,65.48v0Z"/><path class="cls-3" d="M249.53,55.38a9.51,9.51,0,0,1-5.89,7.21,3.24,3.24,0,0,1-3-.26c-.5-.28-1.06-.47-1.68-.75.23-.82.49-1.58.66-2.35a1.38,1.38,0,0,1,1.61-1.07A4.09,4.09,0,0,0,244.54,57,7.13,7.13,0,0,1,249.53,55.38Z"/><path class="cls-3" d="M246.54,52.81a7.49,7.49,0,0,1-8.22,3.33c1.46-.65,2.72-1.22,4-1.76s2.52-1,3.78-1.54a1.12,1.12,0,0,1,.48,0Z"/><path class="cls-3" d="M246.57,52.85v-.2l.13,0-.16.12Z"/><path class="cls-3" d="M222.7,41.15v0Z"/><path class="cls-3" d="M311.18,83.47A2.84,2.84,0,0,1,314,81.75c2.28,0,3.94-1.42,5.43-3a1.3,1.3,0,0,1,.46-.4,11.18,11.18,0,0,1-2.76,5.14c-.27.25-.56.5-.83.76a2.61,2.61,0,0,1-3.8.28C312.07,84.19,311.62,83.82,311.18,83.47Z"/><path class="cls-3" d="M310.84,78.63,318.42,77C316.85,79.48,312.93,80.93,310.84,78.63Z"/><path class="cls-3" d="M299,64.43l0,.1.06-.07Z"/><path class="cls-3" d="M177.5,168.61c-.13-1.33-.27-2.79-.42-4.31h8v4.31Z"/></g></g></svg>