<svg xmlns="http://www.w3.org/2000/svg" xmlns:xlink="http://www.w3.org/1999/xlink" viewBox="0 0 109.33 108.43"><defs><style>.cls-1{fill:url(#linear-gradient);}.cls-2{fill:url(#linear-gradient-2);}.cls-3{fill:url(#Gradiente_sem_nome_52);}.cls-4{fill:url(#Gradiente_sem_nome_7);}</style><linearGradient id="linear-gradient" x1="22.16" y1="13.88" x2="113.02" y2="104.75" gradientUnits="userSpaceOnUse"><stop offset="0" stop-color="#fee440"/><stop offset="0.22" stop-color="#f15bb5"/><stop offset="0.49" stop-color="#00bbf9"/><stop offset="1" stop-color="#9b5de5"/></linearGradient><linearGradient id="linear-gradient-2" x1="-17.09" y1="27.76" x2="49.07" y2="93.92" xlink:href="#linear-gradient"/><linearGradient id="Gradiente_sem_nome_52" x1="63.75" y1="33.76" x2="84.05" y2="33.76" gradientUnits="userSpaceOnUse"><stop offset="0" stop-color="#ef7ec0"/><stop offset="0.23" stop-color="#ec66ae"/><stop offset="0.71" stop-color="#e52981"/><stop offset="1" stop-color="#e00063"/></linearGradient><linearGradient id="Gradiente_sem_nome_7" x1="48.47" y1="21.51" x2="48.47" y2="49.66" gradientUnits="userSpaceOnUse"><stop offset="0" stop-color="#45f4ff"/><stop offset="0.36" stop-color="#43cffe"/><stop offset="1" stop-color="#3f83fb"/></linearGradient></defs><g id="Layer_2" data-name="Layer 2"><g id="Layer_1-2" data-name="Layer 1"><g id="LOGO"><path class="cls-1" d="M109.33,108.43c-2.12-1-3.93-1.85-5.73-2.73-6.74-3.29-13.46-6.61-20.23-9.85a3,3,0,0,0-2.28,0c-9.18,4.83-19,7.17-29.28,8.17-1.46.15-2.93.25-4.39.39-2.63.24-4.9-.39-6.33-2.79s-.9-4.71.67-6.86c2.39-3.3,4.79-6.58,7.17-9.88q9-12.37,17.95-24.77c.26-.36.49-.73.92-1.37-2,.11-3.87.2-5.68.32L47.17,60.15c-2.44.17-4.89.27-7.33.48-1.07.1-1.58-.22-1.57-1.32q0-3.75,0-7.5a1.21,1.21,0,0,1,1.33-1.38q7-.43,14.08-.92c6.74-.45,13.48-.93,20.23-1.39,1-.07,2-.07,2.94-.11A5.25,5.25,0,0,1,82,50.94a5.65,5.65,0,0,1-.27,6.14c-1.74,2.55-3.6,5-5.42,7.51Q66.6,78,56.84,91.33c-.39.53-.71,1.11-1.06,1.67l.19.37c1.85-.34,3.72-.61,5.54-1.05,6.72-1.63,13.14-4,18.84-8a2.33,2.33,0,0,1,2.71-.19c2.83,1.46,5.7,2.85,8.56,4.25.52.25,1.06.45,1.82.77-.1-.6-.13-1-.22-1.31-1-3.74-2-7.48-3.07-11.21A2.92,2.92,0,0,1,90.54,74c4.49-7.08,7.12-14.8,6.77-23.22-.64-15.69-7.92-27.51-21.48-35.41A39.46,39.46,0,0,0,53.37,10.2a36.32,36.32,0,0,0-18.44,5.85,15.2,15.2,0,0,0-7.25,13.22c0,13,0,26,0,39a5.06,5.06,0,0,0,3.31,5,5.15,5.15,0,0,0,6.27-1.85,5.88,5.88,0,0,0,.95-2.7c.12-1.13.54-1.56,1.65-1.55q3.6.06,7.21,0c1.15,0,1.51.46,1.53,1.58.09,7.14-6,14-13.42,14.89A15.47,15.47,0,0,1,17.8,71.47a25.21,25.21,0,0,1-.4-4.68c0-12.11,0-24.22,0-36.33C17.28,19,22.62,10.94,32.49,5.66A48.28,48.28,0,0,1,53.91,0C69.59-.49,82.85,5,93.6,16.26a50.12,50.12,0,0,1,13.88,32A51.54,51.54,0,0,1,101.8,75.1a5.27,5.27,0,0,0-.36,4.06c2.6,9.3,5.12,18.62,7.66,27.94C109.19,107.41,109.21,107.74,109.33,108.43Z"/><path class="cls-2" d="M38.09,93c-2.39,4-2.59,7.89.18,11.77-.35.16-.6.37-.84.37-5.68,0-11.38.39-17-.8C9.93,102.06.88,91.63.26,80.92,0,77.11,0,73.28,0,69.46Q0,40.93,0,12.4c0-2.29,0-2.3,2.26-2.3s4.32,0,6.47,0c1.23,0,1.63.47,1.62,1.66,0,6.17,0,12.35,0,18.53,0,16,0,32.06,0,48.09a16.39,16.39,0,0,0,14,16.32,23,23,0,0,0,12.14-1.36c.36-.15.73-.28,1.1-.41A3.38,3.38,0,0,1,38.09,93Z"/><path class="cls-3" d="M84,30.22a1.93,1.93,0,0,0-1-1.42.36.36,0,0,0,.41-.37.75.75,0,0,0-.35-.51,2.72,2.72,0,0,0-1.66-.46c0-.23,0-.44,0-.56a2.44,2.44,0,0,0-.5-1.53.76.76,0,0,0-.43-.27.37.37,0,0,0-.41.23,3.3,3.3,0,0,0-1.55-1.86.78.78,0,0,0-.75-.08.61.61,0,0,0-.22.3,4,4,0,0,0-1.74-1.59,1,1,0,0,0-1,0,.8.8,0,0,0-.19.85,4,4,0,0,0-2.84-1.71.59.59,0,0,0-.47.09.5.5,0,0,0-.12.24,3.17,3.17,0,0,0-.1.92,4.39,4.39,0,0,0-2.19-.57,1.44,1.44,0,0,0-1,.33.59.59,0,0,0,0,.89,4.5,4.5,0,0,0-1.37,0,1.56,1.56,0,0,0-.64.21.61.61,0,0,0-.28.55.43.43,0,0,0,.37.33,2.35,2.35,0,0,0-1,.32.81.81,0,0,0-.47.66.68.68,0,0,0,.51.57,2.49,2.49,0,0,0,.82.05c-.21.26-.43.59-.29.9a.47.47,0,0,0,.15.19,5.56,5.56,0,0,0-.3,1.15c-.08.43-.13.87-.17,1.31-.14.7-.19,1.42-.25,1.75a.91.91,0,0,0,0,.4c0,.28.33.47.5.71a1.14,1.14,0,0,1-.36,1.6c-.42.24-1,.26-1.26.67a.74.74,0,0,0,.11.8,1.38,1.38,0,0,0,.77.41c.37.08.88.15.93.51s-.2.52,0,.71a.45.45,0,0,0,.23.14,2.49,2.49,0,0,0,1.65-.19c1.3-.54,1.37-1,2-1.08A1.2,1.2,0,0,1,70.64,37c-.07.66-1.1,1.43-1.75,1.65a3.5,3.5,0,0,0-.8.31.54.54,0,0,0-.23.71c.15.23.49.25.69.44s.07.84.16,1.27a1.1,1.1,0,0,0,.43.59,2.28,2.28,0,0,0,1.94.26,5.29,5.29,0,0,0,1.58-.82c.84,1.16,0,3.09-.73,4.12a.67.67,0,0,0-.13.25.43.43,0,0,0,.31.46,1.09,1.09,0,0,0,.62,0,5.23,5.23,0,0,0,3.22-3,15.58,15.58,0,0,1,.87-1.9,4.33,4.33,0,0,1,1-.82,11.46,11.46,0,0,0,5.26-7.19,1.29,1.29,0,0,0,.26-.68,3.18,3.18,0,0,0-.13-1.3A.58.58,0,0,0,84,31,1.28,1.28,0,0,0,84,30.22Z"/><path class="cls-4" d="M60.84,34.87c-.08-.35-.48-.51-.81-.65a2.46,2.46,0,0,1-1.24-1.07c-.43-.87-.06-1.89.09-2.84A6.07,6.07,0,0,0,59,29.18a3.3,3.3,0,0,0,.56-2.06,2.57,2.57,0,0,0-1.74-2.27,1.11,1.11,0,0,0-.45,0,3.7,3.7,0,0,0-.29-.24,10.4,10.4,0,0,0-6.29-2.06,10.1,10.1,0,0,0-3.75.77,11.27,11.27,0,0,0-1.16.58A3.63,3.63,0,0,0,44,22.52a4.86,4.86,0,0,0-1.5-.37,4.51,4.51,0,0,0-3.79,2.06A6.11,6.11,0,0,0,38.14,30c.32.75.79,1.43,1.18,2.15A4.41,4.41,0,0,1,40,34.5a1.74,1.74,0,0,1-1,1.58,1.41,1.41,0,0,1-1.71-.9.85.85,0,0,1,.36-1.07A1.91,1.91,0,0,0,36.08,36a2.61,2.61,0,0,0,1.32,2.16,4.24,4.24,0,0,0,2.55.51,5,5,0,0,0,2.83-1.13l.12.12a4.13,4.13,0,0,1,1,1.13.94.94,0,0,1-.42,1.3,1.37,1.37,0,0,0,1.67.28l.44-.2c.38.31.77.61,1.17.89a4.5,4.5,0,0,1,1,.81,5.12,5.12,0,0,1,.52.95,5.06,5.06,0,0,0,3.05,3,1,1,0,0,0,.58,0,.44.44,0,0,0,.3-.46.53.53,0,0,0-.13-.26c-.65-.93-1.35-2.63-.85-3.8a8.2,8.2,0,0,0,1.7.92,3.7,3.7,0,0,0,2.06.34,1.68,1.68,0,0,0,1.41-1.38c0-.32-.06-.7.18-.91s.8-.17.82-.51-.26-.35-.48-.42a2.76,2.76,0,0,1-1.16-.58,1.28,1.28,0,0,1-.45-1.16.45.45,0,0,1,.15-.28.62.62,0,0,1,.56,0,4.64,4.64,0,0,0,1.92.26c.32,0,.7-.14.79-.45a5,5,0,0,0,0-.55.91.91,0,0,1,.66-.67,7.35,7.35,0,0,0,.94-.3A.76.76,0,0,0,60.84,34.87Z"/></g></g></g></svg>