<svg xmlns="http://www.w3.org/2000/svg" xmlns:xlink="http://www.w3.org/1999/xlink" viewBox="0 0 98.46 96.59"><defs><style>.cls-1{fill:none;}.cls-2{fill:#e5e5e5;}.cls-3{fill:#fff;}.cls-4{fill:url(#VT_Halftone_5);}.cls-5{fill:#9b5de5;}</style><pattern id="VT_Halftone_5" data-name="VT Halftone 5" width="5.04" height="5.04" patternUnits="userSpaceOnUse" viewBox="0 0 5.04 5.04"><rect class="cls-1" width="5.04" height="5.04"/><circle cx="3.78" cy="5.04" r="0.8"/><circle cx="1.26" cy="5.04" r="0.8"/><circle cx="5.04" cy="2.52" r="0.8"/><circle cx="2.52" cy="2.52" r="0.8"/><circle cy="2.52" r="0.8"/><circle cx="3.78" r="0.8"/><circle cx="1.26" r="0.8"/></pattern></defs><g id="Layer_2" data-name="Layer 2"><g id="BACKGROUND"><path class="cls-2" d="M17.21,13.07A44.49,44.49,0,0,0,6.32,24.42C.11,34.37.28,47.53,5.24,58.16S19.44,77,29.84,82.45c13.1,6.83,28.88,9.49,42.86,4.7s25.4-18,25.75-32.73c.38-15.66-11.07-41.8-25.68-49.78C55.13-5,32.08,1.64,17.21,13.07Z"/></g><g id="OBJECTS"><path d="M72.27,8.84A18.87,18.87,0,0,1,76.7,6.37,6.74,6.74,0,0,1,80.41,6a2.8,2.8,0,0,1,1.15.59.94.94,0,0,1,.18.8.87.87,0,0,1-.63.48,8.73,8.73,0,0,0-3.92.63c-.52.23-1,.56-1.69,1,1.21.37,2.17.63,3.11,1a1.41,1.41,0,0,1,1,1.08c.1.48-.27,1-.73.84-.84-.23-1.67-.5-2.87-.85.63.84,1.07,1.38,1.44,1.95s.73,1.29,1.09,1.93a17,17,0,0,1,1.8,11,13.27,13.27,0,0,1-.28,1.53,4.45,4.45,0,0,0,.85,4.49,5.06,5.06,0,0,1,.91,2.69,12.62,12.62,0,0,1-1.32,8,3.1,3.1,0,0,0-.21.65,3.15,3.15,0,0,0,3.91.2c1.49-.85,2.92-1.78,3.49-3.55,0-.14.11-.32.23-.37.3-.16.67-.41.95-.34a1.17,1.17,0,0,1,.7.74A2.56,2.56,0,0,1,89,42.44a11.09,11.09,0,0,1-3.54,3.31c-.31.17-.62.37-1,.6.87,1.85,2,3.58,1.76,5.67a7.57,7.57,0,0,1-2.86,5.11c1.08,3.65-.61,6.21-3.23,8.43a2,2,0,0,0,2.65.41,8.06,8.06,0,0,1,1.14-.64,1.1,1.1,0,0,1,.77.28.74.74,0,0,1,.16.6,2.26,2.26,0,0,1-1.18,1.53,3.91,3.91,0,0,1-3,.54,7.53,7.53,0,0,0-.85-.15c-1.72,3.76-4.93,5-8.65,5.32-1.24.11-2.5,0-3.87,0a10.77,10.77,0,0,0,1.45,4.94A2.71,2.71,0,0,0,71,79.72c1.84.25,3.67.5,5.51.7a2.27,2.27,0,0,1,1.76.73,3.39,3.39,0,0,0,1.53.79c1.83.57,3.69,1.1,5.54,1.63a18,18,0,0,1,6.31,3.18,10.72,10.72,0,0,1,2.28,2.38c1.27,1.92.53,3.76-1.53,4.36a13.58,13.58,0,0,1-2.16.52c-2.64.29-5.29.59-7.95.76-4.21.27-8.42.46-12.64.63-1.84.07-3.69,0-5.54,0q-8.44.08-16.88.19c-8.15.1-16.31.11-24.45.62A98.39,98.39,0,0,1,11,96.51c-2.88-.15-5.74-.58-8.61-.93A2.5,2.5,0,0,1,.18,93.93,1.72,1.72,0,0,1,0,93.29c.23-1.75.15-3.57,1.13-5.15a4.08,4.08,0,0,1,1-1.18,28.26,28.26,0,0,1,7.46-4.32,21.14,21.14,0,0,1,3.22-.83c2.54-.47,5.13-.78,7.66-1.32,3.18-.68,6.38-1.2,9.57-1.81a25.35,25.35,0,0,0,9.08-4c.05,0,.07-.13.17-.31a4.83,4.83,0,0,0-.93-.42c-.18,0-.41.13-.62.19A5.68,5.68,0,0,1,32.56,73c-1.1.39-2.13.79-3.18,1.13a7.07,7.07,0,0,1-3.07.23c-3.33-.45-5-3.12-3.86-6.28.09-.25.23-.48.55-1.14a9.57,9.57,0,0,0-1.31.65,6.67,6.67,0,0,1-3.54,1.14,2.38,2.38,0,0,1-1.69-.39A1.33,1.33,0,0,1,15.84,67a1,1,0,0,1,1.38-1,3.21,3.21,0,0,0,3.28-.55,21.87,21.87,0,0,1,0-3.54,19.9,19.9,0,0,1,1.17-3.2l-1.45-.58a5.91,5.91,0,0,1-3.88-5.46,10.39,10.39,0,0,1,1.75-6.54,28.48,28.48,0,0,1,2.26-3A43.08,43.08,0,0,0,23.29,39c-.45-.47-.76-.13-1.07,0-5.64,2.17-8.07,6.64-8.8,12.32a3.8,3.8,0,0,0,.82,3.13.65.65,0,0,1,0,1,1.48,1.48,0,0,1-1,.24,1.79,1.79,0,0,1-1.42-1.28,9.91,9.91,0,0,1-.61-2.79,16.2,16.2,0,0,1,2.7-9A12.44,12.44,0,0,1,19.45,38c1.43-.6,2.8-1.38,4.28-1.84a3.77,3.77,0,0,0,2.75-3.63,28.51,28.51,0,0,1,2.44-8.73c1.13-2.57,2-5.28,3.85-7.49a14.06,14.06,0,0,1,2.45-2.54A29.11,29.11,0,0,1,41.74,10a61.85,61.85,0,0,1,15.65-4A24.83,24.83,0,0,1,70.16,8.05l1.42.65A4.46,4.46,0,0,0,72.27,8.84ZM35.94,20.36a8.33,8.33,0,0,0,1.44-.45c2.19-1.19,4.37-2.4,6.52-3.66.8-.47,1.51-1.1,2.27-1.65.06,0,.16,0,.19,0s.51,0,.21-.3l-.37.34c-1.32-.23-2.42.51-3.55.95A14.58,14.58,0,0,0,36,20.39l-.07.06ZM64.88,59.58a7.83,7.83,0,0,0-1.14.62,23.57,23.57,0,0,1-8.44,4.31,18,18,0,0,1-8.13.53,24.15,24.15,0,0,0-2.72-.24c-.14,1.25-.31,2.41-.39,3.58a13.11,13.11,0,0,1-4.5,9.11,7.36,7.36,0,0,0-.71.93l4.64,2c2.52,1,5,2.12,7.57,3.13,3.21,1.28,2.9,1.48,6.43-.45,2.52-1.38,4.86-3.1,7.26-4.69a13.24,13.24,0,0,0,1.16-1c-.25-1-.51-2-.68-2.9-.31-1.67-.67-3.34-.82-5A27.91,27.91,0,0,1,64.75,62a16.17,16.17,0,0,0,.09-2.42l.16,0ZM54.52,13c-2.75,1.41-5.32,2.72-7.88,4.06-3.27,1.71-6.53,3.46-9.81,5.17-1.38.72-2.81,1.33-4.19,2.05a3.32,3.32,0,0,0-2.16,3.08A3.85,3.85,0,0,1,30,28.83,22.89,22.89,0,0,0,28.14,37a33.64,33.64,0,0,0,1.14,11.86,17,17,0,0,0,4.12,7A22.35,22.35,0,0,0,47.06,62.6a16.89,16.89,0,0,0,6.41-.28,21,21,0,0,0,7.8-3.6c.4-.32.87-.56,1.3-.85a15.17,15.17,0,0,0,6.14-7.64,36.9,36.9,0,0,0,2-7.73c.11-.85.13-1.8,1-2.32,1.08.71,1.14.79,1,1.7-.14,1.24-.32,2.49-.45,3.74a3.23,3.23,0,0,0,.16.81c5.62-.54,9.22-7.66,6.36-12.5a7.1,7.1,0,0,0-4.28,2.93c.36.51.7.9,1,1.34a7,7,0,0,1,.84,4.72c-.09.46-.63.91-.94.75a1.37,1.37,0,0,1-.67-.77c-.14-.48,0-1-.17-1.53-.22-.81-.19-1.75-.9-2.27a10.53,10.53,0,0,1-1.08.5.45.45,0,0,1-.39-.16c-.19-.3-.51-.66-.47-.95a6.11,6.11,0,0,1,.65-2.07,8.92,8.92,0,0,1,4.12-3.6,7.06,7.06,0,0,0,.87-.59c-1.29-1.26-2.5-1.46-3.86-.4-1,.77-2,1.49-3.08,2.17a1.29,1.29,0,0,1-1,.09A.8.8,0,0,1,69,33c.7-1.35.37-2.76.33-4.14,0-.73-.33-1.46-.36-2.19a4.79,4.79,0,0,0-2.8-4.21,69.61,69.61,0,0,1-7.71-5.23A11.49,11.49,0,0,1,54.52,13ZM33.4,93.69c.46,0,.81,0,1.16,0,1.85-.07,3.7-.19,5.56-.22,8.06-.12,16.13-.22,24.2-.35a18.84,18.84,0,0,0,2.05-.26c.26-2.07.43-4.06.77-6S68,83,68.41,81L66.9,79.64c-3.43,2.11-6.59,4.48-10.28,5.92-1.36,1.15-2.84.94-4.4.5a40.14,40.14,0,0,1-6.4-2.52l-8-3.83a4.36,4.36,0,0,0-2.13-.52c-1,.06-1.34.2-1.55,1.21A25.56,25.56,0,0,0,33.78,83c-.08.74-.12,1.48-.21,2.21s-.32,1.74-.35,2.61c0,1.48,0,3,0,4.45C33.26,92.73,33.34,93.16,33.4,93.69Zm-31.15.19c4.63,1.17,17.92,1.07,21.19,0,.16-2,.3-4,.49-5.93s.42-3.92.64-5.94a4.55,4.55,0,0,0-2.28-.07c-3.17.69-6.34,1.4-9.53,2A14.45,14.45,0,0,0,8,85.77c-.94.57-1.82,1.26-2.78,1.81C2.82,89,2.3,91.25,2.25,93.88ZM77.6,92.43a7.37,7.37,0,0,0,.82.14c3.63.07,7.22-.4,10.82-.66A11.36,11.36,0,0,0,92,91.16.72.72,0,0,0,92.13,90c-.52-.41-1.11-.74-1.59-1.18A13.28,13.28,0,0,0,86,86.08c-2.63-1-5.29-1.85-7.94-2.75-.12,0-.28,0-.52.09,0,.47-.08,1-.1,1.48A13.74,13.74,0,0,1,77.3,88,7.78,7.78,0,0,0,77.6,92.43ZM31.15,93.71c.09-2.36.09-4.57.28-6.77s.6-4.35.94-6.68l-5.86,1.3c-.76,4.2-1.05,10.36-.58,12.4ZM76.08,81.92c-2.13.1-3.87-.74-5.79-.42-.13.55-.27,1-.36,1.54a35.53,35.53,0,0,1-.74,4.12,17,17,0,0,0-.53,5.93c1.16,0,2.26-.07,3.36-.15a10.31,10.31,0,0,0,3.47-.32,11.39,11.39,0,0,1,0-5.35A50.55,50.55,0,0,0,76.08,81.92Z"/><path class="cls-3" d="M54.52,13a11.49,11.49,0,0,0,3.93,4.2,69.61,69.61,0,0,0,7.71,5.23A4.79,4.79,0,0,1,69,26.64c0,.73.34,1.46.36,2.19,0,1.38.37,2.79-.33,4.14a.8.8,0,0,0,.41,1.12,1.29,1.29,0,0,0,1-.09c1.06-.68,2.09-1.4,3.08-2.17,1.36-1.06,2.57-.86,3.86.4a7.06,7.06,0,0,1-.87.59,8.92,8.92,0,0,0-4.12,3.6,6.11,6.11,0,0,0-.65,2.07c0,.29.28.65.47.95a.45.45,0,0,0,.39.16,10.53,10.53,0,0,0,1.08-.5c.71.52.68,1.46.9,2.27.14.49,0,1.05.17,1.53a1.37,1.37,0,0,0,.67.77c.31.16.85-.29.94-.75a7,7,0,0,0-.84-4.72c-.25-.44-.59-.83-1-1.34a7.1,7.1,0,0,1,4.28-2.93c2.86,4.84-.74,12-6.36,12.5a3.23,3.23,0,0,1-.16-.81c.13-1.25.31-2.5.45-3.74.11-.91,0-1-1-1.7-.9.52-.92,1.47-1,2.32a36.9,36.9,0,0,1-2,7.73,15.17,15.17,0,0,1-6.14,7.64c-.43.29-.9.53-1.3.85a21,21,0,0,1-7.8,3.6,16.89,16.89,0,0,1-6.41.28A22.35,22.35,0,0,1,33.4,55.85a17,17,0,0,1-4.12-7A33.64,33.64,0,0,1,28.14,37,22.89,22.89,0,0,1,30,28.83a3.85,3.85,0,0,0,.45-1.47,3.32,3.32,0,0,1,2.16-3.08c1.38-.72,2.81-1.33,4.19-2.05,3.28-1.71,6.54-3.46,9.81-5.17C49.2,15.72,51.77,14.41,54.52,13Zm1.74,32.91c.05.61.06.91.11,1.19a2.12,2.12,0,0,0,.22.61.72.72,0,0,0,1.14,0,4.57,4.57,0,0,0-1.47-5.83c-.11,0-.28,0-.54.07l-.39,1.79a16.62,16.62,0,0,1-7.84,3.52,8,8,0,0,1-3.08,0c-1.15-.25-2.32-.46-3.48-.65-.63-.11-1.15.14-1,.47a2.92,2.92,0,0,0,.58.85s.13.07.19.1a13.6,13.6,0,0,0,13.9-1Zm-6.8-16.12A10.2,10.2,0,0,0,49.32,28a1.16,1.16,0,0,0-.71-.74c-.41-.09-.64.31-.63.72.07,2.64-1.07,4.85-2.43,7a11.65,11.65,0,0,0-.88,1.53,14.67,14.67,0,0,0-.92,2.71A4.59,4.59,0,0,0,45,43.33a3.67,3.67,0,0,0,2.06,1.22,1.2,1.2,0,0,0,1.19-.41A.94.94,0,0,0,48,43c-.22-.19-.5-.32-.72-.51a3,3,0,0,1-1.15-2.94A12.59,12.59,0,0,1,46.85,37c.4-.94,1-1.81,1.42-2.75A9.37,9.37,0,0,0,49.46,29.79ZM38.13,31.48a19.12,19.12,0,0,1,2.06.42c1.05.33,2.08.75,3.13,1.12a5.31,5.31,0,0,0,1.27.34.81.81,0,0,0,.77-1.18,2,2,0,0,0-.71-.82,11.46,11.46,0,0,0-5.55-2.07,6.83,6.83,0,0,0-3.61.93,3.77,3.77,0,0,0-1.24,1.24,1.18,1.18,0,0,0,.1,1c.07.15.53.2.77.13s.63-.38,1-.5C36.79,31.84,37.49,31.67,38.13,31.48Zm2.46-8.85a11.63,11.63,0,0,0-6.78,3.31,2.17,2.17,0,0,0-.4.77.63.63,0,0,0,.59.76,3.69,3.69,0,0,0,1-.33c.93-.45,1.83-1,2.75-1.42a7,7,0,0,1,5.78-.53,1.25,1.25,0,0,0,.63.14,1.81,1.81,0,0,0,.9-.47c.11-.13,0-.56-.16-.78a2.17,2.17,0,0,0-.65-.59A6.6,6.6,0,0,0,40.59,22.63Zm17,2.26a15.1,15.1,0,0,1,2,.19,14.39,14.39,0,0,1,1.89.62c.82.31,1.63.68,2.46,1a.64.64,0,0,0,.9-.38,1.14,1.14,0,0,0-.15-1,16,16,0,0,0-2.22-1.41,8.77,8.77,0,0,0-7.27-.5,8.11,8.11,0,0,0-2.07,1.19c-.16.1-.2.58-.1.78a1,1,0,0,0,.72.37,3.34,3.34,0,0,0,.84-.21Zm7,9.11a5.78,5.78,0,0,0-.35-1,4.44,4.44,0,0,0-2.72-2.13,10.77,10.77,0,0,0-8.5,1.28,1.09,1.09,0,0,0-.48.44,1.33,1.33,0,0,0-.07.81c0,.12.38.27.55.23.5-.12,1-.33,1.47-.5A11.55,11.55,0,0,1,60,32.45a3.93,3.93,0,0,1,2.69,1.36,3,3,0,0,0,.77.77,1.07,1.07,0,0,0,.82,0C64.42,34.49,64.5,34.21,64.64,34Zm-6.79,1.65c.4-.09.9-.16,1.37-.3s.37-.75.08-.91a3,3,0,0,0-2.9-.09.63.63,0,0,0-.26.54.66.66,0,0,0,.33.51A10.77,10.77,0,0,0,57.85,35.65ZM36.59,34.4c.08.11.13.28.23.35.91.56,1.64,0,2.38-.42.25-.14,0-.78-.29-.88C38,33.14,37.34,33.39,36.59,34.4Z"/><path class="cls-3" d="M64.84,59.54A16.17,16.17,0,0,1,64.75,62a27.91,27.91,0,0,0-.34,7.52c.15,1.69.51,3.36.82,5,.17.94.43,1.87.68,2.9a13.24,13.24,0,0,1-1.16,1C62.35,80,60,81.69,57.49,83.07,54,85,54.27,84.8,51.06,83.52c-2.53-1-5.05-2.08-7.57-3.13l-4.64-2a7.36,7.36,0,0,1,.71-.93,13.11,13.11,0,0,0,4.5-9.11c.08-1.17.25-2.33.39-3.58a24.15,24.15,0,0,1,2.72.24,18,18,0,0,0,8.13-.53,23.57,23.57,0,0,0,8.44-4.31,7.83,7.83,0,0,1,1.14-.62Z"/><path class="cls-4" d="M33.4,93.69c-.06-.53-.14-1-.15-1.39,0-1.48-.08-3,0-4.45,0-.87.25-1.74.35-2.61s.13-1.47.21-2.21a25.56,25.56,0,0,1,.35-2.63c.21-1,.51-1.15,1.55-1.21a4.36,4.36,0,0,1,2.13.52l8,3.83a40.14,40.14,0,0,0,6.4,2.52c1.56.44,3,.65,4.4-.5,3.69-1.44,6.85-3.81,10.28-5.92L68.41,81c-.44,2-.94,3.93-1.27,5.89s-.51,4-.77,6a18.84,18.84,0,0,1-2.05.26c-8.07.13-16.14.23-24.2.35-1.86,0-3.71.15-5.56.22C34.21,93.7,33.86,93.69,33.4,93.69Z"/><path class="cls-4" d="M2.25,93.88c0-2.63.57-4.89,3-6.3C6.22,87,7.1,86.34,8,85.77a14.45,14.45,0,0,1,4.72-1.83c3.19-.64,6.36-1.35,9.53-2a4.55,4.55,0,0,1,2.28.07c-.22,2-.45,4-.64,5.94s-.33,4-.49,5.93C20.17,95,6.88,95.05,2.25,93.88Z"/><path class="cls-4" d="M77.6,92.43A7.78,7.78,0,0,1,77.3,88a13.74,13.74,0,0,0,.18-3.09c0-.5.07-1,.1-1.48.24,0,.4-.13.52-.09,2.65.9,5.31,1.8,7.94,2.75a13.28,13.28,0,0,1,4.5,2.77c.48.44,1.07.77,1.59,1.18A.72.72,0,0,1,92,91.16a11.36,11.36,0,0,1-2.75.75c-3.6.26-7.19.73-10.82.66A7.37,7.37,0,0,1,77.6,92.43Z"/><path class="cls-3" d="M31.15,93.71,25.93,94c-.47-2-.18-8.2.58-12.4l5.86-1.3c-.34,2.33-.74,4.5-.94,6.68S31.24,91.35,31.15,93.71Z"/><path class="cls-3" d="M76.08,81.92a50.55,50.55,0,0,1-.63,5.35,11.39,11.39,0,0,0,0,5.35,10.31,10.31,0,0,1-3.47.32c-1.1.08-2.2.1-3.36.15a17,17,0,0,1,.53-5.93A35.53,35.53,0,0,0,69.93,83c.09-.5.23-1,.36-1.54C72.21,81.18,74,82,76.08,81.92Z"/><path class="cls-3" d="M46.17,14.6c-.76.55-1.47,1.18-2.27,1.65-2.15,1.26-4.33,2.47-6.52,3.66a8.33,8.33,0,0,1-1.44.45l0,0a14.58,14.58,0,0,1,6.68-4.8c1.13-.44,2.23-1.18,3.55-.95Z"/><path class="cls-3" d="M46.2,14.64l.37-.34c.3.34-.12.22-.21.3s-.13,0-.19,0Z"/><polygon class="cls-3" points="64.88 59.58 65 59.49 64.84 59.54 64.88 59.58"/><polygon class="cls-3" points="35.94 20.36 35.9 20.45 35.97 20.39 35.94 20.36"/><path d="M56.26,45.91,54.55,47a13.6,13.6,0,0,1-13.9,1c-.06,0-.15,0-.19-.1a2.92,2.92,0,0,1-.58-.85c-.1-.33.42-.58,1-.47,1.16.19,2.33.4,3.48.65a8,8,0,0,0,3.08,0,16.62,16.62,0,0,0,7.84-3.52L55.72,42c.26,0,.43-.12.54-.07a4.57,4.57,0,0,1,1.47,5.83.72.72,0,0,1-1.14,0,2.12,2.12,0,0,1-.22-.61C56.32,46.82,56.31,46.52,56.26,45.91Z"/><path d="M49.46,29.79a9.37,9.37,0,0,1-1.19,4.45c-.43.94-1,1.81-1.42,2.75a12.59,12.59,0,0,0-.76,2.52,3,3,0,0,0,1.15,2.94c.22.19.5.32.72.51a.94.94,0,0,1,.3,1.18,1.2,1.2,0,0,1-1.19.41A3.67,3.67,0,0,1,45,43.33a4.59,4.59,0,0,1-1.26-4.08,14.67,14.67,0,0,1,.92-2.71A11.65,11.65,0,0,1,45.55,35c1.36-2.15,2.5-4.36,2.43-7,0-.41.22-.81.63-.72a1.16,1.16,0,0,1,.71.74A10.2,10.2,0,0,1,49.46,29.79Z"/><path d="M38.13,31.48c-.64.19-1.34.36-2,.6-.35.12-.64.41-1,.5s-.7,0-.77-.13a1.18,1.18,0,0,1-.1-1,3.77,3.77,0,0,1,1.24-1.24,6.83,6.83,0,0,1,3.61-.93,11.46,11.46,0,0,1,5.55,2.07,2,2,0,0,1,.71.82.81.81,0,0,1-.77,1.18A5.31,5.31,0,0,1,43.32,33c-1-.37-2.08-.79-3.13-1.12A19.12,19.12,0,0,0,38.13,31.48Z"/><path d="M40.59,22.63a6.6,6.6,0,0,1,3.68.86,2.17,2.17,0,0,1,.65.59c.13.22.27.65.16.78a1.81,1.81,0,0,1-.9.47,1.25,1.25,0,0,1-.63-.14,7,7,0,0,0-5.78.53c-.92.46-1.82,1-2.75,1.42a3.69,3.69,0,0,1-1,.33.63.63,0,0,1-.59-.76,2.17,2.17,0,0,1,.4-.77A11.63,11.63,0,0,1,40.59,22.63Z"/><path d="M57.6,24.89l-3,.64a3.34,3.34,0,0,1-.84.21,1,1,0,0,1-.72-.37c-.1-.2-.06-.68.1-.78a8.11,8.11,0,0,1,2.07-1.19,8.77,8.77,0,0,1,7.27.5,16,16,0,0,1,2.22,1.41,1.14,1.14,0,0,1,.15,1,.64.64,0,0,1-.9.38c-.83-.3-1.64-.67-2.46-1a14.39,14.39,0,0,0-1.89-.62A15.1,15.1,0,0,0,57.6,24.89Z"/><path d="M64.64,34c-.14.21-.22.49-.38.55a1.07,1.07,0,0,1-.82,0,3,3,0,0,1-.77-.77A3.93,3.93,0,0,0,60,32.45a11.55,11.55,0,0,0-5.44.64c-.49.17-1,.38-1.47.5-.17,0-.52-.11-.55-.23a1.33,1.33,0,0,1,.07-.81,1.09,1.09,0,0,1,.48-.44,10.77,10.77,0,0,1,8.5-1.28A4.44,4.44,0,0,1,64.29,33,5.78,5.78,0,0,1,64.64,34Z"/><path d="M57.85,35.65a10.77,10.77,0,0,1-1.38-.25.66.66,0,0,1-.33-.51.63.63,0,0,1,.26-.54,3,3,0,0,1,2.9.09c.29.16.24.82-.08.91S58.25,35.56,57.85,35.65Z"/><path d="M36.59,34.4c.75-1,1.36-1.26,2.32-.95.32.1.54.74.29.88-.74.43-1.47,1-2.38.42C36.72,34.68,36.67,34.51,36.59,34.4Z"/><path class="cls-5" d="M12.29,25.5l3.83,1a1.14,1.14,0,0,0,1.39-.78,1.16,1.16,0,0,0-.79-1.39l-3.83-1a1.13,1.13,0,0,0-.6,2.17Z"/><path class="cls-5" d="M14.14,16.5l4.8,5.65a1.14,1.14,0,0,0,1.6,0,1.17,1.17,0,0,0,0-1.59L15.73,14.9a1.13,1.13,0,0,0-1.59,0,1.16,1.16,0,0,0,0,1.6Z"/><path class="cls-5" d="M20.92,15l.51,3.83a1.22,1.22,0,0,0,.33.79,1.07,1.07,0,0,0,.79.33,1.14,1.14,0,0,0,.8-.33,1.07,1.07,0,0,0,.33-.79L23.17,15a1.25,1.25,0,0,0-.33-.8,1.2,1.2,0,0,0-.8-.33,1.16,1.16,0,0,0-.79.33,1.06,1.06,0,0,0-.33.8Z"/><path class="cls-5" d="M42.4,26.07c-3.15-2.43-7.6-1-9.87,1.88a10.6,10.6,0,0,0-1.6,10.36,7.56,7.56,0,0,0,8.78,4.22c3.6-.78,6.14-4,6.88-7.48A10.27,10.27,0,0,0,46,28.6a5.54,5.54,0,0,0-5.24-3.33c-1.43.1-1.45,2.35,0,2.25,3.28-.24,4.08,3.82,3.75,6.31-.35,2.65-1.94,5.39-4.57,6.3a5.52,5.52,0,0,1-6.63-2c-1.4-2.34-1-5.47.29-7.76,1.5-2.67,4.91-4.45,7.64-2.34a1.12,1.12,0,0,0,1.54-.4,1.16,1.16,0,0,0-.4-1.54Z"/><path class="cls-5" d="M46.82,34.33a.2.2,0,0,0,.08,0l-.27.12a1.86,1.86,0,0,1,.56-.15l-.3,0a2.91,2.91,0,0,1,.66,0l-.3,0a3.17,3.17,0,0,1,.73.2l-.27-.11a2.84,2.84,0,0,1,.61.35l-.22-.17a2.92,2.92,0,0,1,.47.46l-.18-.23a2.41,2.41,0,0,1,.32.53L48.6,35a3.38,3.38,0,0,1,.11.34,1.14,1.14,0,0,0,1.38.79,1.17,1.17,0,0,0,.79-1.39A3.62,3.62,0,0,0,49,32.44,4.14,4.14,0,0,0,47.33,32a3.58,3.58,0,0,0-1.64.37,1.09,1.09,0,0,0-.52.67,1.15,1.15,0,0,0,.11.87,1.13,1.13,0,0,0,.67.51,1.31,1.31,0,0,0,.87-.11Z"/><path class="cls-5" d="M61,25.34a10.15,10.15,0,0,0-9.6,3.51c-2.24,2.79-3.11,7.07-1.33,10.32,1.67,3.07,5.93,4.13,9.19,3.77,4-.45,6-4.64,6.26-8.23a10.74,10.74,0,0,0-5.44-9.88A1.13,1.13,0,0,0,59,26.77a8.54,8.54,0,0,1,4.3,6.33c.28,2.51-.62,6.26-3.2,7.37a7.43,7.43,0,0,1-4.23,0,6.05,6.05,0,0,1-3.25-1.64c-1.89-2-1.31-5.62,0-7.79a7.86,7.86,0,0,1,7.81-3.53,1.15,1.15,0,0,0,1.38-.78A1.11,1.11,0,0,0,61,25.34Z"/><path class="cls-5" d="M65.49,35.49a7.39,7.39,0,0,1,.7-.67s.2-.16.08-.07l.19-.13.43-.28a7.66,7.66,0,0,1,.85-.46c.37-.17.4-.18.79-.33a27,27,0,0,1,4-1,1.14,1.14,0,0,0,.79-1.38,1.15,1.15,0,0,0-1.38-.79c-2.87.58-5.93,1.31-8,3.54a1.12,1.12,0,1,0,1.59,1.59Z"/><path class="cls-5" d="M31.11,31.28l-1.51-1a.81.81,0,0,0-.42-.14.86.86,0,0,0-.45,0,.93.93,0,0,0-.38.2.89.89,0,0,0-.29.32,1.11,1.11,0,0,0-.11.87l.11.26a1.12,1.12,0,0,0,.4.41l1.51,1a.91.91,0,0,0,.42.14,1,1,0,0,0,.45,0,1,1,0,0,0,.38-.21.79.79,0,0,0,.29-.31,1.11,1.11,0,0,0,.11-.87l-.11-.27a1.1,1.1,0,0,0-.4-.4Z"/></g></g></svg>