<svg xmlns="http://www.w3.org/2000/svg" xmlns:xlink="http://www.w3.org/1999/xlink" viewBox="0 0 272.33 230.48"><defs><style>.cls-1{fill:none;}.cls-2{fill:url(#VT_Halftone_5);}.cls-3{fill:#fff;}.cls-4{fill:#9b5de5;}.cls-5{fill:#61e268;}</style><pattern id="VT_Halftone_5" data-name="VT Halftone 5" width="5.04" height="5.04" patternUnits="userSpaceOnUse" viewBox="0 0 5.04 5.04"><rect class="cls-1" width="5.04" height="5.04"/><circle cx="3.78" cy="5.04" r="0.8"/><circle cx="1.26" cy="5.04" r="0.8"/><circle cx="5.04" cy="2.52" r="0.8"/><circle cx="2.52" cy="2.52" r="0.8"/><circle cy="2.52" r="0.8"/><circle cx="3.78" r="0.8"/><circle cx="1.26" r="0.8"/></pattern></defs><g id="Layer_2" data-name="Layer 2"><g id="OBJECTS"><path d="M115.89,37.94a15.7,15.7,0,0,1,13.24-.68c1.39.51,2.47-.13,3.52-.66A21.6,21.6,0,0,1,140,34.5a22.83,22.83,0,0,1,10.2,1.06,29.32,29.32,0,0,1,8.8,5c2.53,2,5.41,3.6,8.11,5.42a50.59,50.59,0,0,1,4.26,3.12A10.58,10.58,0,0,1,175,57c.25,4.33-1.3,8.17-3.13,11.95a7,7,0,0,1-.54,1,.89.89,0,0,1-.31.24c.11,1.87.21,3.59.3,5.31a14.29,14.29,0,0,1-2,7.35,21.54,21.54,0,0,1-4.08,5.87c-.77.73-1.65,1.36-2.47,2l-.2-.06.14.12a15.15,15.15,0,0,1-7,2,1.56,1.56,0,0,1-.05.65c-1.66,3.12-2,6.59-2.6,10a39.69,39.69,0,0,0-.49,10.88c.2,2.25.42,4.57,1.81,6.52.36.49.75,1,1.13,1.43l0,.06v-.07c.44-.08.88-.19,1.33-.24,1.37-.14,1.89.24,2.17,1.59s.37,1.45,1.7,1.38c2.19-.12,4.37-.38,6.56-.47,3.27-.13,6.55-.28,9.81-.19a21.7,21.7,0,0,1,6,1.34,7.88,7.88,0,0,1,5,4.12h0v.28h0l3.31,8.49c3.3-.43,6.48-.84,9.66-1.28a4.54,4.54,0,0,0,2.32-1.09,24.59,24.59,0,0,1,2.56-1.61,11.83,11.83,0,0,0,1-6.7,4.67,4.67,0,0,1-.09-.74c0-.38.07-.84.6-.71a1.16,1.16,0,0,1,.75.6,11.22,11.22,0,0,1-.69,8.09c-.12.22-.22.45-.33.68,0,0,0,.08,0,.28a10.5,10.5,0,0,0,1.27.2,33.43,33.43,0,0,0,4.89.18c2.62-.24,5.21-.74,7.82-1.12a19.48,19.48,0,0,0,4.4-1.48,26.84,26.84,0,0,0,7.07-4.54,14.72,14.72,0,0,1,1.55-1l.26.24,0,0-.24-.26c-.86-1.31-1.69-2.64-2.58-3.93a21.31,21.31,0,0,1-2.61-6.27,31.57,31.57,0,0,1-1.14-8.65c0-.7-.13-1.39-.18-1.91-.63,2.36-1.26,4.86-2,7.33a7.74,7.74,0,0,1-1.13,2.33c-2.62,3.64-5.73,6.71-10.17,8.05a16.05,16.05,0,0,1-10.13-.38,20.73,20.73,0,0,1-8.1-5.72,49.9,49.9,0,0,1-8.34-11.39c-.21-.41-.39-.82-1-.77a.44.44,0,0,1-.34-.14c-.88-1.15-2.36-1.46-3.39-2.39s-2-1.92-3-2.89l.2,1.37c-.75.48-1.19.12-1.41-.48-.66-1.78-1.33-3.57-1.85-5.4a17.82,17.82,0,0,1-.7-4,27.06,27.06,0,0,1,.2-4.93,44.24,44.24,0,0,1,1.17-5.83,15.34,15.34,0,0,1,1.42-2.72c.43-.84.77-1.74,1.28-2.54q1.54-2.44,3.26-4.79a16.05,16.05,0,0,1,1.92-2.12,11.12,11.12,0,0,1,2.18-1.77c1.1-.59,1.6-1.69,2.41-2.52a18.28,18.28,0,0,1,4.46-3.12,47.48,47.48,0,0,1,6.91-3.28,28.76,28.76,0,0,1,10.28-1.9c.79,0,1.57.1,2.33.16.41-1.11.79-2.15,1.19-3.17A10,10,0,0,1,218,51a2.6,2.6,0,0,1,1.11-.53,2.48,2.48,0,0,1,.9.16,3.2,3.2,0,0,1-.39.94c-.61.67-1.33,1.24-1.94,1.92a10.35,10.35,0,0,0-1.88,4.2c1.09-.94,2-1.78,3-2.55a3.5,3.5,0,0,1,1.33-.61c.27-.06.61.19.91.31a2.53,2.53,0,0,1-.47.74c-.84.67-1.72,1.28-2.56,1.94a4.05,4.05,0,0,0-.55.75c2.36,1,4.63,1.78,6.84,2.75,5.27,2.34,9.23,6,10.8,11.69a21.14,21.14,0,0,1,.36,6.11c-.07,2.9.09,5.81.15,8.71h0s-.06.06-.06.09a1.52,1.52,0,0,0,.06.2h0c.15,1.94-.58,3.7-1.1,5.51a13.48,13.48,0,0,0-.91,3.38,16.59,16.59,0,0,1-.93,3.33c-.18.66-.29,1.34-.41,2-.23,1.28-.43,2.57-.68,3.85-.36,1.89-.76,3.78-1.11,5.67a10.08,10.08,0,0,0,0,1.23c-.05,1.43,1,2.81.21,4.28.41,1.3.75,2.63,1.26,3.88a30.39,30.39,0,0,0,4.2,7,17.33,17.33,0,0,1,1.17,2.14c1.84.22,4,.41,6.16.75,4.28.69,8.56,1.39,12.82,2.2a6.77,6.77,0,0,1,4.67,3.77,47.58,47.58,0,0,1,4,11.36c1.21,4.84,2.05,9.77,3.08,14.65.44,2.07,1,4.11,1.43,6.18.55,2.75,1,5.52,1.52,8.29.4,2.2.81,4.4,1.15,6.62a6.38,6.38,0,0,1-.17,1.54,8.43,8.43,0,0,0-.08,1.32c.12,1.53.26,3.06.43,4.58.09.79-.05,1.16-1,1.09s-1.25.39-1.32,1.28A134.68,134.68,0,0,1,267.32,212a44.51,44.51,0,0,1-1.27,4.37,1.3,1.3,0,0,1-.81.78c-3.55.62-7.09,1.37-10.67,1.71a59.14,59.14,0,0,1-12.61-.32c-3.46-.4-6.93-.69-10.39-1.08-1.93-.22-3.86-.5-5.77-.81-3.3-.54-6.59-1.18-9.9-1.67a78.9,78.9,0,0,1-11.07-2.43,6.9,6.9,0,0,0-.75-.13v3c0,.67,0,1.33,0,2,0,1.31-.27,2.46-1.51,3a24.07,24.07,0,0,1,0,2.57,1.58,1.58,0,0,1-1.55,1.39,35.09,35.09,0,0,1-8.32.12c-.9-.12-1.83,0-2.74-.09-3.1-.22-6.21-.42-9.31-.73-2.47-.26-4.93-.68-7.39-1a2.33,2.33,0,0,0-.85.14c-1.84.49-3.09-.5-2.88-2.25a5,5,0,0,0-.06-.81l-1,.06-1.2.17a16.22,16.22,0,0,1,.73,2.71c.16,1.73.31,3.51-.57,5.1a3.57,3.57,0,0,1-2.81,1.58c-3.16.43-6.34.73-9.52,1-1.72.17-2.95-.53-2.79-2.7,0-.61,0-1.24,0-2-2.38.3-4.65.68-6.94.85-2.13.16-4.28.15-6.41.12-1.61,0-3.22-.18-4.83-.28a3.89,3.89,0,0,1-.49,0c-1.7-.36-1.94-.56-2.21-2.34a54.49,54.49,0,0,1-1-10.39,10.82,10.82,0,0,0-4.37,1.15,2.56,2.56,0,0,1-2.84,3.15c-.81-.15-1.63-.27-2.44-.44a12.63,12.63,0,0,0-6.57.12,21,21,0,0,1-8.43.78c-4.57-.49-8.74-2.19-12.85-4.08-3.34-1.54-6.63-3.18-10-4.68C81.39,209,79.8,208.61,78,208c.11.69.14,1.08.24,1.47.25,1.06.21,1.26-.8,1.53-2,.54-3.92,1.47-6,1.81-3.14.49-6.23,1.36-9.35,2-3.36.67-6.72,1.37-10.11,1.82-3.81.5-7.66.74-11.49,1.09-1.82.16-3.63.41-5.46.47-3.19.09-6.38.17-9.57,0-2.82-.11-5.62-.52-8.43-.77a7.72,7.72,0,0,1-6.82-5.83A27.39,27.39,0,0,1,8.83,203a67.16,67.16,0,0,1,.71-7.77c.62-3.84,1.35-7.66,2.26-11.44s2-7.22,3.07-10.81a68.62,68.62,0,0,1,2.58-7.6c.91-2.06,1-4.2,1.4-6.32a34.21,34.21,0,0,1,1.69-5.32c.92-2.48,1.93-4.93,2.92-7.39s2.1-4.76,2.91-7.22a76.34,76.34,0,0,0,2-7.77c.39-1.85.46-3.78.81-5.65.23-1.28-.53-2.08-1.1-3a12.45,12.45,0,0,1-1.37-10.6A8.29,8.29,0,0,1,27.83,110a18.79,18.79,0,0,1,1.48-1.71c-1.58-2.05-1.9-4.61-2.21-7.16a14.32,14.32,0,0,1,2.48-9.94A30,30,0,0,1,35,84.89,34.56,34.56,0,0,1,49.14,77.5,52.65,52.65,0,0,1,62,76c.79,0,1.58-.44,2.38-.49a26.37,26.37,0,0,1,5.32-.15,43.34,43.34,0,0,1,12,3.67,12.37,12.37,0,0,1,4.26,3.36,20.29,20.29,0,0,1,3.68,6.44,61,61,0,0,1,1.74,6.57,34.4,34.4,0,0,1,.7,4.64c.2,2.3.34,4.62.39,6.93,0,2.15,0,4.3-.09,6.45-.08,1.87-.42,3.74-.4,5.61a19.58,19.58,0,0,1-.67,5.06,15.63,15.63,0,0,1-7.87,10,1.55,1.55,0,0,0-.75.85c-.4,2-.79,4-1.07,6A36.45,36.45,0,0,0,81.13,151c.09.65.24,1.3.27,2,.12,2.11,1.68,2.69,3.4,3.2.85-4.38,1.63-8.8,2.57-13.19,1-4.75,3.15-8.83,7.61-11.23a22.22,22.22,0,0,1,6.77-2.25c2.45-.43,4.9-.84,7.35-1.25,2.15-.35,4.31-.67,6.47-1,.85-.14,1.69-.33,2.53-.53a1.51,1.51,0,0,0,.63-.35c.73-.65,1.43-1.32,2.25-2.09a1.84,1.84,0,0,1,1.43-2.16.65.65,0,0,1,.24-.06c3-.16,3.82-2.45,4.55-4.79a7,7,0,0,0,.66-3c0-.37.47-.76.54-1.18.17-1,.23-2,.32-2.85-1.87-.94-3.62-1.71-5.26-2.67A28.39,28.39,0,0,1,113,97a36.14,36.14,0,0,1-3.25-8.14,76.58,76.58,0,0,1-2-9.43c-.21-1.47-.37-2.94-.6-4.41,0-.28-.22-.69-.43-.76-.82-.3-1-1-1-1.68-.23-1.58-.39-3.17-.59-4.86.14.07.1,0,.07,0-2,.57-2.78-.1-2.61-2.13.2-2.3.36-4.61.63-6.91a17.83,17.83,0,0,1,.71-3.38,26.35,26.35,0,0,1,3-6.6c1.65-2.49,3.26-5,5-7.42a12.19,12.19,0,0,1,4-3.38Zm74.22,170-1.05.44-.24.28a5.54,5.54,0,0,0-.69.22c-1.79.84-3.56,1.73-5.38,2.52a1.68,1.68,0,0,1-2.47-1.64c0-.41,0-.82,0-1.23-2-.16-2.9-1.1-2.47-2.61a5.56,5.56,0,0,1,1.06-1.77,9,9,0,0,1,1.26-1.14c-.52-2-.4-3.23,1.2-4.48a36.08,36.08,0,0,1,10.32-5.88,12.69,12.69,0,0,1,8.51-.31,11.81,11.81,0,0,0,1.64.29,37.49,37.49,0,0,0,1.3-10.82,15,15,0,0,1-3.2,2.15,50.7,50.7,0,0,1-12.41,3.36,1.57,1.57,0,0,1-1.76-1,13,13,0,0,1-.68-2c-.53-2.33-1-4.66-1.5-7a24.38,24.38,0,0,1-.48-3.29,2.23,2.23,0,0,1,1.8-2.62c2.51-.66,5-1.22,7.59-1.81,2.05-.48,4.12-.89,6.16-1.41,1.15-.29,1.57,0,1.74,1.15a21,21,0,0,0,.83,4.12,23,23,0,0,0,1.9,3.42.26.26,0,0,0,.07.1s0,0,.07,0l-.16-.06a3,3,0,0,0,.26-.82c.09-3.41.18-6.82.21-10.23,0-1.46-.47-1.76-1.78-1.75a75.2,75.2,0,0,0-10.26,1.11c-3.72.57-7.43,1.23-11.17,1.68s-7.35.66-11,1c-.88.08-1.75.28-2.48.4,0,1.53,0,2.82,0,4.1.14,4.27.32,8.53.46,12.79s.13,8.35.35,12.52c.15,2.76.61,5.5.87,8.25.33,3.56.61,7.12.91,10.69a1.1,1.1,0,0,0,1.41,1.05c1.72-.28,3.44-.61,5.17-.79,4.76-.46,9.53-.85,14.3-1.29,2.21-.2,4.42-.44,6.48-.64.24-1.54.44-2.85.66-4.25-.24,0-.4,0-.54.09a34.12,34.12,0,0,0-6.7,2.93,11.87,11.87,0,0,1-5.7,1.46c-.8,0-1-.5-1.37-1s0-1,.34-1.32a16.65,16.65,0,0,1,1.9-1.76c1.12-.85,2.29-1.63,3.43-2.43l.23-.29,1.05-.43.07-.08a.14.14,0,0,0,0-.06Zm8.45-25.39a3.92,3.92,0,0,0,2.91-1.87l-2.9-.33v2.22l0,.05ZM159,73.72a1.45,1.45,0,0,0,.24-.26A22.86,22.86,0,0,1,163,68a.25.25,0,0,0,.09,0s0-.05,0-.07L163,68c-.61,0-1.23.13-1.84.15-.94,0-1.9.86-2.89-.1a15.62,15.62,0,0,1,.72,5.68l0,0ZM132.23,211.88l0,.15s0-.05,0-.06l-.06-.07c-.13-4.49-.57-9-1-13.42s-.79-8.91-1.18-13.37l-.36,0c.12,2.31.17,4.62.36,6.93.26,3,.66,6.08,1,9.13.33,3.4.6,6.81.91,10.22C131.87,211.58,132.1,211.73,132.23,211.88Zm69.1,9.07c-3,.2-5.93.49-8.9.59-3.56.12-7.12.06-10.69.11-1,0-2,.12-3,.18l0,.28c2.06.2,4.12.44,6.18.58s4.32.25,6.48.28c2.56,0,5.13.06,7.69-.06,1.76-.07,1.75-.18,2.17-2l.1,0Zm-95.23-29v-.09l0,.07a4,4,0,0,1-2.57,3.67,25.92,25.92,0,0,1-4.44,1.55,8.05,8.05,0,0,0-3,1.15c3.53,2.61,7.68,3.29,11.53,4.52-.22-2.55-.5-5-.61-7.44A10,10,0,0,0,106.1,191.93Zm130.32-61.61c-1-.68-1.63-.7-2.25.06-2.84,3.49-6.71,5.35-10.83,6.61a33.73,33.73,0,0,1-14.34,1.1,15.12,15.12,0,0,0-5.2.06c-.25,0-.44.33-.69.54a6,6,0,0,0,3.28,1.33,17,17,0,0,0,5.28.06c2.33-.34,4.69-.45,7-.87a41.21,41.21,0,0,0,10.22-2.89,23,23,0,0,0,7.23-5.13c.19-.21.2-.59.29-.89,0,0,.07,0,.09,0s0,0,0-.07ZM205.1,187.14a2.1,2.1,0,0,0,.16-.46c.34-4,.63-8.08,1-12.12.32-3.13.79-6.25,1.16-9.38a12.2,12.2,0,0,0-.08-4.34c-3.86.13-7.61.16-11.35.39-2.85.18-5.68.6-8.52.94-2,.24-4,.46-5.92.81-2.85.5-5.68,1.09-8.51,1.68a8.32,8.32,0,0,0-1.45.59c.08.69.37.9.93.81s1.24-.18,1.86-.25c3.54-.43,7.09-.77,10.61-1.28,5.41-.8,10.74-2.15,16.24-2.24,1.28,0,2.7-.22,3.48,1.07a5.78,5.78,0,0,1,.84,2.67c.07,1.87-.13,3.74-.18,5.62q-.21,6.81-.38,13.63c0,.63.07,1.26.11,1.88l-.23.18.11.12ZM75.53,162.31a1.74,1.74,0,0,1,.26.53c.25,2.82.52,5.64.71,8.47.28,4.2.5,8.41.73,12.61.22,4,1.07,7.85.88,11.83a1.16,1.16,0,0,0,1.72.88c.72-.39,1.39-.88,2.09-1.3,2-1.21,3.83-2.75,6.08-3.54,1.43-.51,2.84-1,4.35-1.62a24.93,24.93,0,0,1-.5-2.49c-.45-4-.81-8-1.28-12-.22-1.92-.53-3.84-.93-5.73-.53-2.47-1.45-4.88-1.73-7.37-.31-2.88-3.58-5-6.42-5.36a2.07,2.07,0,0,1-.77-.32c-.45-.27-.87-.61-1.32-.87-1-.56-2-1.05-2.92-1.63s-1.78-1.22-2.67-1.84l-.07-.07.09.05c0,.2.08.4.14.6a42.89,42.89,0,0,1,1.59,9.14.45.45,0,0,0-.07.07s0,0,0,.06Zm37.09,52.88.74.2,0-.14-.79,0c-.59-.25-1.16-.51-1.76-.73-2-.75-4-1.51-6.06-2.21-.66-.23-1.5-.23-1.36-1.23.1-.63.71-.75,1.94-.47.12,0,.25,0,.37.07q2.59.84,5.17,1.71c3.22,1.08,6.42,2.2,9.66,3.24a11.84,11.84,0,0,0,3,.55c1,.06,1.34-.67.74-1.47a1.66,1.66,0,0,0-1.13-.61c-2.72,0-5.19-1-7.65-1.88a55.55,55.55,0,0,0-12.1-3.52c-.48-.06-1.13-.18-1-.82,0-.33.58-.6.92-.84a1,1,0,0,1,.61-.07,26.47,26.47,0,0,1,4.39.73c3.8,1.27,7.54,2.7,11.3,4.1a8.65,8.65,0,0,0,4.59.55c0-1-.74-1.34-1.39-1.69a43.31,43.31,0,0,0-8.18-3.92c-3.21-1-6.4-2-9.62-3a31,31,0,0,1-7.58-2.92c-.92-.56-1.76-1.26-2.71-1.74-.74-.38-.81-.84-.36-1.36a4.6,4.6,0,0,1,1.68-1.38c1.82-.65,3.72-1.07,5.56-1.69a4,4,0,0,0,2.77-2.08c.41-1,.25-1.3-.81-1.29-2.11,0-4.21.13-6.31.17a23.8,23.8,0,0,0-12,3.56c-1.8,1.07-3.59,2.17-5.35,3.31a2.14,2.14,0,0,0-.79,1.12,23,23,0,0,0-.71,3.27c-.17,1.33-.22,2.69-.33,4.05A25.7,25.7,0,0,1,85,208.81c2.45,1.1,4.84,2.34,7.31,3.39s4.81,1.85,7.23,2.74a22.05,22.05,0,0,0,9.75,1.46c-1.42-.49-2.86-1-4.27-1.5-.28-.11-.46-.5-.68-.77.34-.16.68-.47,1-.44a17,17,0,0,1,1.92.43C109,214.49,110.83,214.84,112.62,215.19ZM104.38,66c.87-.35,1.73-1.31,2.62.11a2.76,2.76,0,0,1,.27-.9,21.4,21.4,0,0,0,3-5.91,23.29,23.29,0,0,0,1.79-8.44c0-.58.21-1,.83-.93s.66.53.66,1.11a43.09,43.09,0,0,0,.17,5.57,14.89,14.89,0,0,0,1.1,3.12,10.63,10.63,0,0,0,.22-2.61,12.28,12.28,0,0,1,1.13-5.53,8,8,0,0,0,.42-1.37c.33-1.26,0-2.68.85-3.81a3.46,3.46,0,0,1,.93-.63c.06.37.28.8.17,1.1a12.2,12.2,0,0,0-.38,4.8,24.61,24.61,0,0,0,.38,2.59,3.69,3.69,0,0,0,.27-.59c.24-1.59.42-3.2.74-4.78a13.38,13.38,0,0,1,3.14-6.09,1.91,1.91,0,0,1,1.54-.63c1.49.42,3.11.57,4.38,1.6a1,1,0,0,0,1.21.06,3.11,3.11,0,0,1,3.74.68,8.59,8.59,0,0,1,2.11,4.14,23.6,23.6,0,0,1,.26,9c-.12.7-.18,1.42-.29,2.39a9.28,9.28,0,0,0,3-6.17,22.34,22.34,0,0,0-1.43-8.64c-.1-.28.08-.65.14-1,.3.13.77.18.88.41.38.81.63,1.69.95,2.53.67,1.76.29,3.86,1.72,5.39a.41.41,0,0,1,.1.22,15.38,15.38,0,0,0,2.78,5.39c.8,1.06,1.75,2,2.64,3l.22-.16c-.25-.82-.55-1.64-.72-2.48-.11-.59-.24-1.38.5-1.63s1,.49,1.24,1.07a7.9,7.9,0,0,0,2.17,3.15c.39.35.74.55,1.14,0a25.67,25.67,0,0,1-3.16-10.3c-.07-.59-.07-1.09.49-1.21s.63.55.73,1c.41,1.64.71,3.32,1.17,4.95a18.68,18.68,0,0,0,3.7,7.39,4.33,4.33,0,0,0,.62.47A79,79,0,0,1,152,50.2l.93-.56a10.91,10.91,0,0,1,.58,1.45c.76,3.27,1.46,6.55,2.26,9.81A9.69,9.69,0,0,0,158,65.55a4.24,4.24,0,0,0,1.43.9,11,11,0,0,0,1.76.41l-1.92-2.4.12,0-.09-.08,0,.11c-.36-.73-.77-1.44-1.06-2.2C157,59.21,157,56,156.84,52.75a5.21,5.21,0,0,1,.51-1.66c.77.15.91.48.94,1,.09,1.57.17,3.14.39,4.7.45,3.23,1.34,6.31,3.62,8.8.52.57,1,1.16,1.5,1.74,2.27-2,4.27-1.3,6.4,1.49,1.42-3.44,2.67-6.88,2.67-10.62a10,10,0,0,0-2.14-6.7,20.35,20.35,0,0,0-4.85-3.82A66.19,66.19,0,0,1,159,43.05c-3-2.49-6-4.79-9.79-6a20.49,20.49,0,0,0-9.67-.9,22.21,22.21,0,0,0-7,2c-.62.32-1.23.67-2,1.12a13.26,13.26,0,0,0-6.5-1.65,12.73,12.73,0,0,0-11.4,5.57c-1.57,2.24-3,4.57-4.41,6.92a21.35,21.35,0,0,0-3,8.07c-.33,2.59-.55,5.19-.83,7.78l-.06,0Zm88.7,13,0-.06,0,.07,2,4.25a1.33,1.33,0,0,1-1.88.24c-.66-.43-1.35-.81-2-1.25-1.09-.72-2.16-1.47-3.29-2.24-.26.46-.5.89-.75,1.31A20.33,20.33,0,0,0,184.59,88a21.67,21.67,0,0,0,1,10.23A45.77,45.77,0,0,0,192.69,112a43.22,43.22,0,0,0,8.07,8.69,14.89,14.89,0,0,0,9.62,3.08,12.34,12.34,0,0,1-1.2-1.18,2.71,2.71,0,0,1-.24-.89,3.75,3.75,0,0,1,1-.14c.2,0,.37.32.56.47l1.77,1.31a5.77,5.77,0,0,0-.56-1.63.73.73,0,0,1,.83-1,2.62,2.62,0,0,1,1.07.5c.4.3.75.67,1.29,1.17,0-.88,0-1.48,0-2.08,0-1.2.66-1.64,1.77-1.23.55.21,1.09.47,1.83.79-.18-.6-.32-.94-.39-1.3a.84.84,0,0,1,.91-1,1.73,1.73,0,0,1,.91.35c.68.61,1.18.42,1.65-.22l.48-.64c-.16-.62-1.25-.85-.71-1.58s1.14.06,1.71.3a24.08,24.08,0,0,0,2.21-6.27c.36-1.7.53-3.43.85-5.14.15-.78,0-1.87,1.36-1.79.14,0,.32-.35.45-.56,1.25-2.08,2.64-4.1,3.7-6.27a11,11,0,0,0,1.48-5.46c0-.65.15-1.32.18-2a9.72,9.72,0,0,0,0-2.47,9.13,9.13,0,0,0-4.22-5.61c-1.54-1-2.95-.69-4.16.75a15.4,15.4,0,0,0-2.57,4.79c1.6,1,.26,2.25.42,3.33.32.4.79.84.78,1.27a30.6,30.6,0,0,1-.47,3.92c0,.25-.42.63-.63.62a1.27,1.27,0,0,1-.85-.54,4.57,4.57,0,0,1-.32-1.18c-1-.32-1.26-.65-1.14-1.56.05-.41.29-.85.21-1.22a32.35,32.35,0,0,0-2.86-7.9c-.27-.51-.68-.57-1.21-.63a12.17,12.17,0,0,1-3.13-.63,1.81,1.81,0,0,0-1.94.06,1.83,1.83,0,0,1-1.17.15,16.69,16.69,0,0,1-8.5-4.05c-.73-.6-1.38-1.3-2.23-2.1a22.14,22.14,0,0,0,4.16,7.36,1.42,1.42,0,0,1,.32.86c0,.08-.44.21-.69.29a3.67,3.67,0,0,1-.52,0A.76.76,0,0,1,202,85a2.79,2.79,0,0,1-1.22,0,8.06,8.06,0,0,1-4-1.93C195.49,81.8,194.31,80.35,193.08,79ZM182.81,201.65a19.15,19.15,0,0,0,2.11-.53c.69-.26,1.3-.73,2-1,2.66-1,5.34-2,8-2.93a11.75,11.75,0,0,1,2-.37c.39,1,.39,1.1-.26,1.34-1.39.53-2.8,1-4.18,1.55-1.89.75-3.76,1.55-5.65,2.29a14.08,14.08,0,0,1-3.83,1.33c-1.79.13-2.64,1.22-3.51,2.43-.19.26-.15.67-.22,1a3.74,3.74,0,0,0,3.34-.48c.93-.6,1.89-1.18,2.87-1.69,3.24-1.67,6.38-3.55,10-4.31a1.81,1.81,0,0,1,1.69.24c0,.74-.49,1-1,1.15a40,40,0,0,0-4.18,1.52c-3.24,1.55-6.43,3.21-9.63,4.85-.89.46-1,.92-.53,2.11a4.94,4.94,0,0,0,.68-.23c3.34-1.67,6.66-3.4,10-5a46.9,46.9,0,0,1,4.86-1.88c.29-.1.72.18,1.08.29-.18.3-.33.61-.53.89a1,1,0,0,1-.43.24c-1.31.56-2.65,1.1-3.95,1.69-.26.12-.44.46-.64.71a9.44,9.44,0,0,1-1.38,1.68c-1.24,1-2.61,1.75-3.89,2.67-.94.67-1.81,1.45-2.84,2.29a8.73,8.73,0,0,0,5.3-1.52,20.77,20.77,0,0,1,6.13-2.64c.56-.19,1.21-.49,1.56.39,0,.11.36.18.53.16a15.61,15.61,0,0,1,6.12.79,101,101,0,0,0,12.27,2.47c2.87.5,5.75.9,8.63,1.33,3.26.49,6.52,1,9.79,1.41,2.63.33,5.27.54,7.91.76,2.14.19,4.3.46,6.44.44,3.06,0,6.13-.18,9.17-.45,2-.18,4-.66,5.95-1a220.35,220.35,0,0,0,3.91-22.3c-6.2.11-12.24-.07-18.07.67v5.73h5.6a8.46,8.46,0,0,1,1.34.08c.21,0,.54.31.52.43s-.24.58-.44.63a13.17,13.17,0,0,1-2.55.48,98.7,98.7,0,0,1-16-.71c-4.28-.43-8.57-.81-12.85-1.23-2.06-.21-4.1-.47-6.16-.66s-3.86-.29-5.79-.48-3.88.48-5.71-.58c-.82-.47-1.71-.83-2.55-1.27a27.11,27.11,0,0,0-4.29-2.19,14.62,14.62,0,0,0-10.27.52,39.3,39.3,0,0,0-8.89,5.43,2.59,2.59,0,0,0-1.2,1.65l1.32-.18ZM72.06,79.5s0-.07,0-.1l-.06,0,.13.1L74,82c.58.75.66,1.4.09,1.72a6.76,6.76,0,0,0-2.3,2.73,27.69,27.69,0,0,1-6.42,7.64,60,60,0,0,0-4.69,4.19,39.18,39.18,0,0,1-6.2,5.46c-2.75,1.76-5.59,3.37-8.36,5.09-1,.64-2.34,1-2.58,2.48a20.56,20.56,0,0,0-.29,2.21c0,.7-.25,1.25-1,1.43a1.28,1.28,0,0,1-1.44-.76,22.08,22.08,0,0,0-2.27-2.84,6.4,6.4,0,0,0-6.09-2.3,4.62,4.62,0,0,0-3.81,2.83,9.36,9.36,0,0,0-.18,6.67,9.62,9.62,0,0,0,7.73,7.1,18.94,18.94,0,0,0,5.21,0,8.47,8.47,0,0,0,2.15-.75,19.09,19.09,0,0,1-.83-2.21c-.11-.44-.2-1.07.44-1.27s.84.23,1.08.72a19.66,19.66,0,0,0,4.14,5.19,30.88,30.88,0,0,0,8.14,5.82,20.13,20.13,0,0,0,6.7,2.07,53.48,53.48,0,0,0,8.3,0c1.44-.09,2.93.11,4.37-.54,3.1-1.39,6.21-2.7,8.85-4.95a11.32,11.32,0,0,0,3.4-4.88c1.22-3.51,1.33-7.24,1.53-10.93.1-1.88.21-3.76.26-5.64,0-1.72,0-3.44,0-5.12l-1.31.42a29.32,29.32,0,0,1-1.78,3.3,1.74,1.74,0,0,1-2.34.39,1.77,1.77,0,0,1-.4-2.25c.62-1.13,1.35-2.21,2-3.28a17.59,17.59,0,0,0-6.23,2c.09.29.09.49.19.6,1.15,1.29,2.39,2.52,3.45,3.88a6.47,6.47,0,0,1,1.21,2.52c.47,2.26-.63,4.08-2,5.73A12.12,12.12,0,0,1,81,118.32c-.41.32-1,.61-1.42,0s-.08-.91.24-1.32c.64-.8,1.26-1.62,1.86-2.44,1.56-2.14,1.48-3.58-.14-5.59-1.09-1.35-2.08-2.79-3.09-4.2a5.66,5.66,0,0,1-.88-4.83,5.18,5.18,0,0,1,3.24-3.82A10.31,10.31,0,0,1,87,95.36a22.67,22.67,0,0,0,2.29.23c-.37-1.65-.68-3.16-1-4.64a3,3,0,0,0-.57-1.09,25,25,0,0,0-5.19-4.92,6.56,6.56,0,0,0-4.72-1.45,1.82,1.82,0,0,1-1.07-.5c-1.12-.91-2.2-1.89-3.33-2.8A7.84,7.84,0,0,0,72.06,79.5ZM50,196.65l.16.1-.16-.1c0-.61-.06-1.22,0-1.83.06-3.76.12-7.52.22-11.28,0-1.36.29-2.73.28-4.09,0-3-.08-6-.22-9.08a23.37,23.37,0,0,0-1.91-8.43q-2.1-4.77-4.31-9.49c-.49-1-1.13-2-1.72-3-1,.46-1.87.88-2.75,1.22-2.12.83-4.23,1.72-6.4,2.43a22.44,22.44,0,0,0-10,6.44,15,15,0,0,0-1.52,1.95,37.21,37.21,0,0,0-3.68,8.79c-1.29,4-2.42,8.14-3.52,12.24-.74,2.78-1.39,5.59-1.9,8.42-.62,3.41-1,6.86-1.57,10.28a16.94,16.94,0,0,0,.4,7.36c.23.84.59,1.64.82,2.48a7.71,7.71,0,0,0,2.2,3.69,5,5,0,0,0,2.26,1.14,26.61,26.61,0,0,0,3.59.33c1.32.09,2.65.12,4,.28a50.12,50.12,0,0,0,9,.09c3.14-.19,6.27-.56,9.4-.88,2.18-.22,4.36-.45,6.53-.73s4.05-.53,6.07-.87c1.67-.28,3.33-.65,5-1,1.38-.29,2.75-.62,4.13-.91l12.32-2.55c-.85-4.12.49-7.84,1.12-11.68-.45,0-.86,0-1.27,0-5.79.23-11.57.53-17.35.68-4.58.12-9.16,0-13.74.11-2.64,0-5.28.25-7.92.31a40,40,0,0,0-8.59,1c-1.45.35-2.91.67-4.38.93-.28.06-.62-.19-.93-.3a2.8,2.8,0,0,1,.45-.78,2.83,2.83,0,0,1,1-.49c1.12-.29,2.26-.51,3.37-.84a1.27,1.27,0,0,0,.82-.72c.53-2.2.94-4.43,1.46-6.63.66-2.8,1.35-5.59,2.09-8.36.5-1.91,1.08-3.8,1.65-5.69.62-2.05,1.27-4.09,2-6.26l1.15.52-.68,2.94c1,0,1.8-1.21,2.9-.55.17.66-.2,1-.65,1.24a18,18,0,0,1-2.08,1.1,1.53,1.53,0,0,0-1,1.18c-.23,1-.47,1.92-.73,2.87-.66,2.38-1.41,4.75-2,7.15-.67,2.75-1.21,5.54-1.8,8.32-.15.7-.31,1.4-.48,2.17.41,0,.7,0,1,0l7.77-.71c.7-.07,1.41-.1,2.11-.12l7.83-.2C49.79,196.82,49.9,196.71,50,196.65Zm141.54-36.81h.28l13.51-.77c.57,0,1.15-.1,1.72-.16a1.79,1.79,0,0,1,2,1.41,8.27,8.27,0,0,1,.25,2.1c-.11,1.94-.28,3.88-.48,5.82-.3,3-.66,6-1,9s-.55,5.79-.81,8.68l-.63,6.91c-.05.52-.49,1.06.15,1.55.44.34.76.85,1.22,1.15a7.51,7.51,0,0,0,5.41,1.14c3.17-.42,6.34.2,9.5.48q5.56.48,11.13,1c2.22.21,4.43.45,6.65.69s4.6.52,6.9.76a14.51,14.51,0,0,0,1.48,0c0-1.58,0-3,0-4.4,0-.76.1-1.55-.64-2.12a1.22,1.22,0,0,1-.3-.8c-.36-2.84-.82-5.67-1-8.52-.28-3.93-.36-7.86-.55-11.79a14.37,14.37,0,0,0-.36-2.7c-.38-1.52-.93-3-1.3-4.52a24.67,24.67,0,0,1-.51-3.43.76.76,0,0,1,.5-.57.78.78,0,0,1,.63.42,9.87,9.87,0,0,1,.34,1.45c.12.52.24,1,.35,1.56a3.49,3.49,0,0,0,.6-1.43c.28-1.3.49-2.61.85-3.89.09-.35.63-.86.88-.82.59.09.59.6.44,1.18-.4,1.56-.78,3.13-1,4.72a12,12,0,0,0-.37,4.29c.53,3.05.77,6.15,1,9.24.2,2.31.21,4.64.38,7,.17,2.17.46,4.33.64,6.5.11,1.22.1,1.3,1.31,1.2,2.3-.2,4.59-.56,6.89-.65,3.15-.14,6.32-.06,9.47-.16a34.32,34.32,0,0,0,3.51-.43,5.32,5.32,0,0,0,.07-.69c-.15-2-.29-4-.48-5.93-.13-1.35-.29-2.7-.53-4-.27-1.51-.67-3-1-4.5q-1.69-8.4-3.38-16.79c-.41-2.1-.78-4.21-1.16-6.32a27.69,27.69,0,0,0-2.4-8.05,7,7,0,0,1-.51-1.5c-.13-.54-.1-1.13-.28-1.64-.36-1-.86-1.89-1.24-2.85-1.06-2.63-3.14-3.85-5.81-4.28-2-.31-3.92-.56-5.87-.91-3.18-.57-6.34-1.2-9.51-1.8a1,1,0,0,0-1.27.63A10.92,10.92,0,0,1,235,135a24.53,24.53,0,0,1-9.4,4.85c-2.9.81-5.92,1.22-8.88,1.8a33.16,33.16,0,0,1-9.06.61,9.9,9.9,0,0,1-7.14-3.21c-3.2.45-6.31.92-9.43,1.32a19.31,19.31,0,0,0-7.29,2.32,20.12,20.12,0,0,0-6.34,6.08,71.7,71.7,0,0,0-4.15,7.74c-.95,1.82-1.85,3.67-2.78,5.51-.72,1.41-1.47,2.81-2.3,4.41l2-.15a3.64,3.64,0,0,0,.06-.63,1.72,1.72,0,0,1,1.52-2.15c1.59-.39,3.16-.82,4.76-1.13,2.94-.57,5.88-1.08,8.82-1.58C187.41,160.43,189.48,160.15,191.55,159.84Zm-49.39,5.57.15.13-.05-.23,1.63-.87c-.22-1.24-.47-2.5-.66-3.76s.16-1.8,1.46-2.11c.84-.19,1.69-.36,2.54-.5a12.79,12.79,0,0,1,2.21-.25,1.37,1.37,0,0,1,1.5,1.68c-.13,1.26-.41,2.5-.62,3.72a6.92,6.92,0,0,1,1.46,1.13,1.19,1.19,0,0,0,1.17.47c2.27-.2,4.52-.42,6.79-.6,2.1-.16,4.21-.27,6.29-.4l.61,1.23a3.91,3.91,0,0,0,.32-.49c1.7-3.51,3.39-7,5.1-10.53a12.71,12.71,0,0,0,1.65-6.69,16.28,16.28,0,0,1,.08-3c0-.34.36-.87.61-.9.54-.08.69.39.72.91,0,1,.17,2,.28,3.25,3.71-4.85,8.15-8.16,14.17-9-.46-1.07-.85-1.94-1.23-2.81a29.82,29.82,0,0,1-1.74-4.1,5.31,5.31,0,0,0-2.79-3.61,19.39,19.39,0,0,0-4.34-1.5c-4.15-.93-8.38-.41-12.57-.34-2.39,0-4.78.23-7.17.3-1.41,0-1.75-.24-2.15-1.52-.16-.53-.26-1.09-.4-1.72a5.21,5.21,0,0,1-2.32-.39,3.65,3.65,0,0,1-2.36-1.83,14.39,14.39,0,0,1-1.53-4.92c-.09-.77-.21-1.54-.34-2.45-6.77,3.25-13.77,3-20.71,2-.9,1.94-1.78,3.9-2.71,5.83a2.07,2.07,0,0,1-1.59,1.23,17.44,17.44,0,0,0-2.63.92c.41,2.14.23,2.41-1.18,2.58a17.81,17.81,0,0,1-2.12,1.52,7.27,7.27,0,0,1-2,.68c-4.54.9-9.1,1.72-13.62,2.68a40,40,0,0,0-6.4,1.8,14.13,14.13,0,0,0-6.21,4.81c-1.68,2.27-2,5-2.77,7.57a59.71,59.71,0,0,0-1.14,6.46c-.3,1.61-.74,3.2-1.06,4.8a1.06,1.06,0,0,0,.31.83A7.17,7.17,0,0,1,89.52,162c.29,2.05,1.28,4,1.76,6a65,65,0,0,1,1.29,7.2c.39,3.46.56,6.94.86,10.41.12,1.39.34,2.78.49,4,2.89,0,5.7.06,8.51,0a4.38,4.38,0,0,1,3.71,1.52l0,.07,0-.05c-.09-.57-.18-1.14-.28-1.71-.29-1.66-.47-3.35-.9-5-.76-2.86-1.75-5.67-2.47-8.55-.67-2.64-1.17-5.33-1.61-8-.71-4.39-1.32-8.81-2-13.21a9.82,9.82,0,0,1-.12-2.23c0-.62.12-1.39,1.15-1.23.16,1,.31,2,.47,2.93,1.07,6.1,2.09,12.22,3.24,18.3.5,2.67,1.34,5.27,1.88,7.93.45,2.17,1.64,4.18,1.38,6.49a1.49,1.49,0,0,0,.18.59,29.36,29.36,0,0,1,1.72,8.74,40.13,40.13,0,0,0,.73,7.14c1.22.37,2.42.7,3.6,1.09a33.84,33.84,0,0,1,7.43,3.1l4,2.51c.85.52,1.89.93,1,2.44l4.43-.7c-.54-9.42-2.24-18.74-1.78-28.29-.86.08-1.67.17-2.49.21-1.06.06-1.51-.35-1.64-1.39a18.68,18.68,0,0,0-.28-2c-.59-2.52-1.23-5-1.81-7.55a5.25,5.25,0,0,1-.09-1.85.74.74,0,0,1,1.09-.66c.19.07.38.22.57.2,1.79-.15,3.58-.34,5.42-.52,0-.49.07-.94.12-1.38.18-1.52.51-1.87,2-2,3.3-.26,6.6-.48,9.89-.75A4.14,4.14,0,0,0,142.16,165.41ZM132.7,46l-3.26,2.08a1.88,1.88,0,0,1-2.49.06,6.91,6.91,0,0,0-3.64-1.29c-.52-.06-1.34-.25-1.6.59a29.07,29.07,0,0,0-1.27,6.79,6.2,6.2,0,0,0,.78,3.47c.28.5,0,1.89-.35,2.06-.71.3-1.2-.18-1.61-.64a8.73,8.73,0,0,1-1.15-1.61c-.42-.79-.76-1.62-1.13-2.44a37.5,37.5,0,0,0-.19,4.6,20.34,20.34,0,0,1,0,2.47c0,.38-.44,1-.69,1a1.78,1.78,0,0,1-1.35-.58,38.06,38.06,0,0,1-1.85-3.38c-.15-.29-.29-.61-.46-1-.75,1.81-1.39,3.47-2.11,5.09s-1.66,3-1.43,4.81c.08.69,0,1.39,0,2.08.27,3.15.42,6.33.87,9.45a72.47,72.47,0,0,0,2.52,10.44,27.47,27.47,0,0,0,10.31,14.3c3.31,2.48,7,4.23,11.23,4.26,3.45,0,6.76-.42,9.73-2.6a20.2,20.2,0,0,0,6.65-7.55c1-2.13,2.08-4.25,2.92-6.45,1.29-3.4,2.4-6.87,3.59-10.3a6.45,6.45,0,0,1,.47-1.15.71.71,0,0,1,.58-.33.66.66,0,0,1,.41.51,5.8,5.8,0,0,1-.09,1.72c-.62,2.28-1.29,4.53-2,6.8-.2.68-.42,1.37-.66,2.12,3.27-.52,5.61-1.49,7.41-3.24a19.12,19.12,0,0,0,6.21-12.58c.14-2,.09-4.11-1.24-5.93-1.14-1.58-2-1.31-3-.31a25,25,0,0,0-4.39,5.82,13.17,13.17,0,0,1-1.37,1.73,1.17,1.17,0,0,1-1.64.4,1.64,1.64,0,0,1-.64-1.63,40,40,0,0,0,.17-5.13c-.11-2.43-.76-4.63-3.26-5.75-.26-.11-.45-.38-.7-.51a4.14,4.14,0,0,0-1.41-.67,4.39,4.39,0,0,1-3.2-1.56c-.92.94-1.31,1-2.25.49a9.4,9.4,0,0,1-1.76-1.38,17.92,17.92,0,0,1-3.8-5.47,3.59,3.59,0,0,0-.43-.63,18.29,18.29,0,0,1-1,2.54,9.88,9.88,0,0,1-3.7,4.24,1.86,1.86,0,0,1-1.35.11c-.54-.21-.45-.82-.34-1.3a28.14,28.14,0,0,0,.59-10.5C134.21,48.7,134,47.19,132.7,46Zm-9.12,125.84c.06.41.07.7.14,1,.74,2.75,1.47,5.5,2.26,8.23.06.22.55.43.84.43.82,0,1.63-.18,2.45-.2a1.77,1.77,0,0,1,1.95,1.37,15.22,15.22,0,0,1,.54,2.29c.14.94.17,1.9.28,2.85.24,2.13.5,4.26.75,6.39.2,1.76.36,3.53.56,5.29.28,2.46.62,4.92.85,7.39.16,1.65.14,3.32.31,5,.25,2.56.59,5.11.91,7.74.87.08,1.86.25,2.85.25,1.71,0,3.43-.15,5.14-.2,3.31-.1,6.61-.13,9.91-.26,2.1-.09,4.19-.3,6.29-.48,1.69-.15,3.38-.32,5.06-.51,1-.11,2-.28,3-.43a5.22,5.22,0,0,0,0-.68c-.32-3.21-.65-6.41-1-9.61s-.66-6.4-.88-9.6c-.2-2.76-.28-5.52-.35-8.28-.06-1.91,0-3.81,0-5.71-.06-3.73-.16-7.46-.23-11.18,0-1.35,0-2.71,0-4.13a6.18,6.18,0,0,0-.68,0c-3,.34-6,.73-9.05,1-1.64.15-3.27.16-4.57,1.41a2.39,2.39,0,0,1-1.28.39,29.53,29.53,0,0,1-3.83.43,5.07,5.07,0,0,1-2.66-.6,2.79,2.79,0,0,0-1.81-.52c-2.49.16-5,.35-7.45.47s-4.81.17-7.21.27C125.71,171.69,124.66,171.79,123.58,171.87ZM69.72,147.34c-7.57.57-14.69-1.05-21.67-3.21-1.43,1.64-2.88,3.28-4.3,4.9.81,1.48,1.66,3.08,2.54,4.66,2.46,4.44,4.92,8.89,5.7,14,.34,2.29.61,4.6.72,6.9s-.06,4.3-.14,6.45c-.08,1.95-.22,3.89-.32,5.83-.07,1.49-.14,3-.16,4.46,0,1.81,0,3.62,0,5.62l24.34-.84c-.17-1.28-.32-2.38-.44-3.48-.2-1.73-.39-3.47-.58-5.21s-.43-3.44-.55-5.17c-.22-3.2-.32-6.4-.55-9.6-.3-4.18-.62-8.37-1.06-12.54-.24-2.29-.72-4.56-1.17-6.83a4.28,4.28,0,0,0-.81-1.47c-.77-1.07-1.9-2-1.41-3.55A2.26,2.26,0,0,0,69.72,147.34ZM51.93,132.93c-.33,1.75-.52,3.44-1,5.06s-1.19,3.12-1.86,4.83c1.6.4,3.21.9,4.86,1.2,2.6.46,5.23.8,7.85,1.18s5.49.64,8-.19c1.06-2.57,2-4.95,3-7.31-2.15,0-4.26,0-6.36,0-2.7,0-5.33-.1-7.87-1.47C56.39,135.05,53.89,134.52,51.93,132.93ZM198.73,170c-4.8,1.39-9.7,1.6-14.37,3.07.92,4.29,1.81,8.43,2.68,12.51a1.84,1.84,0,0,0,.44,0c2.69-.63,5.38-1.24,8.05-1.94a1.61,1.61,0,0,0,1.15-1.46,18.31,18.31,0,0,0,.09-2.45c-.07-1.11.31-1.51,1.42-1.39s2,.16,3.1.25C199.88,175.93,198.3,172.4,198.73,170Zm-47-69.57a23.62,23.62,0,0,1-9.14,8.23c-3.7,2.08-7.87,2.19-12.06,1.78-.05.91,0,1.74-.15,2.56-.12,1-.14,1,.84,1.11a45.73,45.73,0,0,0,10.78,0,48.65,48.65,0,0,0,7.21-1.77,1.79,1.79,0,0,0,1.44-2c.13-2.16.37-4.3.59-6.45C151.33,102.78,151.52,101.61,151.69,100.45ZM133.34,224.53c1.14.06,2.3.05,3.43.19,3.57.47,7.1-.14,10.64-.37,2.67-.18,5.32-.59,8-.85,2.83-.27,5.67-.44,8.5-.76,1.92-.22,1.91-.3,1.87-2.28a3.14,3.14,0,0,0-.61-.05c-2.76.22-5.52.44-8.27.7-1.53.14-3,.45-4.58.52-4,.16-8,.2-12.05.35a22.32,22.32,0,0,1-5.4-.62c-1.65-.33-1.78-.37-1.9-2.07-.07-1-.19-2-.3-3.08s-.23-2-.34-3.06A46.94,46.94,0,0,0,133.34,224.53Zm68.75-6v-6.76c-.58-.13-1.1-.24-1.62-.37s-1,0-1,.73-.26,1.46-.22,2.18c.09,1.73-.55,2.67-2.2,2.88-2.19.27-4.37.57-6.56.72-4.41.31-8.83.49-13.24.79-2,.13-4.08.41-6.22.63.05.66.1,1.22.14,1.83.39,0,.63-.06.87-.1,2.87-.44,5.72-1,8.6-1.3,3.91-.4,7.86,0,11.79-.41,2.73-.3,5.49-.31,8.23-.48A9.79,9.79,0,0,0,202.09,218.53Zm-48.31,10.33a3.45,3.45,0,0,0,.82.12c1.46-.19,2.93-.39,4.39-.61,1.92-.28,3.84-.51,5.74-.87,1.13-.22,1.43-.67,1.51-1.8,0-.51,0-1,0-1.54-4.28,1.17-8.57,1-12.8,1.6ZM79.17,102.47c1.56-.67,3-1.41,4.51-1.91,1.92-.64,3.9-.93,5.8.88a9.5,9.5,0,0,0,.24-1.42c0-.49-.14-1-.15-1.47,0-1.18-.15-1.35-1.31-1.47a19.15,19.15,0,0,0-2.73-.17,11.71,11.71,0,0,0-5.27,1.21,2.16,2.16,0,0,0-1,1A4,4,0,0,0,79.17,102.47Zm85.58,63-12.26,1.17c-.23,1.22-.13,1.35.81,1.26l11-1a1.56,1.56,0,0,0,.38-.13C164.7,166.38,164.72,166.06,164.75,165.43Zm-33.48,4.43c1-.1,1.88-.2,2.74-.26,2.6-.2,5.2-.36,7.79-.56,1-.08,1-.16.63-1.38a97.63,97.63,0,0,0-11.16,1Zm14.21-5.56c1.34-.28,2.71-.17,2.91-1.89.1-.85.3-1.69.48-2.69l-4,.79Zm59.05,28,.26-.1c.1-1.35.21-2.71.31-4.07l-.26-.1a1.3,1.3,0,0,0-.16.31c-.21,1-.46,2-.59,3C204.05,191.64,204.37,192,204.53,192.28Zm11.89-70.19,1-.79-1-.41ZM118.85,54.83l-.09-.18s-.07.08-.06.1a1.51,1.51,0,0,0,.09.18Zm84.8,138.51c0,.07,0,.18.09.21s.14,0,.22-.05a1,1,0,0,0-.14-.2S203.71,193.32,203.65,193.34Zm24-87-.13.14s.07.07.09.06a.8.8,0,0,0,.2-.07Zm-34.94-28s.07,0,.07-.06a.18.18,0,0,0,0-.1l-.1.07S192.67,78.34,192.68,78.37Zm34.8,27.52.07,0v-.07Zm-206.65,53,0,.07h.07Zm158.85-58.09,0,.06h.06Z"/><path d="M168.12,121c.6-.14,1.14-.31,1.7-.39a32.84,32.84,0,0,1,12.42.24,23.87,23.87,0,0,1,4.11,1.69c.52.23,1.1.64.76,1.33s-.91.54-1.5.24a18.16,18.16,0,0,0-6.35-1.86,25.3,25.3,0,0,0-6.9-.23,26.6,26.6,0,0,1-3.1.21C168.57,122.24,168.06,122,168.12,121Z"/><path d="M107.48,124.54a24.81,24.81,0,0,0-8.37,1.32,19.29,19.29,0,0,0-2.67,1.29c-.44.22-.91.59-1.31,0s-.07-1,.39-1.38a12.12,12.12,0,0,1,2.66-1.68c3.12-1.1,6.26-2.2,9.66-1.73.88.13,1.78.23,2.65.42a.85.85,0,0,1,.69,1c-.06.62-.53.67-1,.68C109.3,124.56,108.39,124.54,107.48,124.54Z"/><path d="M175.33,116.55a13.5,13.5,0,0,1,4.25.72,22.15,22.15,0,0,1,2.39,1c.5.19.67.58.45,1-.11.19-.63.27-.92.2-1.84-.44-3.66-.92-5.49-1.42C175.36,117.8,174.8,117.51,175.33,116.55Z"/><path d="M106.05,120.26a5.06,5.06,0,0,1-1.12.81c-1.26.5-2.55,1-3.85,1.34-.34.09-1-.11-1.14-.35-.23-.55.33-.73.78-.88,1.21-.4,2.42-.84,3.64-1.21a9.43,9.43,0,0,1,1.51-.17Z"/><path d="M235.65,87.49v.27h0v-.29Z"/><path d="M188.05,129.8v.27h0v-.28Z"/><path d="M115.91,37.93h0Z"/><path class="cls-2" d="M106.14,191.11a4.38,4.38,0,0,0-3.71-1.52c-2.81.09-5.62,0-8.51,0-.15-1.21-.37-2.6-.49-4-.3-3.47-.47-6.95-.86-10.41a65,65,0,0,0-1.29-7.2c-.48-2-1.47-4-1.76-6a7.17,7.17,0,0,0-2.72-4.53,1.06,1.06,0,0,1-.31-.83c.32-1.6.76-3.19,1.06-4.8a59.71,59.71,0,0,1,1.14-6.46c.79-2.56,1.09-5.3,2.77-7.57A14.13,14.13,0,0,1,97.67,133a40,40,0,0,1,6.4-1.8c4.52-1,9.08-1.78,13.62-2.68a7.27,7.27,0,0,0,2-.68,17.81,17.81,0,0,0,2.12-1.52c1.41-.17,1.59-.44,1.18-2.58a17.44,17.44,0,0,1,2.63-.92,2.07,2.07,0,0,0,1.59-1.23c.93-1.93,1.81-3.89,2.71-5.83,6.94,1,13.94,1.25,20.71-2,.13.91.25,1.68.34,2.45a14.39,14.39,0,0,0,1.53,4.92,3.65,3.65,0,0,0,2.36,1.83,5.21,5.21,0,0,0,2.32.39c.14.63.24,1.19.4,1.72.4,1.28.74,1.55,2.15,1.52,2.39-.07,4.78-.26,7.17-.3,4.19-.07,8.42-.59,12.57.34a19.39,19.39,0,0,1,4.34,1.5,5.31,5.31,0,0,1,2.79,3.61,29.82,29.82,0,0,0,1.74,4.1c.38.87.77,1.74,1.23,2.81-6,.83-10.46,4.14-14.17,9-.11-1.25-.23-2.25-.28-3.25,0-.52-.18-1-.72-.91-.25,0-.58.56-.61.9a16.28,16.28,0,0,0-.08,3,12.71,12.71,0,0,1-1.65,6.69c-1.71,3.5-3.4,7-5.1,10.53a3.91,3.91,0,0,1-.32.49l-.61-1.23c-2.08.13-4.19.24-6.29.4-2.27.18-4.52.4-6.79.6a1.19,1.19,0,0,1-1.17-.47,6.92,6.92,0,0,0-1.46-1.13c.21-1.22.49-2.46.62-3.72a1.37,1.37,0,0,0-1.5-1.68,12.79,12.79,0,0,0-2.21.25c-.85.14-1.7.31-2.54.5-1.3.31-1.66.81-1.46,2.11s.44,2.52.66,3.76l-1.63.87-.1.1a4.14,4.14,0,0,1-1.07.41c-3.29.27-6.59.49-9.89.75-1.52.12-1.85.47-2,2,0,.44-.07.89-.12,1.38-1.84.18-3.63.37-5.42.52-.19,0-.38-.13-.57-.2a.74.74,0,0,0-1.09.66,5.25,5.25,0,0,0,.09,1.85c.58,2.52,1.22,5,1.81,7.55a18.68,18.68,0,0,1,.28,2c.13,1,.58,1.45,1.64,1.39.82,0,1.63-.13,2.49-.21-.46,9.55,1.24,18.87,1.78,28.29l-4.43.7c.87-1.51-.17-1.92-1-2.44l-4-2.51a33.84,33.84,0,0,0-7.43-3.1c-1.18-.39-2.38-.72-3.6-1.09a40.13,40.13,0,0,1-.73-7.14,29.36,29.36,0,0,0-1.72-8.74,1.49,1.49,0,0,1-.18-.59c.26-2.31-.93-4.32-1.38-6.49-.54-2.66-1.38-5.26-1.88-7.93-1.15-6.08-2.17-12.2-3.24-18.3-.16-1-.31-1.94-.47-2.93-1-.16-1.11.61-1.15,1.23a9.82,9.82,0,0,0,.12,2.23c.63,4.4,1.24,8.82,2,13.21.44,2.69.94,5.38,1.61,8,.72,2.88,1.71,5.69,2.47,8.55.43,1.63.61,3.32.9,5,.1.57.19,1.14.28,1.71Zm25.19-63.64,0-.19a8.53,8.53,0,0,0,1.24,0,74.42,74.42,0,0,0,8.76-1.45c2.4-.64,4.82-1.15,7.24-1.71.49-.11.94-.22.81-.85s-.59-.63-1.08-.58-1.15.09-1.72.2c-4.85,1-9.62,2.34-14.57,2.74a14.1,14.1,0,0,1-3-.12c-.55-.07-1,0-1.07.51a1,1,0,0,0,.52.78C129.39,127.08,130.36,127.25,131.33,127.47Zm15.68.29c-.72-.76-.71-.73-1.58-.67-1.2.09-2.4.17-3.6.16-.46,0-.9,0-.93.5,0,.25.37.57.63.79a1,1,0,0,0,.69.24c1.24-.06,2.48-.13,3.7-.3C146.3,128.42,146.64,128,147,127.76Z"/><path class="cls-3" d="M191.55,159.84c-2.07.31-4.14.59-6.21.94-2.94.5-5.88,1-8.82,1.58-1.6.31-3.17.74-4.76,1.13a1.72,1.72,0,0,0-1.52,2.15,3.64,3.64,0,0,1-.06.63l-2,.15c.83-1.6,1.58-3,2.3-4.41.93-1.84,1.83-3.69,2.78-5.51a71.7,71.7,0,0,1,4.15-7.74,20.12,20.12,0,0,1,6.34-6.08,19.31,19.31,0,0,1,7.29-2.32c3.12-.4,6.23-.87,9.43-1.32a9.9,9.9,0,0,0,7.14,3.21,33.16,33.16,0,0,0,9.06-.61c3-.58,6-1,8.88-1.8A24.53,24.53,0,0,0,235,135a10.92,10.92,0,0,0,2.28-2.74,1,1,0,0,1,1.27-.63c3.17.6,6.33,1.23,9.51,1.8,1.95.35,3.91.6,5.87.91,2.67.43,4.75,1.65,5.81,4.28.38,1,.88,1.88,1.24,2.85.18.51.15,1.1.28,1.64a7,7,0,0,0,.51,1.5,27.69,27.69,0,0,1,2.4,8.05c.38,2.11.75,4.22,1.16,6.32q1.68,8.4,3.38,16.79c.31,1.51.71,3,1,4.5.24,1.34.4,2.69.53,4,.19,2,.33,3.95.48,5.93a5.32,5.32,0,0,1-.07.69,34.32,34.32,0,0,1-3.51.43c-3.15.1-6.32,0-9.47.16-2.3.09-4.59.45-6.89.65-1.21.1-1.2,0-1.31-1.2-.18-2.17-.47-4.33-.64-6.5-.17-2.32-.18-4.65-.38-7-.26-3.09-.5-6.19-1-9.24a12,12,0,0,1,.37-4.29c.26-1.59.64-3.16,1-4.72.15-.58.15-1.09-.44-1.18-.25,0-.79.47-.88.82-.36,1.28-.57,2.59-.85,3.89a3.49,3.49,0,0,1-.6,1.43c-.11-.52-.23-1-.35-1.56a9.87,9.87,0,0,0-.34-1.45.78.78,0,0,0-.63-.42.76.76,0,0,0-.5.57,24.67,24.67,0,0,0,.51,3.43c.37,1.52.92,3,1.3,4.52a14.37,14.37,0,0,1,.36,2.7c.19,3.93.27,7.86.55,11.79.2,2.85.66,5.68,1,8.52a1.22,1.22,0,0,0,.3.8c.74.57.63,1.36.64,2.12,0,1.41,0,2.82,0,4.4a14.51,14.51,0,0,1-1.48,0c-2.3-.24-4.6-.51-6.9-.76s-4.43-.48-6.65-.69q-5.56-.53-11.13-1c-3.16-.28-6.33-.9-9.5-.48a7.51,7.51,0,0,1-5.41-1.14c-.46-.3-.78-.81-1.22-1.15-.64-.49-.2-1-.15-1.55l.63-6.91c.26-2.89.52-5.79.81-8.68s.66-6,1-9c.2-1.94.37-3.88.48-5.82a8.27,8.27,0,0,0-.25-2.1,1.79,1.79,0,0,0-2-1.41c-.57.06-1.15.13-1.72.16l-13.51.77v0h-.29Z"/><path class="cls-3" d="M50,196.65c-.11.06-.22.17-.33.17l-7.83.2c-.7,0-1.41,0-2.11.12l-7.77.71c-.28,0-.57,0-1,0,.17-.77.33-1.47.48-2.17.59-2.78,1.13-5.57,1.8-8.32.58-2.4,1.33-4.77,2-7.15.26-.95.5-1.91.73-2.87a1.53,1.53,0,0,1,1-1.18,18,18,0,0,0,2.08-1.1c.45-.26.82-.58.65-1.24-1.1-.66-1.86.58-2.9.55l.68-2.94-1.15-.52c-.68,2.17-1.33,4.21-2,6.26-.57,1.89-1.15,3.78-1.65,5.69-.74,2.77-1.43,5.56-2.09,8.36-.52,2.2-.93,4.43-1.46,6.63a1.27,1.27,0,0,1-.82.72c-1.11.33-2.25.55-3.37.84a2.83,2.83,0,0,0-1,.49,2.8,2.8,0,0,0-.45.78c.31.11.65.36.93.3,1.47-.26,2.93-.58,4.38-.93a40,40,0,0,1,8.59-1c2.64-.06,5.28-.27,7.92-.31,4.58-.07,9.16,0,13.74-.11,5.78-.15,11.56-.45,17.35-.68.41,0,.82,0,1.27,0-.63,3.84-2,7.56-1.12,11.68l-12.32,2.55c-1.38.29-2.75.62-4.13.91-1.66.35-3.32.72-5,1-2,.34-4,.62-6.07.87s-4.35.51-6.53.73c-3.13.32-6.26.69-9.4.88a50.12,50.12,0,0,1-9-.09c-1.31-.16-2.64-.19-4-.28a26.61,26.61,0,0,1-3.59-.33,5,5,0,0,1-2.26-1.14,7.71,7.71,0,0,1-2.2-3.69c-.23-.84-.59-1.64-.82-2.48a16.94,16.94,0,0,1-.4-7.36c.55-3.42.95-6.87,1.57-10.28.51-2.83,1.16-5.64,1.9-8.42,1.1-4.1,2.23-8.2,3.52-12.24a37.21,37.21,0,0,1,3.68-8.79,15,15,0,0,1,1.52-1.95,22.44,22.44,0,0,1,10-6.44c2.17-.71,4.28-1.6,6.4-2.43.88-.34,1.73-.76,2.75-1.22.59,1,1.23,2,1.72,3q2.2,4.71,4.31,9.49a23.37,23.37,0,0,1,1.91,8.43c.14,3,.21,6,.22,9.08,0,1.36-.24,2.73-.28,4.09-.1,3.76-.16,7.52-.22,11.28,0,.61,0,1.22,0,1.83Z"/><path class="cls-3" d="M132.7,46c1.31,1.16,1.51,2.67,1.7,4.14a28.14,28.14,0,0,1-.59,10.5c-.11.48-.2,1.09.34,1.3a1.86,1.86,0,0,0,1.35-.11,9.88,9.88,0,0,0,3.7-4.24,18.29,18.29,0,0,0,1-2.54,3.59,3.59,0,0,1,.43.63,17.92,17.92,0,0,0,3.8,5.47,9.4,9.4,0,0,0,1.76,1.38c.94.56,1.33.45,2.25-.49a4.39,4.39,0,0,0,3.2,1.56,4.14,4.14,0,0,1,1.41.67c.25.13.44.4.7.51,2.5,1.12,3.15,3.32,3.26,5.75a40,40,0,0,1-.17,5.13,1.64,1.64,0,0,0,.64,1.63,1.17,1.17,0,0,0,1.64-.4,13.17,13.17,0,0,0,1.37-1.73,25,25,0,0,1,4.39-5.82c1-1,1.86-1.27,3,.31,1.33,1.82,1.38,3.91,1.24,5.93a19.12,19.12,0,0,1-6.21,12.58c-1.8,1.75-4.14,2.72-7.41,3.24.24-.75.46-1.44.66-2.12.67-2.27,1.34-4.52,2-6.8a5.8,5.8,0,0,0,.09-1.72.66.66,0,0,0-.41-.51.71.71,0,0,0-.58.33,6.45,6.45,0,0,0-.47,1.15c-1.19,3.43-2.3,6.9-3.59,10.3-.84,2.2-1.91,4.32-2.92,6.45a20.2,20.2,0,0,1-6.65,7.55c-3,2.18-6.28,2.62-9.73,2.6-4.24,0-7.92-1.78-11.23-4.26a27.47,27.47,0,0,1-10.31-14.3,72.47,72.47,0,0,1-2.52-10.44c-.45-3.12-.6-6.3-.87-9.45-.05-.69.06-1.39,0-2.08-.23-1.82.74-3.26,1.43-4.81s1.36-3.28,2.11-5.09c.17.38.31.7.46,1a38.06,38.06,0,0,0,1.85,3.38,1.78,1.78,0,0,0,1.35.58c.25,0,.64-.63.69-1a20.34,20.34,0,0,0,0-2.47,37.5,37.5,0,0,1,.19-4.6c.37.82.71,1.65,1.13,2.44a8.73,8.73,0,0,0,1.15,1.61c.41.46.9.94,1.61.64.38-.17.63-1.56.35-2.06a6.2,6.2,0,0,1-.78-3.47,29.07,29.07,0,0,1,1.27-6.79c.26-.84,1.08-.65,1.6-.59A6.91,6.91,0,0,1,127,48.17a1.88,1.88,0,0,0,2.49-.06Zm5.75,33.69c1.21-.46,2.6-.57,3.57-1.77-.31-.19-.55-.46-.69-.42a20.48,20.48,0,0,0-2.79,1c-.58.26-.48.78-.1,1.22l-.06,0Zm-13.26,5.54c.63,2.06,2.3,3,4.11,3.83.28.12.72-.12,1.09-.19a3.07,3.07,0,0,0-.28-1.1,11.63,11.63,0,0,0-1.4-1.2,2.94,2.94,0,0,1-1.36-2.36,10,10,0,0,1,.28-2.2c.55-1.93,1.12-3.86,1.82-5.74a8.89,8.89,0,0,0,.39-4.53,3.07,3.07,0,0,0-1.64-2.61c-.27-.11-.68.09-1,.14,0,.3,0,.68.18.87a3.81,3.81,0,0,1,.89,3.56,21.86,21.86,0,0,1-1.13,3.52A18.89,18.89,0,0,0,125.19,85Zm10-17.53a1,1,0,0,0,1.35.73,28.08,28.08,0,0,1,5.25-.54,23.3,23.3,0,0,1,8.88,1.28,7.5,7.5,0,0,0,1.91.46c.67,0,1-.52.57-1a5.29,5.29,0,0,0-2.46-2c-1-.27-1.87-.72-2.83-1A14.33,14.33,0,0,0,144,65a25.06,25.06,0,0,0-7.63,1.52c-.44.15-.78.62-1.16.94ZM146.58,88c-.41-.77-1.11-.43-1.76-.16-2.7,1.13-5.38,2.3-8.09,3.41a16.5,16.5,0,0,1-8.56,1.34,45.61,45.61,0,0,0-5.1-.28c-.31,0-.63.36-.94.56.24.23.47.47.72.69a7.9,7.9,0,0,1,1.46,1.21,21.67,21.67,0,0,0,5.37,5.52,7.8,7.8,0,0,0,9.84-.55A19.23,19.23,0,0,0,145,93.28a29.5,29.5,0,0,0,1.3-3.59A14.79,14.79,0,0,0,146.58,88ZM123.53,69.72c.57-1.45.47-1.7-.78-2.16-.46-.17-.93-.36-1.41-.49a11.25,11.25,0,0,0-7.78.14c-1.48.65-3.13,1.24-3.14,3.3,0,.3.07.79.25.86a1.43,1.43,0,0,0,1-.12,18.59,18.59,0,0,1,2.82-1.19,18.94,18.94,0,0,1,7.86-.35A6.55,6.55,0,0,0,123.53,69.72ZM162.77,84c1.71-1.08,1.62-3.62-.2-5.67A12,12,0,0,1,166,75c.56-.36,1.19-.61,1.73-1a1,1,0,0,0,.37-.77.87.87,0,0,0-.73-.47,4.13,4.13,0,0,0-1.74.5,19.85,19.85,0,0,0-3.33,2.55,7.42,7.42,0,0,0-2.26,4.07,4.2,4.2,0,0,0,.15,1.57c0,.18.39.37.63.4s.33-.31.4-.52c.11-.39.14-.8.24-1.37C162.69,81.21,161.25,83,162.77,84Zm-21.32-10a7.59,7.59,0,0,0-6,3.22c-.18.22,0,.72,0,1.09a3.89,3.89,0,0,0,1-.22,9.16,9.16,0,0,0,.85-.69,11.53,11.53,0,0,1,1.94-1.3c1.45-.64,2.84-.06,4.17.49,1,.41,1.92,1,2.91,1.37.44.19.94.18,1.15-.38a.75.75,0,0,0-.42-1c-1-.52-1.9-1.18-2.91-1.63A25.77,25.77,0,0,0,141.45,73.94Zm-24.13,1.75c-1.39-.12-2.59.77-3.76,1.74a.82.82,0,0,0-.17,1.29c.38.46.75.19,1.18-.09a4.91,4.91,0,0,1,4.18-.86c.79.24,1.57.52,2.37.76a4.23,4.23,0,0,0,1.21.22c.75,0,1-.58.61-1.2a1.56,1.56,0,0,0-.65-.55A12.21,12.21,0,0,0,117.32,75.69Zm1.28,3.6c-.09-.14-.2-.45-.3-.45a11.77,11.77,0,0,0-2.38.2c-.43.09-.38.6-.13.92.61.76,1.28-.14,1.95,0,.23.06.55-.24.82-.39C118.6,79.55,118.58,79.42,118.6,79.29Zm2.08,13.32a15.12,15.12,0,0,0,.54-1.43.79.79,0,0,0-.2-.63.63.63,0,0,0-.57,0,1.17,1.17,0,0,0-.77,1.25C119.74,92.35,120,92.7,120.68,92.61ZM147.87,86c-.07.1-.33.29-.39.53s1,1.2,1.42,1.09a.87.87,0,0,0,.52-.57C149.49,86.56,148.75,86,147.87,86Z"/><path class="cls-3" d="M123.58,171.87c1.08-.08,2.13-.18,3.18-.22,2.4-.1,4.81-.15,7.21-.27s5-.31,7.45-.47a2.79,2.79,0,0,1,1.81.52,5.07,5.07,0,0,0,2.66.6,29.53,29.53,0,0,0,3.83-.43,2.39,2.39,0,0,0,1.28-.39c1.3-1.25,2.93-1.26,4.57-1.41,3-.28,6-.67,9.05-1a6.18,6.18,0,0,1,.68,0c0,1.42,0,2.78,0,4.13.07,3.72.17,7.45.23,11.18,0,1.9-.05,3.8,0,5.71.07,2.76.15,5.52.35,8.28.22,3.2.57,6.4.88,9.6s.64,6.4,1,9.61a5.22,5.22,0,0,1,0,.68c-1,.15-2,.32-3,.43-1.68.19-3.37.36-5.06.51-2.1.18-4.19.39-6.29.48-3.3.13-6.6.16-9.91.26-1.71,0-3.43.19-5.14.2-1,0-2-.17-2.85-.25-.32-2.63-.66-5.18-.91-7.74-.17-1.65-.15-3.32-.31-5-.23-2.47-.57-4.93-.85-7.39-.2-1.76-.36-3.53-.56-5.29-.25-2.13-.51-4.26-.75-6.39-.11-.95-.14-1.91-.28-2.85a15.22,15.22,0,0,0-.54-2.29,1.77,1.77,0,0,0-1.95-1.37c-.82,0-1.63.19-2.45.2-.29,0-.78-.21-.84-.43-.79-2.73-1.52-5.48-2.26-8.23C123.65,172.57,123.64,172.28,123.58,171.87Zm16,12.49c1.56-.19,2.88-.32,4.19-.49,3-.39,6-.77,8.95-1.22a23,23,0,0,0,3.46-.84c.24-.07.34-.55.51-.84-.3-.1-.6-.32-.88-.29-.91.09-1.8.34-2.71.4a99.27,99.27,0,0,0-12,1.74,6.17,6.17,0,0,0-1.44.33,1,1,0,0,0-.52.76C139.13,184.09,139.53,184.3,139.59,184.36Zm.24,4,.11-.19c1.4-.17,2.79-.35,4.2-.49,3.74-.39,7.49-.76,11.23-1.14a3,3,0,0,0,1.08-.25.86.86,0,0,0,.35-.69c0-.19-.37-.41-.6-.46a3.82,3.82,0,0,0-1.12,0c-2.18.21-4.36.4-6.53.65-2.88.34-5.76.7-8.63,1.13-.48.07-1.35,0-1.28.83C138.65,188,139.41,188.17,139.83,188.38Zm6.09,1.15c1.28.86,2.46.28,3.61.25.18,0,.52-.45.47-.58s-.42-.56-.64-.55a26.17,26.17,0,0,0-2.93.28C146.26,189,146.13,189.26,145.92,189.53Z"/><path class="cls-3" d="M72.06,79.5a7.84,7.84,0,0,1,1.28.69c1.13.91,2.21,1.89,3.33,2.8a1.82,1.82,0,0,0,1.07.5,6.56,6.56,0,0,1,4.72,1.45,25,25,0,0,1,5.19,4.92A3,3,0,0,1,88.22,91c.36,1.48.67,3,1,4.64A22.67,22.67,0,0,1,87,95.36a10.31,10.31,0,0,0-6.21.74,5.18,5.18,0,0,0-3.24,3.82,5.66,5.66,0,0,0,.88,4.83c1,1.41,2,2.85,3.09,4.2,1.62,2,1.7,3.45.14,5.59-.6.82-1.22,1.64-1.86,2.44-.32.41-.58.83-.24,1.32s1,.34,1.42,0a12.12,12.12,0,0,0,1.86-1.79c1.38-1.65,2.48-3.47,2-5.73a6.47,6.47,0,0,0-1.21-2.52c-1.06-1.36-2.3-2.59-3.45-3.88-.1-.11-.1-.31-.19-.6a17.59,17.59,0,0,1,6.23-2c-.66,1.07-1.39,2.15-2,3.28a1.77,1.77,0,0,0,.4,2.25,1.74,1.74,0,0,0,2.34-.39,29.32,29.32,0,0,0,1.78-3.3l1.31-.42c0,1.68,0,3.4,0,5.12-.05,1.88-.16,3.76-.26,5.64-.2,3.69-.31,7.42-1.53,10.93a11.32,11.32,0,0,1-3.4,4.88c-2.64,2.25-5.75,3.56-8.85,4.95-1.44.65-2.93.45-4.37.54a53.48,53.48,0,0,1-8.3,0,20.13,20.13,0,0,1-6.7-2.07,30.88,30.88,0,0,1-8.14-5.82,19.66,19.66,0,0,1-4.14-5.19c-.24-.49-.47-.92-1.08-.72s-.55.83-.44,1.27a19.09,19.09,0,0,0,.83,2.21,8.47,8.47,0,0,1-2.15.75,18.94,18.94,0,0,1-5.21,0,9.62,9.62,0,0,1-7.73-7.1,9.36,9.36,0,0,1,.18-6.67,4.62,4.62,0,0,1,3.81-2.83,6.4,6.4,0,0,1,6.09,2.3,22.08,22.08,0,0,1,2.27,2.84,1.28,1.28,0,0,0,1.44.76c.7-.18.91-.73,1-1.43a20.56,20.56,0,0,1,.29-2.21c.24-1.46,1.56-1.84,2.58-2.48,2.77-1.72,5.61-3.33,8.36-5.09a39.18,39.18,0,0,0,6.2-5.46,60,60,0,0,1,4.69-4.19,27.69,27.69,0,0,0,6.42-7.64,6.76,6.76,0,0,1,2.3-2.73c.57-.32.49-1-.09-1.72l-2-2.55Zm-2,27.26h0c-.14.37-.3.74-.41,1.12a19.45,19.45,0,0,0-.75,3,1.43,1.43,0,0,0,.72,1.16,1.5,1.5,0,0,0,1.32-.39,11.34,11.34,0,0,0,1.74-2.39c.4-.77.41-1.75.87-2.46a13.88,13.88,0,0,1,2-2c.34-.35.6-.8.16-1.2s-.88,0-1.15.32a2.57,2.57,0,0,1-2.42.94c-3.47-.17-6.13,1.41-8.29,4-.22.26-.12.79-.17,1.2a10.52,10.52,0,0,0,1.12-.21c.18-.06.29-.29.45-.42C66.61,108.13,68,106.93,70,106.76Zm3.21,25.57a8.92,8.92,0,0,0,5.52-2.55,14.91,14.91,0,0,0,3.57-6.46c.39-1.4-.26-2.07-1.75-2a16.44,16.44,0,0,1-3.57.08c-2.93-.47-5.81-1.18-8.73-1.66a10.52,10.52,0,0,0-3.67,0,2.94,2.94,0,0,0-2.42,3.56,11.09,11.09,0,0,0,3.72,6.48C67.64,131.52,69.65,132.45,73.24,132.33Zm-33.41-9.14c0-1.31-1.16-2.49-.41-3.77a6.91,6.91,0,0,0,1.28.69.79.79,0,0,0,1-1.12,15.49,15.49,0,0,0-1.06-1.53,1.85,1.85,0,0,1-.42-.84c0-.62-.3-.85-.82-.83a2.88,2.88,0,0,1-1.84-.84c-1.42-1-2.94-2-4.78-1.73a5.62,5.62,0,0,0-2.12.89c-.21.12-.21.62-.3,1a4.29,4.29,0,0,0,.9.2c.28,0,.55-.22.83-.24a3.3,3.3,0,0,1,1.54,0,28.87,28.87,0,0,1,3.3,2,1.27,1.27,0,0,1,.55,1.58,4.65,4.65,0,0,0,.11,3.49C38.2,123.22,38.25,123.34,39.83,123.19ZM72.73,99.9A1.87,1.87,0,0,0,70.9,99c-2.69-.07-5.34.06-7.74,1.51a8.22,8.22,0,0,0-3.38,3.28c.77.63.78.64,1.56,0a10.61,10.61,0,0,1,5.1-2.61c1.59-.24,3.18-.44,4.78-.56C71.82,100.6,72.38,100.66,72.73,99.9Z"/><path class="cls-3" d="M182.53,201.65l-1.32.18a2.59,2.59,0,0,1,1.2-1.65,39.3,39.3,0,0,1,8.89-5.43,14.62,14.62,0,0,1,10.27-.52,27.11,27.11,0,0,1,4.29,2.19c.84.44,1.73.8,2.55,1.27,1.83,1.06,3.81.39,5.71.58s3.86.29,5.79.48,4.1.45,6.16.66c4.28.42,8.57.8,12.85,1.23a98.7,98.7,0,0,0,16,.71,13.17,13.17,0,0,0,2.55-.48c.2-.05.4-.39.44-.63s-.31-.39-.52-.43a8.46,8.46,0,0,0-1.34-.08h-5.6V194c5.83-.74,11.87-.56,18.07-.67a220.35,220.35,0,0,1-3.91,22.3c-1.95.33-3.94.81-5.95,1-3,.27-6.11.43-9.17.45-2.14,0-4.3-.25-6.44-.44-2.64-.22-5.28-.43-7.91-.76-3.27-.41-6.53-.92-9.79-1.41-2.88-.43-5.76-.83-8.63-1.33a101,101,0,0,1-12.27-2.47,15.61,15.61,0,0,0-6.12-.79c-.17,0-.49-.05-.53-.16-.35-.88-1-.58-1.56-.39a20.77,20.77,0,0,0-6.13,2.64,8.73,8.73,0,0,1-5.3,1.52c1-.84,1.9-1.62,2.84-2.29,1.28-.92,2.65-1.71,3.89-2.67a9.44,9.44,0,0,0,1.38-1.68c.2-.25.38-.59.64-.71,1.3-.59,2.64-1.13,3.95-1.69a1,1,0,0,0,.43-.24c.2-.28.35-.59.53-.89-.36-.11-.79-.39-1.08-.29a46.9,46.9,0,0,0-4.86,1.88c-3.37,1.62-6.69,3.35-10,5a4.94,4.94,0,0,1-.68.23c-.47-1.19-.36-1.65.53-2.11,3.2-1.64,6.39-3.3,9.63-4.85a40,40,0,0,1,4.18-1.52c.53-.19,1-.41,1-1.15a1.81,1.81,0,0,0-1.69-.24c-3.63.76-6.77,2.64-10,4.31-1,.51-1.94,1.09-2.87,1.69a3.74,3.74,0,0,1-3.34.48c.07-.32,0-.73.22-1,.87-1.21,1.72-2.3,3.51-2.43a14.08,14.08,0,0,0,3.83-1.33c1.89-.74,3.76-1.54,5.65-2.29,1.38-.54,2.79-1,4.18-1.55.65-.24.65-.3.26-1.34a11.75,11.75,0,0,0-2,.37c-2.68.94-5.36,1.92-8,2.93-.69.26-1.3.73-2,1a19.15,19.15,0,0,1-2.11.53h-.28Z"/><path class="cls-3" d="M193.08,79c1.23,1.38,2.41,2.83,3.73,4.12a8.06,8.06,0,0,0,4,1.93A2.79,2.79,0,0,0,202,85a.76.76,0,0,0,.57-1.17,3.67,3.67,0,0,0,.52,0c.25-.08.69-.21.69-.29a1.42,1.42,0,0,0-.32-.86,22.14,22.14,0,0,1-4.16-7.36c.85.8,1.5,1.5,2.23,2.1a16.69,16.69,0,0,0,8.5,4.05,1.83,1.83,0,0,0,1.17-.15,1.81,1.81,0,0,1,1.94-.06,12.17,12.17,0,0,0,3.13.63c.53.06.94.12,1.21.63a32.35,32.35,0,0,1,2.86,7.9c.08.37-.16.81-.21,1.22-.12.91.13,1.24,1.14,1.56a4.57,4.57,0,0,0,.32,1.18,1.27,1.27,0,0,0,.85.54c.21,0,.59-.37.63-.62a30.6,30.6,0,0,0,.47-3.92c0-.43-.46-.87-.78-1.27-.16-1.08,1.18-2.33-.42-3.33a15.4,15.4,0,0,1,2.57-4.79c1.21-1.44,2.62-1.78,4.16-.75a9.13,9.13,0,0,1,4.22,5.61,9.72,9.72,0,0,1,0,2.47c0,.66-.21,1.33-.18,2a11,11,0,0,1-1.48,5.46c-1.06,2.17-2.45,4.19-3.7,6.27-.13.21-.31.57-.45.56-1.37-.08-1.21,1-1.36,1.79-.32,1.71-.49,3.44-.85,5.14a24.08,24.08,0,0,1-2.21,6.27c-.57-.24-1.16-1-1.71-.3s.55,1,.71,1.58l-.48.64c-.47.64-1,.83-1.65.22a1.73,1.73,0,0,0-.91-.35.84.84,0,0,0-.91,1c.07.36.21.7.39,1.3-.74-.32-1.28-.58-1.83-.79-1.11-.41-1.74,0-1.77,1.23,0,.6,0,1.2,0,2.08-.54-.5-.89-.87-1.29-1.17a2.62,2.62,0,0,0-1.07-.5.73.73,0,0,0-.83,1,5.77,5.77,0,0,1,.56,1.63l-1.77-1.31c-.19-.15-.36-.45-.56-.47a3.75,3.75,0,0,0-1,.14,2.71,2.71,0,0,0,.24.89,12.34,12.34,0,0,0,1.2,1.18,14.89,14.89,0,0,1-9.62-3.08,43.22,43.22,0,0,1-8.07-8.69,45.77,45.77,0,0,1-7.06-13.84,21.67,21.67,0,0,1-1-10.23,20.33,20.33,0,0,1,2.55-6.68c.25-.42.49-.85.75-1.31,1.13.77,2.2,1.52,3.29,2.24.66.44,1.35.82,2,1.25a1.33,1.33,0,0,0,1.88-.24l-2-4.25Zm-1,20.79h0l1.16,1.74-1.75.81a1.48,1.48,0,0,0,2,.55,28.61,28.61,0,0,0,3.14-1.13,6.64,6.64,0,0,0,1.35-1.18c-.74-.71-1.31-1.26-2.08-2h2.56c.4,0,.9,0,.95-.55s-.31-.66-.78-.76a9.39,9.39,0,0,0-6.38.67A5.2,5.2,0,0,0,189.4,101c-.18.55-.21,1.08.51,1.33Zm11.76,13.11a6.64,6.64,0,0,0-1.09-.06,1,1,0,0,0-.7.35.83.83,0,0,0,.17.75,3.45,3.45,0,0,0,1.28.89c2.38.7,4.77,1.4,7.19,2a5.58,5.58,0,0,0,4.91-.93,6.79,6.79,0,0,0,2.29-3.45c.53-1.74.85-3.53,1.33-5.28.39-1.42,0-3,1-4.3.12-.15-.09-.8-.32-1a.66.66,0,0,0-1,.38,12.34,12.34,0,0,1-3.82,4.39,58.9,58.9,0,0,1-5.21,4C208.06,111.78,206.21,113.09,203.82,112.87ZM211,90.49h2.88a6.26,6.26,0,0,0,1.37,0c.3-.08.53-.42.79-.64-.22-.21-.42-.51-.68-.6a9.86,9.86,0,0,0-5.46-.24,8.66,8.66,0,0,0-5.57,4.6c-.27.46-.91,1.2-.12,1.61s.84-.57,1.19-1c.57-.65.93-1.55,1.8-1.79l1.38,2c-.59.17-1,.51-.6,1.17.1.05.14.09.17.09a11.35,11.35,0,0,0,7.71-3.46c.17-.16.15-.52.24-.87-1.29-.31-1.81,1-2.64,1.1Zm-7.92.17c.25-.16.55-.3.79-.49.67-.55,1.3-1.15,2-1.67a24.9,24.9,0,0,1,7.94-4,2.09,2.09,0,0,0,1.21-1.41c.13-.75-.78-.8-1.28-.82a13.76,13.76,0,0,0-3.21.2,12,12,0,0,0-8.29,5.76,1.28,1.28,0,0,0,.09,1.51C202.58,90,202.82,90.3,203.12,90.66Zm4,19.34a7.14,7.14,0,0,0,1.77-.72c.29-.22.29-.83.42-1.26-.41-.09-.89-.37-1.19-.24a1.85,1.85,0,0,1-1.74-.2,3.41,3.41,0,0,1-1.78-2c-.38-1.44-.73-2.88-1-4.33-.37-1.73-.6-3.5-1.07-5.21a9.85,9.85,0,0,0-1.39-2.59c-.14-.22-.63-.22-1-.32,0,.33-.2.72-.07,1a22.85,22.85,0,0,1,1.51,6.51,43.86,43.86,0,0,0,1,5.47C203.13,108,204.93,110,207.15,110ZM196.78,92.5l.62-.72a3.13,3.13,0,0,0-.71-.56A2.45,2.45,0,0,0,195.6,91c-3.75.35-7.21,1.24-9.16,5a1.52,1.52,0,0,0,.39,2.21,1.17,1.17,0,0,0,.3-.19,2.61,2.61,0,0,0,.41-.47,5.5,5.5,0,0,1,4.14-2.63c1.39-.18,2.78-.39,4.17-.62a12,12,0,0,0,1.51-.45Zm29.55-3.44c.45-1.22.83-2.4,1.33-3.52a4.63,4.63,0,0,1,2.08-2.4,1.1,1.1,0,0,0,.37-1c-.14-.43-.56-.23-.94-.1a5.29,5.29,0,0,0-3.07,3.19,26.86,26.86,0,0,0-1.72,7.7,9.74,9.74,0,0,0,0,2.09,4.91,4.91,0,0,0,.46,1.18c1.32-1.63.77-3.47,1.51-5.17a11.34,11.34,0,0,0,.43,2.14c.14.33.66.5,1,.74a4.88,4.88,0,0,0,.45-1,1.7,1.7,0,0,0-.09-.86C227.77,91,227.78,89.74,226.33,89.06Zm-14.18,7.59c-.34-.11-.62-.31-.83-.25a8.56,8.56,0,0,0-1.72.68c-.2.11-.27.46-.39.7.27.13.57.42.81.37A2.79,2.79,0,0,0,212.15,96.65Zm-16.5,8.11c.6-.37,1.13-.65,1.6-1,.11-.08.11-.45,0-.63s-.35-.21-.52-.18a5.15,5.15,0,0,0-1.28.4,4.91,4.91,0,0,0-.84.75Z"/><path class="cls-4" d="M69.72,147.34a2.26,2.26,0,0,1,.13.93c-.49,1.59.64,2.48,1.41,3.55a4.28,4.28,0,0,1,.81,1.47c.45,2.27.93,4.54,1.17,6.83.44,4.17.76,8.36,1.06,12.54.23,3.2.33,6.4.55,9.6.12,1.73.36,3.45.55,5.17s.38,3.48.58,5.21c.12,1.1.27,2.2.44,3.48L52.08,197c0-2,0-3.81,0-5.62,0-1.49.09-3,.16-4.46.1-1.94.24-3.88.32-5.83.08-2.15.23-4.3.14-6.45s-.38-4.61-.72-6.9c-.78-5.12-3.24-9.57-5.7-14-.88-1.58-1.73-3.18-2.54-4.66,1.42-1.62,2.87-3.26,4.3-4.9C55,146.29,62.15,147.91,69.72,147.34Z"/><path class="cls-3" d="M188.8,208.67c-1.14.8-2.31,1.58-3.43,2.43a16.65,16.65,0,0,0-1.9,1.76c-.33.34-.7.73-.34,1.32s.57,1,1.37,1a11.87,11.87,0,0,0,5.7-1.46,34.12,34.12,0,0,1,6.7-2.93c.14,0,.3-.05.54-.09-.22,1.4-.42,2.71-.66,4.25-2.06.2-4.27.44-6.48.64-4.77.44-9.54.83-14.3,1.29-1.73.18-3.45.51-5.17.79a1.1,1.1,0,0,1-1.41-1.05c-.3-3.57-.58-7.13-.91-10.69-.26-2.75-.72-5.49-.87-8.25-.22-4.17-.22-8.35-.35-12.52s-.32-8.52-.46-12.79c0-1.28,0-2.57,0-4.1.73-.12,1.6-.32,2.48-.4,3.67-.35,7.36-.57,11-1s7.45-1.11,11.17-1.68a75.2,75.2,0,0,1,10.26-1.11c1.31,0,1.8.29,1.78,1.75,0,3.41-.12,6.82-.21,10.23a3,3,0,0,1-.26.82l0,0a23,23,0,0,1-1.9-3.42,21,21,0,0,1-.83-4.12c-.17-1.17-.59-1.44-1.74-1.15-2,.52-4.11.93-6.16,1.41-2.54.59-5.08,1.15-7.59,1.81a2.23,2.23,0,0,0-1.8,2.62,24.38,24.38,0,0,0,.48,3.29c.47,2.35,1,4.68,1.5,7a13,13,0,0,0,.68,2,1.57,1.57,0,0,0,1.76,1A50.7,50.7,0,0,0,199.89,184a15,15,0,0,0,3.2-2.15,37.49,37.49,0,0,1-1.3,10.82,11.81,11.81,0,0,1-1.64-.29,12.69,12.69,0,0,0-8.51.31,36.08,36.08,0,0,0-10.32,5.88c-1.6,1.25-1.72,2.5-1.2,4.48a9,9,0,0,0-1.26,1.14A5.56,5.56,0,0,0,177.8,206c-.43,1.51.48,2.45,2.47,2.61,0,.41,0,.82,0,1.23a1.68,1.68,0,0,0,2.47,1.64c1.82-.79,3.59-1.68,5.38-2.52a5.54,5.54,0,0,1,.69-.22Z"/><path class="cls-3" d="M159.24,64.46l1.92,2.4a11,11,0,0,1-1.76-.41,4.24,4.24,0,0,1-1.43-.9,9.69,9.69,0,0,1-2.22-4.65c-.8-3.26-1.5-6.54-2.26-9.81a10.91,10.91,0,0,0-.58-1.45l-.93.56a79,79,0,0,0,2.61,13.14,4.33,4.33,0,0,1-.62-.47,18.68,18.68,0,0,1-3.7-7.39c-.46-1.63-.76-3.31-1.17-4.95-.1-.4-.08-1.08-.73-1s-.56.62-.49,1.21A25.67,25.67,0,0,0,151,61.09c-.4.57-.75.37-1.14,0A7.9,7.9,0,0,1,147.73,58c-.22-.58-.42-1.35-1.24-1.07s-.61,1-.5,1.63c.17.84.47,1.66.72,2.48l-.22.16c-.89-1-1.84-1.92-2.64-3a15.38,15.38,0,0,1-2.78-5.39.41.41,0,0,0-.1-.22c-1.43-1.53-1.05-3.63-1.72-5.39-.32-.84-.57-1.72-.95-2.53-.11-.23-.58-.28-.88-.41-.06.33-.24.7-.14,1a22.34,22.34,0,0,1,1.43,8.64,9.28,9.28,0,0,1-3,6.17c.11-1,.17-1.69.29-2.39a23.6,23.6,0,0,0-.26-9,8.59,8.59,0,0,0-2.11-4.14,3.11,3.11,0,0,0-3.74-.68,1,1,0,0,1-1.21-.06c-1.27-1-2.89-1.18-4.38-1.6a1.91,1.91,0,0,0-1.54.63,13.38,13.38,0,0,0-3.14,6.09c-.32,1.58-.5,3.19-.74,4.78a3.69,3.69,0,0,1-.27.59,24.61,24.61,0,0,1-.38-2.59,12.2,12.2,0,0,1,.38-4.8c.11-.3-.11-.73-.17-1.1a3.46,3.46,0,0,0-.93.63c-.87,1.13-.52,2.55-.85,3.81a8,8,0,0,1-.42,1.37,12.28,12.28,0,0,0-1.13,5.53,10.63,10.63,0,0,1-.22,2.61,14.89,14.89,0,0,1-1.1-3.12A43.09,43.09,0,0,1,113.6,51c0-.58,0-1-.66-1.11s-.82.35-.83.93a23.29,23.29,0,0,1-1.79,8.44,21.4,21.4,0,0,1-3,5.91,2.76,2.76,0,0,0-.27.9c-.89-1.42-1.75-.46-2.62-.11h0c.28-2.59.5-5.19.83-7.78a21.35,21.35,0,0,1,3-8.07c1.39-2.35,2.84-4.68,4.41-6.92a12.73,12.73,0,0,1,11.4-5.57,13.26,13.26,0,0,1,6.5,1.65c.8-.45,1.41-.8,2-1.12a22.21,22.21,0,0,1,7-2,20.49,20.49,0,0,1,9.67.9c3.77,1.2,6.8,3.5,9.79,6a66.19,66.19,0,0,0,6.87,4.65,20.35,20.35,0,0,1,4.85,3.82,10,10,0,0,1,2.14,6.7c0,3.74-1.25,7.18-2.67,10.62-2.13-2.79-4.13-3.49-6.4-1.49-.5-.58-1-1.17-1.5-1.74-2.28-2.49-3.17-5.57-3.62-8.8-.22-1.56-.3-3.13-.39-4.7,0-.54-.17-.87-.94-1a5.21,5.21,0,0,0-.51,1.66c.11,3.22.18,6.46,1.35,9.52.29.76.7,1.47,1.06,2.2Z"/><path class="cls-3" d="M112.62,215.19c-1.79-.35-3.58-.7-5.36-1.07a17,17,0,0,0-1.92-.43c-.33,0-.67.28-1,.44.22.27.4.66.68.77,1.41.54,2.85,1,4.27,1.5a22.05,22.05,0,0,1-9.75-1.46c-2.42-.89-4.86-1.74-7.23-2.74s-4.86-2.29-7.31-3.39a25.7,25.7,0,0,0-6.91-2.07c.11-1.36.16-2.72.33-4.05a23,23,0,0,1,.71-3.27,2.14,2.14,0,0,1,.79-1.12c1.76-1.14,3.55-2.24,5.35-3.31a23.8,23.8,0,0,1,12-3.56c2.1,0,4.2-.13,6.31-.17,1.06,0,1.22.28.81,1.29a4,4,0,0,1-2.77,2.08c-1.84.62-3.74,1-5.56,1.69a4.6,4.6,0,0,0-1.68,1.38c-.45.52-.38,1,.36,1.36,1,.48,1.79,1.18,2.71,1.74a31,31,0,0,0,7.58,2.92c3.22,1,6.41,2,9.62,3a43.31,43.31,0,0,1,8.18,3.92c.65.35,1.35.71,1.39,1.69a8.65,8.65,0,0,1-4.59-.55c-3.76-1.4-7.5-2.83-11.3-4.1a26.47,26.47,0,0,0-4.39-.73,1,1,0,0,0-.61.07c-.34.24-.87.51-.92.84-.1.64.55.76,1,.82a55.55,55.55,0,0,1,12.1,3.52c2.46.92,4.93,1.91,7.65,1.88a1.66,1.66,0,0,1,1.13.61c.6.8.25,1.53-.74,1.47a11.84,11.84,0,0,1-3-.55c-3.24-1-6.44-2.16-9.66-3.24q-2.58-.87-5.17-1.71c-.12,0-.25,0-.37-.07-1.23-.28-1.84-.16-1.94.47-.14,1,.7,1,1.36,1.23,2,.7,4,1.46,6.06,2.21.6.22,1.17.48,1.76.73Z"/><path class="cls-3" d="M73.81,152.61c.89.62,1.75,1.27,2.67,1.84s2,1.07,2.92,1.63c.45.26.87.6,1.32.87a2.07,2.07,0,0,0,.77.32c2.84.31,6.11,2.48,6.42,5.36.28,2.49,1.2,4.9,1.73,7.37.4,1.89.71,3.81.93,5.73.47,4,.83,8,1.28,12a24.93,24.93,0,0,0,.5,2.49c-1.51.57-2.92,1.11-4.35,1.62-2.25.79-4.07,2.33-6.08,3.54-.7.42-1.37.91-2.09,1.3a1.16,1.16,0,0,1-1.72-.88c.19-4-.66-7.88-.88-11.83-.23-4.2-.45-8.41-.73-12.61-.19-2.83-.46-5.65-.71-8.47a1.74,1.74,0,0,0-.26-.53l0,0A42.89,42.89,0,0,0,74,153.19c-.06-.2-.09-.4-.14-.6Z"/><path class="cls-3" d="M51.93,132.93c2,1.59,4.46,2.12,6.62,3.29,2.54,1.37,5.17,1.43,7.87,1.47,2.1,0,4.21,0,6.36,0-1,2.36-2,4.74-3,7.31-2.47.83-5.21.6-8,.19S56.55,144.48,54,144c-1.65-.3-3.26-.8-4.86-1.2.67-1.71,1.4-3.23,1.86-4.83S51.6,134.68,51.93,132.93Z"/><path class="cls-4" d="M198.73,170c-.43,2.38,1.15,5.91,2.56,8.63-1.1-.09-2.1-.15-3.1-.25s-1.49.28-1.42,1.39a18.31,18.31,0,0,1-.09,2.45,1.61,1.61,0,0,1-1.15,1.46c-2.67.7-5.36,1.31-8.05,1.94a1.84,1.84,0,0,1-.44,0c-.87-4.08-1.76-8.22-2.68-12.51C189,171.62,193.93,171.41,198.73,170Zm-3.49,2.53c-1.63.33-3.09.6-4.55.92-.73.16-1.44.38-2.16.58a.79.79,0,0,0-.62,1c.16.6.61.4,1,.31s.8-.17,1.2-.26c1.65-.36,3.32-.69,5-1.13.37-.1.62-.62.93-.94ZM191,177.17c.74-.14,1.71-.3,2.68-.52.43-.09.83-.4.61-.87a1.07,1.07,0,0,0-.89-.41c-.95,0-1.89.11-2.84.2-.53.05-1.32-.17-1.32.71s.81.76,1.39.88Z"/><path class="cls-3" d="M151.69,100.45c-.17,1.16-.36,2.33-.49,3.5-.22,2.15-.46,4.29-.59,6.45a1.79,1.79,0,0,1-1.44,2,48.65,48.65,0,0,1-7.21,1.77,45.73,45.73,0,0,1-10.78,0c-1-.12-1-.12-.84-1.11.11-.82.1-1.65.15-2.56,4.19.41,8.36.3,12.06-1.78A23.62,23.62,0,0,0,151.69,100.45Z"/><path class="cls-3" d="M133.34,224.53a46.94,46.94,0,0,1-1-11.38c.11,1,.23,2,.34,3.06s.23,2,.3,3.08c.12,1.7.25,1.74,1.9,2.07a22.32,22.32,0,0,0,5.4.62c4-.15,8-.19,12.05-.35,1.53-.07,3.05-.38,4.58-.52,2.75-.26,5.51-.48,8.27-.7a3.14,3.14,0,0,1,.61.05c0,2,0,2.06-1.87,2.28-2.83.32-5.67.49-8.5.76-2.67.26-5.32.67-8,.85-3.54.23-7.07.84-10.64.37C135.64,224.58,134.48,224.59,133.34,224.53Z"/><path class="cls-3" d="M205.13,187.16c0-.62-.13-1.25-.11-1.88q.16-6.81.38-13.63c0-1.88.25-3.75.18-5.62a5.78,5.78,0,0,0-.84-2.67c-.78-1.29-2.2-1.09-3.48-1.07-5.5.09-10.83,1.44-16.24,2.24-3.52.51-7.07.85-10.61,1.28-.62.07-1.24.15-1.86.25s-.85-.12-.93-.81a8.32,8.32,0,0,1,1.45-.59c2.83-.59,5.66-1.18,8.51-1.68,2-.35,3.94-.57,5.92-.81,2.84-.34,5.67-.76,8.52-.94,3.74-.23,7.49-.26,11.35-.39a12.2,12.2,0,0,1,.08,4.34c-.37,3.13-.84,6.25-1.16,9.38-.4,4-.69,8.08-1,12.12a2.1,2.1,0,0,1-.16.46Z"/><path class="cls-3" d="M202.09,218.53a9.79,9.79,0,0,1-1.45.34c-2.74.17-5.5.18-8.23.48-3.93.42-7.88,0-11.79.41-2.88.3-5.73.86-8.6,1.3-.24,0-.48.06-.87.1,0-.61-.09-1.17-.14-1.83,2.14-.22,4.18-.5,6.22-.63,4.41-.3,8.83-.48,13.24-.79,2.19-.15,4.37-.45,6.56-.72,1.65-.21,2.29-1.15,2.2-2.88,0-.72.2-1.45.22-2.18s.39-.88,1-.73,1,.24,1.62.37Z"/><path class="cls-3" d="M236.4,130.3c-.09.3-.1.68-.29.89a23,23,0,0,1-7.23,5.13,41.21,41.21,0,0,1-10.22,2.89c-2.3.42-4.66.53-7,.87a17,17,0,0,1-5.28-.06,6,6,0,0,1-3.28-1.33c.25-.21.44-.49.69-.54a15.12,15.12,0,0,1,5.2-.06,33.73,33.73,0,0,0,14.34-1.1c4.12-1.26,8-3.12,10.83-6.61.62-.76,1.23-.74,2.25-.06Z"/><path class="cls-3" d="M106.1,191.93a10,10,0,0,1,1,3.43c.11,2.45.39,4.89.61,7.44-3.85-1.23-8-1.91-11.53-4.52a8.05,8.05,0,0,1,3-1.15,25.92,25.92,0,0,0,4.44-1.55,4,4,0,0,0,2.57-3.67Z"/><path class="cls-3" d="M153.78,228.86l-.33-3.1c4.23-.61,8.52-.43,12.8-1.6,0,.52,0,1,0,1.54-.08,1.13-.38,1.58-1.51,1.8-1.9.36-3.82.59-5.74.87-1.46.22-2.93.42-4.39.61A3.45,3.45,0,0,1,153.78,228.86Z"/><path class="cls-3" d="M79.17,102.47a4,4,0,0,1,.08-3.31,2.16,2.16,0,0,1,1-1,11.71,11.71,0,0,1,5.27-1.21,19.15,19.15,0,0,1,2.73.17c1.16.12,1.27.29,1.31,1.47,0,.49.15,1,.15,1.47a9.5,9.5,0,0,1-.24,1.42c-1.9-1.81-3.88-1.52-5.8-.88C82.16,101.06,80.73,101.8,79.17,102.47Z"/><path class="cls-3" d="M201.31,220.92c-.42,1.81-.41,1.92-2.17,2-2.56.12-5.13.1-7.69.06-2.16,0-4.33-.13-6.48-.28s-4.12-.38-6.18-.58l0-.28c1-.06,2-.17,3-.18,3.57-.05,7.13,0,10.69-.11,3-.1,5.93-.39,8.9-.59Z"/><path class="cls-3" d="M164.75,165.43c0,.63-.05.95-.07,1.27a1.56,1.56,0,0,1-.38.13l-11,1c-.94.09-1,0-.81-1.26Z"/><path class="cls-3" d="M131.27,169.86v-1.18a97.63,97.63,0,0,1,11.16-1c.38,1.22.35,1.3-.63,1.38-2.59.2-5.19.36-7.79.56C133.15,169.66,132.29,169.76,131.27,169.86Z"/><path class="cls-3" d="M132.23,211.88c-.13-.15-.36-.3-.38-.46-.31-3.41-.58-6.82-.91-10.22-.3-3-.7-6.09-1-9.13-.19-2.31-.24-4.62-.36-6.93l.36,0c.39,4.46.71,8.92,1.18,13.37s.91,8.93,1,13.42Z"/><path class="cls-3" d="M145.48,164.3l-.6-3.79,4-.79c-.18,1-.38,1.84-.48,2.69C148.19,164.13,146.82,164,145.48,164.3Z"/><path class="cls-3" d="M163,68a22.86,22.86,0,0,0-3.76,5.49,1.45,1.45,0,0,1-.24.26h0a15.62,15.62,0,0,0-.72-5.68c1,1,2,.11,2.89.1.61,0,1.23-.1,1.84-.15Z"/><path class="cls-5" d="M198.57,182.6v-2.22l2.9.33a3.92,3.92,0,0,1-2.91,1.87Z"/><path class="cls-3" d="M204.53,192.28c-.16-.31-.48-.64-.44-.93.13-1,.38-2,.59-3a1.3,1.3,0,0,1,.16-.31l.26.1c-.1,1.36-.21,2.72-.31,4.07Z"/><path class="cls-3" d="M216.42,122.09v-1.2l1,.41Z"/><path class="cls-3" d="M189.06,208.41l1.05-.44,0,0-1.05.43Z"/><path class="cls-3" d="M112.6,215.21l.79,0,0,.14-.74-.2Z"/><path class="cls-3" d="M118.85,54.83l-.06.1a1.51,1.51,0,0,1-.09-.18s0-.06.06-.1Z"/><path class="cls-3" d="M203.65,193.34c.06,0,.14-.06.17,0a1,1,0,0,1,.14.2c-.08,0-.17.08-.22.05S203.68,193.41,203.65,193.34Z"/><path class="cls-3" d="M227.62,106.33l.16.13a.8.8,0,0,1-.2.07s-.06,0-.09-.06Z"/><path class="cls-3" d="M192.68,78.37s-.05-.08,0-.09l.1-.07a.18.18,0,0,1,0,.1S192.71,78.35,192.68,78.37Z"/><path class="cls-3" d="M205.1,187.14l-.09.32-.11-.12.23-.18Z"/><path class="cls-3" d="M236.42,130.32l.09-.12s0,.06,0,.07-.06,0-.09,0Z"/><path class="cls-3" d="M73.83,152.59l-.09-.05.07.07Z"/><polygon class="cls-3" points="227.48 105.89 227.56 105.87 227.55 105.94 227.48 105.89"/><polygon class="cls-3" points="20.82 158.93 20.85 159.01 20.78 159 20.82 158.93"/><path class="cls-3" d="M191.83,159.84h-.28v0h.29Z"/><polygon class="cls-3" points="179.68 100.84 179.7 100.91 179.64 100.9 179.68 100.84"/><path class="cls-3" d="M75.53,162.31l0,.15s0,0,0-.06a.45.45,0,0,1,.07-.07Z"/><path class="cls-3" d="M142.26,165.31l.05.23-.15-.13Z"/><path class="cls-3" d="M162.73,90.78l-.14-.12.2.06Z"/><path class="cls-3" d="M203.06,176.91l.16.06s-.06,0-.07,0a.26.26,0,0,1-.07-.1Z"/><polygon class="cls-3" points="198.56 182.58 198.55 182.65 198.57 182.6 198.56 182.58"/><path class="cls-3" d="M235.67,87.48v.29a1.52,1.52,0,0,1-.06-.2S235.65,87.51,235.67,87.48Z"/><path class="cls-3" d="M72.08,79.48l-.13-.1.06,0s0,.07,0,.1Z"/><path class="cls-3" d="M193.08,79l0-.07,0,.06Z"/><polygon class="cls-3" points="106.15 191.13 106.18 191.18 106.14 191.11 106.15 191.13"/><polygon class="cls-3" points="106.13 191.91 106.09 191.84 106.1 191.93 106.13 191.91"/><path class="cls-3" d="M188.07,129.79v0Z"/><polygon class="cls-3" points="159 73.72 158.97 73.78 159 73.73 159 73.72"/><path class="cls-3" d="M50,196.65l.16.1-.16-.1Z"/><path class="cls-3" d="M182.81,201.65h-.28v0h.28Z"/><path class="cls-3" d="M190.11,208l0-.16a.14.14,0,0,1,0,.06l-.07.08Z"/><path class="cls-3" d="M234.4,128.57l0,0Z"/><path class="cls-3" d="M188.82,208.69l.24-.28,0,0-.23.29Z"/><path class="cls-3" d="M163,68l.09-.14s0,.06,0,.07a.25.25,0,0,1-.09,0Z"/><path class="cls-3" d="M132.2,211.9l.06.07s0,0,0,.06l0-.15Z"/><path class="cls-3" d="M234.16,128.31l.24.26,0,0-.26-.24Z"/><path class="cls-3" d="M201.33,221l.08-.08-.1,0Z"/><path class="cls-3" d="M104.38,66l-.08,0,.06,0Z"/><path class="cls-3" d="M159.25,64.47l0-.11.09.08-.12,0Z"/><polygon class="cls-3" points="155.47 122.27 155.46 122.34 155.49 122.28 155.47 122.27"/><path d="M131.33,127.47c-1-.22-1.94-.39-2.88-.68a1,1,0,0,1-.52-.78c.11-.51.52-.58,1.07-.51a14.1,14.1,0,0,0,3,.12c5-.4,9.72-1.78,14.57-2.74.57-.11,1.15-.14,1.72-.2s1,0,1.08.58-.32.74-.81.85c-2.42.56-4.84,1.07-7.24,1.71a74.42,74.42,0,0,1-8.76,1.45,8.53,8.53,0,0,1-1.24,0Z"/><path d="M147,127.76c-.37.26-.71.66-1.09.72-1.22.17-2.46.24-3.7.3a1,1,0,0,1-.69-.24c-.26-.22-.65-.54-.63-.79,0-.47.47-.5.93-.5,1.2,0,2.4-.07,3.6-.16C146.3,127,146.29,127,147,127.76Z"/><path d="M191.84,159.86h0Z"/><path d="M146.58,88a14.79,14.79,0,0,1-.32,1.71,29.5,29.5,0,0,1-1.3,3.59,19.23,19.23,0,0,1-5.44,6.44,7.8,7.8,0,0,1-9.84.55,21.67,21.67,0,0,1-5.37-5.52,7.9,7.9,0,0,0-1.46-1.21c-.25-.22-.48-.46-.72-.69.31-.2.63-.57.94-.56a45.61,45.61,0,0,1,5.1.28,16.5,16.5,0,0,0,8.56-1.34c2.71-1.11,5.39-2.28,8.09-3.41C145.47,87.55,146.17,87.21,146.58,88Zm-8.15,4.51c-2.89,1-5.75,2.16-9.18,1.78.41.52.55.86.81,1,.91.5,1.72,1.5,2.92,1a20.52,20.52,0,0,0,3.56-2c.67-.49,1.71-.69,1.88-1.76l.05,0Zm5.78-1.74a5.29,5.29,0,0,0-1,.52c-1.35,1.09-2.64,2.26-4,3.31a35.44,35.44,0,0,1-3.5,2.33c-1.87,1.07-3.8,2-5.84.31,0,0-.15,0-.4,0,0,.29-.07.76.06.84,1.81,1,3.59,2.22,5.86,1.59a7.21,7.21,0,0,0,3-1.63c2.31-2.14,4.56-4.3,5.79-7.3l.05,0Z"/><path d="M135.19,67.47c.38-.32.72-.79,1.16-.94A25.06,25.06,0,0,1,144,65a14.33,14.33,0,0,1,3.9.72c1,.24,1.87.69,2.83,1a5.29,5.29,0,0,1,2.46,2c.4.46.1,1-.57,1a7.5,7.5,0,0,1-1.91-.46,23.3,23.3,0,0,0-8.88-1.28,28.08,28.08,0,0,0-5.25.54,1,1,0,0,1-1.35-.73h0v-.27Z"/><path d="M125.19,85a18.89,18.89,0,0,1,1.93-7.73,21.86,21.86,0,0,0,1.13-3.52,3.81,3.81,0,0,0-.89-3.56c-.18-.19-.13-.57-.18-.87.34,0,.75-.25,1-.14a3.07,3.07,0,0,1,1.64,2.61,8.89,8.89,0,0,1-.39,4.53c-.7,1.88-1.27,3.81-1.82,5.74a10,10,0,0,0-.28,2.2,2.94,2.94,0,0,0,1.36,2.36,11.63,11.63,0,0,1,1.4,1.2,3.07,3.07,0,0,1,.28,1.1c-.37.07-.81.31-1.09.19-1.81-.79-3.48-1.77-4.11-3.83h0V85Z"/><path d="M123.53,69.72a6.55,6.55,0,0,1-1.18,0,18.94,18.94,0,0,0-7.86.35,18.59,18.59,0,0,0-2.82,1.19,1.43,1.43,0,0,1-1,.12c-.18-.07-.25-.56-.25-.86,0-2.06,1.66-2.65,3.14-3.3a11.25,11.25,0,0,1,7.78-.14c.48.13,1,.32,1.41.49C124,68,124.1,68.27,123.53,69.72Z"/><path d="M162.77,84c-1.52-1-.08-2.76-1.29-4-.1.57-.13,1-.24,1.37-.07.21-.29.54-.4.52s-.59-.22-.63-.4a4.2,4.2,0,0,1-.15-1.57,7.42,7.42,0,0,1,2.26-4.07,19.85,19.85,0,0,1,3.33-2.55,4.13,4.13,0,0,1,1.74-.5.87.87,0,0,1,.73.47,1,1,0,0,1-.37.77c-.54.37-1.17.62-1.73,1a12,12,0,0,0-3.45,3.32C164.39,80.35,164.48,82.89,162.77,84Z"/><path d="M141.45,73.94a25.77,25.77,0,0,1,2.68.93c1,.45,1.93,1.11,2.91,1.63a.75.75,0,0,1,.42,1c-.21.56-.71.57-1.15.38-1-.42-1.92-1-2.91-1.37-1.33-.55-2.72-1.13-4.17-.49a11.53,11.53,0,0,0-1.94,1.3,9.16,9.16,0,0,1-.85.69,3.89,3.89,0,0,1-1,.22c0-.37-.15-.87,0-1.09A7.59,7.59,0,0,1,141.45,73.94Z"/><path d="M117.32,75.69a12.21,12.21,0,0,1,5,1.31,1.56,1.56,0,0,1,.65.55c.42.62.14,1.18-.61,1.2a4.23,4.23,0,0,1-1.21-.22c-.8-.24-1.58-.52-2.37-.76a4.91,4.91,0,0,0-4.18.86c-.43.28-.8.55-1.18.09a.82.82,0,0,1,.17-1.29C114.73,76.46,115.93,75.57,117.32,75.69Z"/><path d="M138.44,79.73c-.38-.44-.48-1,.1-1.22a20.48,20.48,0,0,1,2.79-1c.14,0,.38.23.69.42-1,1.2-2.36,1.31-3.57,1.77Z"/><path d="M118.6,79.29c0,.13,0,.26,0,.29-.27.15-.59.45-.82.39-.67-.15-1.34.75-1.95,0-.25-.32-.3-.83.13-.92a11.77,11.77,0,0,1,2.38-.2C118.4,78.84,118.51,79.15,118.6,79.29Z"/><path d="M120.68,92.61c-.71.09-.94-.26-1-.85a1.17,1.17,0,0,1,.77-1.25.63.63,0,0,1,.57,0,.79.79,0,0,1,.2.63A15.12,15.12,0,0,1,120.68,92.61Z"/><path d="M147.87,86c.88,0,1.62.56,1.55,1a.87.87,0,0,1-.52.57c-.41.11-1.5-.73-1.42-1.09S147.8,86.1,147.87,86Z"/><path d="M125.19,85.26V85h0v.29Z"/><path d="M138.45,79.72l-.07,0,.06,0Z"/><path d="M135.21,67.73l0-.26h0v.27Z"/><path d="M139.59,184.36c-.06-.06-.46-.27-.45-.45a1,1,0,0,1,.52-.76,6.17,6.17,0,0,1,1.44-.33,99.27,99.27,0,0,1,12-1.74c.91-.06,1.8-.31,2.71-.4.28,0,.58.19.88.29-.17.29-.27.77-.51.84a23,23,0,0,1-3.46.84c-3,.45-6,.83-8.95,1.22C142.47,184,141.15,184.17,139.59,184.36Z"/><path d="M139.83,188.38c-.42-.21-1.18-.39-1.19-.62-.07-.82.8-.76,1.28-.83,2.87-.43,5.75-.79,8.63-1.13,2.17-.25,4.35-.44,6.53-.65a3.82,3.82,0,0,1,1.12,0c.23.05.57.27.6.46a.86.86,0,0,1-.35.69,3,3,0,0,1-1.08.25c-3.74.38-7.49.75-11.23,1.14-1.41.14-2.8.32-4.2.49Z"/><path d="M145.92,189.53c.21-.27.34-.57.51-.6a26.17,26.17,0,0,1,2.93-.28c.22,0,.55.31.64.55s-.29.58-.47.58C148.38,189.81,147.2,190.39,145.92,189.53Z"/><path d="M73.24,132.33c-3.59.12-5.6-.81-7.33-2.5a11.09,11.09,0,0,1-3.72-6.48,2.94,2.94,0,0,1,2.42-3.56,10.52,10.52,0,0,1,3.67,0c2.92.48,5.8,1.19,8.73,1.66a16.44,16.44,0,0,0,3.57-.08c1.49-.1,2.14.57,1.75,2a14.91,14.91,0,0,1-3.57,6.46A8.92,8.92,0,0,1,73.24,132.33Zm3.32-3.21c-.39-.46-.65-1-1.07-1.23a25.8,25.8,0,0,0-3.46-1.7,13.94,13.94,0,0,1-5.62-4c-.37-.44-.64-.87-1.29-.58a1.16,1.16,0,0,0-.81,1.37,6.21,6.21,0,0,0,.54,2,18.49,18.49,0,0,0,2.55,3.33A7.24,7.24,0,0,0,70.12,130,7.68,7.68,0,0,0,76.56,129.12Zm2.11-6-.06-.3a28.85,28.85,0,0,1-3.48,0c-1.84-.23-3.65-.62-5.48-.94l-2.09-.33-.09.27a32.89,32.89,0,0,0,3.07,2.06c1.69.9,3.49,1.56,5.42.67C76.89,124.09,77.77,123.57,78.67,123.1Z"/><path d="M70,106.76c-2,.17-3.42,1.37-4.88,2.55-.16.13-.27.36-.45.42a10.52,10.52,0,0,1-1.12.21c.05-.41,0-.94.17-1.2,2.16-2.55,4.82-4.13,8.29-4a2.57,2.57,0,0,0,2.42-.94c.27-.35.68-.76,1.15-.32s.18.85-.16,1.2a13.88,13.88,0,0,0-2,2c-.46.71-.47,1.69-.87,2.46a11.34,11.34,0,0,1-1.74,2.39,1.5,1.5,0,0,1-1.32.39,1.43,1.43,0,0,1-.72-1.16,19.45,19.45,0,0,1,.75-3c.11-.38.27-.75.41-1.12h0Z"/><path d="M39.83,123.19c-1.58.15-1.63,0-2.19-1.11a4.65,4.65,0,0,1-.11-3.49A1.27,1.27,0,0,0,37,117a28.87,28.87,0,0,0-3.3-2,3.3,3.3,0,0,0-1.54,0c-.28,0-.55.23-.83.24a4.29,4.29,0,0,1-.9-.2c.09-.33.09-.83.3-1a5.62,5.62,0,0,1,2.12-.89c1.84-.22,3.36.71,4.78,1.73a2.88,2.88,0,0,0,1.84.84c.52,0,.83.21.82.83a1.85,1.85,0,0,0,.42.84A15.49,15.49,0,0,1,41.75,119a.79.79,0,0,1-1,1.12,6.91,6.91,0,0,1-1.28-.69C38.67,120.7,39.82,121.88,39.83,123.19Z"/><path d="M72.73,99.9c-.35.76-.91.7-1.51.74-1.6.12-3.19.32-4.78.56a10.61,10.61,0,0,0-5.1,2.61c-.78.64-.79.63-1.56,0a8.22,8.22,0,0,1,3.38-3.28c2.4-1.45,5-1.58,7.74-1.51A1.87,1.87,0,0,1,72.73,99.9Z"/><path d="M182.82,201.66h0Z"/><path d="M203.82,112.87c2.39.22,4.24-1.09,6.07-2.27a58.9,58.9,0,0,0,5.21-4,12.34,12.34,0,0,0,3.82-4.39.66.66,0,0,1,1-.38c.23.15.44.8.32,1-1.07,1.27-.65,2.88-1,4.3-.48,1.75-.8,3.54-1.33,5.28a6.79,6.79,0,0,1-2.29,3.45,5.58,5.58,0,0,1-4.91.93c-2.42-.55-4.81-1.25-7.19-2a3.45,3.45,0,0,1-1.28-.89.83.83,0,0,1-.17-.75,1,1,0,0,1,.7-.35A6.64,6.64,0,0,1,203.82,112.87Zm14.05-6.33-.28.23c-.64.74-1.64,1.39-1.84,2.24a11.94,11.94,0,0,1-1.57,3.3,6.48,6.48,0,0,0-1.29,3,3.18,3.18,0,0,0,2.25-1.26,14.92,14.92,0,0,0,2.43-7.26l.31-.22.06,0Zm-6,5-3.83,1.93.13.25a5.19,5.19,0,0,0,3.67-2.21.27.27,0,0,0,.08-.07s0,0,0-.07Z"/><path d="M211,90.49l2.46,2c.83-.11,1.35-1.41,2.64-1.1-.09.35-.07.71-.24.87a11.35,11.35,0,0,1-7.71,3.46s-.07,0-.17-.09c-.36-.66,0-1,.6-1.17l-1.38-2c-.87.24-1.23,1.14-1.8,1.79-.35.41-.49,1.34-1.19,1s-.15-1.15.12-1.61a8.66,8.66,0,0,1,5.57-4.6,9.86,9.86,0,0,1,5.46.24c.26.09.46.39.68.6-.26.22-.49.56-.79.64a6.26,6.26,0,0,1-1.37,0Z"/><path d="M203.12,90.66c-.3-.36-.54-.62-.75-.9a1.28,1.28,0,0,1-.09-1.51,12,12,0,0,1,8.29-5.76,13.76,13.76,0,0,1,3.21-.2c.5,0,1.41.07,1.28.82a2.09,2.09,0,0,1-1.21,1.41,24.9,24.9,0,0,0-7.94,4c-.7.52-1.33,1.12-2,1.67C203.67,90.36,203.37,90.5,203.12,90.66Z"/><path d="M207.15,110c-2.22,0-4-2-4.55-3.91a43.86,43.86,0,0,1-1-5.47,22.85,22.85,0,0,0-1.51-6.51c-.13-.26,0-.65.07-1,.33.1.82.1,1,.32A9.85,9.85,0,0,1,202.51,96c.47,1.71.7,3.48,1.07,5.21.32,1.45.67,2.89,1,4.33a3.41,3.41,0,0,0,1.78,2,1.85,1.85,0,0,0,1.74.2c.3-.13.78.15,1.19.24-.13.43-.13,1-.42,1.26A7.14,7.14,0,0,1,207.15,110Z"/><path d="M192.06,99.76l-2.15,2.58c-.72-.25-.69-.78-.51-1.33a5.2,5.2,0,0,1,2.83-3.11,9.39,9.39,0,0,1,6.38-.67c.47.1.82.25.78.76s-.55.54-.95.55h-2.56c.77.76,1.34,1.31,2.08,2a6.64,6.64,0,0,1-1.35,1.18,28.61,28.61,0,0,1-3.14,1.13,1.48,1.48,0,0,1-2-.55l1.75-.81-1.16-1.74.06,0Z"/><path d="M196.78,92.5l.58,1.3a12,12,0,0,1-1.51.45c-1.39.23-2.78.44-4.17.62a5.5,5.5,0,0,0-4.14,2.63,2.61,2.61,0,0,1-.41.47,1.17,1.17,0,0,1-.3.19,1.52,1.52,0,0,1-.39-2.21c1.95-3.71,5.41-4.6,9.16-5a2.45,2.45,0,0,1,1.09.22,3.13,3.13,0,0,1,.71.56Z"/><path d="M226.33,89.06c1.45.68,1.44,1.94,1.78,3a1.7,1.7,0,0,1,.09.86,4.88,4.88,0,0,1-.45,1c-.34-.24-.86-.41-1-.74a11.34,11.34,0,0,1-.43-2.14c-.74,1.7-.19,3.54-1.51,5.17a4.91,4.91,0,0,1-.46-1.18,9.74,9.74,0,0,1,0-2.09,26.86,26.86,0,0,1,1.72-7.7A5.29,5.29,0,0,1,229.17,82c.38-.13.8-.33.94.1a1.1,1.1,0,0,1-.37,1,4.63,4.63,0,0,0-2.08,2.4C227.16,86.66,226.78,87.84,226.33,89.06Z"/><path d="M212.15,96.65a2.79,2.79,0,0,1-2.13,1.5c-.24,0-.54-.24-.81-.37.12-.24.19-.59.39-.7a8.56,8.56,0,0,1,1.72-.68C211.53,96.34,211.81,96.54,212.15,96.65Z"/><path d="M195.65,104.76l-1-.67a4.91,4.91,0,0,1,.84-.75,5.15,5.15,0,0,1,1.28-.4c.17,0,.47.06.52.18s.09.55,0,.63C196.78,104.11,196.25,104.39,195.65,104.76Z"/><path d="M195.24,172.55l.77.52c-.31.32-.56.84-.93.94-1.64.44-3.31.77-5,1.13-.4.09-.8.16-1.2.26s-.85.29-1-.31a.79.79,0,0,1,.62-1c.72-.2,1.43-.42,2.16-.58C192.15,173.15,193.61,172.88,195.24,172.55Z"/><path d="M191,177.17h-.37c-.58-.12-1.38,0-1.39-.88s.79-.66,1.32-.71c1-.09,1.89-.19,2.84-.2a1.07,1.07,0,0,1,.89.41c.22.47-.18.78-.61.87C192.72,176.87,191.75,177,191,177.17Z"/><path class="cls-3" d="M144.2,90.75c-1.23,3-3.48,5.16-5.79,7.3a7.21,7.21,0,0,1-3,1.63c-2.27.63-4.05-.54-5.86-1.59-.13-.08,0-.55-.06-.84.25,0,.36-.06.4,0,2,1.67,4,.76,5.84-.31a35.44,35.44,0,0,0,3.5-2.33c1.38-1,2.67-2.22,4-3.31a5.29,5.29,0,0,1,1-.52Z"/><path class="cls-3" d="M138.42,92.5c-.17,1.07-1.21,1.27-1.88,1.76a20.52,20.52,0,0,1-3.56,2c-1.2.55-2-.45-2.92-1-.26-.14-.4-.48-.81-1,3.43.38,6.29-.77,9.18-1.78Z"/><polygon class="cls-3" points="138.43 92.49 138.47 92.47 138.42 92.5 138.43 92.49"/><polygon class="cls-3" points="144.21 90.75 144.25 90.71 144.2 90.75 144.21 90.75"/><path class="cls-3" d="M135.19,67.74v0Z"/><path class="cls-3" d="M125.17,85.26v0Z"/><path class="cls-3" d="M76.56,129.12a7.68,7.68,0,0,1-6.44.9,7.24,7.24,0,0,1-2.72-1.65A18.49,18.49,0,0,1,64.85,125a6.21,6.21,0,0,1-.54-2,1.16,1.16,0,0,1,.81-1.37c.65-.29.92.14,1.29.58a13.94,13.94,0,0,0,5.62,4,25.8,25.8,0,0,1,3.46,1.7C75.91,128.13,76.17,128.66,76.56,129.12Z"/><path class="cls-3" d="M78.67,123.1c-.9.47-1.78,1-2.71,1.41-1.93.89-3.73.23-5.42-.67a32.89,32.89,0,0,1-3.07-2.06l.09-.27,2.09.33c1.83.32,3.64.71,5.48.94a28.85,28.85,0,0,0,3.48,0Z"/><polygon class="cls-3" points="70.03 106.76 70.06 106.75 70 106.75 70.03 106.76"/><path class="cls-3" d="M217.57,106.75a14.92,14.92,0,0,1-2.43,7.26,3.18,3.18,0,0,1-2.25,1.26,6.48,6.48,0,0,1,1.29-3,11.94,11.94,0,0,0,1.57-3.3c.2-.85,1.2-1.5,1.84-2.24Z"/><path class="cls-3" d="M211.87,111.55a5.19,5.19,0,0,1-3.67,2.21l-.13-.25,3.83-1.93Z"/><path class="cls-3" d="M217.59,106.77l.28-.23h0l-.31.22Z"/><path class="cls-3" d="M217.87,106.54l.07,0-.06,0Z"/><path class="cls-3" d="M211.9,111.58l0-.17s0,0,0,.07a.27.27,0,0,1-.08.07Z"/><polygon class="cls-3" points="192.06 99.75 192.11 99.72 192.05 99.77 192.06 99.75"/><path class="cls-4" d="M246.67,80.9c8.31,1.43,14.69,9,14,17.56a17.29,17.29,0,0,1-5.28,11,9,9,0,0,1-2.58,1.93c-.07,0-.51.2-.56.14.1.12.16,0,.2-.09a2.62,2.62,0,0,1,1.37-.73,11,11,0,0,1,7.07,0,6.83,6.83,0,0,1,4.44,5.42c.2,2.2-1.39,4.72-3.71,5-1.89.22-1.91,3.22,0,3a7.53,7.53,0,0,0,6.42-5.47,8.59,8.59,0,0,0-2.24-8.15,11.42,11.42,0,0,0-8.63-3.38c-2.7.06-7.34.72-7.74,4.1a2.85,2.85,0,0,0,1.72,3c1.55.62,3.16-.19,4.4-1.1a19.85,19.85,0,0,0,6.62-23.55A20.09,20.09,0,0,0,247.47,78c-1.89-.33-2.7,2.56-.8,2.89Z"/><path class="cls-4" d="M89.47,56.22c4-3.89,8.29-8.42,8.57-14.32S94.43,31,90.11,27.64A31.76,31.76,0,0,0,58.84,23.5a34.54,34.54,0,0,0-20,23.79c-1.35,6-.4,12.15,4.42,16.29,4.19,3.59,9.71,5.21,15.11,5.79a38.43,38.43,0,0,0,19.45-3.09A36.94,36.94,0,0,0,82.17,64c1-.6,2.63-2.28,3.82-1.85.91.33,1.59,1.63,2.16,2.33a6.23,6.23,0,0,0,3,2.21A1.52,1.52,0,0,0,93,64.87,26.42,26.42,0,0,0,89.76,56a1.5,1.5,0,0,0-2.59,1.52,24.3,24.3,0,0,1,2.94,8.12L92,63.82c-1.61-.5-2.42-2.72-3.71-3.74-2.22-1.76-4.46-.7-6.56.69a35,35,0,0,1-15,5.54,33.55,33.55,0,0,1-15.59-1.62c-4.63-1.71-8.91-5-9.73-10.16s1.26-10.75,3.82-15.13a31.81,31.81,0,0,1,9.94-10.57A28.9,28.9,0,0,1,83.47,27c4.94,2.43,10,6.6,11.32,12.19,1.45,6.09-3.48,11-7.44,14.91-1.39,1.35.74,3.47,2.12,2.12Z"/><path class="cls-4" d="M180.41,63.41c5.27-7,6.39-16.1,6.16-24.63-.13-5.12-.69-10.21-.89-15.33-.16-4.25-.29-8.78,1.2-12.84,1.56-4.25,5.17-6.11,9.34-7.16,1.95-.49,4.16-.89,5.76.63a8.22,8.22,0,0,1,2,4.44c.84,4.29.32,9.07-.54,13.31A53.48,53.48,0,0,1,198.91,35c-4.57,9.22-11.38,17.07-18.76,24.16-1.4,1.34.72,3.45,2.12,2.12,7-6.74,13.54-14.18,18.2-22.78S208.2,19.67,207.2,9.8c-.37-3.67-1.68-7.88-5.44-9.34-2.24-.87-4.71-.35-6.94.26a18.48,18.48,0,0,0-6.43,2.88c-3.5,2.64-5,6.85-5.49,11.06-.65,5.16-.18,10.44.19,15.6.76,10.7,1.55,22.56-5.27,31.64-1.16,1.54,1.44,3,2.59,1.51Z"/><path class="cls-4" d="M12.71,156.49A33.82,33.82,0,0,0,6,178.7c.11,1.92,3.11,1.93,3,0A31.22,31.22,0,0,1,15.3,158a1.5,1.5,0,0,0-2.59-1.52Z"/><path class="cls-4" d="M.82,167.56a18.3,18.3,0,0,0-.26,9.9,1.52,1.52,0,0,0,1.84,1,1.53,1.53,0,0,0,1.05-1.85A14,14,0,0,1,3,172.49q0-.54.06-1.08a7.25,7.25,0,0,1,.12-.85,18.08,18.08,0,0,1,.53-2.2,1.5,1.5,0,0,0-1-1.84,1.53,1.53,0,0,0-1.85,1Z"/></g></g></svg>