<svg xmlns="http://www.w3.org/2000/svg" xmlns:xlink="http://www.w3.org/1999/xlink" viewBox="0 0 271.96 230.11"><defs><style>.cls-1{fill:none;}.cls-2{fill:url(#VT_Halftone_5);}.cls-3{fill:#fff;}.cls-4{fill:#61e268;}</style><pattern id="VT_Halftone_5" data-name="VT Halftone 5" width="5.04" height="5.04" patternUnits="userSpaceOnUse" viewBox="0 0 5.04 5.04"><rect class="cls-1" width="5.04" height="5.04"/><circle cx="3.78" cy="5.04" r="0.8"/><circle cx="1.26" cy="5.04" r="0.8"/><circle cx="5.04" cy="2.52" r="0.8"/><circle cx="2.52" cy="2.52" r="0.8"/><circle cy="2.52" r="0.8"/><circle cx="3.78" r="0.8"/><circle cx="1.26" r="0.8"/></pattern></defs><g id="Layer_2" data-name="Layer 2"><g id="OBJECTS"><path d="M115.52,37.57a15.63,15.63,0,0,1,13.24-.68c1.38.5,2.47-.13,3.52-.66a21.33,21.33,0,0,1,7.37-2.11,22.79,22.79,0,0,1,10.19,1.06,29.49,29.49,0,0,1,8.81,5c2.52,2,5.41,3.61,8.1,5.43A46.51,46.51,0,0,1,171,48.76a10.56,10.56,0,0,1,3.62,7.88c.26,4.32-1.3,8.17-3.13,12a7,7,0,0,1-.54,1,.63.63,0,0,1-.3.23c.1,1.87.21,3.59.3,5.31a14.32,14.32,0,0,1-2,7.36,21.68,21.68,0,0,1-4.09,5.86c-.76.74-1.64,1.36-2.47,2l-.2-.06.14.12a15.13,15.13,0,0,1-7,2,1.69,1.69,0,0,1,0,.64c-1.67,3.12-2,6.6-2.61,10a40.09,40.09,0,0,0-.49,10.88c.21,2.25.42,4.57,1.82,6.52.35.5.75,1,1.12,1.44l0,0v-.07c.44-.08.88-.18,1.33-.23,1.37-.15,1.89.24,2.18,1.58s.36,1.45,1.7,1.38c2.19-.11,4.37-.38,6.56-.47,3.27-.13,6.54-.27,9.81-.19a21.78,21.78,0,0,1,6,1.34,7.9,7.9,0,0,1,5,4.12h0v.29h0l3.3,8.49c3.3-.43,6.49-.84,9.66-1.27a4.58,4.58,0,0,0,2.33-1.1,23.56,23.56,0,0,1,2.56-1.61,11.91,11.91,0,0,0,1-6.7c0-.24-.09-.49-.09-.73s.08-.84.61-.71a1.11,1.11,0,0,1,.74.6,11.17,11.17,0,0,1-.69,8.09c-.11.22-.22.45-.32.67,0,0,0,.08,0,.28a12.73,12.73,0,0,0,1.26.21,35,35,0,0,0,4.9.18c2.62-.24,5.21-.74,7.81-1.13a19.24,19.24,0,0,0,4.41-1.48,26.79,26.79,0,0,0,7.06-4.54,16.5,16.5,0,0,1,1.55-1l.27.24,0,0-.23-.27c-.86-1.31-1.7-2.64-2.59-3.92a21.51,21.51,0,0,1-2.6-6.27,31.27,31.27,0,0,1-1.14-8.66c0-.69-.13-1.38-.18-1.91-.63,2.37-1.26,4.87-2,7.34a7.83,7.83,0,0,1-1.12,2.33c-2.63,3.63-5.74,6.71-10.18,8a16,16,0,0,1-10.12-.38,20.82,20.82,0,0,1-8.11-5.71,50.37,50.37,0,0,1-8.33-11.39c-.22-.41-.39-.83-1-.77a.44.44,0,0,1-.33-.14c-.89-1.16-2.36-1.47-3.39-2.39s-2-1.93-3-2.9l.2,1.37a.85.85,0,0,1-1.42-.47c-.65-1.79-1.33-3.58-1.84-5.41a18.32,18.32,0,0,1-.71-4,29.13,29.13,0,0,1,.2-4.94,44.6,44.6,0,0,1,1.18-5.83,15,15,0,0,1,1.41-2.72c.44-.84.78-1.74,1.28-2.53q1.56-2.45,3.26-4.8a16.71,16.71,0,0,1,1.93-2.11A10.77,10.77,0,0,1,187.4,68c1.1-.6,1.6-1.7,2.41-2.53a18,18,0,0,1,4.45-3.11,45.59,45.59,0,0,1,6.92-3.28,28.91,28.91,0,0,1,10.28-1.91c.78,0,1.56.11,2.32.16.42-1.11.79-2.15,1.2-3.17a9.76,9.76,0,0,1,2.69-3.54,1.72,1.72,0,0,1,2-.38,2.88,2.88,0,0,1-.39.95c-.61.66-1.33,1.24-1.93,1.91a10.56,10.56,0,0,0-1.89,4.2c1.1-.93,2-1.77,3-2.55a3.43,3.43,0,0,1,1.33-.61c.27,0,.6.2.91.31a3,3,0,0,1-.48.75c-.83.67-1.71,1.28-2.56,1.94a3.73,3.73,0,0,0-.55.75c2.36.94,4.64,1.77,6.84,2.75,5.28,2.33,9.24,6,10.8,11.68a20.87,20.87,0,0,1,.36,6.12c-.06,2.9.09,5.8.16,8.7h0s-.06.07,0,.1a.67.67,0,0,0,0,.19h0c.14,1.94-.59,3.7-1.11,5.51a14.17,14.17,0,0,0-.91,3.38,15.21,15.21,0,0,1-.93,3.33c-.18.66-.28,1.34-.41,2-.23,1.28-.43,2.57-.67,3.85-.36,1.89-.76,3.77-1.11,5.66a8.41,8.41,0,0,0,0,1.23c0,1.44,1,2.82.2,4.28.42,1.3.75,2.63,1.26,3.89a30.82,30.82,0,0,0,4.2,7,15.3,15.3,0,0,1,1.17,2.13c1.84.22,4,.42,6.17.76,4.28.68,8.56,1.38,12.81,2.2a6.77,6.77,0,0,1,4.68,3.77,48.4,48.4,0,0,1,4,11.35c1.2,4.84,2.05,9.77,3.08,14.65.44,2.07,1,4.11,1.42,6.18.56,2.76,1,5.53,1.53,8.29.39,2.2.8,4.41,1.15,6.62a7,7,0,0,1-.18,1.55,7.26,7.26,0,0,0-.07,1.32c.12,1.52.25,3,.43,4.58.09.78-.05,1.16-1,1.09s-1.24.39-1.31,1.28a135.16,135.16,0,0,1-2.7,18.34c-.33,1.48-.79,2.93-1.26,4.37a1.3,1.3,0,0,1-.82.77c-3.54.62-7.08,1.37-10.66,1.72a59.87,59.87,0,0,1-12.62-.32c-3.45-.4-6.93-.7-10.39-1.09-1.93-.21-3.85-.49-5.77-.81-3.3-.53-6.58-1.17-9.89-1.66a80.37,80.37,0,0,1-11.07-2.44,6.9,6.9,0,0,0-.75-.13c0,1.06,0,2.06,0,3.05,0,.66,0,1.33,0,2,0,1.32-.27,2.47-1.52,3a21.72,21.72,0,0,1,0,2.57,1.58,1.58,0,0,1-1.55,1.39,34.57,34.57,0,0,1-8.32.11c-.9-.11-1.82,0-2.73-.08-3.11-.23-6.22-.42-9.31-.74-2.48-.25-4.93-.67-7.4-1a2.24,2.24,0,0,0-.84.13c-1.85.5-3.09-.5-2.89-2.24a4,4,0,0,0-.06-.81c-.35,0-.69,0-1,.06s-.69.09-1.21.17a16.3,16.3,0,0,1,.74,2.71c.15,1.72.31,3.51-.57,5.1a3.63,3.63,0,0,1-2.81,1.58c-3.17.43-6.35.72-9.53,1-1.72.17-3-.52-2.79-2.69,0-.62,0-1.25,0-2-2.38.3-4.66.68-7,.85-2.13.16-4.27.15-6.41.12-1.61,0-3.21-.18-4.82-.28a4,4,0,0,1-.5,0c-1.7-.36-1.93-.55-2.2-2.34a53.51,53.51,0,0,1-1-10.38,10.77,10.77,0,0,0-4.37,1.15,2.56,2.56,0,0,1-2.84,3.14c-.82-.15-1.64-.27-2.44-.44a12.77,12.77,0,0,0-6.58.12,20.8,20.8,0,0,1-8.42.78c-4.57-.49-8.74-2.18-12.85-4.08-3.34-1.54-6.64-3.17-10-4.67-1.48-.66-3.07-1.09-4.84-1.7.1.68.14,1.08.23,1.46.25,1.07.22,1.26-.8,1.54-2,.54-3.91,1.47-6,1.8-3.14.5-6.22,1.36-9.35,2-3.36.67-6.71,1.37-10.1,1.81-3.81.51-7.66.74-11.49,1.09-1.82.17-3.64.42-5.46.47-3.19.09-6.39.17-9.58.05-2.81-.11-5.61-.52-8.42-.77a7.74,7.74,0,0,1-6.82-5.83,27.12,27.12,0,0,1-1.37-8.65,65,65,0,0,1,.71-7.77c.62-3.83,1.35-7.66,2.26-11.44s2-7.22,3.07-10.8A64.87,64.87,0,0,1,17.08,165c.9-2.06,1-4.2,1.39-6.31a34.65,34.65,0,0,1,1.7-5.32c.92-2.49,1.92-4.94,2.91-7.39s2.1-4.77,2.91-7.23A71.27,71.27,0,0,0,28,131c.4-1.86.47-3.78.81-5.65.24-1.28-.52-2.09-1.09-3a12.42,12.42,0,0,1-1.37-10.6,7.64,7.64,0,0,1,1.1-2.07,20.59,20.59,0,0,1,1.48-1.72c-1.58-2-1.89-4.6-2.21-7.15a14.34,14.34,0,0,1,2.49-10,29.15,29.15,0,0,1,5.38-6.29,34.46,34.46,0,0,1,14.18-7.4,53.56,53.56,0,0,1,12.8-1.54c.8,0,1.58-.43,2.39-.49a27.12,27.12,0,0,1,5.32-.15,43.13,43.13,0,0,1,12,3.68A12.13,12.13,0,0,1,85.55,82a19.87,19.87,0,0,1,3.68,6.43A56.7,56.7,0,0,1,91,95a36.51,36.51,0,0,1,.71,4.65q.3,3.45.39,6.92c.05,2.15,0,4.31-.1,6.46-.08,1.87-.42,3.74-.39,5.6a19.61,19.61,0,0,1-.68,5.07,15.62,15.62,0,0,1-7.86,10,1.53,1.53,0,0,0-.75.86c-.41,2-.79,3.95-1.07,5.95a36.84,36.84,0,0,0-.47,10.11c.1.66.24,1.31.28,2,.11,2.12,1.68,2.7,3.4,3.21.84-4.39,1.63-8.81,2.56-13.19,1-4.75,3.16-8.84,7.61-11.24a22.65,22.65,0,0,1,6.78-2.25c2.44-.42,4.89-.84,7.35-1.24,2.15-.35,4.31-.67,6.46-1,.85-.14,1.7-.33,2.54-.53a1.52,1.52,0,0,0,.63-.35c.72-.65,1.43-1.32,2.25-2.08a1.85,1.85,0,0,1,1.42-2.17,1.05,1.05,0,0,1,.24-.06c3-.16,3.82-2.44,4.56-4.78a7,7,0,0,0,.65-3c0-.36.48-.76.55-1.17.17-1,.22-2,.31-2.86-1.86-.94-3.62-1.7-5.25-2.67a28.27,28.27,0,0,1-10.47-10.55,35.77,35.77,0,0,1-3.25-8.14,76.15,76.15,0,0,1-2-9.43c-.22-1.46-.38-2.94-.6-4.41,0-.27-.22-.68-.43-.76-.83-.3-1-1-1-1.67-.23-1.59-.39-3.18-.59-4.86.13.06.09,0,.06,0-2,.57-2.78-.1-2.6-2.13.2-2.3.36-4.61.62-6.9a17.67,17.67,0,0,1,.71-3.38,27,27,0,0,1,3-6.61c1.65-2.49,3.26-5,5-7.41a12.24,12.24,0,0,1,4-3.39Zm74.21,170-1,.43-.24.29a5.49,5.49,0,0,0-.69.21c-1.8.84-3.57,1.73-5.39,2.52a1.68,1.68,0,0,1-2.47-1.64c0-.41,0-.82,0-1.22-2-.16-2.9-1.1-2.47-2.62a5.53,5.53,0,0,1,1-1.77,11.28,11.28,0,0,1,1.26-1.14c-.52-2-.39-3.23,1.2-4.48a35.87,35.87,0,0,1,10.33-5.87,12.73,12.73,0,0,1,8.5-.32,10.71,10.71,0,0,0,1.64.29,37.08,37.08,0,0,0,1.3-10.81,14.78,14.78,0,0,1-3.2,2.14A50.48,50.48,0,0,1,187.1,187a1.58,1.58,0,0,1-1.76-1,15.7,15.7,0,0,1-.68-2c-.53-2.32-1-4.66-1.5-7a26.24,26.24,0,0,1-.48-3.3,2.22,2.22,0,0,1,1.8-2.61c2.52-.67,5.06-1.23,7.59-1.82,2.06-.47,4.13-.89,6.17-1.41,1.14-.29,1.57,0,1.74,1.15a21,21,0,0,0,.83,4.12,22.68,22.68,0,0,0,1.9,3.43.53.53,0,0,0,.06.1s0,0,.08,0l-.17-.07a2.82,2.82,0,0,0,.27-.82c.09-3.41.18-6.81.21-10.22,0-1.46-.48-1.77-1.78-1.76a73.5,73.5,0,0,0-10.26,1.12c-3.73.56-7.44,1.22-11.18,1.67s-7.35.66-11,1c-.88.08-1.75.28-2.47.4,0,1.53,0,2.82,0,4.11.14,4.26.33,8.52.46,12.78s.14,8.36.36,12.53c.14,2.75.6,5.49.86,8.24.34,3.56.62,7.13.92,10.69a1.09,1.09,0,0,0,1.41,1.05c1.72-.27,3.43-.61,5.17-.78,4.76-.47,9.53-.86,14.3-1.29,2.21-.21,4.41-.44,6.47-.65.24-1.54.45-2.85.66-4.25-.24,0-.39,0-.54.09a35.63,35.63,0,0,0-6.7,2.93,11.85,11.85,0,0,1-5.7,1.46c-.8,0-1-.5-1.37-1s0-1,.34-1.31a16,16,0,0,1,1.91-1.77c1.11-.85,2.28-1.62,3.43-2.43l.23-.29,1.05-.43a.24.24,0,0,0,.06-.08s0,0,0-.06Zm8.45-25.39a4,4,0,0,0,2.92-1.87l-2.9-.33v2.22l0,0ZM158.63,73.35a2,2,0,0,0,.24-.27,23.06,23.06,0,0,1,3.75-5.48l.1,0s0,0,0-.07l-.08.14c-.62,0-1.23.14-1.84.15-.95,0-1.91.86-2.89-.1a15.63,15.63,0,0,1,.71,5.68l0,.05ZM131.85,211.5l0,.15s0,0,0-.05l-.06-.08c-.13-4.48-.58-9-1.05-13.41s-.78-8.92-1.17-13.38l-.36,0c.11,2.31.16,4.63.36,6.93.26,3.05.66,6.08.95,9.13.33,3.41.6,6.82.92,10.22C131.49,211.21,131.72,211.35,131.85,211.5ZM201,220.57c-3,.21-5.93.5-8.9.59-3.56.12-7.13.07-10.69.11-1,0-2,.12-3,.19l0,.28c2.06.19,4.11.44,6.17.58s4.33.24,6.49.28c2.56,0,5.13.05,7.68-.06,1.76-.08,1.76-.18,2.17-2l.11-.06Zm-95.23-29v-.1l0,.08a4,4,0,0,1-2.56,3.67,27.75,27.75,0,0,1-4.44,1.55,8.21,8.21,0,0,0-3,1.14c3.53,2.61,7.67,3.29,11.53,4.52-.22-2.54-.51-5-.62-7.44A10,10,0,0,0,105.73,191.56ZM236.05,130c-1-.68-1.63-.71-2.26.06-2.83,3.48-6.7,5.34-10.83,6.61a33.73,33.73,0,0,1-14.34,1.1,14.89,14.89,0,0,0-5.2.05c-.24,0-.43.33-.68.54a6,6,0,0,0,3.27,1.34,17.06,17.06,0,0,0,5.29,0c2.32-.34,4.68-.44,7-.86a41.66,41.66,0,0,0,10.22-2.9,22.82,22.82,0,0,0,7.22-5.12c.19-.21.2-.59.3-.89l.09,0s0,0,0-.06Zm-31.32,56.81a2,2,0,0,0,.15-.45c.35-4,.63-8.09,1-12.12.31-3.14.78-6.26,1.16-9.39a12.14,12.14,0,0,0-.09-4.33c-3.86.12-7.61.15-11.34.38-2.85.18-5.69.6-8.53,1-2,.24-4,.46-5.91.8-2.85.5-5.68,1.1-8.52,1.69a8.5,8.5,0,0,0-1.44.58c.07.69.37.91.93.81s1.24-.18,1.85-.25c3.54-.42,7.09-.76,10.62-1.28,5.4-.8,10.73-2.15,16.24-2.23,1.28,0,2.69-.23,3.47,1.07a5.78,5.78,0,0,1,.84,2.66c.07,1.87-.12,3.75-.18,5.62q-.21,6.82-.37,13.64c0,.62.07,1.25.11,1.88l-.23.17.11.13ZM75.16,161.93a2.12,2.12,0,0,1,.25.53c.25,2.83.53,5.65.71,8.48.28,4.2.51,8.4.74,12.6.22,4,1.07,7.85.88,11.83a1.14,1.14,0,0,0,1.71.88c.73-.39,1.39-.88,2.1-1.3,2-1.21,3.82-2.74,6.08-3.54,1.42-.5,2.83-1,4.35-1.61-.17-.82-.41-1.65-.51-2.5-.44-4-.81-8-1.27-12-.23-1.92-.53-3.83-.94-5.72-.52-2.47-1.45-4.88-1.72-7.37-.32-2.88-3.59-5.06-6.43-5.37a2,2,0,0,1-.77-.32c-.45-.27-.86-.6-1.32-.87-1-.55-2-1-2.92-1.63s-1.78-1.22-2.66-1.83l-.08-.08.1.06c0,.2.08.4.13.59A43,43,0,0,1,75.18,162a.46.46,0,0,0-.07.07s0,0,0,.06Zm37.08,52.88.75.2,0-.14-.79,0c-.58-.24-1.16-.51-1.75-.73-2-.75-4-1.5-6.06-2.21-.67-.23-1.51-.22-1.36-1.23.09-.63.71-.74,1.94-.47.12,0,.25,0,.37.07,1.72.57,3.45,1.13,5.17,1.71,3.21,1.08,6.42,2.2,9.65,3.24a12.38,12.38,0,0,0,3,.56c1,0,1.34-.68.74-1.47a1.61,1.61,0,0,0-1.13-.61c-2.72,0-5.2-1-7.65-1.89a55.52,55.52,0,0,0-12.1-3.51c-.49-.07-1.13-.19-1-.83,0-.32.57-.6.92-.83a.87.87,0,0,1,.6-.08,25.48,25.48,0,0,1,4.39.74c3.8,1.26,7.55,2.7,11.3,4.09a8.67,8.67,0,0,0,4.59.55c0-1-.74-1.34-1.38-1.69a43.27,43.27,0,0,0-8.18-3.91c-3.22-1-6.41-2-9.62-3a31.62,31.62,0,0,1-7.59-2.92c-.91-.56-1.75-1.26-2.7-1.75-.74-.38-.81-.84-.36-1.35a4.5,4.5,0,0,1,1.67-1.39c1.82-.65,3.73-1.07,5.57-1.69a4,4,0,0,0,2.77-2.07c.41-1,.24-1.31-.82-1.29-2.1,0-4.2.13-6.3.16a23.77,23.77,0,0,0-12,3.56c-1.8,1.08-3.59,2.17-5.35,3.32a2.11,2.11,0,0,0-.79,1.12,22.83,22.83,0,0,0-.71,3.26c-.18,1.34-.23,2.69-.33,4.05a25.53,25.53,0,0,1,6.9,2.08c2.46,1.09,4.85,2.33,7.32,3.38s4.8,1.86,7.22,2.74a22.1,22.1,0,0,0,9.76,1.46c-1.43-.49-2.86-1-4.27-1.49-.29-.11-.46-.51-.69-.77.34-.16.69-.47,1-.45a16.14,16.14,0,0,1,1.92.44ZM104,65.58c.87-.34,1.74-1.31,2.62.11a2.84,2.84,0,0,1,.27-.9,20.74,20.74,0,0,0,3-5.91,23.25,23.25,0,0,0,1.8-8.44c0-.58.2-1,.83-.92s.66.52.65,1.11a45,45,0,0,0,.18,5.57,14,14,0,0,0,1.1,3.12,10.71,10.71,0,0,0,.22-2.61,12.45,12.45,0,0,1,1.12-5.54,6.31,6.31,0,0,0,.42-1.36c.33-1.27,0-2.69.85-3.82a3.77,3.77,0,0,1,.94-.63c.06.37.28.8.16,1.1a12.23,12.23,0,0,0-.37,4.81,22.1,22.1,0,0,0,.38,2.58,3,3,0,0,0,.26-.58c.25-1.59.42-3.2.74-4.78a13.38,13.38,0,0,1,3.15-6.1,1.91,1.91,0,0,1,1.53-.63c1.49.43,3.11.58,4.38,1.6a1,1,0,0,0,1.21.06,3.13,3.13,0,0,1,3.75.69,8.5,8.5,0,0,1,2.1,4.13,23.41,23.41,0,0,1,.26,9c-.12.71-.17,1.42-.29,2.4a9.21,9.21,0,0,0,3-6.17,22.15,22.15,0,0,0-1.43-8.64c-.09-.28.09-.66.14-1,.31.13.78.19.89.42.38.81.62,1.68.94,2.52.67,1.77.3,3.87,1.73,5.39a.6.6,0,0,1,.1.23,15.33,15.33,0,0,0,2.78,5.38c.79,1.06,1.75,2,2.63,3l.22-.16c-.24-.83-.54-1.64-.71-2.49-.12-.59-.25-1.38.5-1.63s1,.49,1.23,1.07a8,8,0,0,0,2.18,3.15c.39.35.73.55,1.14,0a25.31,25.31,0,0,1-3.16-10.3c-.07-.59-.08-1.08.48-1.2s.64.55.74.94c.41,1.65.7,3.33,1.17,5a18.46,18.46,0,0,0,3.69,7.39,4.47,4.47,0,0,0,.63.48,77.87,77.87,0,0,1-2.61-13.15l.93-.55a11.53,11.53,0,0,1,.57,1.44c.76,3.27,1.46,6.55,2.26,9.81a9.87,9.87,0,0,0,2.23,4.66,4.43,4.43,0,0,0,1.42.89,12.25,12.25,0,0,0,1.77.42l-1.92-2.4.11,0L158.9,64l0,.11c-.36-.73-.77-1.44-1.06-2.19-1.17-3.07-1.25-6.31-1.35-9.53a5.4,5.4,0,0,1,.5-1.65c.78.14.92.48.94,1,.09,1.57.17,3.15.39,4.7.46,3.23,1.34,6.31,3.62,8.81.52.56,1,1.15,1.5,1.74,2.27-2,4.28-1.3,6.4,1.48,1.42-3.44,2.68-6.87,2.67-10.62a10,10,0,0,0-2.14-6.7,19.68,19.68,0,0,0-4.85-3.81,69,69,0,0,1-6.87-4.66c-3-2.49-6-4.79-9.78-6a20.68,20.68,0,0,0-9.68-.9,22.55,22.55,0,0,0-7,2c-.62.33-1.22.68-2,1.12a13.37,13.37,0,0,0-6.5-1.65,12.7,12.7,0,0,0-11.4,5.58c-1.57,2.24-3,4.56-4.41,6.92a21.13,21.13,0,0,0-3.05,8.07c-.33,2.58-.56,5.18-.83,7.78l-.06,0Zm88.7,13,0-.07,0,.08,2,4.25a1.33,1.33,0,0,1-1.89.23c-.66-.43-1.35-.81-2-1.24-1.09-.73-2.16-1.47-3.29-2.25l-.76,1.32a20.41,20.41,0,0,0-2.55,6.67,21.79,21.79,0,0,0,1,10.23,45.6,45.6,0,0,0,7.06,13.85,42.9,42.9,0,0,0,8.07,8.68,14.89,14.89,0,0,0,9.62,3.08,11.28,11.28,0,0,1-1.2-1.18,2.49,2.49,0,0,1-.24-.89,4.06,4.06,0,0,1,1-.14c.2,0,.36.32.56.47.58.44,1.18.87,1.77,1.31a6,6,0,0,0-.56-1.62.74.74,0,0,1,.83-1.06,2.61,2.61,0,0,1,1.06.51,15.78,15.78,0,0,1,1.3,1.16c0-.88,0-1.48,0-2.08,0-1.2.66-1.64,1.76-1.22.56.21,1.1.46,1.83.78a13.25,13.25,0,0,1-.38-1.29.84.84,0,0,1,.9-1.05,1.66,1.66,0,0,1,.92.36c.67.61,1.17.41,1.65-.23.16-.23.33-.45.48-.63-.16-.63-1.25-.86-.71-1.59s1.13.06,1.71.3a24.56,24.56,0,0,0,2.21-6.27c.36-1.69.52-3.43.85-5.13.14-.78,0-1.88,1.36-1.79.14,0,.32-.36.44-.57,1.26-2.08,2.64-4.1,3.71-6.27a11.19,11.19,0,0,0,1.48-5.46c0-.65.14-1.31.17-2a9.81,9.81,0,0,0,0-2.48,9.15,9.15,0,0,0-4.22-5.6c-1.54-1-2.95-.7-4.17.74A15.58,15.58,0,0,0,222,85.33c1.59,1,.26,2.25.42,3.34.32.4.79.84.77,1.26a30.58,30.58,0,0,1-.46,3.92c0,.25-.43.63-.64.62a1.2,1.2,0,0,1-.84-.54,4,4,0,0,1-.33-1.18c-1-.32-1.25-.64-1.13-1.56.05-.41.29-.85.2-1.22a32.1,32.1,0,0,0-2.85-7.89c-.28-.52-.69-.57-1.22-.63a12.63,12.63,0,0,1-3.12-.64,1.85,1.85,0,0,0-2,.06,1.8,1.8,0,0,1-1.16.15,16.71,16.71,0,0,1-8.51-4c-.73-.6-1.38-1.3-2.23-2.11a22.47,22.47,0,0,0,4.16,7.37,1.34,1.34,0,0,1,.33.85c0,.09-.45.21-.7.29a2.48,2.48,0,0,1-.52.06.75.75,0,0,1-.57,1.16,2.8,2.8,0,0,1-1.22.05,8.15,8.15,0,0,1-4-1.93C195.11,81.42,193.94,80,192.7,78.6ZM182.43,201.27a16.85,16.85,0,0,0,2.12-.53c.69-.26,1.3-.72,2-1,2.66-1,5.33-2,8-2.93a13.92,13.92,0,0,1,2-.37c.39,1.05.39,1.1-.26,1.35-1.38.52-2.79,1-4.17,1.55-1.89.74-3.76,1.54-5.65,2.28a13.87,13.87,0,0,1-3.83,1.33c-1.79.13-2.64,1.23-3.52,2.44a2.57,2.57,0,0,0-.21,1,3.75,3.75,0,0,0,3.33-.49c.94-.59,1.89-1.17,2.88-1.68,3.23-1.68,6.37-3.56,10-4.32a1.8,1.8,0,0,1,1.68.25c0,.73-.48.95-1,1.14a40.19,40.19,0,0,0-4.19,1.52c-3.24,1.55-6.42,3.22-9.62,4.85-.9.46-1,.93-.53,2.11a5.25,5.25,0,0,0,.67-.22c3.35-1.68,6.67-3.41,10-5a43.9,43.9,0,0,1,4.86-1.87c.29-.1.71.18,1.07.28a8.64,8.64,0,0,1-.52.89c-.09.13-.28.18-.43.25-1.32.56-2.65,1.09-3.95,1.69-.27.12-.44.45-.64.7a9.59,9.59,0,0,1-1.38,1.69c-1.25.95-2.62,1.74-3.89,2.66-.94.68-1.81,1.45-2.85,2.29a8.68,8.68,0,0,0,5.31-1.52,21.25,21.25,0,0,1,6.12-2.64c.57-.18,1.22-.49,1.56.4,0,.1.36.17.54.15a15.66,15.66,0,0,1,6.12.79,98.75,98.75,0,0,0,12.27,2.48c2.87.49,5.75.9,8.62,1.32,3.27.49,6.52,1,9.8,1.42,2.62.33,5.26.53,7.9.76,2.15.18,4.3.45,6.45.44q4.59,0,9.17-.46c2-.17,4-.65,5.94-1A215.18,215.18,0,0,0,268.17,193c-6.2.1-12.23-.08-18.06.67v5.72h5.59a6.76,6.76,0,0,1,1.35.08c.2,0,.53.31.51.43a.86.86,0,0,1-.44.63,14.88,14.88,0,0,1-2.55.48,99.78,99.78,0,0,1-16-.72L225.69,199c-2.05-.2-4.1-.46-6.15-.66s-3.87-.28-5.79-.47-3.89.48-5.71-.58c-.82-.48-1.71-.84-2.56-1.27a27.5,27.5,0,0,0-4.28-2.2,14.62,14.62,0,0,0-10.27.52A39.09,39.09,0,0,0,182,199.8a2.57,2.57,0,0,0-1.2,1.66l1.32-.18ZM71.68,79.12a.25.25,0,0,0,0-.09s0,0-.07,0l.14.09,2,2.55c.57.76.66,1.4.09,1.73a6.73,6.73,0,0,0-2.3,2.72A27.58,27.58,0,0,1,65,93.74c-1.63,1.32-3.2,2.72-4.69,4.19a40.22,40.22,0,0,1-6.2,5.47c-2.75,1.75-5.59,3.36-8.36,5.08-1,.64-2.35,1-2.58,2.48a20.89,20.89,0,0,0-.29,2.21c0,.7-.25,1.25-.95,1.44a1.29,1.29,0,0,1-1.44-.77A23,23,0,0,0,38.25,111a6.45,6.45,0,0,0-6.1-2.3,4.59,4.59,0,0,0-3.8,2.84,9.26,9.26,0,0,0-.18,6.67,9.64,9.64,0,0,0,7.73,7.1,19.68,19.68,0,0,0,5.2,0,8.44,8.44,0,0,0,2.16-.76,17.81,17.81,0,0,1-.83-2.21c-.11-.44-.2-1.06.44-1.27s.84.24,1.08.72A19.3,19.3,0,0,0,48.09,127a30.75,30.75,0,0,0,8.14,5.83,20.06,20.06,0,0,0,6.7,2.07,54.62,54.62,0,0,0,8.29,0c1.45-.09,2.93.1,4.37-.55,3.11-1.39,6.22-2.69,8.86-5a11.35,11.35,0,0,0,3.4-4.88c1.22-3.51,1.33-7.24,1.52-10.92.1-1.88.22-3.76.27-5.65,0-1.71,0-3.43,0-5.12l-1.31.42a31.87,31.87,0,0,1-1.78,3.3,1.65,1.65,0,0,1-2.74-1.85c.61-1.14,1.34-2.21,2-3.29a17.66,17.66,0,0,0-6.24,2c.09.28.1.48.2.59,1.15,1.3,2.38,2.52,3.44,3.88a6.34,6.34,0,0,1,1.21,2.52c.48,2.26-.63,4.08-2,5.73a12.19,12.19,0,0,1-1.87,1.79c-.4.32-1,.61-1.41,0s-.09-.91.24-1.32c.64-.81,1.25-1.62,1.86-2.45,1.55-2.14,1.48-3.57-.14-5.58C80,107.22,79,105.79,78,104.37a5.65,5.65,0,0,1-.87-4.83,5.15,5.15,0,0,1,3.23-3.81A10.32,10.32,0,0,1,86.59,95a20.06,20.06,0,0,0,2.3.23c-.37-1.65-.68-3.15-1-4.64a2.85,2.85,0,0,0-.57-1.09,24.86,24.86,0,0,0-5.18-4.91,6.56,6.56,0,0,0-4.72-1.46,1.68,1.68,0,0,1-1.07-.5c-1.13-.91-2.2-1.89-3.33-2.79A7.58,7.58,0,0,0,71.68,79.12Zm-22,117.15.16.1-.17-.09c0-.61-.05-1.22,0-1.83.06-3.76.11-7.52.22-11.28,0-1.37.28-2.73.28-4.1,0-3-.08-6-.22-9.07A23.53,23.53,0,0,0,48,161.57c-1.4-3.19-2.85-6.35-4.32-9.5-.48-1-1.12-2-1.71-3-1,.45-1.87.87-2.75,1.22-2.13.83-4.24,1.72-6.41,2.42a22.49,22.49,0,0,0-10,6.44,16,16,0,0,0-1.52,2,36.83,36.83,0,0,0-3.67,8.79c-1.29,4-2.43,8.13-3.52,12.23-.74,2.78-1.4,5.59-1.91,8.42-.62,3.41-1,6.86-1.56,10.29a17.09,17.09,0,0,0,.39,7.36c.23.83.6,1.64.82,2.48a7.75,7.75,0,0,0,2.2,3.68,5,5,0,0,0,2.26,1.14,25.22,25.22,0,0,0,3.59.33c1.32.1,2.65.12,4,.28a50,50,0,0,0,9,.09c3.14-.18,6.27-.56,9.4-.87q3.27-.33,6.54-.73c2-.26,4-.54,6.06-.88,1.68-.28,3.34-.65,5-1,1.37-.29,2.74-.62,4.12-.91l12.32-2.55c-.85-4.11.5-7.84,1.13-11.68-.46,0-.87,0-1.28,0-5.78.24-11.56.53-17.35.69-4.57.12-9.16,0-13.74.1-2.64,0-5.28.25-7.92.31a40.12,40.12,0,0,0-8.59,1c-1.45.35-2.91.66-4.37.93-.29,0-.62-.2-.94-.31a2.72,2.72,0,0,1,.46-.78,2.58,2.58,0,0,1,1-.48c1.12-.3,2.26-.51,3.37-.84a1.35,1.35,0,0,0,.82-.72c.53-2.2.94-4.43,1.46-6.63q1-4.2,2.08-8.37c.5-1.91,1.09-3.8,1.66-5.69.62-2,1.27-4.08,1.94-6.25l1.15.51c-.23,1-.45,2-.68,2.94,1.05,0,1.8-1.21,2.91-.54a1,1,0,0,1-.66,1.23,17.2,17.2,0,0,1-2.07,1.11,1.47,1.47,0,0,0-1,1.17c-.23,1-.47,1.92-.74,2.88-.66,2.38-1.4,4.74-2,7.14-.67,2.76-1.2,5.55-1.8,8.32-.15.7-.31,1.41-.48,2.17.42,0,.71,0,1,0l7.77-.72c.7-.06,1.4-.1,2.11-.12,2.61-.07,5.22-.12,7.83-.2C49.42,196.44,49.53,196.33,49.64,196.27Zm141.54-36.8h.28l13.5-.76c.58,0,1.15-.1,1.73-.17a1.81,1.81,0,0,1,2,1.41A8.36,8.36,0,0,1,209,162c-.1,1.94-.28,3.88-.47,5.82-.3,3-.66,6-1,9s-.54,5.78-.81,8.68c-.21,2.3-.41,4.6-.63,6.9,0,.53-.48,1.06.15,1.55.44.35.77.85,1.23,1.16a7.56,7.56,0,0,0,5.41,1.13c3.17-.42,6.33.2,9.49.48l11.13,1c2.22.21,4.44.45,6.66.69s4.59.53,6.89.77a14.61,14.61,0,0,0,1.48,0c0-1.57,0-3,0-4.4,0-.75.1-1.55-.65-2.12a1.31,1.31,0,0,1-.3-.8c-.36-2.84-.81-5.67-1-8.52-.28-3.92-.35-7.86-.55-11.79a13.48,13.48,0,0,0-.35-2.69c-.38-1.52-.94-3-1.31-4.53a26.1,26.1,0,0,1-.5-3.42.78.78,0,0,1,.49-.58.83.83,0,0,1,.64.42,10.18,10.18,0,0,1,.34,1.45c.11.52.23,1,.35,1.56a3.42,3.42,0,0,0,.59-1.42c.28-1.3.5-2.62.85-3.89.1-.35.63-.87.89-.83.59.09.59.61.44,1.18-.41,1.56-.79,3.13-1.05,4.72a12.49,12.49,0,0,0-.37,4.29c.54,3.05.77,6.15,1,9.24.2,2.32.21,4.65.38,7s.46,4.33.64,6.5c.1,1.22.09,1.31,1.31,1.2,2.3-.2,4.59-.55,6.89-.65,3.15-.14,6.31-.06,9.47-.15,1.18,0,2.35-.29,3.51-.44a3.65,3.65,0,0,0,.06-.69c-.15-2-.29-3.95-.48-5.93-.13-1.35-.28-2.7-.52-4-.27-1.51-.67-3-1-4.51Q266.63,167,265,158.59c-.42-2.1-.79-4.21-1.16-6.32a27.94,27.94,0,0,0-2.4-8,6.64,6.64,0,0,1-.51-1.5c-.14-.54-.1-1.13-.29-1.65-.36-1-.86-1.88-1.24-2.84-1.05-2.64-3.13-3.86-5.81-4.28-2-.31-3.92-.57-5.87-.92-3.17-.57-6.33-1.2-9.5-1.79a1,1,0,0,0-1.28.62,10.51,10.51,0,0,1-2.27,2.74,24.67,24.67,0,0,1-9.4,4.85c-2.9.82-5.92,1.22-8.89,1.81a33.51,33.51,0,0,1-9.05.61,9.87,9.87,0,0,1-7.14-3.22c-3.2.46-6.31.92-9.43,1.33a19.34,19.34,0,0,0-7.3,2.31,20.33,20.33,0,0,0-6.34,6.08,73.5,73.5,0,0,0-4.15,7.74c-.94,1.83-1.84,3.68-2.78,5.51-.72,1.41-1.46,2.82-2.29,4.41l1.95-.14a2.77,2.77,0,0,0,.05-.64,1.74,1.74,0,0,1,1.53-2.15c1.58-.39,3.16-.82,4.76-1.13,2.93-.57,5.87-1.08,8.82-1.57C187,160.06,189.11,159.78,191.18,159.47ZM141.79,165l.14.14,0-.24,1.62-.86c-.22-1.25-.46-2.5-.65-3.76s.15-1.81,1.46-2.11c.84-.2,1.68-.36,2.53-.5a12.92,12.92,0,0,1,2.22-.26,1.37,1.37,0,0,1,1.5,1.68c-.13,1.26-.41,2.51-.62,3.73a7.84,7.84,0,0,1,1.46,1.12,1.2,1.2,0,0,0,1.17.48c2.26-.21,4.52-.43,6.78-.61,2.11-.16,4.22-.27,6.29-.4l.62,1.24c.14-.22.24-.35.31-.49,1.7-3.52,3.39-7,5.1-10.54a12.69,12.69,0,0,0,1.65-6.69,16.28,16.28,0,0,1,.08-3c0-.33.36-.86.61-.9.55-.07.7.39.72.92,0,1,.17,2,.28,3.24,3.71-4.85,8.15-8.16,14.18-9L188,135.46a29.31,29.31,0,0,1-1.74-4.1,5.32,5.32,0,0,0-2.8-3.61,19.45,19.45,0,0,0-4.33-1.49c-4.16-.93-8.38-.42-12.58-.35-2.39,0-4.78.23-7.17.3-1.4,0-1.74-.24-2.14-1.52-.17-.53-.26-1.08-.41-1.72a5.1,5.1,0,0,1-2.32-.39,3.67,3.67,0,0,1-2.36-1.83,14.61,14.61,0,0,1-1.53-4.92c-.08-.77-.21-1.53-.34-2.45-6.77,3.25-13.76,3.05-20.71,2-.89,1.93-1.77,3.89-2.7,5.82a2.08,2.08,0,0,1-1.59,1.24,15.18,15.18,0,0,0-2.63.92c.41,2.13.23,2.41-1.18,2.58a22.86,22.86,0,0,1-2.12,1.52,7.48,7.48,0,0,1-2,.67c-4.54.91-9.1,1.73-13.63,2.68a40.13,40.13,0,0,0-6.39,1.8,14.09,14.09,0,0,0-6.21,4.82c-1.68,2.26-2,5-2.77,7.56a55,55,0,0,0-1.14,6.47c-.31,1.61-.74,3.19-1.07,4.8a1.07,1.07,0,0,0,.32.83,7.17,7.17,0,0,1,2.72,4.52c.28,2,1.28,4,1.75,6a60.86,60.86,0,0,1,1.29,7.19c.4,3.46.56,6.94.86,10.41.12,1.39.34,2.78.5,4,2.89,0,5.7.07,8.5,0a4.34,4.34,0,0,1,3.71,1.53l0,.06,0-.05c-.1-.57-.19-1.14-.28-1.71-.29-1.66-.48-3.35-.91-5-.75-2.87-1.75-5.68-2.47-8.55-.66-2.64-1.16-5.33-1.6-8-.71-4.39-1.33-8.8-2-13.21a11.09,11.09,0,0,1-.12-2.23c0-.62.12-1.38,1.15-1.22.16,1,.31,2,.48,2.93,1.07,6.1,2.09,12.21,3.23,18.3.5,2.66,1.35,5.27,1.89,7.93.44,2.16,1.64,4.17,1.38,6.49a1.38,1.38,0,0,0,.18.59,29.61,29.61,0,0,1,1.72,8.73,39.13,39.13,0,0,0,.73,7.14c1.22.37,2.42.7,3.6,1.09a33.79,33.79,0,0,1,7.42,3.11l4,2.5c.85.52,1.89.93,1,2.44l4.44-.7c-.55-9.41-2.25-18.73-1.78-28.28-.86.07-1.68.17-2.5.21-1.06.05-1.51-.35-1.63-1.4-.09-.65-.13-1.32-.28-2-.59-2.52-1.24-5-1.81-7.56a5.47,5.47,0,0,1-.1-1.85.74.74,0,0,1,1.09-.65,1.7,1.7,0,0,0,.57.2c1.79-.16,3.58-.34,5.43-.52,0-.5.07-.94.12-1.39.17-1.51.5-1.87,2-2,3.3-.26,6.6-.48,9.9-.74A4,4,0,0,0,141.79,165ZM132.32,45.65c-1,.67-2.16,1.37-3.26,2.09a1.87,1.87,0,0,1-2.49,0,7.05,7.05,0,0,0-3.64-1.29c-.52-.06-1.34-.25-1.59.6a28.47,28.47,0,0,0-1.27,6.79,6.09,6.09,0,0,0,.78,3.46c.28.5,0,1.89-.36,2.06-.71.31-1.19-.18-1.6-.64a8,8,0,0,1-1.15-1.61c-.43-.78-.76-1.62-1.13-2.43a37.25,37.25,0,0,0-.19,4.59,18.47,18.47,0,0,1,0,2.47c0,.38-.44,1-.68,1a1.79,1.79,0,0,1-1.36-.58c-.7-1.06-1.24-2.24-1.84-3.37-.16-.3-.29-.61-.47-1-.74,1.81-1.38,3.46-2.11,5.09s-1.66,3-1.43,4.81c.09.68,0,1.38,0,2.07.26,3.16.41,6.33.87,9.46a70.09,70.09,0,0,0,2.52,10.43A27.53,27.53,0,0,0,122.22,104c3.32,2.47,7,4.23,11.24,4.25,3.44,0,6.75-.41,9.73-2.6a20.26,20.26,0,0,0,6.64-7.55c1-2.13,2.09-4.25,2.92-6.45,1.29-3.4,2.41-6.86,3.6-10.3a7.66,7.66,0,0,1,.46-1.15.8.8,0,0,1,.59-.33.66.66,0,0,1,.4.51,5.57,5.57,0,0,1-.09,1.73c-.61,2.27-1.29,4.53-2,6.79-.2.69-.43,1.37-.66,2.12,3.27-.51,5.6-1.48,7.4-3.24a19.11,19.11,0,0,0,6.22-12.57c.13-2,.08-4.11-1.24-5.94-1.15-1.57-2-1.31-3-.3a25,25,0,0,0-4.39,5.81,12.39,12.39,0,0,1-1.36,1.74,1.17,1.17,0,0,1-1.64.39,1.62,1.62,0,0,1-.65-1.63,39.93,39.93,0,0,0,.18-5.13c-.11-2.43-.77-4.62-3.26-5.74-.26-.12-.45-.38-.7-.52a4.43,4.43,0,0,0-1.41-.67A4.39,4.39,0,0,1,148,61.69c-.92.94-1.31,1.05-2.24.49A9.1,9.1,0,0,1,144,60.81a17.94,17.94,0,0,1-3.79-5.48,4.23,4.23,0,0,0-.43-.63,19.13,19.13,0,0,1-1,2.54,9.88,9.88,0,0,1-3.7,4.24,1.79,1.79,0,0,1-1.34.11c-.55-.2-.46-.82-.34-1.29A28.36,28.36,0,0,0,134,49.8C133.83,48.33,133.63,46.82,132.32,45.65ZM123.21,171.5c.06.4.07.7.14,1,.74,2.75,1.47,5.5,2.26,8.24.06.21.55.43.83.42.82,0,1.64-.17,2.46-.2a1.78,1.78,0,0,1,1.94,1.38,13.62,13.62,0,0,1,.54,2.29c.15.94.17,1.9.28,2.85.24,2.13.51,4.25.75,6.38.2,1.76.37,3.53.57,5.29.28,2.47.61,4.92.85,7.39.16,1.65.14,3.32.3,5,.26,2.55.6,5.1.91,7.73a27.24,27.24,0,0,0,2.85.25c1.72,0,3.43-.15,5.15-.2,3.3-.09,6.61-.12,9.91-.26,2.1-.08,4.19-.3,6.28-.48,1.69-.15,3.38-.31,5.07-.5,1-.12,2-.29,3-.43a6.12,6.12,0,0,0,.05-.69c-.32-3.2-.66-6.4-1-9.6s-.65-6.4-.88-9.61c-.19-2.75-.27-5.52-.35-8.28,0-1.9,0-3.81,0-5.71-.06-3.73-.15-7.45-.22-11.18,0-1.35,0-2.7,0-4.12-.37,0-.52,0-.67,0-3,.34-6,.74-9.05,1-1.65.15-3.27.16-4.58,1.42a2.48,2.48,0,0,1-1.28.38,27.54,27.54,0,0,1-3.83.43,5.12,5.12,0,0,1-2.65-.59,2.76,2.76,0,0,0-1.82-.52c-2.48.16-5,.34-7.45.47s-4.8.16-7.2.26C125.34,171.31,124.29,171.42,123.21,171.5ZM69.34,147c-7.57.57-14.69-1.05-21.67-3.2l-4.3,4.89c.81,1.49,1.66,3.08,2.54,4.66,2.47,4.44,4.93,8.9,5.7,14a64.22,64.22,0,0,1,.72,6.91c.1,2.14,0,4.3-.14,6.45-.07,1.94-.21,3.88-.31,5.83-.07,1.48-.14,3-.17,4.45,0,1.81,0,3.62,0,5.63L76,195.74c-.16-1.27-.31-2.37-.44-3.47-.2-1.74-.38-3.48-.57-5.21s-.43-3.45-.55-5.18c-.22-3.2-.32-6.4-.55-9.59-.31-4.19-.63-8.37-1.07-12.54-.24-2.3-.72-4.57-1.16-6.83a4.13,4.13,0,0,0-.82-1.47c-.77-1.07-1.9-2-1.41-3.56A2,2,0,0,0,69.34,147ZM51.55,132.55c-.33,1.76-.52,3.45-1,5.06s-1.18,3.12-1.85,4.83c1.6.4,3.21.9,4.86,1.2,2.6.47,5.23.8,7.85,1.19s5.49.63,8-.2c1.06-2.56,2-4.94,3-7.31-2.15,0-4.25,0-6.35,0-2.7,0-5.33-.1-7.87-1.47C56,134.67,53.52,134.14,51.55,132.55Zm146.81,37.09c-4.8,1.39-9.71,1.6-14.38,3.07.92,4.29,1.81,8.43,2.69,12.51a2.19,2.19,0,0,0,.44.05c2.68-.64,5.38-1.25,8-2a1.61,1.61,0,0,0,1.15-1.46,18.24,18.24,0,0,0,.08-2.45c-.06-1.11.31-1.5,1.43-1.39s2,.16,3.1.25C199.5,175.55,197.93,172,198.36,169.64Zm-47.05-69.57c-2.21,3.7-5.54,6.21-9.14,8.24s-7.87,2.19-12,1.78c-.05.91-.05,1.74-.15,2.55-.13,1-.15,1,.83,1.11a45.2,45.2,0,0,0,10.78,0A47.53,47.53,0,0,0,148.8,112a1.81,1.81,0,0,0,1.44-2c.12-2.15.36-4.3.59-6.45C151,102.4,151.15,101.24,151.31,100.07ZM133,224.15c1.14.06,2.29,0,3.43.2,3.57.46,7.1-.14,10.64-.38,2.67-.17,5.32-.58,8-.84,2.83-.28,5.68-.45,8.5-.77,1.92-.21,1.91-.29,1.88-2.27a4.2,4.2,0,0,0-.61-.06c-2.76.23-5.52.44-8.28.7-1.53.14-3,.46-4.58.52-4,.16-8,.21-12,.35a22.82,22.82,0,0,1-5.4-.61c-1.65-.34-1.78-.37-1.9-2.07-.07-1-.2-2.06-.31-3.08s-.22-2.05-.34-3.07A47,47,0,0,0,133,224.15Zm68.75-6v-6.76L200.1,211c-.63-.16-1,0-1,.72s-.25,1.46-.22,2.18c.09,1.74-.55,2.67-2.2,2.88-2.18.28-4.36.57-6.55.73-4.41.3-8.83.49-13.24.78-2.05.14-4.08.41-6.22.63.05.67.09,1.22.14,1.83l.87-.09c2.86-.44,5.72-1,8.59-1.3,3.92-.41,7.87,0,11.8-.42,2.72-.3,5.48-.31,8.22-.48A10.18,10.18,0,0,0,201.72,218.15Zm-48.31,10.33a3.31,3.31,0,0,0,.81.12c1.47-.18,2.93-.39,4.4-.6,1.91-.28,3.84-.52,5.74-.88,1.13-.21,1.43-.67,1.51-1.8,0-.5,0-1,0-1.54-4.29,1.18-8.58,1-12.8,1.6ZM78.79,102.1c1.57-.68,3-1.41,4.51-1.91,1.93-.64,3.9-.94,5.81.88a9.5,9.5,0,0,0,.24-1.42c0-.49-.15-1-.16-1.48,0-1.17-.14-1.34-1.3-1.47a17.94,17.94,0,0,0-2.73-.16,11.64,11.64,0,0,0-5.28,1.2,2.21,2.21,0,0,0-1,1A4,4,0,0,0,78.79,102.1Zm85.58,63-12.26,1.17c-.22,1.22-.13,1.34.82,1.26l11-1a2.21,2.21,0,0,0,.39-.13C164.33,166,164.34,165.69,164.37,165.06Zm-33.47,4.42c1-.1,1.87-.2,2.73-.26,2.6-.19,5.2-.36,7.8-.56,1-.08,1-.16.63-1.37a95,95,0,0,0-11.16,1Zm14.2-5.56c1.35-.28,2.72-.17,2.92-1.88.1-.85.29-1.69.47-2.69l-4,.79Zm59.06,28,.26-.1.3-4.08-.25-.1a1.34,1.34,0,0,0-.17.31c-.21,1-.46,2-.59,3C203.68,191.26,204,191.59,204.16,191.91ZM216,121.71l1-.79-1-.4ZM118.48,54.45l-.1-.17s-.06.07,0,.1a1.4,1.4,0,0,0,.09.17ZM203.28,193c0,.08,0,.18.09.21s.14,0,.21,0-.07-.16-.13-.2S203.34,193,203.28,193Zm24-87-.12.14s.06.07.09.07a.77.77,0,0,0,.19-.08ZM192.31,78s.06,0,.07,0,0-.07,0-.1a.41.41,0,0,0-.11.07Zm34.79,27.53.07,0v-.07Zm-206.65,53,0,.07h.07ZM179.3,100.46l0,.07h.07Z"/><path d="M167.75,120.61c.59-.14,1.13-.31,1.69-.39a32.84,32.84,0,0,1,12.42.24,23.15,23.15,0,0,1,4.12,1.68c.52.24,1.09.65.76,1.33s-.92.55-1.5.24a18.22,18.22,0,0,0-6.35-1.86,24.92,24.92,0,0,0-6.9-.22,29.16,29.16,0,0,1-3.1.21C168.2,121.86,167.69,121.62,167.75,120.61Z"/><path d="M107.11,124.17a24.62,24.62,0,0,0-8.38,1.32,18.18,18.18,0,0,0-2.67,1.29c-.43.22-.9.59-1.3,0s-.08-1,.38-1.37a11.82,11.82,0,0,1,2.67-1.68c3.11-1.11,6.25-2.21,9.65-1.73.89.12,1.78.22,2.65.41a.85.85,0,0,1,.7,1c-.07.63-.53.67-1,.69C108.93,124.19,108,124.17,107.11,124.17Z"/><path d="M175,116.17a13.39,13.39,0,0,1,4.24.72,24.67,24.67,0,0,1,2.4,1c.5.18.66.57.44,1-.1.18-.62.27-.91.2-1.84-.44-3.67-.93-5.49-1.43C175,117.43,174.43,117.14,175,116.17Z"/><path d="M105.68,119.88a5.51,5.51,0,0,1-1.13.82A39.76,39.76,0,0,1,100.7,122c-.34.1-1-.1-1.14-.35-.22-.54.34-.72.78-.87,1.22-.41,2.42-.85,3.65-1.21a8.31,8.31,0,0,1,1.51-.17Z"/><path d="M235.28,87.11v.27h0V87.1Z"/><path d="M187.67,129.42v.27h0v-.29Z"/><path d="M115.54,37.55l0,0Z"/><path class="cls-2" d="M105.76,190.74a4.34,4.34,0,0,0-3.71-1.53c-2.8.1-5.61,0-8.5,0-.16-1.21-.38-2.6-.5-4-.3-3.47-.46-6.95-.86-10.41a60.86,60.86,0,0,0-1.29-7.19c-.47-2-1.47-4-1.75-6a7.17,7.17,0,0,0-2.72-4.52,1.07,1.07,0,0,1-.32-.83c.33-1.61.76-3.19,1.07-4.8A55,55,0,0,1,88.32,145c.79-2.55,1.09-5.3,2.77-7.56a14.09,14.09,0,0,1,6.21-4.82,40.13,40.13,0,0,1,6.39-1.8c4.53-.95,9.09-1.77,13.63-2.68a7.48,7.48,0,0,0,2-.67,22.86,22.86,0,0,0,2.12-1.52c1.41-.17,1.59-.45,1.18-2.58a15.18,15.18,0,0,1,2.63-.92,2.08,2.08,0,0,0,1.59-1.24c.93-1.93,1.81-3.89,2.7-5.82,7,1,13.94,1.24,20.71-2,.13.92.26,1.68.34,2.45a14.61,14.61,0,0,0,1.53,4.92,3.67,3.67,0,0,0,2.36,1.83,5.1,5.1,0,0,0,2.32.39c.15.64.24,1.19.41,1.72.4,1.28.74,1.56,2.14,1.52,2.39-.07,4.78-.25,7.17-.3,4.2-.07,8.42-.58,12.58.35a19.45,19.45,0,0,1,4.33,1.49,5.32,5.32,0,0,1,2.8,3.61,29.31,29.31,0,0,0,1.74,4.1l1.23,2.81c-6,.83-10.47,4.14-14.18,9-.11-1.24-.23-2.24-.28-3.24,0-.53-.17-1-.72-.92-.25,0-.57.57-.61.9a16.28,16.28,0,0,0-.08,3,12.69,12.69,0,0,1-1.65,6.69c-1.71,3.51-3.4,7-5.1,10.54-.07.14-.17.27-.31.49l-.62-1.24c-2.07.13-4.18.24-6.29.4-2.26.18-4.52.4-6.78.61a1.2,1.2,0,0,1-1.17-.48,7.84,7.84,0,0,0-1.46-1.12c.21-1.22.49-2.47.62-3.73a1.37,1.37,0,0,0-1.5-1.68,12.92,12.92,0,0,0-2.22.26c-.85.14-1.69.3-2.53.5-1.31.3-1.66.81-1.46,2.11s.43,2.51.65,3.76l-1.62.86-.11.1a3.78,3.78,0,0,1-1.06.42c-3.3.26-6.6.48-9.9.74-1.52.12-1.85.48-2,2-.05.45-.08.89-.12,1.39-1.85.18-3.64.36-5.43.52a1.7,1.7,0,0,1-.57-.2.74.74,0,0,0-1.09.65,5.47,5.47,0,0,0,.1,1.85c.57,2.53,1.22,5,1.81,7.56.15.64.19,1.31.28,2,.12,1.05.57,1.45,1.63,1.4.82,0,1.64-.14,2.5-.21-.47,9.55,1.23,18.87,1.78,28.28l-4.44.7c.88-1.51-.16-1.92-1-2.44l-4-2.5A33.79,33.79,0,0,0,112.8,204c-1.18-.39-2.38-.72-3.6-1.09a39.13,39.13,0,0,1-.73-7.14,29.61,29.61,0,0,0-1.72-8.73,1.38,1.38,0,0,1-.18-.59c.26-2.32-.94-4.33-1.38-6.49-.54-2.66-1.39-5.27-1.89-7.93-1.14-6.09-2.16-12.2-3.23-18.3-.17-1-.32-1.94-.48-2.93-1-.16-1.1.6-1.15,1.22a11.09,11.09,0,0,0,.12,2.23c.63,4.41,1.25,8.82,2,13.21.44,2.7.94,5.39,1.6,8,.72,2.87,1.72,5.68,2.47,8.55.43,1.62.62,3.31.91,5,.09.57.18,1.14.28,1.71ZM131,127.1l0-.19a8.55,8.55,0,0,0,1.24,0,78.25,78.25,0,0,0,8.75-1.45c2.4-.64,4.83-1.16,7.25-1.71.48-.11.93-.22.8-.85s-.58-.64-1.07-.59-1.16.09-1.73.2c-4.84,1-9.62,2.34-14.57,2.74a14,14,0,0,1-3-.11c-.55-.07-1,0-1.07.51a.93.93,0,0,0,.52.77C129,126.7,130,126.88,131,127.1Zm15.68.28c-.71-.75-.71-.72-1.58-.66-1.19.08-2.39.16-3.59.16-.47,0-.9,0-.93.5,0,.25.36.56.62.78a1.12,1.12,0,0,0,.69.25c1.24-.07,2.48-.13,3.71-.31C145.93,128.05,146.26,127.64,146.63,127.38Z"/><path class="cls-3" d="M191.18,159.47c-2.07.31-4.15.59-6.21.94-2.95.49-5.89,1-8.82,1.57-1.6.31-3.18.74-4.76,1.13a1.74,1.74,0,0,0-1.53,2.15,2.77,2.77,0,0,1-.05.64l-1.95.14c.83-1.59,1.57-3,2.29-4.41.94-1.83,1.84-3.68,2.78-5.51a73.5,73.5,0,0,1,4.15-7.74,20.33,20.33,0,0,1,6.34-6.08,19.34,19.34,0,0,1,7.3-2.31c3.12-.41,6.23-.87,9.43-1.33a9.87,9.87,0,0,0,7.14,3.22,33.51,33.51,0,0,0,9.05-.61c3-.59,6-1,8.89-1.81a24.67,24.67,0,0,0,9.4-4.85,10.51,10.51,0,0,0,2.27-2.74,1,1,0,0,1,1.28-.62c3.17.59,6.33,1.22,9.5,1.79,1.95.35,3.92.61,5.87.92,2.68.42,4.76,1.64,5.81,4.28.38,1,.88,1.87,1.24,2.84.19.52.15,1.11.29,1.65a6.64,6.64,0,0,0,.51,1.5,27.94,27.94,0,0,1,2.4,8c.37,2.11.74,4.22,1.16,6.32q1.67,8.4,3.38,16.79c.31,1.51.71,3,1,4.51.24,1.33.39,2.68.52,4,.19,2,.33,4,.48,5.93a3.65,3.65,0,0,1-.06.69c-1.16.15-2.33.4-3.51.44-3.16.09-6.32,0-9.47.15-2.3.1-4.59.45-6.89.65-1.22.11-1.21,0-1.31-1.2-.18-2.17-.48-4.33-.64-6.5s-.18-4.64-.38-7c-.27-3.09-.5-6.19-1-9.24a12.49,12.49,0,0,1,.37-4.29c.26-1.59.64-3.16,1.05-4.72.15-.57.15-1.09-.44-1.18-.26,0-.79.48-.89.83-.35,1.27-.57,2.59-.85,3.89a3.42,3.42,0,0,1-.59,1.42c-.12-.52-.24-1-.35-1.56a10.18,10.18,0,0,0-.34-1.45.83.83,0,0,0-.64-.42.78.78,0,0,0-.49.58,26.1,26.1,0,0,0,.5,3.42c.37,1.53.93,3,1.31,4.53a13.48,13.48,0,0,1,.35,2.69c.2,3.93.27,7.87.55,11.79.21,2.85.66,5.68,1,8.52a1.31,1.31,0,0,0,.3.8c.75.57.64,1.37.65,2.12,0,1.41,0,2.83,0,4.4a14.61,14.61,0,0,1-1.48,0c-2.3-.24-4.6-.52-6.89-.77s-4.44-.48-6.66-.69l-11.13-1c-3.16-.28-6.32-.9-9.49-.48a7.56,7.56,0,0,1-5.41-1.13c-.46-.31-.79-.81-1.23-1.16-.63-.49-.19-1-.15-1.55.22-2.3.42-4.6.63-6.9.27-2.9.52-5.79.81-8.68s.67-6,1-9c.19-1.94.37-3.88.47-5.82a8.36,8.36,0,0,0-.24-2.1,1.81,1.81,0,0,0-2-1.41c-.58.07-1.15.13-1.73.17l-13.5.76v0h-.28Z"/><path class="cls-3" d="M49.64,196.27c-.11.06-.22.17-.33.17-2.61.08-5.22.13-7.83.2-.71,0-1.41.06-2.11.12l-7.77.72c-.28,0-.57,0-1,0,.17-.76.33-1.47.48-2.17.6-2.77,1.13-5.56,1.8-8.32.59-2.4,1.33-4.76,2-7.14.27-1,.51-1.92.74-2.88a1.47,1.47,0,0,1,1-1.17,17.2,17.2,0,0,0,2.07-1.11,1,1,0,0,0,.66-1.23c-1.11-.67-1.86.58-2.91.54.23-1,.45-1.91.68-2.94l-1.15-.51c-.67,2.17-1.32,4.21-1.94,6.25-.57,1.89-1.16,3.78-1.66,5.69q-1.1,4.17-2.08,8.37c-.52,2.2-.93,4.43-1.46,6.63a1.35,1.35,0,0,1-.82.72c-1.11.33-2.25.54-3.37.84a2.58,2.58,0,0,0-1,.48,2.72,2.72,0,0,0-.46.78c.32.11.65.36.94.31,1.46-.27,2.92-.58,4.37-.93a40.12,40.12,0,0,1,8.59-1c2.64-.06,5.28-.27,7.92-.31,4.58-.07,9.17,0,13.74-.1,5.79-.16,11.57-.45,17.35-.69.41,0,.82,0,1.28,0-.63,3.84-2,7.57-1.13,11.68l-12.32,2.55c-1.38.29-2.75.62-4.12.91-1.66.35-3.32.72-5,1-2,.34-4,.62-6.06.88q-3.27.41-6.54.73c-3.13.31-6.26.69-9.4.87a50,50,0,0,1-9-.09c-1.32-.16-2.65-.18-4-.28a25.22,25.22,0,0,1-3.59-.33A5,5,0,0,1,14,214.33a7.75,7.75,0,0,1-2.2-3.68c-.22-.84-.59-1.65-.82-2.48a17.09,17.09,0,0,1-.39-7.36c.54-3.43.94-6.88,1.56-10.29.51-2.83,1.17-5.64,1.91-8.42,1.09-4.1,2.23-8.19,3.52-12.23a36.83,36.83,0,0,1,3.67-8.79,16,16,0,0,1,1.52-2,22.49,22.49,0,0,1,10-6.44c2.17-.7,4.28-1.59,6.41-2.42.88-.35,1.72-.77,2.75-1.22.59,1,1.23,2,1.71,3,1.47,3.15,2.92,6.31,4.32,9.5A23.53,23.53,0,0,1,49.87,170c.14,3,.2,6.05.22,9.07,0,1.37-.25,2.73-.28,4.1-.11,3.76-.16,7.52-.22,11.28,0,.61,0,1.22,0,1.83Z"/><path class="cls-3" d="M132.32,45.65c1.31,1.17,1.51,2.68,1.7,4.15a28.36,28.36,0,0,1-.58,10.5c-.12.47-.21,1.09.34,1.29a1.79,1.79,0,0,0,1.34-.11,9.88,9.88,0,0,0,3.7-4.24,19.13,19.13,0,0,0,1-2.54,4.23,4.23,0,0,1,.43.63A17.94,17.94,0,0,0,144,60.81a9.1,9.1,0,0,0,1.77,1.37c.93.56,1.32.45,2.24-.49a4.39,4.39,0,0,0,3.21,1.56,4.43,4.43,0,0,1,1.41.67c.25.14.44.4.7.52,2.49,1.12,3.15,3.31,3.26,5.74a39.93,39.93,0,0,1-.18,5.13,1.62,1.62,0,0,0,.65,1.63,1.17,1.17,0,0,0,1.64-.39,12.39,12.39,0,0,0,1.36-1.74A25,25,0,0,1,164.47,69c1-1,1.86-1.27,3,.3,1.32,1.83,1.37,3.91,1.24,5.94a19.11,19.11,0,0,1-6.22,12.57c-1.8,1.76-4.13,2.73-7.4,3.24.23-.75.46-1.43.66-2.12.66-2.26,1.34-4.52,2-6.79a5.57,5.57,0,0,0,.09-1.73.66.66,0,0,0-.4-.51.8.8,0,0,0-.59.33,7.66,7.66,0,0,0-.46,1.15c-1.19,3.44-2.31,6.9-3.6,10.3-.83,2.2-1.9,4.32-2.92,6.45a20.26,20.26,0,0,1-6.64,7.55c-3,2.19-6.29,2.62-9.73,2.6-4.24,0-7.92-1.78-11.24-4.25a27.53,27.53,0,0,1-10.3-14.31,70.09,70.09,0,0,1-2.52-10.43c-.46-3.13-.61-6.3-.87-9.46-.06-.69.06-1.39,0-2.07-.23-1.83.74-3.27,1.43-4.81s1.37-3.28,2.11-5.09c.18.38.31.69.47,1,.6,1.13,1.14,2.31,1.84,3.37a1.79,1.79,0,0,0,1.36.58c.24,0,.63-.63.68-1a18.47,18.47,0,0,0,0-2.47,37.25,37.25,0,0,1,.19-4.59c.37.81.7,1.65,1.13,2.43a8,8,0,0,0,1.15,1.61c.41.46.89.95,1.6.64.39-.17.64-1.56.36-2.06a6.09,6.09,0,0,1-.78-3.46,28.47,28.47,0,0,1,1.27-6.79c.25-.85,1.07-.66,1.59-.6a7.05,7.05,0,0,1,3.64,1.29,1.87,1.87,0,0,0,2.49,0C130.16,47,131.27,46.32,132.32,45.65Zm5.76,33.7c1.2-.47,2.59-.58,3.56-1.77-.3-.2-.54-.47-.69-.43a21.47,21.47,0,0,0-2.79,1c-.57.26-.48.78-.09,1.22l-.06,0Zm-13.27,5.53c.63,2.06,2.3,3.05,4.11,3.83.29.12.73-.11,1.09-.18-.08-.38-.06-.84-.28-1.1a11.48,11.48,0,0,0-1.39-1.21A2.89,2.89,0,0,1,127,83.87a9.62,9.62,0,0,1,.27-2.21c.56-1.93,1.12-3.86,1.83-5.74a9,9,0,0,0,.39-4.52,3.08,3.08,0,0,0-1.65-2.61c-.27-.12-.67.08-1,.14.06.29,0,.68.18.87a3.74,3.74,0,0,1,.89,3.55,21.94,21.94,0,0,1-1.12,3.53,19.06,19.06,0,0,0-1.94,7.73Zm10-17.52a1,1,0,0,0,1.35.72,28.86,28.86,0,0,1,5.25-.54,23.64,23.64,0,0,1,8.87,1.28,7.17,7.17,0,0,0,1.92.46c.66,0,1-.51.57-1a5.39,5.39,0,0,0-2.47-2c-1-.27-1.86-.72-2.82-1a14.8,14.8,0,0,0-3.9-.72A25.37,25.37,0,0,0,136,66.15c-.44.16-.77.62-1.15.94ZM146.2,87.6c-.41-.77-1.1-.43-1.76-.16-2.69,1.13-5.38,2.3-8.08,3.41a16.42,16.42,0,0,1-8.56,1.35,45.79,45.79,0,0,0-5.11-.29c-.31,0-.62.37-.94.56.24.23.47.48.72.69a8,8,0,0,1,1.47,1.22,21.66,21.66,0,0,0,5.37,5.52,7.8,7.8,0,0,0,9.83-.55,19.29,19.29,0,0,0,5.45-6.45,28.28,28.28,0,0,0,1.29-3.58A13.43,13.43,0,0,0,146.2,87.6Zm-23-18.26c.57-1.45.48-1.69-.77-2.16-.47-.17-.93-.36-1.41-.49a11.28,11.28,0,0,0-7.79.14c-1.47.65-3.12,1.24-3.13,3.31,0,.3.07.78.25.86a1.52,1.52,0,0,0,1-.12A15.46,15.46,0,0,1,122,69.33,5.75,5.75,0,0,0,123.15,69.34Zm39.24,14.25c1.72-1.08,1.62-3.62-.2-5.67a12.44,12.44,0,0,1,3.46-3.32c.55-.35,1.18-.6,1.72-1a.9.9,0,0,0,.37-.77.89.89,0,0,0-.72-.47,4.2,4.2,0,0,0-1.74.51,20.85,20.85,0,0,0-3.34,2.54,7.34,7.34,0,0,0-2.25,4.07,4.19,4.19,0,0,0,.14,1.57c0,.19.4.37.63.4s.34-.31.4-.51a10.88,10.88,0,0,0,.24-1.37C162.31,80.83,160.87,82.6,162.39,83.59Zm-21.32-10a7.56,7.56,0,0,0-5.95,3.21c-.19.23,0,.73,0,1.1a3.9,3.9,0,0,0,1-.23,7.88,7.88,0,0,0,.86-.69,11.74,11.74,0,0,1,1.94-1.3c1.45-.63,2.83-.06,4.17.49,1,.42,1.92.95,2.9,1.38a.78.78,0,0,0,1.15-.38.75.75,0,0,0-.42-1c-1-.52-1.89-1.17-2.9-1.63A23.39,23.39,0,0,0,141.07,73.57Zm-24.13,1.74c-1.39-.12-2.58.77-3.76,1.74a.83.83,0,0,0-.17,1.29c.38.46.75.19,1.18-.08a4.89,4.89,0,0,1,4.18-.86c.8.23,1.58.52,2.37.75a4,4,0,0,0,1.22.23c.75,0,1-.59.6-1.2a1.48,1.48,0,0,0-.64-.55A12.1,12.1,0,0,0,116.94,75.31Zm1.28,3.6c-.08-.13-.19-.45-.3-.45a12.61,12.61,0,0,0-2.38.2c-.43.1-.38.6-.12.92.61.76,1.28-.14,1.94,0,.23.05.55-.24.82-.4C118.23,79.18,118.21,79.05,118.22,78.91Zm2.08,13.32a12.1,12.1,0,0,0,.54-1.43.77.77,0,0,0-.2-.62.61.61,0,0,0-.56-.05,1.2,1.2,0,0,0-.78,1.26C119.36,92,119.6,92.32,120.3,92.23Zm27.2-6.61a1.51,1.51,0,0,0-.39.54c-.08.35,1,1.2,1.42,1.08a.85.85,0,0,0,.51-.57C149.12,86.18,148.37,85.62,147.5,85.62Z"/><path class="cls-3" d="M123.21,171.5c1.08-.08,2.13-.19,3.18-.23,2.4-.1,4.8-.14,7.2-.26s5-.31,7.45-.47a2.76,2.76,0,0,1,1.82.52,5.12,5.12,0,0,0,2.65.59,27.54,27.54,0,0,0,3.83-.43,2.48,2.48,0,0,0,1.28-.38c1.31-1.26,2.93-1.27,4.58-1.42,3-.27,6-.67,9.05-1,.15,0,.3,0,.67,0,0,1.42,0,2.77,0,4.12.07,3.73.16,7.45.22,11.18,0,1.9,0,3.81,0,5.71.08,2.76.16,5.53.35,8.28.23,3.21.57,6.41.88,9.61s.65,6.4,1,9.6a6.12,6.12,0,0,1-.05.69c-1,.14-2,.31-3,.43-1.69.19-3.38.35-5.07.5-2.09.18-4.18.4-6.28.48-3.3.14-6.61.17-9.91.26-1.72,0-3.43.19-5.15.2a27.24,27.24,0,0,1-2.85-.25c-.31-2.63-.65-5.18-.91-7.73-.16-1.66-.14-3.33-.3-5-.24-2.47-.57-4.92-.85-7.39-.2-1.76-.37-3.53-.57-5.29-.24-2.13-.51-4.25-.75-6.38-.11-.95-.13-1.91-.28-2.85a13.62,13.62,0,0,0-.54-2.29,1.78,1.78,0,0,0-1.94-1.38c-.82,0-1.64.19-2.46.2-.28,0-.77-.21-.83-.42-.79-2.74-1.52-5.49-2.26-8.24C123.28,172.2,123.27,171.9,123.21,171.5Zm16,12.48c1.57-.18,2.88-.32,4.19-.49,3-.39,6-.76,8.95-1.21a24.39,24.39,0,0,0,3.47-.85c.23-.07.34-.55.5-.84a2.37,2.37,0,0,0-.88-.28c-.9.09-1.8.33-2.7.39a103.56,103.56,0,0,0-12,1.74,6.86,6.86,0,0,0-1.44.33,1.06,1.06,0,0,0-.52.76C138.75,183.72,139.15,183.93,139.21,184Zm.24,4,.11-.19c1.4-.16,2.8-.34,4.2-.49L155,186.18a2.7,2.7,0,0,0,1.07-.24.82.82,0,0,0,.35-.7c0-.19-.36-.41-.6-.46a3.82,3.82,0,0,0-1.12,0c-2.17.2-4.35.39-6.53.65q-4.32.49-8.63,1.12c-.48.08-1.34,0-1.28.83C138.28,187.62,139,187.8,139.45,188Zm6.09,1.15c1.28.87,2.47.28,3.62.26.17,0,.51-.46.46-.59s-.41-.56-.63-.55a26.36,26.36,0,0,0-2.94.29C145.88,188.58,145.76,188.89,145.54,189.15Z"/><path class="cls-3" d="M71.68,79.12a7.58,7.58,0,0,1,1.29.7c1.13.9,2.2,1.88,3.33,2.79a1.68,1.68,0,0,0,1.07.5,6.56,6.56,0,0,1,4.72,1.46,24.86,24.86,0,0,1,5.18,4.91,2.85,2.85,0,0,1,.57,1.09c.37,1.49.68,3,1,4.64a20.06,20.06,0,0,1-2.3-.23,10.32,10.32,0,0,0-6.21.75,5.15,5.15,0,0,0-3.23,3.81,5.65,5.65,0,0,0,.87,4.83c1,1.42,2,2.85,3.1,4.21,1.62,2,1.69,3.44.14,5.58-.61.83-1.22,1.64-1.86,2.45-.33.41-.59.83-.24,1.32s1,.33,1.41,0a12.19,12.19,0,0,0,1.87-1.79c1.37-1.65,2.48-3.47,2-5.73a6.34,6.34,0,0,0-1.21-2.52c-1.06-1.36-2.29-2.58-3.44-3.88-.1-.11-.11-.31-.2-.59a17.66,17.66,0,0,1,6.24-2c-.67,1.08-1.4,2.15-2,3.29a1.65,1.65,0,0,0,2.74,1.85,31.87,31.87,0,0,0,1.78-3.3l1.31-.42c0,1.69,0,3.41,0,5.12,0,1.89-.17,3.77-.27,5.65-.19,3.68-.3,7.41-1.52,10.92a11.35,11.35,0,0,1-3.4,4.88c-2.64,2.26-5.75,3.56-8.86,5-1.44.65-2.92.46-4.37.55a54.62,54.62,0,0,1-8.29,0,20.06,20.06,0,0,1-6.7-2.07A30.75,30.75,0,0,1,48.09,127,19.3,19.3,0,0,1,44,121.78c-.24-.48-.48-.92-1.08-.72s-.55.83-.44,1.27a17.81,17.81,0,0,0,.83,2.21,8.44,8.44,0,0,1-2.16.76,19.68,19.68,0,0,1-5.2,0,9.64,9.64,0,0,1-7.73-7.1,9.26,9.26,0,0,1,.18-6.67,4.59,4.59,0,0,1,3.8-2.84,6.45,6.45,0,0,1,6.1,2.3,23,23,0,0,1,2.27,2.84,1.29,1.29,0,0,0,1.44.77c.7-.19.91-.74.95-1.44A20.89,20.89,0,0,1,43.2,111c.23-1.46,1.56-1.84,2.58-2.48,2.77-1.72,5.61-3.33,8.36-5.08a40.22,40.22,0,0,0,6.2-5.47c1.49-1.47,3.06-2.87,4.69-4.19a27.58,27.58,0,0,0,6.42-7.64,6.73,6.73,0,0,1,2.3-2.72c.57-.33.48-1-.09-1.73l-2-2.55Zm-2,27.27,0,0c-.14.38-.3.74-.41,1.13a20.75,20.75,0,0,0-.76,3,1.44,1.44,0,0,0,.73,1.15,1.5,1.5,0,0,0,1.32-.38,11.4,11.4,0,0,0,1.74-2.4c.4-.76.41-1.74.86-2.46a14.49,14.49,0,0,1,2-2c.34-.35.59-.8.15-1.2s-.88,0-1.14.33a2.62,2.62,0,0,1-2.42.94c-3.48-.18-6.13,1.41-8.3,4-.22.26-.12.79-.17,1.19a7,7,0,0,0,1.13-.21c.17,0,.29-.28.45-.42C66.23,107.76,67.67,106.55,69.65,106.39ZM72.87,132a8.94,8.94,0,0,0,5.52-2.56A14.75,14.75,0,0,0,82,123c.4-1.4-.25-2.08-1.74-2a15.92,15.92,0,0,1-3.58.08c-2.92-.46-5.8-1.18-8.73-1.65a10.52,10.52,0,0,0-3.67,0A3,3,0,0,0,61.81,123a11.23,11.23,0,0,0,3.72,6.48C67.27,131.14,69.28,132.08,72.87,132Zm-33.41-9.15c0-1.31-1.16-2.48-.42-3.77a7.7,7.7,0,0,0,1.29.7.79.79,0,0,0,1-1.13,14.18,14.18,0,0,0-1-1.52,1.83,1.83,0,0,1-.42-.85c0-.61-.31-.85-.82-.83a2.93,2.93,0,0,1-1.85-.83c-1.41-1-2.93-2-4.78-1.74a5.86,5.86,0,0,0-2.12.89c-.21.12-.2.63-.29,1a3.24,3.24,0,0,0,.9.2c.28,0,.55-.21.83-.23a3.27,3.27,0,0,1,1.53,0,29.55,29.55,0,0,1,3.3,2,1.25,1.25,0,0,1,.55,1.57,4.67,4.67,0,0,0,.12,3.5C37.82,122.85,37.87,123,39.46,122.81Zm32.9-23.29a1.87,1.87,0,0,0-1.83-.87c-2.69-.08-5.35.06-7.74,1.5a8.16,8.16,0,0,0-3.38,3.28c.77.63.77.64,1.55,0a10.68,10.68,0,0,1,5.11-2.61c1.58-.24,3.17-.43,4.77-.55C71.45,100.22,72,100.28,72.36,99.52Z"/><path class="cls-3" d="M182.16,201.28l-1.32.18a2.57,2.57,0,0,1,1.2-1.66,39.09,39.09,0,0,1,8.89-5.43,14.62,14.62,0,0,1,10.27-.52,27.5,27.5,0,0,1,4.28,2.2c.85.43,1.74.79,2.56,1.27,1.82,1.06,3.8.39,5.71.58s3.86.29,5.79.47,4.1.46,6.15.66l12.86,1.23a99.78,99.78,0,0,0,16,.72,14.88,14.88,0,0,0,2.55-.48.86.86,0,0,0,.44-.63c0-.12-.31-.39-.51-.43a6.76,6.76,0,0,0-1.35-.08h-5.59v-5.72c5.83-.75,11.86-.57,18.06-.67a215.18,215.18,0,0,1-3.91,22.29c-1.95.34-3.93.82-5.94,1q-4.57.42-9.17.46c-2.15,0-4.3-.26-6.45-.44-2.64-.23-5.28-.43-7.9-.76-3.28-.41-6.53-.93-9.8-1.42-2.87-.42-5.75-.83-8.62-1.32a98.75,98.75,0,0,1-12.27-2.48,15.66,15.66,0,0,0-6.12-.79c-.18,0-.5-.05-.54-.15-.34-.89-1-.58-1.56-.4a21.25,21.25,0,0,0-6.12,2.64,8.68,8.68,0,0,1-5.31,1.52c1-.84,1.91-1.61,2.85-2.29,1.27-.92,2.64-1.71,3.89-2.66a9.59,9.59,0,0,0,1.38-1.69c.2-.25.37-.58.64-.7,1.3-.6,2.63-1.13,3.95-1.69.15-.07.34-.12.43-.25a8.64,8.64,0,0,0,.52-.89c-.36-.1-.78-.38-1.07-.28a43.9,43.9,0,0,0-4.86,1.87c-3.37,1.62-6.69,3.35-10,5a5.25,5.25,0,0,1-.67.22c-.47-1.18-.37-1.65.53-2.11,3.2-1.63,6.38-3.3,9.62-4.85a40.19,40.19,0,0,1,4.19-1.52c.53-.19,1-.41,1-1.14a1.8,1.8,0,0,0-1.68-.25c-3.64.76-6.78,2.64-10,4.32-1,.51-1.94,1.09-2.88,1.68a3.75,3.75,0,0,1-3.33.49,2.57,2.57,0,0,1,.21-1c.88-1.21,1.73-2.31,3.52-2.44a13.87,13.87,0,0,0,3.83-1.33c1.89-.74,3.76-1.54,5.65-2.28,1.38-.55,2.79-1,4.17-1.55.65-.25.65-.3.26-1.35a13.92,13.92,0,0,0-2,.37c-2.69.94-5.36,1.93-8,2.93-.69.27-1.3.73-2,1a16.85,16.85,0,0,1-2.12.53v0h-.28Z"/><path class="cls-3" d="M192.7,78.6c1.24,1.38,2.41,2.82,3.73,4.12a8.15,8.15,0,0,0,4,1.93,2.8,2.8,0,0,0,1.22-.05.75.75,0,0,0,.57-1.16,2.48,2.48,0,0,0,.52-.06c.25-.08.7-.2.7-.29a1.34,1.34,0,0,0-.33-.85A22.47,22.47,0,0,1,199,74.87c.85.81,1.5,1.51,2.23,2.11a16.71,16.71,0,0,0,8.51,4,1.8,1.8,0,0,0,1.16-.15,1.85,1.85,0,0,1,2-.06,12.63,12.63,0,0,0,3.12.64c.53.06.94.11,1.22.63A32.1,32.1,0,0,1,220,90c.09.37-.15.81-.2,1.22-.12.92.12,1.24,1.13,1.56a4,4,0,0,0,.33,1.18,1.2,1.2,0,0,0,.84.54c.21,0,.6-.37.64-.62a30.58,30.58,0,0,0,.46-3.92c0-.42-.45-.86-.77-1.26-.16-1.09,1.17-2.34-.42-3.34a15.58,15.58,0,0,1,2.56-4.79c1.22-1.44,2.63-1.78,4.17-.74A9.15,9.15,0,0,1,233,85.4a9.81,9.81,0,0,1,0,2.48c0,.66-.2,1.32-.17,2a11.19,11.19,0,0,1-1.48,5.46c-1.07,2.17-2.45,4.19-3.71,6.27-.12.21-.3.57-.44.57-1.38-.09-1.22,1-1.36,1.79-.33,1.7-.49,3.44-.85,5.13a24.56,24.56,0,0,1-2.21,6.27c-.58-.24-1.17-1-1.71-.3s.55,1,.71,1.59c-.15.18-.32.4-.48.63-.48.64-1,.84-1.65.23a1.66,1.66,0,0,0-.92-.36.84.84,0,0,0-.9,1.05,13.25,13.25,0,0,0,.38,1.29c-.73-.32-1.27-.57-1.83-.78-1.1-.42-1.74,0-1.76,1.22,0,.6,0,1.2,0,2.08a15.78,15.78,0,0,0-1.3-1.16,2.61,2.61,0,0,0-1.06-.51.74.74,0,0,0-.83,1.06,6,6,0,0,1,.56,1.62c-.59-.44-1.19-.87-1.77-1.31-.2-.15-.36-.44-.56-.47a4.06,4.06,0,0,0-1,.14,2.49,2.49,0,0,0,.24.89,11.28,11.28,0,0,0,1.2,1.18,14.89,14.89,0,0,1-9.62-3.08,42.9,42.9,0,0,1-8.07-8.68,45.6,45.6,0,0,1-7.06-13.85,21.79,21.79,0,0,1-1-10.23,20.41,20.41,0,0,1,2.55-6.67l.76-1.32c1.13.78,2.2,1.52,3.29,2.25.65.43,1.34.81,2,1.24a1.33,1.33,0,0,0,1.89-.23l-2-4.25Zm-1,20.78h0l1.17,1.74-1.76.82a1.49,1.49,0,0,0,2,.54,24.3,24.3,0,0,0,3.13-1.13,6.06,6.06,0,0,0,1.35-1.17l-2.08-2c1.08,0,1.82,0,2.56,0,.41,0,.9,0,.95-.54s-.31-.67-.77-.77a9.44,9.44,0,0,0-6.38.67,5.25,5.25,0,0,0-2.84,3.11c-.18.56-.21,1.08.51,1.33Zm11.76,13.12a4.93,4.93,0,0,0-1.08-.06.93.93,0,0,0-.7.35.81.81,0,0,0,.17.75,3.46,3.46,0,0,0,1.28.88c2.38.71,4.76,1.41,7.18,2a5.61,5.61,0,0,0,4.92-.94,6.77,6.77,0,0,0,2.28-3.45c.53-1.73.86-3.53,1.34-5.28.39-1.42,0-3,1-4.3.12-.14-.08-.79-.31-.94a.66.66,0,0,0-1,.37,12.28,12.28,0,0,1-3.82,4.4,58.79,58.79,0,0,1-5.21,4C207.69,111.4,205.84,112.71,203.44,112.5Zm7.22-22.39h2.89a5.61,5.61,0,0,0,1.36,0c.3-.07.54-.42.8-.64-.23-.2-.42-.5-.69-.6a10,10,0,0,0-5.46-.24,8.66,8.66,0,0,0-5.57,4.6c-.26.46-.91,1.2-.11,1.61s.84-.57,1.19-1c.57-.66.92-1.55,1.8-1.79l1.37,2c-.59.16-1,.5-.59,1.16.1.06.13.1.17.09a11.36,11.36,0,0,0,7.71-3.45c.17-.17.15-.52.24-.88-1.29-.31-1.81,1-2.64,1.11Zm-7.92.17a6.14,6.14,0,0,0,.8-.49c.67-.54,1.3-1.15,2-1.67a25,25,0,0,1,7.94-4,2.11,2.11,0,0,0,1.22-1.41c.13-.75-.79-.8-1.29-.82a13.2,13.2,0,0,0-3.2.21,12,12,0,0,0-8.3,5.75,1.28,1.28,0,0,0,.1,1.51C202.21,89.67,202.45,89.93,202.74,90.28Zm4,19.34a6.69,6.69,0,0,0,1.76-.71c.29-.22.29-.83.42-1.27-.4-.09-.88-.37-1.19-.24a1.83,1.83,0,0,1-1.73-.2,3.35,3.35,0,0,1-1.78-2c-.38-1.43-.74-2.87-1-4.32-.37-1.74-.6-3.51-1.07-5.21a9.75,9.75,0,0,0-1.39-2.6c-.15-.22-.64-.22-1-.32,0,.33-.19.73-.07,1a22.72,22.72,0,0,1,1.52,6.5,43.18,43.18,0,0,0,1,5.47C202.76,107.61,204.56,109.66,206.78,109.62ZM196.41,92.13l.62-.73a3.64,3.64,0,0,0-.71-.56,2.33,2.33,0,0,0-1.09-.21c-3.75.35-7.22,1.23-9.17,4.94a1.54,1.54,0,0,0,.39,2.22,1.61,1.61,0,0,0,.31-.19,2.93,2.93,0,0,0,.4-.47,5.54,5.54,0,0,1,4.14-2.64c1.39-.18,2.79-.38,4.17-.61.49-.09,1-.29,1.52-.45ZM226,88.68c.46-1.22.84-2.39,1.33-3.52a4.7,4.7,0,0,1,2.08-2.39,1.12,1.12,0,0,0,.38-1c-.14-.43-.56-.23-.94-.1a5.29,5.29,0,0,0-3.07,3.19,26.55,26.55,0,0,0-1.73,7.7,10.52,10.52,0,0,0,0,2.1,4.94,4.94,0,0,0,.45,1.18c1.33-1.64.77-3.48,1.52-5.17a10.49,10.49,0,0,0,.43,2.13c.14.33.65.5,1,.74a4.75,4.75,0,0,0,.44-1,1.69,1.69,0,0,0-.08-.86C227.39,90.63,227.41,89.37,226,88.68Zm-14.17,7.59c-.35-.11-.63-.3-.84-.24a8.21,8.21,0,0,0-1.72.68c-.2.1-.26.45-.39.69.28.13.58.42.81.37A2.76,2.76,0,0,0,211.78,96.27Zm-16.51,8.11a18.89,18.89,0,0,0,1.61-1c.11-.09.1-.46,0-.64s-.36-.21-.52-.17a4.34,4.34,0,0,0-1.28.4,4.23,4.23,0,0,0-.84.75Z"/><path class="cls-4" d="M69.34,147a2,2,0,0,1,.13.93c-.49,1.59.64,2.49,1.41,3.56a4.13,4.13,0,0,1,.82,1.47c.44,2.26.92,4.53,1.16,6.83.44,4.17.76,8.35,1.07,12.54.23,3.19.33,6.39.55,9.59.12,1.73.36,3.45.55,5.18s.37,3.47.57,5.21c.13,1.1.28,2.2.44,3.47l-24.33.85c0-2,0-3.82,0-5.63,0-1.48.1-3,.17-4.45.1-1.95.24-3.89.31-5.83.09-2.15.24-4.31.14-6.45a64.22,64.22,0,0,0-.72-6.91c-.77-5.11-3.23-9.57-5.7-14-.88-1.58-1.73-3.17-2.54-4.66l4.3-4.89C54.65,145.91,61.77,147.53,69.34,147Z"/><path class="cls-3" d="M188.43,208.29c-1.15.81-2.32,1.58-3.43,2.43a16,16,0,0,0-1.91,1.77c-.32.34-.7.72-.34,1.31s.57,1,1.37,1a11.85,11.85,0,0,0,5.7-1.46,35.63,35.63,0,0,1,6.7-2.93c.15,0,.3,0,.54-.09-.21,1.4-.42,2.71-.66,4.25-2.06.21-4.26.44-6.47.65-4.77.43-9.54.82-14.3,1.29-1.74.17-3.45.51-5.17.78a1.09,1.09,0,0,1-1.41-1.05c-.3-3.56-.58-7.13-.92-10.69-.26-2.75-.72-5.49-.86-8.24-.22-4.17-.23-8.35-.36-12.53s-.32-8.52-.46-12.78c0-1.29,0-2.58,0-4.11.72-.12,1.59-.32,2.47-.4,3.67-.35,7.36-.57,11-1s7.45-1.11,11.18-1.67a73.5,73.5,0,0,1,10.26-1.12c1.3,0,1.79.3,1.78,1.76,0,3.41-.12,6.81-.21,10.22a2.82,2.82,0,0,1-.27.82l0,0a22.68,22.68,0,0,1-1.9-3.43A21,21,0,0,1,200,169c-.17-1.16-.6-1.44-1.74-1.15-2,.52-4.11.94-6.17,1.41-2.53.59-5.07,1.15-7.59,1.82a2.22,2.22,0,0,0-1.8,2.61,26.24,26.24,0,0,0,.48,3.3c.47,2.34,1,4.68,1.5,7a15.7,15.7,0,0,0,.68,2,1.58,1.58,0,0,0,1.76,1,50.48,50.48,0,0,0,12.41-3.37,14.78,14.78,0,0,0,3.2-2.14,37.08,37.08,0,0,1-1.3,10.81,10.71,10.71,0,0,1-1.64-.29,12.73,12.73,0,0,0-8.5.32,35.87,35.87,0,0,0-10.33,5.87c-1.59,1.25-1.72,2.5-1.2,4.48a11.28,11.28,0,0,0-1.26,1.14,5.53,5.53,0,0,0-1,1.77c-.43,1.52.48,2.46,2.47,2.62,0,.4,0,.81,0,1.22a1.68,1.68,0,0,0,2.47,1.64c1.82-.79,3.59-1.68,5.39-2.52a5.49,5.49,0,0,1,.69-.21Z"/><path class="cls-3" d="M158.87,64.09l1.92,2.4a12.25,12.25,0,0,1-1.77-.42,4.43,4.43,0,0,1-1.42-.89,9.87,9.87,0,0,1-2.23-4.66c-.8-3.26-1.5-6.54-2.26-9.81a11.53,11.53,0,0,0-.57-1.44l-.93.55A77.87,77.87,0,0,0,154.22,63a4.47,4.47,0,0,1-.63-.48,18.46,18.46,0,0,1-3.69-7.39c-.47-1.62-.76-3.3-1.17-5-.1-.39-.09-1.08-.74-.94s-.55.61-.48,1.2a25.31,25.31,0,0,0,3.16,10.3c-.41.57-.75.37-1.14,0a8,8,0,0,1-2.18-3.15c-.22-.58-.41-1.35-1.23-1.07s-.62,1-.5,1.63c.17.85.47,1.66.71,2.49l-.22.16c-.88-1-1.84-1.93-2.63-3a15.33,15.33,0,0,1-2.78-5.38.6.6,0,0,0-.1-.23c-1.43-1.52-1.06-3.62-1.73-5.39-.32-.84-.56-1.71-.94-2.52-.11-.23-.58-.29-.89-.42,0,.33-.23.71-.14,1a22.15,22.15,0,0,1,1.43,8.64,9.21,9.21,0,0,1-3,6.17c.12-1,.17-1.69.29-2.4a23.41,23.41,0,0,0-.26-9,8.5,8.5,0,0,0-2.1-4.13,3.13,3.13,0,0,0-3.75-.69,1,1,0,0,1-1.21-.06c-1.27-1-2.89-1.17-4.38-1.6a1.91,1.91,0,0,0-1.53.63,13.38,13.38,0,0,0-3.15,6.1c-.32,1.58-.49,3.19-.74,4.78a3,3,0,0,1-.26.58,22.1,22.1,0,0,1-.38-2.58,12.23,12.23,0,0,1,.37-4.81c.12-.3-.1-.73-.16-1.1a3.77,3.77,0,0,0-.94.63c-.86,1.13-.52,2.55-.85,3.82a6.31,6.31,0,0,1-.42,1.36,12.45,12.45,0,0,0-1.12,5.54,10.71,10.71,0,0,1-.22,2.61,14,14,0,0,1-1.1-3.12,45,45,0,0,1-.18-5.57c0-.59,0-1-.65-1.11s-.82.34-.83.92a23.25,23.25,0,0,1-1.8,8.44,20.74,20.74,0,0,1-3,5.91,2.84,2.84,0,0,0-.27.9c-.88-1.42-1.75-.45-2.62-.11h0c.27-2.6.5-5.2.83-7.78a21.13,21.13,0,0,1,3.05-8.07c1.38-2.36,2.84-4.68,4.41-6.92a12.7,12.7,0,0,1,11.4-5.58,13.37,13.37,0,0,1,6.5,1.65c.8-.44,1.4-.79,2-1.12a22.55,22.55,0,0,1,7-2,20.68,20.68,0,0,1,9.68.9c3.77,1.2,6.79,3.5,9.78,6a69,69,0,0,0,6.87,4.66,19.68,19.68,0,0,1,4.85,3.81,10,10,0,0,1,2.14,6.7c0,3.75-1.25,7.18-2.67,10.62-2.12-2.78-4.13-3.48-6.4-1.48-.5-.59-1-1.18-1.5-1.74-2.28-2.5-3.16-5.58-3.62-8.81-.22-1.55-.3-3.13-.39-4.7,0-.53-.16-.87-.94-1a5.4,5.4,0,0,0-.5,1.65c.1,3.22.18,6.46,1.35,9.53.29.75.7,1.46,1.06,2.19Z"/><path class="cls-3" d="M112.24,214.81l-5.36-1.06a16.14,16.14,0,0,0-1.92-.44c-.32,0-.67.29-1,.45.23.26.4.66.69.77,1.41.54,2.84,1,4.27,1.49a22.1,22.1,0,0,1-9.76-1.46c-2.42-.88-4.85-1.74-7.22-2.74s-4.86-2.29-7.32-3.38a25.53,25.53,0,0,0-6.9-2.08c.1-1.36.15-2.71.33-4.05a22.83,22.83,0,0,1,.71-3.26,2.11,2.11,0,0,1,.79-1.12c1.76-1.15,3.55-2.24,5.35-3.32a23.77,23.77,0,0,1,12-3.56c2.1,0,4.2-.13,6.3-.16,1.06,0,1.23.28.82,1.29a4,4,0,0,1-2.77,2.07c-1.84.62-3.75,1-5.57,1.69A4.5,4.5,0,0,0,94,197.33c-.45.51-.38,1,.36,1.35,1,.49,1.79,1.19,2.7,1.75a31.62,31.62,0,0,0,7.59,2.92c3.21,1,6.4,2,9.62,3a43.27,43.27,0,0,1,8.18,3.91c.64.35,1.34.72,1.38,1.69a8.67,8.67,0,0,1-4.59-.55c-3.75-1.39-7.5-2.83-11.3-4.09a25.48,25.48,0,0,0-4.39-.74.87.87,0,0,0-.6.08c-.35.23-.87.51-.92.83-.1.64.54.76,1,.83a55.52,55.52,0,0,1,12.1,3.51c2.45.93,4.93,1.91,7.65,1.89a1.61,1.61,0,0,1,1.13.61c.6.79.25,1.52-.74,1.47a12.38,12.38,0,0,1-3-.56c-3.23-1-6.44-2.16-9.65-3.24-1.72-.58-3.45-1.14-5.17-1.71-.12,0-.25,0-.37-.07-1.23-.27-1.85-.16-1.94.47-.15,1,.69,1,1.36,1.23,2,.71,4,1.46,6.06,2.21.59.22,1.17.49,1.75.73Z"/><path class="cls-3" d="M73.44,152.24c.88.61,1.75,1.26,2.66,1.83s2,1.08,2.92,1.63c.46.27.87.6,1.32.87a2,2,0,0,0,.77.32c2.84.31,6.11,2.49,6.43,5.37.27,2.49,1.2,4.9,1.72,7.37.41,1.89.71,3.8.94,5.72.46,4,.83,8,1.27,12,.1.85.34,1.68.51,2.5-1.52.56-2.93,1.11-4.35,1.61-2.26.8-4.07,2.33-6.08,3.54-.71.42-1.37.91-2.1,1.3a1.14,1.14,0,0,1-1.71-.88c.19-4-.66-7.88-.88-11.83-.23-4.2-.46-8.4-.74-12.6-.18-2.83-.46-5.65-.71-8.48a2.12,2.12,0,0,0-.25-.53l0,0a43,43,0,0,0-1.59-9.15c0-.19-.09-.39-.13-.59Z"/><path class="cls-3" d="M51.55,132.55c2,1.59,4.47,2.12,6.63,3.29,2.54,1.37,5.17,1.43,7.87,1.47,2.1,0,4.2,0,6.35,0-1,2.37-2,4.75-3,7.31-2.47.83-5.21.6-8,.2s-5.25-.72-7.85-1.19c-1.65-.3-3.26-.8-4.86-1.2.67-1.71,1.4-3.23,1.85-4.83S51.22,134.31,51.55,132.55Z"/><path class="cls-4" d="M198.36,169.64c-.43,2.38,1.14,5.91,2.56,8.63-1.11-.09-2.11-.14-3.1-.25s-1.49.28-1.43,1.39a18.24,18.24,0,0,1-.08,2.45,1.61,1.61,0,0,1-1.15,1.46c-2.67.7-5.37,1.31-8,2a2.19,2.19,0,0,1-.44-.05c-.88-4.08-1.77-8.22-2.69-12.51C188.65,171.24,193.56,171,198.36,169.64Zm-3.49,2.54c-1.63.32-3.1.6-4.55.91-.73.16-1.44.38-2.16.59a.77.77,0,0,0-.62,1c.15.59.6.39,1,.3l1.2-.26c1.66-.36,3.33-.68,5-1.12.37-.1.63-.62.94-.95Zm-4.23,4.62c.73-.14,1.71-.31,2.67-.52.43-.1.83-.41.62-.88a1.17,1.17,0,0,0-.9-.41c-.94,0-1.89.12-2.83.21-.54.05-1.32-.17-1.32.71s.81.76,1.39.87Z"/><path class="cls-3" d="M151.31,100.07c-.16,1.17-.36,2.33-.48,3.5-.23,2.15-.47,4.3-.59,6.45a1.81,1.81,0,0,1-1.44,2,47.53,47.53,0,0,1-7.22,1.76,45.2,45.2,0,0,1-10.78,0c-1-.11-1-.12-.83-1.11.1-.81.1-1.64.15-2.55,4.18.41,8.36.29,12-1.78S149.1,103.77,151.31,100.07Z"/><path class="cls-3" d="M133,224.15a47,47,0,0,1-1-11.38c.12,1,.24,2,.34,3.07s.24,2,.31,3.08c.12,1.7.25,1.73,1.9,2.07a22.82,22.82,0,0,0,5.4.61c4-.14,8-.19,12-.35,1.53-.06,3-.38,4.58-.52,2.76-.26,5.52-.47,8.28-.7a4.2,4.2,0,0,1,.61.06c0,2,0,2.06-1.88,2.27-2.82.32-5.67.49-8.5.77-2.66.26-5.31.67-8,.84-3.54.24-7.07.84-10.64.38C135.26,224.2,134.11,224.21,133,224.15Z"/><path class="cls-3" d="M204.76,186.79c0-.63-.13-1.26-.11-1.88q.16-6.82.37-13.64c.06-1.87.25-3.75.18-5.62a5.78,5.78,0,0,0-.84-2.66c-.78-1.3-2.19-1.09-3.47-1.07-5.51.08-10.84,1.43-16.24,2.23-3.53.52-7.08.86-10.62,1.28-.61.07-1.23.15-1.85.25s-.86-.12-.93-.81a8.5,8.5,0,0,1,1.44-.58c2.84-.59,5.67-1.19,8.52-1.69,2-.34,3.94-.56,5.91-.8,2.84-.35,5.68-.77,8.53-1,3.73-.23,7.48-.26,11.34-.38a12.14,12.14,0,0,1,.09,4.33c-.38,3.13-.85,6.25-1.16,9.39-.41,4-.69,8.08-1,12.12a2,2,0,0,1-.15.45Z"/><path class="cls-3" d="M201.72,218.15a10.18,10.18,0,0,1-1.46.34c-2.74.17-5.5.18-8.22.48-3.93.43-7.88,0-11.8.42-2.87.3-5.73.86-8.59,1.3l-.87.09c-.05-.61-.09-1.16-.14-1.83,2.14-.22,4.17-.49,6.22-.63,4.41-.29,8.83-.48,13.24-.78,2.19-.16,4.37-.45,6.55-.73,1.65-.21,2.29-1.14,2.2-2.88,0-.72.2-1.45.22-2.18s.4-.88,1-.72l1.62.36Z"/><path class="cls-3" d="M236,129.93c-.1.3-.11.68-.3.89a22.82,22.82,0,0,1-7.22,5.12,41.66,41.66,0,0,1-10.22,2.9c-2.31.42-4.67.52-7,.86a17.06,17.06,0,0,1-5.29,0,6,6,0,0,1-3.27-1.34c.25-.21.44-.49.68-.54a14.89,14.89,0,0,1,5.2-.05,33.73,33.73,0,0,0,14.34-1.1c4.13-1.27,8-3.13,10.83-6.61.63-.77,1.23-.74,2.26-.06Z"/><path class="cls-3" d="M105.73,191.56a10,10,0,0,1,1,3.42c.11,2.45.4,4.9.62,7.44-3.86-1.23-8-1.91-11.53-4.52a8.21,8.21,0,0,1,3-1.14,27.75,27.75,0,0,0,4.44-1.55,4,4,0,0,0,2.56-3.67Z"/><path class="cls-3" d="M153.41,228.48l-.33-3.1c4.22-.61,8.51-.42,12.8-1.6,0,.52,0,1,0,1.54-.08,1.13-.38,1.59-1.51,1.8-1.9.36-3.83.6-5.74.88-1.47.21-2.93.42-4.4.6A3.31,3.31,0,0,1,153.41,228.48Z"/><path class="cls-3" d="M78.79,102.1a4,4,0,0,1,.08-3.32,2.21,2.21,0,0,1,1-1,11.64,11.64,0,0,1,5.28-1.2,17.94,17.94,0,0,1,2.73.16c1.16.13,1.27.3,1.3,1.47,0,.5.16,1,.16,1.48a9.5,9.5,0,0,1-.24,1.42c-1.91-1.82-3.88-1.52-5.81-.88C81.79,100.69,80.36,101.42,78.79,102.1Z"/><path class="cls-3" d="M200.93,220.55c-.41,1.81-.41,1.91-2.17,2-2.55.11-5.12.09-7.68.06-2.16,0-4.33-.14-6.49-.28s-4.11-.39-6.17-.58l0-.28c1-.07,2-.17,3-.19,3.56,0,7.13,0,10.69-.11,3-.09,5.93-.38,8.9-.59Z"/><path class="cls-3" d="M164.37,165.06c0,.63,0,.95-.06,1.27a2.21,2.21,0,0,1-.39.13l-11,1c-1,.08-1,0-.82-1.26Z"/><path class="cls-3" d="M130.9,169.48V168.3a95,95,0,0,1,11.16-1c.37,1.21.35,1.29-.63,1.37-2.6.2-5.2.37-7.8.56C132.77,169.28,131.92,169.38,130.9,169.48Z"/><path class="cls-3" d="M131.85,211.5c-.13-.15-.36-.29-.37-.46-.32-3.4-.59-6.81-.92-10.22-.29-3-.69-6.08-.95-9.13-.2-2.3-.25-4.62-.36-6.93l.36,0c.39,4.46.71,8.93,1.17,13.38s.92,8.93,1.05,13.41Z"/><path class="cls-3" d="M145.1,163.92l-.6-3.78,4-.79c-.18,1-.37,1.84-.47,2.69C147.82,163.75,146.45,163.64,145.1,163.92Z"/><path class="cls-3" d="M162.62,67.6a23.06,23.06,0,0,0-3.75,5.48,2,2,0,0,1-.24.27h0a15.63,15.63,0,0,0-.71-5.68c1,1,1.94.12,2.89.1.61,0,1.22-.1,1.84-.15Z"/><path class="cls-4" d="M198.2,182.23V180l2.9.33a4,4,0,0,1-2.92,1.87Z"/><path class="cls-3" d="M204.16,191.91c-.16-.32-.48-.65-.45-.94.13-1,.38-2,.59-3a1.34,1.34,0,0,1,.17-.31l.25.1-.3,4.08Z"/><path class="cls-3" d="M216,121.71v-1.19l1,.4Z"/><path class="cls-3" d="M188.69,208l1-.43,0,0-1.05.43Z"/><path class="cls-3" d="M112.22,214.83l.79,0,0,.14-.75-.2Z"/><path class="cls-3" d="M118.48,54.45l-.06.1a1.4,1.4,0,0,1-.09-.17s0-.07,0-.1Z"/><path class="cls-3" d="M203.28,193c.06,0,.14-.06.17,0s.09.13.13.2-.17.07-.21,0S203.3,193,203.28,193Z"/><path class="cls-3" d="M227.24,106l.16.13a.77.77,0,0,1-.19.08s-.06,0-.09-.07Z"/><path class="cls-3" d="M192.31,78l-.05-.08a.41.41,0,0,1,.11-.07s0,.07,0,.1S192.33,78,192.31,78Z"/><path class="cls-3" d="M204.73,186.76l-.09.33-.11-.13.23-.17Z"/><path class="cls-3" d="M236.05,130l.09-.12s0,0,0,.06l-.09,0Z"/><path class="cls-3" d="M73.46,152.22l-.1-.06.08.08Z"/><polygon class="cls-3" points="227.1 105.52 227.18 105.49 227.17 105.56 227.1 105.52"/><polygon class="cls-3" points="20.45 158.55 20.48 158.63 20.41 158.62 20.45 158.55"/><path class="cls-3" d="M191.46,159.46h0Z"/><polygon class="cls-3" points="179.31 100.46 179.33 100.53 179.26 100.53 179.31 100.46"/><path class="cls-3" d="M75.16,161.93l0,.16s0-.05,0-.06a.46.46,0,0,1,.07-.07Z"/><path class="cls-3" d="M141.89,164.93l0,.24-.14-.14Z"/><path class="cls-3" d="M162.35,90.4l-.14-.12.2.06Z"/><path class="cls-3" d="M202.68,176.53l.17.07s-.06,0-.08,0a.53.53,0,0,1-.06-.1Z"/><polygon class="cls-3" points="198.18 182.21 198.17 182.27 198.2 182.23 198.18 182.21"/><path class="cls-3" d="M235.29,87.1v.29a.67.67,0,0,1,0-.19S235.27,87.13,235.29,87.1Z"/><path class="cls-3" d="M71.71,79.1,71.57,79s.06,0,.07,0a.25.25,0,0,1,0,.09Z"/><path class="cls-3" d="M192.71,78.61l0-.08,0,.07Z"/><polygon class="cls-3" points="105.78 190.75 105.81 190.8 105.76 190.74 105.78 190.75"/><polygon class="cls-3" points="105.75 191.54 105.72 191.46 105.73 191.56 105.75 191.54"/><path class="cls-3" d="M187.69,129.41v0Z"/><polygon class="cls-3" points="158.63 73.35 158.59 73.4 158.63 73.35 158.63 73.35"/><path class="cls-3" d="M49.63,196.28l.17.09-.16-.1Z"/><path class="cls-3" d="M182.43,201.27h0Z"/><path class="cls-3" d="M189.73,207.6l0-.17s0,0,0,.06a.24.24,0,0,1-.06.08Z"/><path class="cls-3" d="M234,128.2l0,0Z"/><path class="cls-3" d="M188.45,208.32l.24-.29,0,0-.23.29Z"/><path class="cls-3" d="M162.65,67.62l.08-.14s0,.06,0,.07l-.1,0Z"/><path class="cls-3" d="M131.83,211.52l.06.08s0,0,0,.05l0-.15Z"/><path class="cls-3" d="M233.79,127.93l.23.27,0,0-.27-.24Z"/><path class="cls-3" d="M201,220.57l.08-.08-.11.06Z"/><path class="cls-3" d="M104,65.58l-.07,0,.06,0Z"/><path class="cls-3" d="M158.88,64.09l0-.11.08.09-.11,0Z"/><polygon class="cls-3" points="155.09 121.89 155.08 121.96 155.11 121.91 155.09 121.89"/><path d="M131,127.1c-1-.22-1.94-.4-2.87-.69a.93.93,0,0,1-.52-.77c.1-.51.52-.58,1.07-.51a14,14,0,0,0,3,.11c5-.4,9.73-1.78,14.57-2.74.57-.11,1.15-.14,1.73-.2s.95,0,1.07.59-.32.74-.8.85c-2.42.55-4.85,1.07-7.25,1.71a78.25,78.25,0,0,1-8.75,1.45,8.55,8.55,0,0,1-1.24,0Z"/><path d="M146.63,127.38c-.37.26-.7.67-1.08.72-1.23.18-2.47.24-3.71.31a1.12,1.12,0,0,1-.69-.25c-.26-.22-.64-.53-.62-.78,0-.47.46-.51.93-.5,1.2,0,2.4-.08,3.59-.16C145.92,126.66,145.92,126.63,146.63,127.38Z"/><path d="M191.46,159.48h0Z"/><path d="M146.2,87.6a13.43,13.43,0,0,1-.32,1.72,28.28,28.28,0,0,1-1.29,3.58,19.29,19.29,0,0,1-5.45,6.45,7.8,7.8,0,0,1-9.83.55,21.66,21.66,0,0,1-5.37-5.52,8,8,0,0,0-1.47-1.22c-.25-.21-.48-.46-.72-.69.32-.19.63-.56.94-.56a45.79,45.79,0,0,1,5.11.29,16.42,16.42,0,0,0,8.56-1.35c2.7-1.11,5.39-2.28,8.08-3.41C145.1,87.17,145.79,86.83,146.2,87.6Zm-8.14,4.52c-2.9,1-5.76,2.16-9.18,1.78.4.51.55.86.81,1,.91.5,1.72,1.49,2.92.94a21.06,21.06,0,0,0,3.55-2c.67-.49,1.72-.7,1.88-1.77l.06,0Zm5.77-1.74a6.27,6.27,0,0,0-1,.51c-1.35,1.1-2.65,2.26-4,3.31a31.75,31.75,0,0,1-3.5,2.33c-1.87,1.07-3.79,2-5.84.31,0,0-.15,0-.39,0,0,.28-.08.75.06.83,1.8,1.05,3.58,2.22,5.85,1.59a7.1,7.1,0,0,0,3-1.63c2.31-2.14,4.57-4.3,5.8-7.29l0,0Z"/><path d="M134.82,67.09c.38-.32.71-.78,1.15-.94a25.37,25.37,0,0,1,7.64-1.52,14.8,14.8,0,0,1,3.9.72c1,.24,1.87.69,2.82,1a5.39,5.39,0,0,1,2.47,2c.39.47.09,1-.57,1a7.17,7.17,0,0,1-1.92-.46,23.64,23.64,0,0,0-8.87-1.28,28.86,28.86,0,0,0-5.25.54,1,1,0,0,1-1.35-.72h0V67.1Z"/><path d="M124.81,84.61a19.06,19.06,0,0,1,1.94-7.73,21.94,21.94,0,0,0,1.12-3.53A3.74,3.74,0,0,0,127,69.8c-.17-.19-.12-.58-.18-.87.35-.06.75-.26,1-.14a3.08,3.08,0,0,1,1.65,2.61,9,9,0,0,1-.39,4.52c-.71,1.88-1.27,3.81-1.83,5.74a9.62,9.62,0,0,0-.27,2.21,2.89,2.89,0,0,0,1.36,2.35,11.48,11.48,0,0,1,1.39,1.21c.22.26.2.72.28,1.1-.36.07-.8.3-1.09.18-1.81-.78-3.48-1.77-4.11-3.83h0V84.6Z"/><path d="M123.15,69.34a5.75,5.75,0,0,1-1.18,0,15.46,15.46,0,0,0-10.68,1.55,1.52,1.52,0,0,1-1,.12c-.18-.08-.26-.56-.25-.86,0-2.07,1.66-2.66,3.13-3.31a11.28,11.28,0,0,1,7.79-.14c.48.13.94.32,1.41.49C123.63,67.65,123.72,67.89,123.15,69.34Z"/><path d="M162.39,83.59c-1.52-1-.08-2.76-1.29-4a10.88,10.88,0,0,1-.24,1.37c-.06.2-.29.53-.4.51s-.58-.21-.63-.4a4.19,4.19,0,0,1-.14-1.57,7.34,7.34,0,0,1,2.25-4.07,20.85,20.85,0,0,1,3.34-2.54,4.2,4.2,0,0,1,1.74-.51.89.89,0,0,1,.72.47.9.9,0,0,1-.37.77c-.54.38-1.17.63-1.72,1a12.44,12.44,0,0,0-3.46,3.32C164,80,164.11,82.51,162.39,83.59Z"/><path d="M141.07,73.57a23.39,23.39,0,0,1,2.69.92c1,.46,1.92,1.11,2.9,1.63a.75.75,0,0,1,.42,1,.78.78,0,0,1-1.15.38c-1-.43-1.92-1-2.9-1.38-1.34-.55-2.72-1.12-4.17-.49a11.74,11.74,0,0,0-1.94,1.3,7.88,7.88,0,0,1-.86.69,3.9,3.9,0,0,1-1,.23c0-.37-.15-.87,0-1.1A7.56,7.56,0,0,1,141.07,73.57Z"/><path d="M116.94,75.31a12.1,12.1,0,0,1,5,1.32,1.48,1.48,0,0,1,.64.55c.42.61.15,1.17-.6,1.2a4,4,0,0,1-1.22-.23c-.79-.23-1.57-.52-2.37-.75a4.89,4.89,0,0,0-4.18.86c-.43.27-.8.54-1.18.08a.83.83,0,0,1,.17-1.29C114.36,76.08,115.55,75.19,116.94,75.31Z"/><path d="M138.07,79.35c-.39-.44-.48-1,.09-1.22a21.47,21.47,0,0,1,2.79-1c.15,0,.39.23.69.43-1,1.19-2.36,1.3-3.56,1.77Z"/><path d="M118.22,78.91c0,.14,0,.27,0,.29-.27.16-.59.45-.82.4-.66-.16-1.33.74-1.94,0-.26-.32-.31-.82.12-.92a12.61,12.61,0,0,1,2.38-.2C118,78.46,118.14,78.78,118.22,78.91Z"/><path d="M120.3,92.23c-.7.09-.94-.26-1-.84a1.2,1.2,0,0,1,.78-1.26.61.61,0,0,1,.56.05.77.77,0,0,1,.2.62A12.1,12.1,0,0,1,120.3,92.23Z"/><path d="M147.5,85.62c.87,0,1.62.56,1.54,1a.85.85,0,0,1-.51.57c-.42.12-1.5-.73-1.42-1.08A1.51,1.51,0,0,1,147.5,85.62Z"/><path d="M124.81,84.88v-.27h0v.29Z"/><path d="M138.08,79.35l-.07,0,.06,0Z"/><path d="M134.84,67.36l0-.27h0v.26Z"/><path d="M139.21,184c-.06,0-.46-.26-.45-.45a1.06,1.06,0,0,1,.52-.76,6.86,6.86,0,0,1,1.44-.33,103.56,103.56,0,0,1,12-1.74c.9-.06,1.8-.3,2.7-.39a2.37,2.37,0,0,1,.88.28c-.16.29-.27.77-.5.84a24.39,24.39,0,0,1-3.47.85c-3,.45-6,.82-8.95,1.21C142.09,183.66,140.78,183.8,139.21,184Z"/><path d="M139.45,188c-.41-.2-1.17-.38-1.19-.62-.06-.82.8-.75,1.28-.83q4.31-.63,8.63-1.12c2.18-.26,4.36-.45,6.53-.65a3.82,3.82,0,0,1,1.12,0c.24.05.57.27.6.46a.82.82,0,0,1-.35.7,2.7,2.7,0,0,1-1.07.24l-11.24,1.14c-1.4.15-2.8.33-4.2.49Z"/><path d="M145.54,189.15c.22-.26.34-.57.51-.59a26.36,26.36,0,0,1,2.94-.29c.22,0,.54.31.63.55s-.29.59-.46.59C148,189.43,146.82,190,145.54,189.15Z"/><path d="M72.87,132c-3.59.12-5.6-.82-7.34-2.5A11.23,11.23,0,0,1,61.81,123a3,3,0,0,1,2.42-3.57,10.52,10.52,0,0,1,3.67,0c2.93.47,5.81,1.19,8.73,1.65a15.92,15.92,0,0,0,3.58-.08c1.49-.1,2.14.58,1.74,2a14.75,14.75,0,0,1-3.56,6.45A8.94,8.94,0,0,1,72.87,132Zm3.32-3.22a5.31,5.31,0,0,0-1.08-1.23,26.28,26.28,0,0,0-3.45-1.7A13.69,13.69,0,0,1,66,121.87c-.37-.45-.64-.87-1.3-.58a1.15,1.15,0,0,0-.81,1.36,6,6,0,0,0,.55,2A18,18,0,0,0,67,128a7.36,7.36,0,0,0,2.71,1.66A7.74,7.74,0,0,0,76.19,128.74Zm2.1-6-.05-.29a28.83,28.83,0,0,1-3.48,0c-1.84-.22-3.66-.62-5.49-.93l-2.09-.34-.09.27a34.37,34.37,0,0,0,3.07,2.07c1.7.9,3.5,1.55,5.43.66C76.51,123.71,77.39,123.2,78.29,122.72Z"/><path d="M69.65,106.39c-2,.16-3.42,1.37-4.87,2.54-.16.14-.28.37-.45.42a7,7,0,0,1-1.13.21c0-.4-.05-.93.17-1.19,2.17-2.55,4.82-4.14,8.3-4a2.62,2.62,0,0,0,2.42-.94c.26-.35.67-.76,1.14-.33s.19.85-.15,1.2a14.49,14.49,0,0,0-2,2c-.45.72-.46,1.7-.86,2.46a11.4,11.4,0,0,1-1.74,2.4,1.5,1.5,0,0,1-1.32.38,1.44,1.44,0,0,1-.73-1.15,20.75,20.75,0,0,1,.76-3c.11-.39.27-.75.41-1.13h.06Z"/><path d="M39.46,122.81c-1.59.15-1.64,0-2.19-1.1a4.67,4.67,0,0,1-.12-3.5,1.25,1.25,0,0,0-.55-1.57,29.55,29.55,0,0,0-3.3-2,3.27,3.27,0,0,0-1.53,0c-.28,0-.55.22-.83.23a3.24,3.24,0,0,1-.9-.2c.09-.32.08-.83.29-1a5.86,5.86,0,0,1,2.12-.89c1.85-.22,3.37.72,4.78,1.74a2.93,2.93,0,0,0,1.85.83c.51,0,.82.22.82.83a1.83,1.83,0,0,0,.42.85,14.18,14.18,0,0,1,1,1.52.79.79,0,0,1-1,1.13A7.7,7.7,0,0,1,39,119C38.3,120.33,39.44,121.5,39.46,122.81Z"/><path d="M72.36,99.52c-.36.76-.91.7-1.52.75-1.6.12-3.19.31-4.77.55A10.68,10.68,0,0,0,61,103.43c-.78.64-.78.63-1.55,0a8.16,8.16,0,0,1,3.38-3.28c2.39-1.44,5.05-1.58,7.74-1.5A1.87,1.87,0,0,1,72.36,99.52Z"/><path d="M182.44,201.29h0Z"/><path d="M203.44,112.5c2.4.21,4.25-1.1,6.07-2.28a58.79,58.79,0,0,0,5.21-4,12.28,12.28,0,0,0,3.82-4.4.66.66,0,0,1,1-.37c.23.15.43.8.31.94-1.06,1.28-.64,2.88-1,4.3-.48,1.75-.81,3.55-1.34,5.28a6.77,6.77,0,0,1-2.28,3.45,5.61,5.61,0,0,1-4.92.94c-2.42-.55-4.8-1.25-7.18-2a3.46,3.46,0,0,1-1.28-.88.81.81,0,0,1-.17-.75.93.93,0,0,1,.7-.35A4.93,4.93,0,0,1,203.44,112.5Zm14.06-6.34-.28.23c-.64.74-1.64,1.4-1.84,2.24a11.44,11.44,0,0,1-1.58,3.3,6.47,6.47,0,0,0-1.28,3,3.11,3.11,0,0,0,2.24-1.26,15,15,0,0,0,2.44-7.25l.31-.23h.05Zm-6,5-3.83,1.94.14.24a5.22,5.22,0,0,0,3.67-2.2l.07-.08s0,0,0-.07Z"/><path d="M210.66,90.11l2.47,2c.83-.12,1.35-1.42,2.64-1.11-.09.36-.07.71-.24.88a11.36,11.36,0,0,1-7.71,3.45s-.07,0-.17-.09c-.37-.66,0-1,.59-1.16l-1.37-2c-.88.24-1.23,1.13-1.8,1.79-.35.4-.5,1.33-1.19,1s-.15-1.15.11-1.61a8.66,8.66,0,0,1,5.57-4.6,10,10,0,0,1,5.46.24c.27.1.46.4.69.6-.26.22-.5.57-.8.64a5.61,5.61,0,0,1-1.36,0Z"/><path d="M202.74,90.28c-.29-.35-.53-.61-.74-.9a1.28,1.28,0,0,1-.1-1.51,12,12,0,0,1,8.3-5.75,13.2,13.2,0,0,1,3.2-.21c.5,0,1.42.07,1.29.82a2.11,2.11,0,0,1-1.22,1.41,25,25,0,0,0-7.94,4c-.69.52-1.32,1.13-2,1.67A6.14,6.14,0,0,1,202.74,90.28Z"/><path d="M206.78,109.62c-2.22,0-4-2-4.56-3.91a43.18,43.18,0,0,1-1-5.47,22.72,22.72,0,0,0-1.52-6.5c-.12-.26,0-.66.07-1,.33.1.82.1,1,.32a9.75,9.75,0,0,1,1.39,2.6c.47,1.7.7,3.47,1.07,5.21.31,1.45.67,2.89,1,4.32a3.35,3.35,0,0,0,1.78,2,1.83,1.83,0,0,0,1.73.2c.31-.13.79.15,1.19.24-.13.44-.13,1-.42,1.27A6.69,6.69,0,0,1,206.78,109.62Z"/><path d="M191.68,99.38,189.53,102c-.72-.25-.69-.77-.51-1.33a5.25,5.25,0,0,1,2.84-3.11,9.44,9.44,0,0,1,6.38-.67c.46.1.81.26.77.77s-.54.53-.95.54c-.74,0-1.48,0-2.56,0l2.08,2a6.06,6.06,0,0,1-1.35,1.17,24.3,24.3,0,0,1-3.13,1.13,1.49,1.49,0,0,1-2-.54l1.76-.82-1.17-1.74.06,0Z"/><path d="M196.41,92.13l.58,1.3c-.55.16-1,.36-1.52.45-1.38.23-2.78.43-4.17.61a5.54,5.54,0,0,0-4.14,2.64,2.93,2.93,0,0,1-.4.47,1.61,1.61,0,0,1-.31.19,1.54,1.54,0,0,1-.39-2.22c1.95-3.71,5.42-4.59,9.17-4.94a2.33,2.33,0,0,1,1.09.21,3.64,3.64,0,0,1,.71.56Z"/><path d="M226,88.68c1.46.69,1.44,1.95,1.79,3a1.69,1.69,0,0,1,.08.86,4.75,4.75,0,0,1-.44,1c-.35-.24-.86-.41-1-.74a10.49,10.49,0,0,1-.43-2.13c-.75,1.69-.19,3.53-1.52,5.17a4.94,4.94,0,0,1-.45-1.18,10.52,10.52,0,0,1,0-2.1,26.55,26.55,0,0,1,1.73-7.7,5.29,5.29,0,0,1,3.07-3.19c.38-.13.8-.33.94.1a1.12,1.12,0,0,1-.38,1,4.7,4.7,0,0,0-2.08,2.39C226.79,86.29,226.41,87.46,226,88.68Z"/><path d="M211.78,96.27a2.76,2.76,0,0,1-2.14,1.5c-.23,0-.53-.24-.81-.37.13-.24.19-.59.39-.69a8.21,8.21,0,0,1,1.72-.68C211.15,96,211.43,96.16,211.78,96.27Z"/><path d="M195.27,104.38l-1-.66a4.23,4.23,0,0,1,.84-.75,4.34,4.34,0,0,1,1.28-.4c.16,0,.47.05.52.17s.09.55,0,.64A18.89,18.89,0,0,1,195.27,104.38Z"/><path d="M194.87,172.18l.77.51c-.31.33-.57.85-.94.95-1.63.44-3.3.76-5,1.12l-1.2.26c-.4.09-.85.29-1-.3a.77.77,0,0,1,.62-1c.72-.21,1.43-.43,2.16-.59C191.77,172.78,193.24,172.5,194.87,172.18Z"/><path d="M190.64,176.8l-.37,0c-.58-.11-1.39,0-1.39-.87s.78-.66,1.32-.71c.94-.09,1.89-.2,2.83-.21a1.17,1.17,0,0,1,.9.41c.21.47-.19.78-.62.88C192.35,176.49,191.37,176.66,190.64,176.8Z"/><path class="cls-3" d="M143.83,90.38c-1.23,3-3.49,5.15-5.8,7.29a7.1,7.1,0,0,1-3,1.63c-2.27.63-4.05-.54-5.85-1.59-.14-.08,0-.55-.06-.83.24,0,.35-.07.39,0,2.05,1.67,4,.76,5.84-.31a31.75,31.75,0,0,0,3.5-2.33c1.38-1,2.68-2.21,4-3.31a6.27,6.27,0,0,1,1-.51Z"/><path class="cls-3" d="M138,92.12c-.16,1.07-1.21,1.28-1.88,1.77a21.06,21.06,0,0,1-3.55,2c-1.2.55-2-.44-2.92-.94-.26-.14-.41-.49-.81-1,3.42.38,6.28-.78,9.18-1.78Z"/><polygon class="cls-3" points="138.06 92.12 138.1 92.09 138.04 92.12 138.06 92.12"/><polygon class="cls-3" points="143.83 90.38 143.87 90.33 143.83 90.38 143.83 90.38"/><path class="cls-3" d="M134.82,67.36v0Z"/><path class="cls-3" d="M124.8,84.89v0Z"/><path class="cls-3" d="M76.19,128.74a7.74,7.74,0,0,1-6.45.91A7.36,7.36,0,0,1,67,128a18,18,0,0,1-2.55-3.33,6,6,0,0,1-.55-2,1.15,1.15,0,0,1,.81-1.36c.66-.29.93.13,1.3.58a13.69,13.69,0,0,0,5.62,3.94,26.28,26.28,0,0,1,3.45,1.7A5.31,5.31,0,0,1,76.19,128.74Z"/><path class="cls-3" d="M78.29,122.72c-.9.48-1.78,1-2.7,1.41-1.93.89-3.73.24-5.43-.66a34.37,34.37,0,0,1-3.07-2.07l.09-.27,2.09.34c1.83.31,3.65.71,5.49.93a28.83,28.83,0,0,0,3.48,0Z"/><polygon class="cls-3" points="69.65 106.39 69.69 106.37 69.63 106.37 69.65 106.39"/><path class="cls-3" d="M217.2,106.38a15,15,0,0,1-2.44,7.25,3.11,3.11,0,0,1-2.24,1.26,6.47,6.47,0,0,1,1.28-3,11.44,11.44,0,0,0,1.58-3.3c.2-.84,1.2-1.5,1.84-2.24Z"/><path class="cls-3" d="M211.5,111.18a5.22,5.22,0,0,1-3.67,2.2l-.14-.24,3.83-1.94Z"/><path class="cls-3" d="M217.22,106.39l.28-.23h0l-.31.23Z"/><path class="cls-3" d="M217.5,106.16l.06,0h-.06Z"/><path class="cls-3" d="M211.52,111.2l0-.17s0,.06,0,.07l-.07.08Z"/><polygon class="cls-3" points="191.68 99.38 191.73 99.34 191.67 99.39 191.68 99.38"/><path class="cls-4" d="M246.39,80.16c8.47,1.46,15,9.25,14.3,17.92a17.68,17.68,0,0,1-5.39,11.29,9.36,9.36,0,0,1-2.66,2c-.5.19-1.2.3-.87-.46.23-.54,1.09-.75,1.59-.91a11.41,11.41,0,0,1,7.28.06,7.15,7.15,0,0,1,4.71,5.78,5,5,0,0,1-4.08,5.35c-1.42.16-1.44,2.42,0,2.25a7.16,7.16,0,0,0,6.06-5.19,8.25,8.25,0,0,0-2.15-7.79,11,11,0,0,0-8.36-3.27c-2.48.06-7,.61-7.37,3.72a2.48,2.48,0,0,0,1.45,2.68c1.43.61,3-.22,4.11-1.06a19.51,19.51,0,0,0,6.48-23A19.74,19.74,0,0,0,247,78c-1.41-.24-2,1.93-.6,2.17Z"/><path class="cls-4" d="M88.83,55.58c3.91-3.82,8.18-8.27,8.46-14.06s-3.57-10.67-7.82-14a31.35,31.35,0,0,0-30.9-4A34.14,34.14,0,0,0,38.86,47c-1.33,5.84-.4,11.86,4.32,15.92,4.1,3.52,9.55,5.11,14.84,5.68a38,38,0,0,0,19.26-3,37.08,37.08,0,0,0,4.33-2.26c1.12-.7,2.79-2.41,4.2-1.85,1,.38,1.62,1.63,2.23,2.39A5.9,5.9,0,0,0,90.88,66a1.13,1.13,0,0,0,1.38-1.38,26,26,0,0,0-3.2-8.75A1.12,1.12,0,0,0,87.12,57a24.37,24.37,0,0,1,3,8.22l1.39-1.39C89.75,63.27,89,61,87.6,60c-2.08-1.63-4.16-.54-6.1.75a35.46,35.46,0,0,1-15.15,5.59,33.85,33.85,0,0,1-15.69-1.64c-4.76-1.75-9.14-5.15-10-10.42s1.24-10.94,3.85-15.42A32.14,32.14,0,0,1,54.6,28.13,29.29,29.29,0,0,1,83.29,26.3c5,2.47,10.15,6.74,11.49,12.42C96.26,45,91.32,50,87.24,54c-1,1,.55,2.6,1.59,1.59Z"/><path class="cls-4" d="M179.71,62.85c5.23-7,6.34-16,6.11-24.45-.13-5.11-.69-10.21-.89-15.32-.16-4.29-.28-8.85,1.21-12.94,1.61-4.38,5.3-6.34,9.61-7.43,2.08-.52,4.43-.9,6.12.73A8.59,8.59,0,0,1,204,8.05c.85,4.35.33,9.19-.54,13.5a53.67,53.67,0,0,1-4.6,13.25C194.27,44.05,187.44,51.93,180,59c-1,1,.54,2.59,1.59,1.59,7-6.72,13.5-14.13,18.14-22.7s7.67-18.7,6.68-28.51c-.35-3.48-1.58-7.59-5.17-9-2.18-.84-4.56-.32-6.74.27a18.41,18.41,0,0,0-6.3,2.8c-3.4,2.57-4.82,6.69-5.34,10.78-.65,5.15-.18,10.44.19,15.6.76,10.76,1.54,22.69-5.32,31.82-.87,1.16,1.08,2.28,1.94,1.14Z"/><path class="cls-4" d="M12.66,156.31a33.42,33.42,0,0,0-6.67,22c.08,1.44,2.33,1.45,2.25,0a31.55,31.55,0,0,1,6.36-20.88c.87-1.15-1.08-2.27-1.94-1.13Z"/><path class="cls-4" d="M.81,167.29A17.73,17.73,0,0,0,.55,177a1.13,1.13,0,0,0,2.17-.59,15.55,15.55,0,0,1,.26-8.5c.43-1.39-1.74-2-2.17-.6Z"/></g></g></svg>