<svg xmlns="http://www.w3.org/2000/svg" xmlns:xlink="http://www.w3.org/1999/xlink" viewBox="0 0 1867.68 575.03"><defs><style>.cls-1{fill:#f0f5f7;}.cls-2{fill:#333;}.cls-3{fill:url(#linear-gradient);}.cls-4{fill:url(#linear-gradient-2);}.cls-5{fill:url(#linear-gradient-3);}.cls-6{fill:url(#linear-gradient-4);}</style><linearGradient id="linear-gradient" x1="143.38" y1="-29.21" x2="457.93" y2="229.22" gradientUnits="userSpaceOnUse"><stop offset="0" stop-color="#32a071"/><stop offset="0.07" stop-color="#2da771"/><stop offset="0.48" stop-color="#15cf74"/><stop offset="0.8" stop-color="#06e775"/><stop offset="1" stop-color="#00f076"/></linearGradient><linearGradient id="linear-gradient-2" x1="569.39" y1="285.81" x2="334.52" y2="287.19" gradientUnits="userSpaceOnUse"><stop offset="0" stop-color="#00a0ff"/><stop offset="0.01" stop-color="#00a1ff"/><stop offset="0.26" stop-color="#00beff"/><stop offset="0.51" stop-color="#00d2ff"/><stop offset="0.76" stop-color="#00dfff"/><stop offset="1" stop-color="#00e3ff"/></linearGradient><linearGradient id="linear-gradient-3" x1="602.29" y1="293.66" x2="390.28" y2="277.03" gradientUnits="userSpaceOnUse"><stop offset="0" stop-color="#ffe000"/><stop offset="0.41" stop-color="#ffbd00"/><stop offset="0.78" stop-color="orange"/><stop offset="1" stop-color="#ff9c00"/></linearGradient><linearGradient id="linear-gradient-4" x1="574.68" y1="261.28" x2="166.6" y2="532.18" gradientUnits="userSpaceOnUse"><stop offset="0" stop-color="#ff3a44"/><stop offset="1" stop-color="#c31162"/></linearGradient></defs><g id="Layer_2" data-name="Layer 2"><g id="Layer_1-2" data-name="Layer 1"><rect class="cls-1" width="1867.68" height="575.03" rx="137.18"/><path class="cls-2" d="M734.9,191q0,12.9-7.64,20.56-8.68,9.1-22.62,9.11a31.71,31.71,0,0,1-32-32.16,31.73,31.73,0,0,1,32-32.17,31.76,31.76,0,0,1,12.64,2.58,25.63,25.63,0,0,1,9.63,6.88l-5.41,5.42q-6.12-7.31-16.86-7.31a23.4,23.4,0,0,0-16.82,6.84q-7.1,6.84-7.09,17.76t7.09,17.76a24.54,24.54,0,0,0,34,0c3-3,4.7-7.14,5.16-12.48H704.64v-7.39h29.83A26.1,26.1,0,0,1,734.9,191Z"/><path class="cls-2" d="M782.21,165.29h-28v19.52h25.28v7.4H754.17v19.52h28v7.56h-36V157.72h36Z"/><path class="cls-2" d="M815.57,219.29h-7.92v-54h-17.2v-7.57h42.32v7.57h-17.2Z"/><path class="cls-2" d="M863.38,219.29V157.72h7.91v61.57Z"/><path class="cls-2" d="M906.39,219.29h-7.92v-54h-17.2v-7.57h42.31v7.57H906.39Z"/><path class="cls-2" d="M1003.68,211.34a32,32,0,0,1-45.15,0,33.27,33.27,0,0,1,0-45.66,31.86,31.86,0,0,1,45.11,0,33.16,33.16,0,0,1,0,45.62Zm-39.3-5.16a23.67,23.67,0,0,0,33.45,0q6.84-6.92,6.84-17.67t-6.84-17.68a23.67,23.67,0,0,0-33.45,0q-6.82,6.93-6.84,17.68T964.38,206.18Z"/><path class="cls-2" d="M1023.86,219.29V157.72h9.63l29.92,47.9h.34l-.34-11.87v-36h7.92v61.57h-8.26l-31.31-50.22h-.34l.34,11.87v38.35Z"/><path class="cls-2" d="M947.51,309.1a44,44,0,0,0-31.14,12.52,44.44,44.44,0,0,0,1.55,63.66,45,45,0,0,0,57.76,1.22,43.05,43.05,0,0,0,15.64-33.75,43,43,0,0,0-43.81-43.65Zm0,70.1c-13.22,0-24.63-10.91-24.63-26.45,0-15.71,11.41-26.45,24.63-26.45s24.63,10.74,24.63,26.45C972.14,368.29,960.74,379.2,947.51,379.2Zm-95.57-70.1a44.67,44.67,0,0,0-24.48,7.15c-11.65,7.59-19.34,20.69-19.34,36.5A43.19,43.19,0,0,0,821,384a45,45,0,0,0,57.6,3.69,43,43,0,0,0,17.17-34.94,44.13,44.13,0,0,0-5.94-22.45C882.21,317.3,868.07,309.1,851.94,309.1Zm0,70.1c-13.23,0-24.64-10.91-24.64-26.45,0-15.71,11.41-26.45,24.64-26.45s24.63,10.74,24.63,26.45C876.57,368.29,865.16,379.2,851.94,379.2Zm-113.7-56.7V341h44.31c-1.32,10.42-4.79,18-10.08,23.31-6.45,6.45-16.54,13.56-34.23,13.56-27.28,0-48.6-22-48.6-49.27s21.32-49.26,48.6-49.26a47.22,47.22,0,0,1,33.4,13.22l13.06-13.06c-11.08-10.58-25.79-18.68-46.46-18.68a68.74,68.74,0,0,0-35,9.61c-20.06,11.86-33.76,33.5-33.76,58.17,0,25.45,14.58,47.68,35.68,59.27a68.62,68.62,0,0,0,33.1,8.52c20.17,0,35.38-6.61,47.29-19,12.23-12.24,16-29.43,16-43.32a60.43,60.43,0,0,0-1-11.57H738.24Zm465,14.38c-3.64-9.75-14.72-27.78-37.37-27.78a40.4,40.4,0,0,0-25.73,9.08c-9.37,7.68-15.43,19.78-15.43,34.57,0,24.47,18.51,43.65,43.31,43.65a43.42,43.42,0,0,0,36.37-19.34l-14.88-9.92c-5,7.27-11.73,12.06-21.49,12.06s-16.7-4.46-21.16-13.22l58.36-24.14Zm-59.52,14.55c-.5-16.86,13.06-25.46,22.81-25.46,7.61,0,14.06,3.8,16.21,9.26l-20.39,8.46Zm-47.45,42.32h19.18V265.46h-19.18Zm-31.41-74.89h-.67c-4.29-5.13-12.56-9.76-23-9.76a40.87,40.87,0,0,0-27.31,10.95,44.38,44.38,0,0,0-14.51,32.87,43.93,43.93,0,0,0,19,36.17,40.31,40.31,0,0,0,22.82,7.31c10.42,0,18.69-4.63,23-9.92h.67v6.28c0,16.7-8.93,25.63-23.32,25.63-11.73,0-19-8.43-22-15.54l-16.7,6.94c4.79,11.57,17.52,25.79,38.68,25.79,22.49,0,41.5-13.22,41.5-45.46V311.75h-18.18Zm-22,60.34c-13.23,0-24.31-11.07-24.31-26.28,0-15.38,11.08-26.62,24.31-26.62,13.06,0,23.31,11.24,23.31,26.62C1066.15,368.13,1055.9,379.2,1042.84,379.2ZM1293,265.46h-45.88V393.75h19.14v-48.6H1293a43.85,43.85,0,0,0,32.36-14,39.05,39.05,0,0,0,.25-51.3A43.8,43.8,0,0,0,1293,265.46Zm.5,61.83H1266.3v-44h27.24a22.22,22.22,0,0,1,22.44,22C1316,315.25,1307.85,327.29,1293.54,327.29Zm118.34-18.42c-13.87,0-28.23,6.11-34.17,19.64l17,7.1c3.63-7.1,10.4-9.41,17.5-9.41,9.9,0,20,5.94,20.13,16.5V344a42.33,42.33,0,0,0-20-4.95,46.45,46.45,0,0,0-22.31,5.49c-8.6,4.79-14.66,12.67-14.66,23.4a26.41,26.41,0,0,0,11.15,21.75,35.19,35.19,0,0,0,20.7,6.47c12.88,0,20-5.78,24.43-12.54h.66v9.9h18.49V344.35c0-13.52-6-23.49-15.46-29.36C1428.9,311,1420.8,308.87,1411.88,308.87Zm-2.31,70.31c-6.28,0-15-3.14-15-10.89,0-9.91,10.89-13.7,20.3-13.7,8.41,0,12.38,1.81,17.49,4.29A23.21,23.21,0,0,1,1409.57,379.18Zm108.6-67.51-9.09,23-12.86,32.6h-.66l-22.78-55.63h-20.63l16.48,37.5,17.68,40.24-19.47,43.25h20l37.35-85.83,15.3-35.16Zm-172.48,82.08h19.15V265.46h-19.15Z"/><path class="cls-3" d="M524.29,242.75l-152.5-89.48A16.59,16.59,0,0,0,350,157.75L479.16,287.66Z"/><path class="cls-4" d="M346.78,407a16.38,16.38,0,0,0,3,9.47L479.16,287.66,350,157.75a16.34,16.34,0,0,0-3.23,9.84Z"/><path class="cls-5" d="M523.52,332.27l52.27-30.66a16.62,16.62,0,0,0,0-28.65l-51.5-30.21-45.13,44.91Z"/><path class="cls-6" d="M349.73,416.45a16.61,16.61,0,0,0,22.06,4.85l151.73-89-44.36-44.61Z"/></g></g></svg>